<?xml version="1.0" encoding="UTF-8"?>
<svg id="_레이어_2" data-name="레이어 2" xmlns="http://www.w3.org/2000/svg" viewBox="0 0 2165.04 2849.37">
  <defs>
    <style>
      .cls-1 {
        fill: #23468e;
      }

      .cls-1, .cls-2, .cls-3, .cls-4, .cls-5, .cls-6, .cls-7, .cls-8, .cls-9, .cls-10, .cls-11, .cls-12 {
        stroke-width: 0px;
      }

      .cls-2 {
        fill: #efdece;
      }

      .cls-3 {
        fill: #a4a4a2;
      }

      .cls-4 {
        fill: #bf6141;
      }

      .cls-5 {
        fill: #e88338;
      }

      .cls-6 {
        fill: #38843f;
      }

      .cls-7 {
        fill: #db6f26;
      }

      .cls-8 {
        fill: #f29f59;
      }

      .cls-9 {
        fill: #e0c7b1;
      }

      .cls-10 {
        fill: #bc4f44;
      }

      .cls-11 {
        fill: #efcb59;
      }

      .cls-12 {
        fill: #3857a5;
      }
    </style>
  </defs>
  <g id="Layer_1" data-name="Layer 1">
    <g>
      <rect class="cls-4" x="1169.32" y="370.19" width="51.74" height="2479.19"/>
      <g>
        <path class="cls-10" d="M1815.87,496.56c-4.56,29.43-35.97,79.69-35.97,79.69,0,0-13.39,1.52-30.54,4.99,6.55-16.96,35.05-55.73,36.56-73.85-30.57.32-132.32,6.42-170.04,12.71,0,0-3.35,52.11-26.91,75.75-17.02,1.64-25.6-3.31-25.6-3.31,0,0,21.89-34.16,26.01-69.76-34.23-.48-138.96,9.45-173.19,8.97-15.6,36.76-8.96,69.91-8.96,69.91l-20.95-2.93s-11.41-38.07-.56-69.71c-39.21-9.23-184.37-1.2-184.37-1.2l-33.29,134.81-.63,671.64s15.53,44.74,24.73,78.08c9.2,33.34,20.79,75.38,20.79,75.38,0,0,143.47-3.79,188.01-25.33,1.99-20.16-7.92-84.04-15.85-94.3,13.58-1.91,12.91-1.82,26.49-3.73-1.04,9.2,24.08,82.4,31.3,89.77,51.06.13,108.79-2.63,159.74,0-5.42-13.31-28.28-89.13-33.7-102.43,9.18-1.67,18.36-3.34,27.54-5.01,1.51,14.18,36.11,82.25,47.68,93.33,66.92.34,122.04-37.77,188.76-41.75-33.05-37.41-35.56-75.03-35.56-75.03l24.49-5.1c8.88,26.46,24.26,51.04,46.57,70.64,0,0,70.12-22,89.68-26.77,54.22-13.2,85.06-16.87,85.06-16.87,0,0-41.81-66.95-52.23-80.29,43.2-4.03,127.26-4.92,167.92,10.24,5.1-33.11,7.54-97.17,5.42-130.6-50.94-13.76-144-11.67-196.33-4.85-1.03-36.55-6.52-42.6-14.53-78.27,53.43-4.62,146.94-6.92,199.37,4.34,4.48-39.79-.25-77.92.14-117.96-44.29-13.35-150.53-14.82-206.7-8.36-.47-27.35,2.1-30.59-4.22-57.21,61.38-6.36,159.61-12.06,214.93,2.48,1.14-30.24-1.71-75.65-7.24-105.4-58.46-15.68-219.41-7.37-219.41-7.37l-.35-54.61s167.41,2.6,213.64,16.79c.48-31.41,4.38-113.35,4.38-113.35,0,0-117.92-26.8-204.56-26.8,0,0,18.68-91.64,15.84-93.15-3.49-1.86-120.16-8.26-143.35-4.24Z"/>
        <path class="cls-12" d="M1942.11,591.75l48.82,673.12c-127.76-2.67-253.86,32.29-388.2,44.22-140.05,12.43-288.6,2.42-434.67,28.22v-674.67c118.64-27.26,249.33-15.51,378.61-26.93,129.27-11.42,257.12-46.02,395.44-43.96Z"/>
        <path class="cls-10" d="M1371.95,1233.53v23.41c-39.59-.9-81.55,3.37-125.38,11.7v-23.41c41.79-7.62,83.58-11.52,125.38-11.7Z"/>
        <path class="cls-1" d="M1900.7,1191.73v23.41c-39.59-.9-81.55,3.37-125.38,11.7v-23.41c41.79-7.62,83.58-11.52,125.38-11.7Z"/>
        <path class="cls-6" d="M1548.3,1251.07l-3.74-23.11c-38.93,7.23-82.91,5.4-127.51,4.18l3.74,23.11c42.47.83,86.22,2.32,127.51-4.18Z"/>
        <path class="cls-8" d="M1722.77,1232.39l-3.74-23.11c-38.93,7.23-81.04,15.42-125.63,14.2l3.74,23.11c42.47.83,84.35-7.7,125.63-14.2Z"/>
        <path class="cls-10" d="M1361.25,703.21v23.41c-39.59-.9-81.55,3.37-125.38,11.7v-23.41c41.79-7.62,83.58-11.52,125.38-11.7Z"/>
        <path class="cls-6" d="M1890,661.41v23.41c-39.59-.9-81.55,3.37-125.38,11.7v-23.41c41.79-7.62,83.58-11.52,125.38-11.7Z"/>
        <path class="cls-1" d="M1537.6,720.76l-3.74-23.11c-38.93,7.23-82.91,5.4-127.51,4.18l3.74,23.11c42.47.83,86.22,2.32,127.51-4.18Z"/>
        <path class="cls-8" d="M1712.08,702.08l-3.74-23.11c-38.93,7.23-81.04,15.42-125.63,14.2l3.74,23.11c42.47.83,84.35-7.7,125.63-14.2Z"/>
        <rect class="cls-6" x="1875.93" y="1108.53" width="86.18" height="19.99" transform="translate(922.22 3103.5) rotate(-93.57)"/>
        <rect class="cls-8" x="1868.5" y="989.5" width="86.18" height="19.99" transform="translate(1033.13 2969.63) rotate(-93.57)"/>
        <rect class="cls-1" x="1861.14" y="871.64" width="86.18" height="19.99" transform="translate(1142.94 2837.1) rotate(-93.57)"/>
        <rect class="cls-10" x="1853.84" y="754.67" width="86.18" height="19.99" transform="translate(1251.93 2705.55) rotate(-93.57)"/>
        <path class="cls-8" d="M1819.53,771.52c-10.99,11.77-16.81,27.37-21.97,32.31-5.16,4.94-14.01,2.2-12.36-5.81,1.65-8.01,3.28-21.83,25.61-31.51,0,0-9.86-1.25-19.51,6.22-6.09,4.71-13.57,17.76-13.81,21.4-.61,9.41-8.72,10.27-8.4,16.38.31,6.13,1.07,13.29-3.49,17.39-5.33,4.79-15.08,2.36-19.51,8-8.52,10.84,16.85,26.32,8.52,37.3-3.98,5.25-13.52,4.62-16.06,10.7-1.51,3.61.4,7.62,1.56,11.36,2.4,7.76,1.41,16.52-2.67,23.54-.9,1.55-2,3.07-3.55,3.97-4.11,2.38-9.64-.79-11.48-5.17-1.84-4.38-1.07-9.37-.27-14.05-6.78.7-13.81,1.37-20.25-.84-6.45-2.21-12.14-8.16-11.75-14.96.2-3.49,1.93-6.78,1.92-10.28-.02-6.52-6.08-11.53-12.28-13.55-6.2-2.02-12.91-2.07-19.11-4.08-2.38-.78-4.82-1.97-6.07-4.14-2.65-4.6,1.33-10.62-.38-15.65-2.28-6.68-12.16-6.34-18.25-2.76-6.09,3.58-11.71,9.22-18.77,9.05-6.32-.15-11.39-4.93-16.75-8.28-5.36-3.35-13.39-4.94-17.25.07-3.6,4.66-1.11,12.16-4.83,16.72-4.01,4.92-12.23,3.12-17.48,6.68-4.76,3.24-5.66,9.7-7.2,15.25-1.54,5.55-5.73,11.72-11.42,10.84-5.07-6.97-.18-16.58,4.65-23.72,4.84-7.13,9.66-16.81,4.5-23.71-1.14-1.53-2.71-2.77-3.47-4.51-2.23-5.12,3.59-10.35,3.65-15.93.14-12.19-23.37-11.69-25.1-23.76-.48-3.32,1.02-6.73.31-10.01-1.35-6.25-9.27-8.15-15.67-8.29-6.39-.15-14.1-.52-17.22-6.11-1.11-1.98-1.41-4.36-2.67-6.25-2.91-4.38-9.5-4.28-14.33-2.22-4.83,2.06-9.1,5.56-14.25,6.61-11.22,2.28-23.5-7.63-33.57-2.19-5.24,2.83-7.93,9.07-13.11,12-9.74,5.51-24.84-2.25-31.93,6.41-3.74,4.57-3.04,11.86-7.31,15.94-5.43,5.19-14.84,1.78-21.48,5.29-12.07,6.37-5.46,28.29-16.93,35.7-3.53,2.28-8.01,2.52-11.82,4.3-10.79,5.03-10.88,23.45-.14,28.58,10.08,4.82,23.6,4.49,33.53-.62,9.94-5.11,18.4-12.61,27.55-19.03,18.15-12.74,40.7-17.88,59.37-29.85,9.08-5.82,21.81-3.9,30.08,3.04,8.26,6.93,12.36,17.94,12.73,28.72.36,10.78-2.64,21.41-6.61,31.44-3.39,8.58-7.56,17.12-8.11,26.33-.59,9.95,3.24,19.85,9.31,27.76,4.95,6.45,11.7,11.9,19.67,13.54,7.4,1.52,15.12-.36,22.03-3.42,25.93-11.48,43.18-38.69,70.29-46.98,14.16-4.33,33.95-6.73,43.27,4.78,11.73,14.49,24.69,28.23,40.23,38.52,15.54,10.29,33.91,16.98,52.54,16.36,18.63-.62,37.39-9.21,48.02-24.52,8.04-11.58,10.96-25.83,16.01-38.99,1.16-3.02,2.59-6.18,5.34-7.87,3.71-2.27,8.54-1.15,12.72-2.35,5.52-1.59,9.31-7.74,8.23-13.39-.69-3.59-2.94-7.59-2.09-10.77,38.93-5.05,41.98-42.18,41.98-42.18-6.05,9.05-14,21.75-24.57,25.29s-16.69-8.63-5.87-14.16c10.82-5.53,14.68-7.01,20.98-14.42,7.46-8.77,13.29-19.29,22.88-25.67,0,0-11.53-.39-21.97,12.05-5.97,7.11-11.73,8.3-14.84,7-6.06-2.51-7.99-8.36-2.11-17.47,5.88-9.11,19.41-20.23,31.37-25.51,0,0-9.84.54-20.76,6.32-9.88,5.23-20.8,15.57-23.09,18.8-4.81,6.8-11.97.82-7.03-8.53,4.94-9.35,17.89-25.76,35.23-32.55,0,0-15.48-4.84-33.15,14.09Z"/>
        <path class="cls-8" d="M1257.62,861.11c-2.12-1.9-4.39-4.48-3.63-7.22,6.83-.56,12.2,5.3,17.31,9.86,5.92,5.28,12.9,9.36,20.4,11.93-.05-2.01-1.45-3.7-2.89-5.1-6.34-6.14-2.56-13.29,3.57-5.04,3.09,4.16,31.83,23.76,25.99,28.49-8.28,6.7-54.57-27.38-60.76-32.92Z"/>
        <path class="cls-8" d="M1259.94,887.38c-2.12-1.9-4.39-4.48-3.63-7.22,6.83-.56,12.2,5.3,17.31,9.86,5.92,5.28,12.9,9.36,20.4,11.93-.05-2.01-1.45-3.7-2.89-5.1-6.34-6.14-2.56-13.29,3.57-5.04,3.09,4.16,31.83,23.76,25.99,28.49-8.28,6.7-54.57-27.38-60.76-32.92Z"/>
        <path class="cls-8" d="M1384.87,938.95c-1.39,3.58-1.14,7.56-.96,11.4,1.05,21.81-.61,43.76-4.94,65.16l1.71,12.76c1.7,4.85,4.1,9.71,8.24,12.75,4.15,3.04,10.43,3.66,14.24.21,3.14-2.84,3.83-7.59,3.07-11.75-.76-4.16-2.71-7.99-4.14-11.97-1.78-4.98-2.73-10.25-2.81-15.53-.03-1.78.09-3.69,1.2-5.09,2.43-3.07,7.29-1.51,11.14-2.2,5.46-.98,8.89-7.2,8.11-12.69-.78-5.5-4.81-10.07-9.5-13.04-4.48-2.85-10.55-6.05-9.81-11.31.25-1.78,1.31-3.32,2.06-4.95,2.88-6.3.52-14.53-5.25-18.35-1.09-.72-2.3-1.3-3.59-1.49-3.81-.55-7.38,2.52-8.77,6.1Z"/>
        <path class="cls-9" d="M1369.27,1028.38c-.36-1.24-1.28-2.22-2.17-3.16-2.5-2.61-5-5.22-7.5-7.83,3.72-1.32,8.06-3.37,8.5-7.29.64-5.68-7.13-8.37-9.58-13.53,2.18-.7,4.42-1.44,6.15-2.95,1.72-1.51,2.8-4,1.97-6.14-.43-1.11-1.3-1.98-2.14-2.81-2.46-2.43-4.92-4.86-7.38-7.29,3.29-.1,7.71-1.42,7.36-4.69-.09-.84-.53-1.59-1-2.29-1.53-2.27-3.54-4.21-5.86-5.67,3.73-.07,8.62-1.17,8.87-4.9.1-1.54-.75-3.01-1.9-4.05-4.24-3.85-11.53-1.93-15.12,2.53-3.59,4.46-4.38,10.51-4.7,16.23-.95,17.28,1.23,34.72,6.4,51.23,1.36,4.34,4.18,10.41,9.4,10.82,3.82.3,9.93-3.93,8.7-8.22Z"/>
        <path class="cls-1" d="M1509.08,791.59c26.14,17,39.21,50.49,10.36,101.28-8.13,14.32,1.43,19.09,16.25,11.94s24.79-21.34,37.31-32.03c18.79-16.05,47.04-23.9,68.6-11.82,18.17,10.18,26.87,31.01,37.24,49.06,10.37,18.05,27.35,36.27,48.06,34.16,21.69-2.21,34.73-25.63,38.47-47.11,3.73-21.48,2.21-44.44,11.88-63.98,9.67-19.54,37.62-32.48,53.41-17.44-28.54,23.79-13.91,69.08-16.49,106.15-2.16,31.07-19.67,61.11-46.62,76.73-26.95,15.62-62.75,15.55-88.69-1.7-24.84-16.52-43.73-48.18-73.54-47.01-32.42,1.27-48.64,40.24-76.9,56.18-21.32,12.03-50.13,8.97-68.46-7.27-18.32-16.24-24.81-44.48-15.42-67.09,6.85-16.51,15.25-60.09,2.34-72.45-10.33-9.89-20.96,10.46-29.85,21.66-31.03,39.08-26.94,147.09-29.15,149.55s-11.03,4.61-11.03,4.61c0,0-2.08-64.11-11.19-77.33-13.83-1.91-.87,79.26-.87,79.26,0,0-19.03,9.93-23.27,0-8.05-18.86-12.53-45.36-14.19-72.45-1.78-29.09-17.15-49.41-13.38-71.12,4.1-23.63,23.93-33.18,23.93-33.18,0,0,36.71-55.07,72.42-71.42,38.49-17.62,84.19-6.66,98.76,2.82Z"/>
        <g>
          <path class="cls-8" d="M1234.94,1086.08c-3.02,6.23-7.55,11.68-10.11,18.12-2.56,6.43-2.61,14.67,2.49,19.35,4.72,4.33,11.91,4.09,18.29,3.59-4.73,7.13-5.12,16.92-.97,24.4,4.15,7.49,12.65,12.35,21.2,12.12,5.91-.16,14.15-8.69,13.24-14.53,5.85,2.85,13.56-.19,16.68-5.91s1.91-13.21-2.11-18.33c-4.03-5.12-10.46-7.99-16.94-8.63,6.17-3.28,4.75-12.83.49-18.37-2.96-3.85-7.12-7.12-11.95-7.58-4.83-.46-10.16,2.71-10.84,7.51-3.45-4.41-.68-10.69.69-16.12,3.86-15.27-6.88-32.65-22.26-36.02,7.4,11.96,8.21,27.73,2.08,40.39Z"/>
          <path class="cls-6" d="M1299.78,1137.36c-3.94,6.69-3.9,15.06,1.99,20.11-6.2-1.97-10-.63-15.63,2.39-5.63,3.03-7.46,14.93-2.85,21.13,3.41,4.58,9.09,5.23,16.35,2.8-2.34,8.01,7.72,15.49,15.74,13.17,8.01-2.32,12.78-10.85,13.95-19.11,9.8,10.74,25.01,16.26,39.41,14.32,14.4-1.94,27.61-11.3,34.21-24.24-12.53,9.41-32.34,6.99-42.24-5.16-4.47-5.49-7.09-12.56-12.61-16.98-5.53-4.43-15.92-3.85-17.51,3.05,1.4-7.63-3.31-15.94-10.58-18.65-7.27-2.71-16.27.48-20.21,7.16Z"/>
          <path class="cls-10" d="M1321.26,1080.37c-2.66-4.86-9.27-5.88-14.75-5.06-6.47.96-13.05,4.05-16.19,9.78-3.13,5.74-1.28,14.27,4.81,16.65l-.85,1.03c-4.16,6.55-.11,16.1,6.93,19.36,7.04,3.26,15.64,1.25,22-3.2,2.63,7.41,11.17,11.99,18.92,10.66s14.1-8.05,15.6-15.77c1.5-7.72-1.6-16.02-7.39-21.35-2.05-1.89-4.45-3.49-5.98-5.82-4.51-6.87.7-16.27,7.5-20.88-11.77-4.89-26.99,2.37-30.6,14.58Z"/>
        </g>
        <g>
          <path class="cls-8" d="M1763.19,1156.07c6.19,3.09,11.58,7.7,17.99,10.34,6.4,2.64,14.64,2.79,19.38-2.25,4.39-4.66,4.24-11.85,3.83-18.24,7.07,4.82,16.85,5.33,24.39,1.28,7.54-4.05,12.5-12.49,12.39-21.05-.08-5.91-8.51-14.26-14.36-13.43,2.93-5.82-.02-13.56-5.7-16.75-5.68-3.19-13.18-2.08-18.35,1.88-5.17,3.96-8.12,10.36-8.85,16.83-3.2-6.21-12.76-4.91-18.36-.73-3.89,2.91-7.21,7.03-7.73,11.85-.52,4.83,2.58,10.19,7.37,10.93-4.46,3.39-10.7.55-16.11-.89-15.22-4.06-32.73,6.46-36.3,21.8,12.06-7.25,27.83-7.86,40.41-1.57Z"/>
          <path class="cls-6" d="M1815.29,1091.88c6.64,4.03,15.01,4.09,20.13-1.74-2.05,6.17-.76,9.99,2.2,15.66,2.96,5.67,14.83,7.65,21.09,3.12,4.62-3.35,5.34-9.02,3.01-16.31,7.98,2.44,15.59-7.53,13.37-15.57-2.22-8.04-10.69-12.92-18.94-14.19,10.86-9.66,16.58-24.8,14.82-39.23-1.76-14.43-10.95-27.75-23.81-34.52,9.25,12.65,6.58,32.43-5.69,42.17-5.55,4.4-12.64,6.93-17.14,12.4s-4.05,15.87,2.83,17.55c-7.62-1.5-15.98,3.11-18.78,10.35-2.8,7.24.27,16.27,6.91,20.3Z"/>
          <path class="cls-10" d="M1758.57,1069.69c-4.9,2.6-5.99,9.2-5.25,14.69.88,6.48,3.88,13.1,9.58,16.31,5.7,3.21,14.26,1.46,16.71-4.6l1.02.86c6.5,4.24,16.1.32,19.45-6.68,3.35-7,1.45-15.63-2.92-22.04,7.44-2.54,12.13-11.01,10.9-18.78-1.23-7.77-7.87-14.2-15.57-15.8-7.7-1.6-16.04,1.4-21.44,7.12-1.92,2.03-3.54,4.41-5.9,5.91-6.92,4.42-16.26-.91-20.78-7.77-5.03,11.7,2.02,27.01,14.19,30.79Z"/>
        </g>
        <g>
          <path class="cls-8" d="M1213.77,852.78c-3.01-3.92-6.98-7.07-9.7-11.19-2.72-4.13-3.95-9.88-1.07-13.89,2.67-3.71,7.73-4.59,12.26-5.17-4.34-4.3-6.04-11.08-4.23-16.92s7.05-10.47,13.06-11.55c4.15-.75,11.15,4.02,11.37,8.23,3.68-2.84,9.51-1.84,12.52,1.71,3.01,3.55,3.26,8.95,1.19,13.12-2.07,4.16-6.15,7.1-10.59,8.5,4.79,1.4,5.18,8.28,3.02,12.77-1.51,3.12-3.94,6.01-7.25,7.03-3.31,1.03-7.49-.42-8.67-3.68-1.77,3.59,1.08,7.57,2.83,11.17,4.92,10.11-.06,23.82-10.32,28.42,3.43-9.44,1.71-20.58-4.41-28.54Z"/>
          <path class="cls-6" d="M1251.65,807.51c-3.73-4.1-4.92-9.96-1.53-14.35-4.05,2.28-6.9,1.9-11.28.6s-7.39-9.35-5.07-14.35c1.72-3.7,5.59-4.97,11.02-4.33-2.8-5.26,3.15-11.95,9.09-11.5,5.94.46,10.51,5.73,12.53,11.33,5.29-8.93,15.12-15,25.47-15.74,10.35-.74,20.94,3.89,27.44,11.98-10.13-4.76-23.62-.19-28.78,9.74-2.33,4.49-3.13,9.81-6.35,13.7-3.22,3.9-10.57,5-12.68.41,2.09,5.13,0,11.62-4.69,14.57-4.69,2.95-11.44,2.03-15.17-2.07Z"/>
          <path class="cls-10" d="M1274.94,844.23c-1.15,3.79-5.63,5.46-9.58,5.68-4.66.27-9.71-.93-12.74-4.49-3.02-3.55-2.97-9.79.94-12.34l-.74-.6c-3.86-3.98-2.42-11.24,2.03-14.54,4.45-3.3,10.75-3.15,15.84-.96.76-5.56,6.06-10.01,11.68-10.2,5.61-.2,11.03,3.58,13.2,8.76,2.17,5.18,1.21,11.43-2.06,16-1.16,1.62-2.6,3.09-3.34,4.94-2.15,5.45,2.85,11.27,8.28,13.5-7.52,5.13-19.21,2.27-23.51-5.75Z"/>
        </g>
        <g>
          <path class="cls-8" d="M1746.61,763.15c-1.81-4.6-2.47-9.62-4.61-14.08-2.14-4.46-6.44-8.47-11.36-8.06-4.56.38-7.91,4.27-10.74,7.86-1.45-5.94-6.4-10.88-12.33-12.32-5.94-1.45-12.6.66-16.63,5.26-2.78,3.18-2.29,11.63,1.21,13.98-4.33,1.69-6.47,7.21-4.97,11.61,1.49,4.4,6,7.4,10.64,7.77,4.64.37,9.25-1.62,12.73-4.71-1.26,4.83,4.43,8.7,9.4,9.15,3.45.31,7.18-.29,9.76-2.6s3.5-6.64,1.31-9.32c3.99.33,5.94,4.82,8.12,8.17,6.14,9.42,20.46,12.2,29.68,5.76-9.86-1.91-18.53-9.12-22.2-18.46Z"/>
          <path class="cls-6" d="M1688.3,772.34c-1.6-5.31-6.01-9.34-11.52-8.69,4.04-2.3,5.17-4.94,6.31-9.36s-4.22-11.15-9.7-11.73c-4.05-.43-7.14,2.24-9.39,7.22-3.07-5.1-11.87-3.45-14.53,1.88-2.66,5.33-.49,11.96,3.28,16.57-10.38-.06-20.64,5.25-26.6,13.75-5.96,8.5-7.44,19.96-3.84,29.69,1.13-11.13,11.99-20.36,23.16-19.67,5.05.31,10.02,2.36,15.02,1.6,5-.76,9.73-6.49,6.88-10.67,3.33,4.43,9.97,5.98,14.91,3.48,4.94-2.5,7.63-8.77,6.03-14.07Z"/>
          <path class="cls-10" d="M1707.81,811.2c3.84.96,7.57-2.02,9.8-5.29,2.63-3.86,4.2-8.81,2.7-13.23-1.49-4.42-6.87-7.58-11.07-5.54l-.13-.94c-1.43-5.35-8.39-7.86-13.51-5.74-5.12,2.12-8.23,7.6-8.98,13.09-5.16-2.21-11.7.05-14.75,4.77-3.05,4.71-2.61,11.3.72,15.82,3.32,4.53,9.18,6.91,14.78,6.46,1.99-.16,3.99-.65,5.95-.32,5.78.96,8.2,8.25,7.32,14.05,8.26-3.81,11.82-15.31,7.17-23.12Z"/>
        </g>
        <g>
          <path class="cls-8" d="M1655.75,1023.63c-1.81-4.6-2.47-9.62-4.61-14.08-2.14-4.46-6.44-8.47-11.36-8.06-4.56.38-7.91,4.27-10.74,7.86-1.45-5.94-6.4-10.88-12.33-12.32s-12.6.66-16.63,5.26c-2.78,3.18-2.29,11.63,1.21,13.98-4.33,1.69-6.47,7.21-4.97,11.61,1.49,4.4,6,7.4,10.64,7.77,4.64.37,9.25-1.62,12.73-4.71-1.26,4.83,4.43,8.7,9.4,9.15,3.45.31,7.18-.29,9.76-2.6,2.58-2.31,3.5-6.64,1.31-9.32,3.99.33,5.94,4.82,8.12,8.17,6.14,9.42,20.46,12.2,29.68,5.76-9.86-1.91-18.53-9.12-22.2-18.46Z"/>
          <path class="cls-6" d="M1597.45,1032.82c-1.6-5.31-6.01-9.34-11.52-8.69,4.04-2.3,5.17-4.94,6.31-9.36,1.14-4.42-4.22-11.15-9.7-11.73-4.05-.43-7.14,2.24-9.39,7.22-3.07-5.1-11.87-3.45-14.53,1.88-2.66,5.33-.49,11.96,3.28,16.57-10.38-.06-20.64,5.25-26.6,13.75-5.96,8.5-7.44,19.96-3.84,29.69,1.13-11.13,11.99-20.36,23.16-19.67,5.05.31,10.02,2.36,15.02,1.6,5-.76,9.73-6.49,6.88-10.67,3.33,4.43,9.97,5.98,14.91,3.48,4.94-2.5,7.63-8.77,6.03-14.07Z"/>
          <path class="cls-10" d="M1616.96,1071.69c3.84.96,7.57-2.02,9.8-5.29,2.63-3.86,4.2-8.81,2.7-13.23-1.49-4.42-6.87-7.58-11.07-5.54l-.13-.94c-1.43-5.35-8.39-7.86-13.51-5.74-5.12,2.12-8.23,7.6-8.98,13.09-5.16-2.21-11.7.05-14.75,4.77-3.05,4.71-2.61,11.3.72,15.82,3.32,4.53,9.18,6.91,14.78,6.46,1.99-.16,3.99-.65,5.95-.32,5.78.96,8.2,8.25,7.32,14.05,8.26-3.81,11.82-15.31,7.17-23.12Z"/>
        </g>
        <path class="cls-10" d="M1426.02,857.02c4.8-3.68,10.91-6.51,16.79-5.09,10.52,2.55,13.43,15.87,14.31,26.66.77,9.5,1.54,19.05.9,28.56-.88,13.19-4.44,26.05-6.14,39.16-1.7,13.11-1.36,27.08,5.02,38.66,6.92,12.57,20.59,20.81,34.85,22.34,14.26,1.53,28.86-3.29,40.27-11.98,20.25-15.42,31.85-42.66,55.99-50.75,21.61-7.23,45.02,4.01,63.19,17.77,18.17,13.76,34.89,30.74,56.66,37.52,20.77,6.46,44.67,2.13,61.6-11.53,10.37-8.37,23.61-17.32,29.85-29.09,10.1-19.05,14.18-45.11,15.04-66.66,5.5,34.68-3.57,77.02-30.66,99.36-8.75,7.22-19.12,12.2-29.63,16.48-12.49,5.09-25.62,9.34-39.11,9.3-23.01-.07-44.25-12.6-61.65-27.67-9.66-8.37-18.7-24.62-30.04-30.5-11.34-5.89-23.68-7.94-34.26-.76-5.99,4.06-20.89,18.61-25.27,24.36-15.98,20.98-31.9,35.02-58.25,36.24-26.34,1.22-53.65-12.93-65-36.73-7.26-15.23-7.77-32.9-5.41-49.61,2.36-16.71,7.41-32.91,10.84-49.44.78-3.78,1.4-8.04-.78-11.23-2.43-3.57-7.65-4.32-11.68-2.78-4.03,1.54-11.32,5.88-14.05,9.22-10.31,12.58-18.44,40.05-18.44,40.05,0,0,8.29-49.02,25.06-61.87Z"/>
        <g>
          <path class="cls-10" d="M1485.87,1159.94c13.81-10.38,27.63-20.76,41.44-31.14,3.88-2.91,7.75-5.83,11.63-8.74,1.04-.78.96-2.35-.36-2.78-15.59-5.13-31.51-9.23-47.65-12.25-4.51-.84-9.04-1.6-13.58-2.28-.81-.12-1.64.2-1.87,1.06-.2.72.24,1.75,1.06,1.87,16.23,2.41,32.3,5.9,48.07,10.46,4.41,1.27,8.8,2.63,13.16,4.07-.12-.93-.24-1.85-.36-2.78-13.81,10.38-27.63,20.76-41.44,31.14-3.88,2.91-7.75,5.83-11.63,8.74-.66.49-1,1.31-.55,2.08.38.65,1.42,1.04,2.08.55h0Z"/>
          <path class="cls-10" d="M1473.04,1133.75c2.16-.45,4.32-.91,6.48-1.36,5.18-1.09,10.37-2.18,15.55-3.27,6.25-1.31,12.49-2.63,18.74-3.94,5.42-1.14,10.84-2.28,16.26-3.42,2.61-.55,5.3-.97,7.88-1.66.04,0,.08-.02.11-.02,1.92-.4,1.11-3.34-.81-2.94-2.16.45-4.32.91-6.48,1.36-5.18,1.09-10.37,2.18-15.55,3.27-6.25,1.31-12.49,2.63-18.74,3.94-5.42,1.14-10.84,2.28-16.26,3.42-2.61.55-5.3.97-7.88,1.66-.04,0-.08.02-.11.02-1.92.4-1.11,3.34.81,2.94h0Z"/>
          <circle class="cls-9" cx="1473.05" cy="1131.43" r="7.19"/>
          <path class="cls-9" d="M1476.95,1097.04c3.97,0,7.19,3.22,7.19,7.19s-3.22,7.19-7.19,7.19-7.19-3.22-7.19-7.19,3.22-7.19,7.19-7.19Z"/>
          <circle class="cls-9" cx="1485.86" cy="1158.63" r="7.19"/>
        </g>
        <g>
          <path class="cls-10" d="M1694.99,1134.38c-.4-13.24-.79-26.48-1.19-39.72-.11-3.74-.22-7.48-.34-11.22-.03-1.05-1.31-2.04-2.29-1.31-10.19,7.56-19.89,15.78-28.99,24.62-2.55,2.48-5.06,5.01-7.52,7.59-1.35,1.42.8,3.57,2.15,2.15,8.61-9.02,17.8-17.47,27.52-25.28,2.75-2.21,5.54-4.36,8.37-6.46l-2.29-1.31c.4,13.24.79,26.48,1.19,39.72.11,3.74.22,7.48.34,11.22.06,1.95,3.1,1.96,3.04,0h0Z"/>
          <path class="cls-10" d="M1672.74,1131.31c2.29-5.31,4.58-10.62,6.87-15.92,3.62-8.39,7.24-16.78,10.85-25.17.82-1.91,1.65-3.83,2.47-5.74.33-.75.22-1.63-.55-2.08-.64-.38-1.76-.21-2.08.55l-6.87,15.92c-3.62,8.39-7.24,16.78-10.85,25.17-.83,1.91-1.65,3.83-2.47,5.74-.33.75-.22,1.63.55,2.08.64.38,1.76.21,2.08-.55h0Z"/>
          <path class="cls-9" d="M1666.56,1126.72c1.76-2.49,5.2-3.08,7.69-1.33,2.49,1.76,3.08,5.2,1.33,7.69-1.76,2.49-5.2,3.08-7.69,1.33s-3.08-5.2-1.33-7.69Z"/>
          <path class="cls-9" d="M1651.23,1112.24c1.76-2.49,5.2-3.08,7.69-1.33,2.49,1.76,3.08,5.2,1.33,7.69-1.76,2.49-5.2,3.08-7.69,1.33-2.49-1.76-3.08-5.2-1.33-7.69Z"/>
          <path class="cls-9" d="M1689.29,1130.72c1.76-2.49,5.2-3.08,7.69-1.33,2.49,1.76,3.08,5.2,1.33,7.69-1.76,2.49-5.2,3.08-7.69,1.33-2.49-1.76-3.08-5.2-1.33-7.69Z"/>
        </g>
        <g>
          <path class="cls-10" d="M1229.64,942.92c10.06,8.61,20.12,17.23,30.18,25.84,2.84,2.43,5.68,4.87,8.52,7.3,1.05.9,2.46.26,2.6-1.08,1.25-12.5,1.68-25.09,1.26-37.65-.12-3.55-.31-7.1-.56-10.65-.06-.82-.66-1.52-1.52-1.52-.78,0-1.58.7-1.52,1.52.89,12.54.94,25.13.16,37.67-.22,3.55-.51,7.09-.87,10.63.87-.36,1.73-.72,2.6-1.08-10.06-8.61-20.12-17.23-30.18-25.84-2.84-2.43-5.68-4.87-8.52-7.3-.62-.53-1.54-.61-2.15,0-.55.55-.63,1.62,0,2.15h0Z"/>
          <path class="cls-10" d="M1247.07,928.89c2.39,5.26,4.77,10.53,7.16,15.79,3.77,8.32,7.54,16.64,11.32,24.96.86,1.9,1.72,3.8,2.58,5.69.34.75,1.43.93,2.08.55.77-.45.89-1.33.55-2.08-2.39-5.26-4.77-10.53-7.16-15.79-3.77-8.32-7.54-16.64-11.32-24.96-.86-1.9-1.72-3.8-2.58-5.69-.34-.75-1.43-.93-2.08-.55-.77.45-.89,1.33-.55,2.08h0Z"/>
          <path class="cls-9" d="M1254.48,927.1c.66,2.98-1.22,5.92-4.19,6.58-2.98.66-5.92-1.22-6.58-4.19s1.22-5.92,4.19-6.58c2.98-.66,5.92,1.22,6.58,4.19Z"/>
          <path class="cls-9" d="M1275.51,925.49c.66,2.98-1.22,5.92-4.19,6.58-2.98.66-5.92-1.22-6.58-4.19s1.22-5.92,4.19-6.58c2.98-.66,5.92,1.22,6.58,4.19Z"/>
          <path class="cls-9" d="M1236.23,941.22c.66,2.98-1.22,5.92-4.19,6.58s-5.92-1.22-6.58-4.19c-.66-2.98,1.22-5.92,4.19-6.58,2.98-.66,5.92,1.22,6.58,4.19Z"/>
        </g>
        <path class="cls-9" d="M1364.26,928.61c-1.72-8.72,3.33-18.18,11.74-21.24,4.38-1.6,9.23-1.63,13.61,0,4.38,1.62,7.87,5.07,10.56,8.79,3.04,4.21,5.43,8.9,7.75,13.53,2.53,5.05,4.84,10.21,6.92,15.47,3.84,9.71,6.69,19.7,9.29,29.8,2.25,8.74,4.48,17.52,7.76,25.94,3.16,8.12,7.31,15.96,13.39,22.29,6.36,6.62,14.6,11.14,23.67,12.69,9.31,1.58,19.04.3,27.52-3.91,8.12-4.04,14.61-10.89,18.56-19.02,3.95-8.12,5.46-17.32,4.11-26.26-.32-2.14-.83-4.25-1.5-6.31-.61-1.85-3.55-1.06-2.94.81,2.72,8.32,2.42,17.35-.4,25.6-2.81,8.23-8.24,15.66-15.58,20.4-7.68,4.96-16.99,6.98-26.06,6.14-8.99-.83-17.36-4.69-23.87-10.93-6.15-5.89-10.41-13.43-13.56-21.27-3.36-8.38-5.63-17.15-7.88-25.87-2.57-9.96-5.3-19.83-9.01-29.44-2.06-5.34-4.35-10.59-6.85-15.74-2.33-4.78-4.75-9.6-7.72-14.03-2.72-4.07-6.07-7.88-10.41-10.26-4.32-2.37-9.34-3.09-14.18-2.34-4.7.73-9.17,3.04-12.38,6.57-3.19,3.5-5.15,7.93-5.74,12.62-.29,2.28-.17,4.57.28,6.82.16.81,1.12,1.27,1.87,1.06.84-.23,1.22-1.06,1.06-1.87h0Z"/>
        <g>
          <path class="cls-9" d="M1335.97,915.17c-1.3.59-2.19,2.53-2.04,6.43.12,3.02.41,8.45,4.32,9.19,1.69.32,3.39-.79,4.31-2.25,3.88-6.16-2.94-15.04-6.58-13.37ZM1338.69,926.24s0,.01,0,.02c-.02-.02-.04-.04-.06-.06,0,0,0,0,0,0,.03,0,.06,0,.1,0,0,.02-.02.04-.02.06Z"/>
          <path class="cls-9" d="M1317.96,933.7c-.07.07-.14.14-.21.22-2.72,2.99,1.27,9.86,3.23,12.26,2.52,3.08,9.66,2.51,8.07-2.69-.77-2.5-2.04-5.17-3.55-7.31-1.58-2.23-5.1-4.8-7.54-2.48Z"/>
        </g>
        <path class="cls-12" d="M1393.66,877.9c3.73-2.45,4.02-7.9,1.27-11.2-3.22-3.87-8.98-3.91-13.24-1.97-2.62,1.19-4.85,3.13-6.83,5.18.85.22,1.7.45,2.54.67-.29-1.6.93-3.36,1.72-4.79,1.04-1.91,1.88-3.94,1.47-6.15-.38-2.07-1.95-3.81-3.75-4.81-2.07-1.16-4.37-1.4-6.68-.98-2.93.53-5.57,2.14-8.06,3.69-1.68,1.05-.21,3.47,1.54,2.63,3.21-1.54,4.48-5.54,3.62-8.85-.97-3.77-4.77-5.93-8.54-5.56-2.2.22-4.27,1.11-5.82,2.71-1.37,1.41.78,3.56,2.15,2.15,2.17-2.23,6.52-2.74,8.56-.04,1.61,2.12.98,5.75-1.52,6.96.51.88,1.02,1.75,1.54,2.63,3.21-2,7.54-4.81,11.39-2.86,1.32.67,2.55,1.84,2.64,3.32.1,1.62-.92,3.15-1.69,4.54-1.08,1.96-1.93,3.94-1.52,6.22.21,1.14,1.8,1.44,2.54.67,3.29-3.41,7.86-6.79,12.85-5.18,1.95.63,3.39,2.05,3.79,4.03.31,1.56-.14,3.45-1.52,4.36-1.63,1.07-.11,3.71,1.54,2.63h0Z"/>
        <path class="cls-12" d="M1409.6,858.69c1.78-1.66,3.5-3.39,5.14-5.19,1.48-1.63,2.99-3.54,2.8-5.88-.16-2.03-1.41-3.71-3.06-4.82-1.78-1.2-3.88-1.48-5.96-1.18-2.61.38-4.98,1.75-7.21,3.07.61.8,1.23,1.59,1.84,2.39,1.77-1.67,3.36-3.53,4.74-5.54,1.28-1.86,2.9-4.18,2.91-6.53,0-2.4-1.91-3.99-4.13-4.39-2.33-.42-4.79-.11-7.11.23-2.86.42-5.65,1.21-8.31,2.32.39.93.78,1.85,1.17,2.78,3.74-2.08,8.72-5.7,8.29-10.58-.5-5.6-6.88-7.6-11.65-7.74-3.18-.09-6.32.63-9.18,2.01-.74.36-.94,1.41-.55,2.08.44.76,1.34.9,2.08.55,3.86-1.85,8.76-2.24,12.76-.57,1.55.64,3.07,1.75,3.44,3.48.32,1.5-.47,2.98-1.45,4.11-1.47,1.69-3.34,2.95-5.28,4.04-.66.37-.92,1.23-.62,1.9.27.62,1.09,1.18,1.8.88,2.58-1.07,5.28-1.84,8.04-2.27,1.33-.21,2.69-.31,4.04-.35.9-.02,1.88-.03,2.72.33,2.15.91-.16,3.97-.94,5.21-1.38,2.17-3.03,4.14-4.91,5.9-1.26,1.19.36,3.27,1.84,2.39,3.05-1.8,8.15-4.72,11.04-1.02,1.25,1.6.31,3.23-.87,4.58-1.75,1.99-3.64,3.86-5.57,5.67-1.44,1.34.72,3.49,2.15,2.15h0Z"/>
        <path class="cls-12" d="M1430,839.05c3.07.84,6.29,1.11,9.45.72,2.84-.35,6.11-.98,8.28-2.99.97-.9,1.63-2.2,1.52-3.55-.13-1.57-1.13-2.76-2.19-3.83-2.11-2.12-4.4-4.06-6.81-5.82-2.74-2-5.66-3.73-8.72-5.18-.51.88-1.02,1.75-1.54,2.63,5.68,2.56,12.15,3.43,18.27,2.1,2.49-.54,5.28-2.21,4.99-5.14-.15-1.56-1.11-2.81-2.07-3.98-.95-1.15-1.96-2.25-3.03-3.3-2.44-2.4-5.16-4.52-8.07-6.33-.39.93-.78,1.85-1.17,2.78,4.52,1.88,9.93,3.69,14.43.72,2.04-1.34,3.29-3.4,3.5-5.83.21-2.51-.83-5.01-2.35-6.95-1.74-2.22-4.14-3.8-6.49-5.31-1.65-1.07-3.18,1.57-1.54,2.63,2.13,1.38,4.44,2.81,5.92,4.92,1.27,1.82,2.04,4.39.83,6.44-1.05,1.78-3.27,2.59-5.25,2.65-2.88.08-5.64-1.12-8.25-2.2-.69-.29-1.54.25-1.8.88-.29.71-.04,1.49.62,1.9,2.13,1.32,4.15,2.82,6.01,4.5,1.83,1.65,3.8,3.49,5.15,5.57.46.7.77,1.44.17,2.05-.59.6-1.52.86-2.33,1.05-2.5.57-5.14.64-7.69.41-2.86-.25-5.72-1.01-8.33-2.18-.75-.34-1.64-.22-2.08.55-.39.66-.2,1.73.55,2.08,4.65,2.22,8.99,5.07,12.81,8.52.95.86,1.93,1.74,2.78,2.71.59.67.88,1.34.31,2.06-.52.65-1.4,1.09-2.17,1.37-1.29.46-2.64.79-3.99,1-2.97.45-6.03.22-8.92-.57-1.89-.52-2.7,2.42-.81,2.94h0Z"/>
        <path class="cls-12" d="M1456.93,839.99c1.55,2.14,3.15,4.3,5.38,5.78,2.03,1.35,4.76,1.97,7.13,1.24,5.55-1.72,5.14-8.42,4.67-13.03-.35-3.44-.97-6.85-1.87-10.19-.85.49-1.7.99-2.54,1.48,1.79,1.88,3.8,3.55,5.98,4.95,2.09,1.35,4.49,2.71,6.93,3.24,2.45.53,5.18-.07,6.42-2.45,1-1.91.88-4.27.2-6.27-.86-2.51-2.85-4.78-2.9-7.52-.87.36-1.73.72-2.6,1.08,3.86,3.38,8.32,7.1,13.79,6.76,2.33-.15,4.66-.95,6.34-2.61,1.81-1.79,2.58-4.38,2.29-6.89-.35-3-1.8-5.7-3.74-7.97-.53-.63-1.6-.55-2.15,0-.62.62-.54,1.53,0,2.15,2.21,2.58,4.38,7.23,1.73,10.26-2.47,2.83-6.88,2.33-9.88.76-2.31-1.2-4.27-2.91-6.22-4.62-.95-.83-2.62-.31-2.6,1.08.04,2.35,1.1,4.39,2.14,6.43.75,1.48,1.46,3.12,1.27,4.75-.18,1.62-1.35,2.44-3.04,2.16-2.13-.35-4.2-1.58-6.01-2.7-2.14-1.33-4.07-2.93-5.8-4.76-1.06-1.12-2.93.04-2.54,1.48.67,2.48,1.19,5,1.54,7.55.32,2.32.58,4.71.47,7.05-.07,1.61-.42,3.52-1.86,4.48-1.48.98-3.53.66-5-.16-2.08-1.15-3.53-3.17-4.9-5.06-.48-.66-1.32-.99-2.08-.55-.66.38-1.03,1.41-.55,2.08h0Z"/>
        <path class="cls-12" d="M1464.19,863.35c1.02,2.38,2.19,4.69,3.53,6.91,1.17,1.95,2.5,4.6,4.8,5.38,2.44.82,4.65-1.23,6.23-2.82,1.63-1.63,3.03-3.54,4.08-5.59,1.22-2.39,1.97-4.92,2.33-7.57-.95.26-1.89.51-2.84.77.98,2.11,1.09,4.52,1.72,6.73.66,2.33,1.96,4.59,4.24,5.64,2.31,1.06,4.9.82,7.18-.19,2.34-1.03,4.13-2.99,5.22-5.28,1.35-2.84,1.77-5.96,1.97-9.06.11-1.77-2.49-1.99-2.99-.4-1.55,4.95,1.27,10.65,5.85,12.89,4.97,2.44,10.59.17,13.34-4.44,1.49-2.5,2.03-5.57,1.17-8.38-.57-1.87-3.51-1.07-2.94.81,1.1,3.61-1.01,7.62-4.37,9.32-3.48,1.76-7.42-.12-9.31-3.36-1.09-1.87-1.45-3.99-.8-6.04-1-.13-1.99-.27-2.99-.4-.26,4.07-.99,9.17-4.94,11.35-1.45.8-3.33,1.15-4.85.55-1.76-.7-2.51-2.52-2.95-4.23-.61-2.38-.87-4.8-1.91-7.05-.28-.6-1.12-.87-1.72-.7-.7.19-1.03.79-1.12,1.47-.64,4.78-3.23,9.24-6.93,12.3-.65.54-1.38,1.15-2.17.55-.94-.72-1.56-1.97-2.17-2.95-1.54-2.47-2.89-5.06-4.04-7.74-.32-.76-1.44-.92-2.08-.55-.78.46-.87,1.32-.55,2.08h0Z"/>
        <path class="cls-12" d="M1465.02,900.04c.55,2.57-.53,5.2-.34,7.79.18,2.43,1.37,4.67,3.62,5.76,1.99.96,4.32,1.06,6.43.45,2.43-.7,4.31-2.36,5.75-4.39,1.71-2.41,2.65-5.31,3.54-8.11-1-.13-1.99-.27-2.99-.4-.55,4.89-.1,10.59,4.54,13.42,1.85,1.13,4.18,1.42,6.22.63,1.91-.73,3.35-2.17,4.48-3.83,1.3-1.92,2.17-4.14,2.86-6.34.52-1.64-1.95-2.69-2.78-1.17-2.05,3.74.1,8.6,3.93,10.17,3.89,1.59,7.81-1.23,8.83-5.02.59-2.22.17-4.46-1.26-6.25-.52-.64-1.62-.54-2.15,0-.63.63-.52,1.51,0,2.15.12.15.38.65.44.82.12.35.19.74.2.92.05.83-.03,1.33-.34,2.13-.48,1.26-1.58,2.42-2.98,2.65-.5.08-1.32-.05-1.88-.34-.67-.35-1.24-.86-1.66-1.47-.91-1.32-1.22-2.9-.49-4.23-.93-.39-1.85-.78-2.78-1.17-.64,2.03-1.44,4.03-2.67,5.78-.99,1.41-2.4,2.56-4.05,2.6-2.08.06-3.76-1.49-4.67-3.25-1.28-2.48-1.03-5.54-.73-8.22.08-.74-.64-1.41-1.32-1.49-.76-.09-1.43.35-1.67,1.09-1.16,3.63-2.62,8.54-6.47,10.14-1.49.62-3.17.73-4.66.14-.5-.2-1.16-.66-1.48-1.09-.56-.74-.75-1.65-.77-2.56-.06-2.75.84-5.38.25-8.13-.41-1.91-3.34-1.1-2.94.81h0Z"/>
        <path class="cls-12" d="M1459.91,948.93c2.16,5.15,4.95,11.19,11.04,12.38,2.61.51,5.37.09,7.41-1.71,2.14-1.89,2.7-4.8,2.5-7.52-.22-3.15-1.18-6.24-.88-9.42-.76.44-1.53.88-2.29,1.31,4.72,3.64,10.01,7.48,16.29,7.08,2.78-.18,5.52-1.13,7.55-3.09,1.75-1.7,2.68-4.16,2.65-6.59-.03-2.72-1.28-5.38-3.7-6.75-.39.93-.78,1.85-1.17,2.78,5.29,1.98,11.32,3.42,16.58.54,2.18-1.2,3.94-3.08,4.82-5.42.81-2.15.48-4.61-.58-6.61-1.19-2.26-3.43-3.86-6.02-3.92-1.96-.05-1.96,3,0,3.04,3.02.07,4.73,4,3.67,6.68-1.44,3.66-5.83,5.01-9.42,4.82-2.84-.15-5.59-1.08-8.23-2.07-1.64-.61-2.65,1.95-1.17,2.78,2.94,1.67,2.79,6.28.43,8.56-3.31,3.2-8.65,2.53-12.44.68-2.79-1.36-5.26-3.26-7.7-5.15-1.01-.78-2.19.32-2.29,1.31-.24,2.52.29,5.04.66,7.52.3,2,.6,4.37-.49,6.19-1.03,1.71-2.95,2.26-4.83,2.08-2.13-.2-3.94-1.38-5.34-2.95-1.87-2.1-3.01-4.81-4.09-7.38-.32-.76-1.01-1.3-1.87-1.06-.71.2-1.38,1.11-1.06,1.87h0Z"/>
        <path class="cls-12" d="M1489.31,992.7c7.15,1.18,14.56.37,21.26-2.41,3.38-1.4,6.55-3.23,9.4-5.54,1.32-1.07,2.59-2.44,2.98-4.15.45-2.01-.41-3.92-1.59-5.5-2.48-3.35-5.67-6.13-9.34-8.13-.39.93-.78,1.85-1.17,2.78,6.87.93,13.85-.29,19.98-3.54,1.47-.78,2.88-1.69,4.21-2.7,1.4-1.06,2.82-2.19,3.83-3.64,1.08-1.54,1.26-3.46.36-5.13-.82-1.54-2.37-2.63-3.73-3.65-3.28-2.45-6.97-4.31-10.87-5.57-1.64-.53-2.68,1.96-1.17,2.78,3.87,2.11,8.97,1.02,11.89-2.22,3.29-3.66,2.77-8.99-.5-12.49-1.79-1.92-4.34-3.12-6.98-3.06-1.96.04-1.96,3.09,0,3.04,3.27-.07,6.25,2.73,6.68,5.96.42,3.12-1.91,5.71-4.77,6.54-1.61.47-3.3.41-4.78-.4-.39.93-.78,1.85-1.17,2.78,2.99.96,5.81,2.33,8.43,4.06,1.26.83,2.54,1.72,3.6,2.79.91.91,1.21,1.8.45,2.92-.75,1.1-1.95,2-3,2.8-1.2.91-2.48,1.72-3.8,2.43-2.58,1.39-5.35,2.38-8.21,2.98-3.15.66-6.45.81-9.64.37-.75-.1-1.49.12-1.8.88-.27.68-.06,1.53.62,1.9,2.85,1.55,5.37,3.58,7.47,6.06.87,1.02,2.11,2.39,2.08,3.82-.02,1.33-1.27,2.35-2.22,3.11-4.86,3.94-10.98,6.38-17.13,7.27-3.48.5-7.09.47-10.57-.1-.81-.13-1.64.21-1.87,1.06-.2.73.25,1.74,1.06,1.87h0Z"/>
        <path class="cls-12" d="M1556.91,955.31c5.4-2.12,10.17-5.6,13.74-10.19,1.81-2.33,3.51-5.06,2.36-8.09-.97-2.57-3.44-4.53-6.12-5.08-3.81-.79-7.53.73-10.93,2.28-1.55.71-.44,3.39,1.17,2.78,4.73-1.79,10.05-4.25,10.79-9.89.33-2.53-.64-4.96-2.72-6.45-1.85-1.33-4.33-1.69-6.56-1.5-3.23.28-6.27,1.71-9.53,1.72.26.95.51,1.89.77,2.84,3.77-2.45,7.96-5.39,8.67-10.19.32-2.19-.04-4.44-1.44-6.2-1.38-1.73-3.49-2.54-5.65-2.63-2.47-.1-4.94.66-7.23,1.53-.77.29-1.3,1.03-1.06,1.87.2.74,1.1,1.35,1.87,1.06,3.15-1.19,9.3-3.11,10.46,1.67,1.16,4.77-3.77,8.06-7.15,10.26-1.23.8-.79,2.84.77,2.84,2.61,0,5.08-.81,7.6-1.38,1.85-.42,3.78-.6,5.6.02,1.5.51,2.58,1.76,2.63,3.37.06,1.89-.92,3.6-2.3,4.84-1.78,1.59-4.13,2.46-6.33,3.29.39.93.78,1.85,1.17,2.78,2.42-1.1,5.02-2.21,7.74-2.07,1.94.1,4,1.21,4.82,3.03.92,2.03-.65,3.99-1.86,5.52-1.47,1.86-3.19,3.57-5.07,5.02-2.13,1.65-4.52,3.02-7.03,4-.76.3-1.3,1.02-1.06,1.87.2.73,1.1,1.37,1.87,1.06h0Z"/>
        <path class="cls-12" d="M1586.45,929.67c2.76-.6,5.44-1.58,7.95-2.89,1.25-.66,2.45-1.41,3.59-2.24,1.1-.8,2.26-1.65,3.15-2.69.93-1.09,1.59-2.43,1.47-3.9-.11-1.34-.74-2.51-1.63-3.5-1.87-2.08-4.73-3.19-7.31-4.05-3.29-1.1-6.77-1.63-10.23-1.62-1.96,0-1.96,3.03,0,3.04,5.69.04,11.31-2.17,15.43-6.1,1.12-1.07,2.24-2.29,2.4-3.89.16-1.54-.63-2.93-1.64-4.03-1.84-2.01-4.41-3.44-6.97-4.31-3.01-1.02-6.25-1.18-9.35-.55-.81.16-1.27,1.12-1.06,1.87.24.86,1.06,1.2,1.87,1.06,4.62-.8,9.78-1.97,12.3-6.37,1.07-1.86,1.57-4.17.92-6.26-.71-2.29-2.59-3.92-4.67-4.98-2.69-1.37-5.63-2.1-8.64-2.22-1.96-.08-1.96,2.96,0,3.04,2.64.11,5.31.78,7.62,2.08,1.8,1.01,3.23,2.56,2.89,4.76-.8,5.19-7,6.28-11.23,7.01.27.98.54,1.96.81,2.94,4.21-.85,8.9.27,12.22,3.02.71.58,1.81,1.43,1.91,2.42.1.91-1.05,1.79-1.63,2.34-1.61,1.51-3.5,2.74-5.53,3.61-2.42,1.03-5.04,1.54-7.66,1.52v3.04c2.56,0,5.09.3,7.56.95,2.32.61,4.81,1.43,6.77,2.86,1.44,1.05,2.48,2.59,1.14,4.16-1.5,1.75-3.7,3.09-5.7,4.18-2.38,1.29-4.92,2.2-7.56,2.77-1.91.41-1.1,3.35.81,2.94h0Z"/>
        <path class="cls-12" d="M1615.15,931c6.26,1.67,13.01,1.52,19.16-.54,1.39-.47,2.92-.98,3.97-2.07,1.1-1.14,1.44-2.74.98-4.25-.49-1.6-1.62-2.91-2.64-4.19-.98-1.24-2-2.46-3.04-3.65-2.45-2.8-5.07-5.46-7.82-7.97-1.47-1.34-3.38.66-2.15,2.15,2.8,3.41,8.23,3.43,11.69,1.04,4.05-2.8,4.67-8.07,2.45-12.27-1.29-2.44-3.44-4.3-6.01-5.28-.27.98-.54,1.96-.81,2.94,2.71.85,5.56,1.7,8.43,1.38,2.31-.25,4.63-1.26,6.11-3.1,1.41-1.75,1.86-4.02,1.29-6.2-.51-1.93-1.71-3.61-2.88-5.19-1.31-1.77-2.78-3.57-3.41-5.71-.55-1.88-3.48-1.08-2.94.81,1.06,3.63,3.95,6.15,5.68,9.4.69,1.29,1.04,2.64.47,4.02-.66,1.6-2.38,2.5-3.99,2.85-2.65.57-5.46-.42-7.96-1.2-.78-.25-1.66.29-1.87,1.06-.23.86.29,1.58,1.06,1.87,3.17,1.2,5.27,4.66,5.08,7.95-.09,1.54-.86,2.95-2.06,3.89-1.07.85-2.61,1.36-3.99,1.4-1.66.04-3.09-.48-4.19-1.82-.72.72-1.44,1.43-2.15,2.15,4.23,3.86,8.31,8.09,11.71,12.72.5.69,1.51,1.95.96,2.85-.5.82-1.79,1.14-2.64,1.43-2.64.9-5.39,1.44-8.18,1.59-3.21.16-6.39-.17-9.49-1-1.89-.51-2.7,2.43-.81,2.94h0Z"/>
        <path class="cls-12" d="M1647.35,949.48c3.47,3.38,8.93,7.36,14.04,5.31,4.91-1.98,6.1-8,4.32-12.55-1.19-3.05-3.27-5.57-5.37-8.04-.72.72-1.43,1.43-2.15,2.15,2.13,1.81,4.44,3.4,6.92,4.68,2.35,1.21,4.99,2.47,7.67,2.62,2.65.15,5.06-1.41,5.65-4.06.57-2.53-.24-5.11-1.25-7.41-1.22-2.75-3.08-5.22-5.37-7.16-.63-.53-1.54-.61-2.15,0-.55.55-.63,1.62,0,2.15,1.67,1.42,3.06,3.08,4.13,5,.94,1.69,1.79,3.69,1.8,5.65,0,.69-.09,1.43-.51,2-.51.69-1.37.82-2.18.79-2.06-.09-4.2-1.18-6.01-2.09-2.34-1.18-4.54-2.63-6.54-4.32-1.5-1.27-3.43.65-2.15,2.15,2.64,3.1,5.85,6.84,5.23,11.22-.24,1.69-1.06,3.3-2.59,4.14-1.65.91-3.59.59-5.27-.1-2.29-.94-4.29-2.57-6.05-4.29-1.4-1.37-3.56.78-2.15,2.15h0Z"/>
        <path class="cls-12" d="M1678.2,979.66c5.16,3.22,11.41,4.75,17.47,4.14,2.69-.27,5.71-1.04,6.94-3.74,1.24-2.72-.04-5.67-1.7-7.9-1.02-1.37-2.21-2.56-3.4-3.78-1.39-1.42-2.78-2.84-4.17-4.27-.49.85-.99,1.7-1.48,2.54,2.48.9,5.03,1.57,7.63,1.98,2.41.37,5.01.73,7.45.45,2.32-.27,4.36-1.44,5.05-3.78.56-1.91.1-4.16-1.07-5.76-1.57-2.15-3.94-3.33-6.32-4.39-.75-.33-1.64-.22-2.08.55-.38.65-.21,1.75.55,2.08,1.97.87,4.42,1.83,5.56,3.8.75,1.29.93,3.36-.59,4.13-.95.48-2.11.42-3.14.39-1.34-.04-2.68-.13-4.01-.31-2.81-.38-5.56-1.1-8.22-2.06-1.49-.54-2.48,1.52-1.48,2.54,2.06,2.11,4.2,4.17,6.19,6.35,1.25,1.37,2.97,3.47,2.7,5.48-.28,2.07-2.84,2.51-4.52,2.67-2.57.25-5.18.11-7.7-.44-2.88-.63-5.6-1.74-8.11-3.3-1.67-1.04-3.2,1.59-1.54,2.63h0Z"/>
        <path class="cls-12" d="M1727.76,994.81c6,.24,12.09-1.39,17.15-4.63,2.38-1.53,5.57-3.81,4.34-7.08-.53-1.42-1.64-2.59-2.72-3.62-1.05-1-2.22-1.9-3.45-2.66-2.77-1.72-5.9-2.71-9.13-3.03v3.04c5.23.51,10.69-3.05,11.46-8.42.75-5.24-2.82-10.44-8.35-10.49-2.81-.03-5.49,1.28-7.07,3.62-1.09,1.63,1.54,3.16,2.63,1.54,1.84-2.74,6.15-2.77,8.3-.42,2.52,2.76,1.84,7.19-.96,9.44-1.69,1.35-3.87,1.89-6.01,1.68-.82-.08-1.52.76-1.52,1.52,0,.89.7,1.44,1.52,1.52,4.48.44,9.13,2.76,11.9,6.38.65.85.84,1.59.07,2.41-.82.86-1.86,1.52-2.87,2.14-2.14,1.33-4.44,2.34-6.86,3.03-2.75.78-5.58,1.1-8.43.99-1.96-.08-1.96,2.97,0,3.04h0Z"/>
        <path class="cls-12" d="M1780.35,965.99c4.56-2.68,9.56-6.12,9.65-11.99.04-2.6-1.15-5.1-3.4-6.48-2.18-1.33-5.03-1.44-7.43-.7-3.1.96-5.57,3.17-7.92,5.31-1.25,1.14.46,3.45,1.84,2.39,2.44-1.86,4.92-3.91,6.43-6.64,1.43-2.58,1.72-5.75.17-8.35-1.33-2.24-3.75-3.73-6.26-4.3-2.92-.67-5.8-.14-8.46,1.19-3.24,1.62-5.85,4.29-8.25,6.94-1.31,1.45.84,3.61,2.15,2.15,3.23-3.58,7.4-7.91,12.6-7.53,1.86.14,3.8.95,5.06,2.36,1.26,1.4,1.47,3.49.7,5.31-1.1,2.59-3.51,4.57-5.68,6.24.61.8,1.23,1.59,1.84,2.39,2.85-2.6,6.79-6.16,10.98-4.48,3.87,1.54,2.74,6.6.55,9.05-1.71,1.91-3.94,3.22-6.12,4.5-1.69.99-.16,3.63,1.54,2.63h0Z"/>
        <path class="cls-12" d="M1797.84,921.54c2.08-4.33,4.23-9.54,1.36-14.05-1.23-1.94-3.2-3.31-5.54-3.41-2.57-.11-4.94,1.38-6.73,3.08-2.08,1.98-3.63,4.42-4.69,7.08-.42,1.06.84,2.24,1.87,1.87,4.73-1.68,6.1-8.05,2.85-11.74-3.44-3.91-10.02-3.27-13.19.6-1.93,2.36-2.84,5.5-2.44,8.53.11.81.62,1.52,1.52,1.52.74,0,1.63-.7,1.52-1.52-.48-3.65,1.24-7.79,5.13-8.62,1.53-.33,3.32,0,4.6.97,1.27.96,1.69,2.3,1.6,3.75-.08,1.45-1.02,3.09-2.4,3.58.62.62,1.25,1.25,1.87,1.87.91-2.28,2.37-4.35,4.18-5.99,1.55-1.4,3.82-2.63,5.83-1.43,1.58.95,2.37,3,2.39,4.77.02,2.7-1.22,5.23-2.36,7.61-.36.74-.2,1.64.55,2.08.67.39,1.72.2,2.08-.55h0Z"/>
        <path class="cls-12" d="M1801.86,882.99c3.76-1.55,4.83-6.55,2.36-9.72-2.83-3.63-8.39-3.44-11.86-.93-2.13,1.54-3.71,3.66-4.9,5.99-.31.61-.26,1.35.24,1.84.44.44,1.31.64,1.84.24,1.72-1.31,2.65-3.26,2.53-5.43-.11-2.03-.97-4.09-2.49-5.46-3.76-3.39-9.62-1.64-12.55,1.96-.86,1.06-1.64,2.26-1.67,3.67-.03,1.49.87,2.73,2.41,2.82,1.96.11,1.95-2.93,0-3.04.27.02.48.15.62.37.05.15.05.13,0-.05-.12.2.06-.39.02-.21.06-.35.23-.61.5-1.02.52-.8,1.23-1.51,2.02-2.04,1.57-1.06,3.48-1.6,5.33-.98,1.33.44,2.28,1.76,2.64,3.19.31,1.26.1,2.84-.89,3.6.69.69,1.39,1.39,2.08,2.08,1.75-3.43,5.02-7.26,9.34-6.19.87.22,1.66.62,2.27,1.29.4.43.7,1.16.78,1.66.12.81.04,1.47-.28,2.2-.19.43-.7,1.03-1.14,1.21-.76.31-1.3,1.01-1.06,1.87.2.72,1.11,1.38,1.87,1.06h0Z"/>
        <path class="cls-12" d="M1797.86,855.87c1.55-2.17,3.15-4.48,3.68-7.14.47-2.35.07-4.91-1.42-6.83-1.59-2.05-4.21-2.82-6.69-2.13-2.58.72-4.72,2.63-6.54,4.52-1.06,1.1,0,2.93,1.48,2.54,4.13-1.07,4.6-6.47,2.45-9.53-3.29-4.7-9.99-2.87-14.1-.49-.6.34-.86,1.06-.7,1.72.42,1.7,2.32,2.8,4,2.21.77-.27,1.29-1.04,1.06-1.87-.21-.75-1.09-1.34-1.87-1.06-.22.08-.2.12-.25-.09-.23.57-.47,1.15-.7,1.72,1.69-.98,3.61-1.86,5.59-2,.99-.07,1.98,0,2.91.37.67.27,1.06.56,1.42,1,.72.89.99,2.01.86,3.23-.09.9-.56,1.63-1.47,1.86.49.85.99,1.7,1.48,2.54,1.91-1.99,6.49-6.16,8.86-2.45,2.25,3.52-.64,7.5-2.66,10.34-.48.67-.12,1.69.55,2.08.76.45,1.6.13,2.08-.55h0Z"/>
        <path class="cls-12" d="M1805.88,833.1c1.93-1.03,3.84-2.16,5.11-4,1.15-1.67,1.38-3.98.51-5.82-1.04-2.22-3.38-2.67-5.61-2.59-2.35.08-4.71.47-6.96,1.16-2.58.79-5.05,1.97-7.29,3.49-1.61,1.1-.09,3.73,1.54,2.63,3.98-2.71,8.78-4.32,13.63-4.24.89.01,1.64.15,2,.93.26.57.26,1.33.04,2.01-.62,1.89-2.84,2.94-4.48,3.81-1.73.92-.19,3.55,1.54,2.63h0Z"/>
      </g>
      <path class="cls-3" d="M1260.74,98.51c-10.16,21.51-2.39,66.32-11.05,78.48-8.86,12.45-29.19,8.6-32.39-10.86-3.57-21.72-3.16-29.51-2.05-61.22,1.11-31.71,5.38-58.05,4.27-71.34-1.11-13.29-25.8-33.57-25.8-33.57,0,0-24.4,20.62-25.33,33.92-.93,13.3,3.7,39.58,5.25,71.27,1.55,31.69,3.68,39.47.41,61.23-2.93,19.51-23.21,23.63-32.24,11.3-8.82-12.04-1.66-56.96-12.12-78.32-12.96-26.47-52.02-9.99-51.98-3.94.04,6.05,16.91,15.01,21.53,25.66,4.61,10.65-3.31,59.63,10.14,82.04,13.45,22.41,64.05,25.11,64.05,25.11l-6.01,141.91,59.31-.41-7.96-141.82s50.56-3.4,63.7-25.99c13.14-22.59,4.55-71.46,9.02-82.17,4.47-10.71,21.21-19.9,21.17-25.95s-39.33-21.99-51.92,4.65Z"/>
      <path class="cls-10" d="M1249.14,355.89c-5.05-17.55-26.27-30.16-43.37-30.39-40.52-.56-73.96,25.98-95.17,61.64-17.08,28.71-32.88,85.32-28.89,149.03,0,0,7.85,4.18,10.52,5.61,1.29-16.42,9.08-25.21,9.08-25.21-3.4,13.62-3.65,22.67-2.94,28.48,8.67,4.62,12.29,6.55,24.01,12.79-.5-32.07,15.69-62.59,15.69-62.59-9.85,25.87-8.84,51.81-6.79,67.33,8.74,4.66,20.93,11.15,20.93,11.15,0,0,16.86-59.84,33.24-78.48,23.63-26.9,45.71-46.29,56.37-67.89,9.68-19.62,13.64-49.53,7.32-71.47Z"/>
    </g>
    <g>
      <rect class="cls-4" x="91.6" y="370.19" width="51.74" height="2479.19"/>
      <g>
        <path class="cls-5" d="M738.15,496.56c-4.56,29.43-35.97,79.69-35.97,79.69,0,0-13.39,1.52-30.54,4.99,6.55-16.96,35.05-55.73,36.56-73.85-30.57.32-132.32,6.42-170.04,12.71,0,0-3.35,52.11-26.91,75.75-17.02,1.64-25.6-3.31-25.6-3.31,0,0,21.89-34.16,26.01-69.76-34.23-.48-138.96,9.45-173.19,8.97-15.6,36.76-8.96,69.91-8.96,69.91l-20.95-2.93s-11.41-38.07-.56-69.71c-39.21-9.23-184.37-1.2-184.37-1.2l-33.29,134.81-.63,671.64s43.26,46.77,68.38,88.7c25.12,41.92,25.12,92.7,25.12,92.7,0,0,101.24-22.36,145.78-43.91,1.99-20.16-13.67-93.41-21.6-103.66,13.58-1.91,12.91-1.82,26.49-3.73-1.04,9.2,24.08,82.4,31.3,89.77,51.06.13,108.79-2.63,159.74,0-5.42-13.31-28.28-89.13-33.7-102.43,9.18-1.67,18.36-3.34,27.54-5.01,1.51,14.18,36.11,82.25,47.68,93.33,66.92.34,122.04-37.77,188.76-41.75-33.05-37.41-35.56-75.03-35.56-75.03l24.49-5.1c8.88,26.46,24.26,51.04,46.57,70.64,0,0,70.12-22,89.68-26.77,54.22-13.2,85.06-16.87,85.06-16.87,0,0-41.81-66.95-52.23-80.29,43.2-4.03,127.26-4.92,167.92,10.24,5.1-33.11,7.54-97.17,5.42-130.6-50.94-13.76-144-11.67-196.33-4.85-1.03-36.55-6.52-42.6-14.53-78.27,53.43-4.62,146.94-6.92,199.37,4.34,4.48-39.79-.25-77.92.14-117.96-44.29-13.35-150.53-14.82-206.7-8.36-.47-27.35,2.1-30.59-4.22-57.21,61.38-6.36,159.61-12.06,214.93,2.48,1.14-30.24-1.71-75.65-7.24-105.4-58.46-15.68-219.41-7.37-219.41-7.37l-.35-54.61s167.41,2.6,213.64,16.79c.48-31.41,4.38-113.35,4.38-113.35,0,0-117.92-26.8-204.56-26.8,0,0,18.68-91.64,15.84-93.15-3.49-1.86-120.16-8.26-143.35-4.24Z"/>
        <path class="cls-11" d="M864.39,591.75l48.82,673.12c-127.76-2.67-253.86,32.29-388.2,44.22-140.05,12.43-288.6,2.42-434.67,28.22v-674.67c118.64-27.26,249.33-15.51,378.61-26.93,129.27-11.42,257.12-46.02,395.44-43.96Z"/>
        <path class="cls-2" d="M615.35,818.57c22.36-12.7,36.42-37.55,37.48-63.05,1.11-26.54-13.51-50.99-35.92-64.69-12.44-7.6-27.1-11.73-41.7-11.02-4.92.24-4.95,7.92,0,7.68,23.5-1.14,46.78,11.32,59.67,30.89,6.4,9.72,10.04,20.93,10.32,32.58.27,11.41-2.39,22.88-7.56,33.05-5.9,11.6-14.81,21.48-26.16,27.92-4.3,2.44-.43,9.08,3.88,6.63h0Z"/>
        <g>
          <path class="cls-8" d="M735.99,653.83c5-3.46,9.12-8.14,14.36-11.23,5.24-3.09,12.39-4.25,17.15-.45,4.4,3.51,5.16,9.79,5.6,15.4,5.56-5.07,14-6.73,21.06-4.14,7.06,2.59,12.43,9.31,13.39,16.77.66,5.15-5.63,13.46-10.83,13.47,3.27,4.7,1.67,11.81-2.88,15.28-4.55,3.48-11.21,3.45-16.2.64-4.99-2.8-8.35-8-9.79-13.54-2.02,5.8-10.5,5.86-15.89,2.91-3.74-2.05-7.14-5.22-8.2-9.35-1.05-4.13.98-9.19,5.06-10.43-4.3-2.4-9.38.85-13.91,2.78-12.73,5.42-29.28-1.56-34.3-14.46,11.39,4.81,25.19,3.38,35.36-3.65Z"/>
          <path class="cls-6" d="M789.3,703.21c5.27-4.33,12.55-5.43,17.73-.99-2.55-5.12-1.9-8.6-.03-13.9,1.87-5.3,11.96-8.5,17.96-5.34,4.44,2.34,5.77,7.19,4.64,13.82,6.64-3.11,14.5,4.61,13.57,11.89-.93,7.27-7.7,12.57-14.71,14.7,10.65,7.06,17.5,19.52,17.77,32.29.26,12.77-6.08,25.5-16.43,32.99,6.48-12.16,1.7-29.03-10.19-35.99-5.37-3.14-11.86-4.46-16.45-8.66-4.59-4.2-5.49-13.31.28-15.62-6.44,2.25-14.29-.72-17.63-6.67-3.34-5.95-1.79-14.19,3.49-18.52Z"/>
          <path class="cls-10" d="M742.71,729.57c-4.58-1.65-6.36-7.26-6.39-12.13-.04-5.75,1.75-11.88,6.31-15.38,4.56-3.5,12.22-3.04,15.11,1.93l.78-.88c5.13-4.5,13.97-2.28,17.75,3.4,3.79,5.67,3.2,13.42.2,19.54,6.79,1.29,11.93,8.08,11.82,14.99-.11,6.91-5.08,13.34-11.58,15.68-6.5,2.35-14.13.77-19.54-3.53-1.92-1.53-3.63-3.39-5.87-4.41-6.57-2.99-14.04,2.81-17.12,9.34-5.83-9.56-1.59-23.76,8.53-28.55Z"/>
        </g>
        <g>
          <path class="cls-8" d="M855.1,1138.63c3.33,4.69,7.8,8.52,10.78,13.44,2.98,4.92,4.16,11.66.63,16.2-3.27,4.2-9.19,5-14.48,5.47,4.86,5.19,6.53,13.15,4.17,19.85-2.36,6.71-8.65,11.86-15.69,12.86-4.86.69-12.79-5.16-12.86-10.07-4.4,3.15-11.14,1.72-14.48-2.54-3.34-4.25-3.39-10.55-.8-15.3,2.59-4.75,7.46-7.99,12.68-9.41-5.51-1.84-5.66-9.85-2.94-14.98,1.89-3.56,4.85-6.81,8.74-7.86,3.89-1.05,8.69.81,9.92,4.65,2.22-4.09-.92-8.85-2.79-13.11-5.27-11.97,1.12-27.69,13.25-32.58-4.41,10.82-2.89,23.85,3.88,33.37Z"/>
          <path class="cls-6" d="M809.08,1189.6c4.15,4.93,5.28,11.8,1.15,16.75,4.8-2.47,8.1-1.9,13.14-.2,5.03,1.7,8.18,11.2,5.26,16.91-2.16,4.22-6.72,5.54-13.01,4.56,3.02,6.24-4.18,13.76-11.07,12.97-6.89-.79-11.97-7.12-14.07-13.73-6.54,10.15-18.23,16.78-30.3,17.18-12.07.4-24.17-5.44-31.37-15.13,11.56,5.98,27.46,1.26,33.89-10.06,2.9-5.11,4.07-11.26,7.98-15.65,3.92-4.39,12.51-5.35,14.77.08-2.2-6.06.51-13.51,6.09-16.74,5.58-3.23,13.39-1.86,17.54,3.07Z"/>
          <path class="cls-10" d="M783.61,1145.88c1.51-4.35,6.78-6.1,11.39-6.19,5.43-.11,11.25,1.51,14.61,5.78s3.02,11.51-1.64,14.3l.84.73c4.31,4.79,2.32,13.17-3,16.82-5.32,3.64-12.64,3.19-18.46.42-1.13,6.43-7.49,11.37-14.02,11.35-6.53-.02-12.66-4.64-14.96-10.76-2.3-6.12-.9-13.34,3.1-18.51,1.42-1.83,3.16-3.47,4.1-5.6,2.74-6.25-2.82-13.23-9.03-16.06,8.96-5.63,22.43-1.79,27.08,7.71Z"/>
        </g>
        <g>
          <path class="cls-8" d="M159.62,1287.25c-4.82-1.08-9.89-.96-14.62-2.39-4.73-1.43-9.36-5.06-9.71-9.99-.33-4.56,3-8.47,6.11-11.82-6.09-.52-11.73-4.65-14.08-10.29-2.35-5.64-1.29-12.55,2.64-17.24,2.71-3.24,11.14-4.06,14-.96,1-4.54,6.13-7.5,10.71-6.7,4.58.8,8.24,4.79,9.31,9.32,1.07,4.52-.18,9.39-2.69,13.3,4.57-1.99,9.28,3.04,10.49,7.88.84,3.36.82,7.14-1.07,10.05-1.89,2.91-6.02,4.48-9.01,2.73.94,3.89,5.67,5.13,9.32,6.77,10.25,4.62,15.2,18.34,10.26,28.44-3.41-9.45-11.86-16.9-21.66-19.1Z"/>
          <path class="cls-6" d="M159.73,1228.22c-5.49-.76-10.15-4.5-10.36-10.04-1.65,4.34-4.08,5.87-8.28,7.68-4.19,1.81-11.66-2.45-13.08-7.78-1.05-3.94,1.11-7.4,5.69-10.39-5.52-2.25-5.24-11.2-.38-14.65,4.86-3.45,11.74-2.33,16.88.69-1.65-10.24,2.01-21.2,9.49-28.39,7.48-7.19,18.57-10.42,28.75-8.37-10.83,2.83-18.27,14.98-15.87,25.91,1.08,4.94,3.87,9.54,3.9,14.59s-4.92,10.61-9.48,8.44c4.89,2.61,7.44,8.93,5.73,14.2-1.71,5.27-7.49,8.89-12.98,8.12Z"/>
          <path class="cls-10" d="M201.13,1241.52c1.54,3.65-.83,7.79-3.72,10.5-3.41,3.19-8.06,5.5-12.66,4.71-4.6-.79-8.55-5.62-7.17-10.08l-.95.02c-5.51-.59-9.05-7.08-7.75-12.47,1.3-5.39,6.24-9.3,11.56-10.88-2.97-4.76-1.75-11.57,2.44-15.31s10.76-4.31,15.75-1.72c4.98,2.59,8.24,8.01,8.66,13.61.15,1.99-.03,4.04.6,5.93,1.84,5.57,9.41,6.83,15,5.07-2.49,8.75-13.3,14.04-21.74,10.64Z"/>
        </g>
        <g>
          <path class="cls-8" d="M139.78,937.71c-4.82-1.08-9.89-.96-14.62-2.39-4.73-1.43-9.36-5.06-9.71-9.99-.33-4.56,3-8.47,6.11-11.82-6.09-.52-11.73-4.65-14.08-10.29-2.35-5.64-1.29-12.55,2.64-17.24,2.71-3.24,11.14-4.06,14-.96,1-4.54,6.13-7.5,10.71-6.7,4.58.8,8.24,4.79,9.31,9.32,1.07,4.52-.18,9.39-2.69,13.3,4.57-1.99,9.28,3.04,10.49,7.88.84,3.36.82,7.14-1.07,10.05-1.89,2.91-6.02,4.48-9.01,2.73.94,3.89,5.67,5.13,9.32,6.77,10.25,4.62,15.2,18.34,10.26,28.44-3.41-9.45-11.86-16.9-21.66-19.1Z"/>
          <path class="cls-6" d="M139.9,878.68c-5.49-.76-10.15-4.5-10.36-10.04-1.65,4.34-4.08,5.87-8.28,7.68-4.19,1.81-11.66-2.45-13.08-7.78-1.05-3.94,1.11-7.4,5.69-10.39-5.52-2.25-5.24-11.2-.38-14.65,4.86-3.45,11.74-2.33,16.88.69-1.65-10.24,2.01-21.2,9.49-28.39,7.48-7.19,18.57-10.42,28.75-8.37-10.83,2.83-18.27,14.98-15.87,25.91,1.08,4.94,3.87,9.54,3.9,14.59.02,5.06-4.92,10.61-9.48,8.44,4.89,2.61,7.44,8.93,5.73,14.2-1.71,5.27-7.49,8.89-12.98,8.12Z"/>
          <path class="cls-10" d="M181.3,891.98c1.54,3.65-.83,7.79-3.72,10.5-3.41,3.19-8.06,5.5-12.66,4.71-4.6-.79-8.55-5.62-7.17-10.08l-.95.02c-5.51-.59-9.05-7.08-7.75-12.47,1.3-5.39,6.24-9.3,11.56-10.88-2.97-4.76-1.75-11.57,2.44-15.31,4.19-3.74,10.76-4.31,15.75-1.72,4.98,2.59,8.24,8.01,8.66,13.61.15,1.99-.03,4.04.6,5.93,1.84,5.57,9.41,6.83,15,5.07-2.49,8.75-13.3,14.04-21.74,10.64Z"/>
        </g>
        <g>
          <path class="cls-8" d="M773.38,1040.48c-6.24,2.58-11.81,6.69-18.22,8.81-6.41,2.12-14.44,1.7-18.7-3.53-3.95-4.84-3.31-11.83-2.46-18.02-7.22,4.2-16.76,4.02-23.82-.45s-11.3-13.02-10.59-21.34c.49-5.75,9.27-13.28,14.9-12.07-2.44-5.86.96-13.2,6.71-15.9,5.75-2.71,12.97-1.11,17.73,3.1,4.75,4.21,7.18,10.64,7.44,16.99,3.55-5.82,12.76-3.89,17.92.57,3.58,3.1,6.52,7.34,6.7,12.07.17,4.73-3.21,9.73-7.93,10.13,4.1,3.61,10.37,1.28,15.74.25,15.09-2.89,31.4,8.56,33.81,23.73-11.23-7.89-26.53-9.58-39.21-4.33Z"/>
          <path class="cls-10" d="M613.46,1046.02c6.01,3.07,11.23,7.61,17.45,10.24,6.22,2.63,14.26,2.85,18.93-2.03,4.32-4.51,4.24-11.53,3.89-17.76,6.86,4.76,16.39,5.35,23.78,1.46,7.39-3.89,12.31-12.07,12.27-20.42-.03-5.77-8.17-13.98-13.89-13.22,2.9-5.65.1-13.23-5.41-16.39-5.51-3.16-12.84-2.15-17.92,1.67-5.08,3.82-8.01,10.03-8.77,16.34-3.07-6.09-12.41-4.9-17.9-.87-3.82,2.8-7.09,6.79-7.64,11.5-.55,4.7,2.43,9.96,7.1,10.73-4.38,3.27-10.44.44-15.71-1.01-14.81-4.09-31.98,6.02-35.6,20.95,11.82-6.96,27.22-7.42,39.43-1.18Z"/>
          <path class="cls-6" d="M723.73,973.08c-6.74,3.46-14.89,2.94-19.47-3.09,1.57,6.15.05,9.77-3.22,15.09-3.27,5.31-14.96,6.42-20.74,1.57-4.27-3.58-4.57-9.15-1.8-16.08-7.93,1.82-14.65-8.4-11.93-16.08,2.72-7.67,11.3-11.83,19.41-12.49-9.9-10.15-14.41-25.28-11.7-39.19,2.71-13.92,12.58-26.24,25.56-31.93-9.88,11.67-8.66,31.1,2.61,41.43,5.09,4.67,11.82,7.62,15.82,13.25,3.99,5.63,2.84,15.72-3.97,16.88,7.51-.93,15.33,4.13,17.56,11.37,2.23,7.24-1.39,15.82-8.13,19.27Z"/>
        </g>
        <path class="cls-10" d="M614.36,872.18c-3.51-9.36-11.24-16.45-19.22-22.46-7.65-5.76-15.78-10.87-24.28-15.27-7.12-3.68-14.65-6.91-22.62-7.71-7.63-.77-17.19,2.47-18.08,10.08-.27,2.28.33,4.57,1.07,6.74,7.33,21.53,27.55,35.62,46.81,47.71,7.26,4.56,20.13,12.8,29.18,8.36,9.2-4.52,10.27-19.12,7.15-27.45Z"/>
        <path class="cls-2" d="M641.26,797.51c1.11.99,2.13,2.26,3.59,2.53,2.23.41,4.03-1.66,5.73-3.17,4.05-3.6,10.34-4.64,15.13-2.12,4.8,2.52,7.52,8.64,5.77,13.77-.7,2.06-2.04,3.99-1.94,6.16.12,2.6,2.24,4.6,3.49,6.88,2.95,5.42.06,13.14-5.73,15.29-5.85,2.17-12.83-.91-18.46,1.77-4.5,2.14-6.71,7.29-10.62,10.38-3.74,2.96-9.05,3.79-13.52,2.11-1.36-.51-2.64-1.24-4.06-1.56-6.79-1.57-13.15,6.35-19.91,4.66-5.52-1.38-7.56-8.66-5.75-14.05,3.39-10.1,13.89-19.59,19.8-28.62,5.18-7.93,15.73-23.66,26.47-14.04Z"/>
        <path class="cls-5" d="M662.45,812.85c-3-5.85-10-6.99-16.5-8.03-20.38-3.24-45.02-2.67-57.13-19.38-3.14-4.33-5.33-9.39-9.14-13.14-7.15-7.05-18.58-7.83-28.16-4.52-9.17.74-18.33,1.48-27.5,2.22-8.13.66-16.44,1.36-23.94,4.56-18.25,7.8-27.76,29.88-24.63,49.48,3.13,19.6,16.8,36.32,33.38,47.23,16.58,10.91,35.94,16.73,55.2,21.55,10.9,2.73,21.87,5.18,32.89,7.35,5.2,1.02,11.94,1.3,14.37-3.41,3.31-6.43-5.29-12.26-12.15-14.55-18.99-6.35-52.06-17.35-60.38-35.57-3.39-7.43,4.54-13.06,12.7-13.29,4.04-.11,13.57,5.68,17.2,7.47,21.42,10.58,44.86,4.62,68.12.51,6.61-1.17,13.5-2.45,18.88-6.47,5.38-4.02,9.86-16.04,6.79-22.01Z"/>
        <path class="cls-8" d="M466.47,699.52c-11.33-5.13-24.91-6.81-33.31-15.98-4.14-4.52-6.52-10.41-10.43-15.13-3.91-4.72-10.53-8.28-16.11-5.73-3.99,1.82-6.2,6.18-9.85,8.6-15.53,10.26-36.84-20.87-51.47-9.38-3.41,2.67-5.11,7.11-8.59,9.68-12.31,9.1-27.98-12.46-42.87-8.94-12.02,2.85-14.92,19.64-25.72,25.63-15.98,8.85-42.27-8.81-51.59,6.9-4.77,8.04.35,18.59-2.22,27.58-3.37,11.81-17.54,15.83-28.74,20.87-11.21,5.03-22.13,18.9-14.23,28.31,4.12,4.9,11.73,5.8,15.66,10.85,7.18,9.22-3.06,21.53-6.02,32.84-3.71,14.17,7.13,30.33,21.65,32.28,8.31,1.11,18.2-1.35,24.06,4.64,7.1,7.25,1.47,19.29,2.38,29.4,1.06,11.69,13.1,21.16,24.71,19.44,12.13-1.8,24.65-13.46,34.75-6.5,6.17,4.25,6.7,12.97,9.71,19.83,4.82,10.99,17.8,17.72,29.56,15.33,9.36-1.9,18.02-8.85,27.42-7.1,15,2.78,17.26,23.12,15.9,38.31,11.37-.67,26.93,2.24,27.17,13.63.22,10.68-15.44,14.86-24.51,9.22s-13.51-16.21-19.59-24.99c-6.09-8.78-16.77-16.69-26.74-12.86-3.97,1.53-7.27,4.78-11.48,5.38-15.36,2.19-21.3-29.85-35.77-24.25-3.91,1.51-6.24,5.56-9.82,7.75-14.98,9.15-29.73-19.18-47.1-16.58-13.62,2.03-16.69,20.89-12.48,34,2.08,6.48,4.91,14.1.83,19.54-3.34,4.45-9.71,5.01-15.28,5.07-13.33.15-30.07,1.95-34.37,14.57-4.5,13.23,9.31,25.94,9.78,39.92.41,12.13-9.05,21.96-16.66,31.42-7.61,9.46-13.97,23.04-7.3,33.18,7.32,11.12,25.3,10.08,33.46,20.6,10.09,13-1.75,32.93,4.66,48.09,3.93,9.3,15.19,14.81,24.95,12.21,4.09-1.09,7.95-3.42,12.18-3.37,12.75.16,14.83,18,15.15,30.75.3,12.13,3.06,24.66,10.62,34.15,7.56,9.49,20.71,15.16,32.25,11.42,11.8-3.82,21.13-16.56,33.4-14.7,16.63,2.52,19.26,28.42,35.02,34.29,16.67,6.21,30.19-13.37,43.55-25.11,3.15-2.77,7.02-5.32,11.2-4.94,5.14.46,8.75,5.02,12.65,8.4,12.15,10.54,32.33,10.06,43.96-1.04,8.76-8.36,14.07-22.23,26.03-24.09,15.08-2.35,26.26,16.91,41.52,16.74,14.06-.15,21.88-15.68,28.25-28.22,6.37-12.53,20.09-25.91,32.41-19.12,9.85,5.44,14.59,22.28,25.49,19.5,8.7-2.22,8.69-14.48,6.71-23.23,15.78-4.49,34.15,7.22,36.73,23.41,1.35,8.43-1.03,17.23,1.05,25.51,2.08,8.28,12.39,15.5,18.93,10.01-2.64-12.93-5.28-25.85-7.92-38.78,10.43-2.28,17.77,9.53,22.82,18.94,5.05,9.4,16.57,19.29,24.89,12.62-4.14-18.63-17.24-35.06-34.48-43.26,7.62-7.67,20.27-.59,29.02,5.74,8.76,6.34,23.8,10.32,28.08.39,3.32-7.69-4.57-15.92-12.62-18.21s-16.94-1.49-24.53-5.02c-7.59-3.54-12.54-14.81-6.08-20.14,3.22-2.65,7.78-2.6,11.88-3.33,11.31-2.01,20.89-11.54,22.97-22.84-19.17,2.27-38.29,4.9-57.36,7.87-2.87-11.95,3.46-25.48,14.47-30.93-2.68-4.81-9.88-4.92-14.68-2.22-4.8,2.7-8.23,7.29-12.65,10.58-12.58,9.38-29.95,6.62-45.64,6.76-34.16.29-65.91,16.18-98.08,27.67-38.25,13.66-78.61,21.36-119.2,22.75-27.47.94-55.82-1.2-80.61-13.07-23.3-11.15-42.04-30.3-56.51-51.71-8.76-12.97-16.26-27.29-18.15-42.83-3.89-32.02,20.27-64.95,51.99-70.83,46.47-8.62,88.47,34.16,135.74,34.2,7.24,0,14.71-1.1,20.83-4.96,18.63-11.75,14.79-39.9,6.37-60.25-9.06-21.87-21.18-43.1-39.31-58.32-21.65-18.18-49.79-26.22-74.97-39.05-32.3-16.46-60.24-41.38-80.28-71.58-8.58-12.94-15.97-28.45-12.25-43.52,4.58-18.54,23.94-29.13,42.1-35.03,17.36-5.63,35.84-9.07,53.87-6.28,28.83,4.47,52.63,23.93,76.56,40.63,23.92,16.7,52.45,31.81,81,25.82-7.85-15.02-17.68-30.04-21.42-46.48-2.12-9.32-.59-33.31-17.36-33.31Z"/>
        <path class="cls-2" d="M338.92,768.35c-5.07.7-10.38,2.13-13.83,5.92-8.78,9.66.61,24.81,10.46,33.37,34.67,30.12,78.15,47.94,116.31,73.5,38.16,25.56,73.11,63.64,74.76,109.54,1.52,42.05-28.6,72.12-67.79,87.43-39.19,15.31-89.49,6.26-123.71-18.22-6.65-4.76-20-3.49-27.4,0-10.68,5.04-3.91,22.42,4.15,31.05,27.95,29.92,91.03,49.99,131.18,41.97,40.15-8.02,73.91-32.22,114.57-37.02,40.66-4.8,83.07.39,103.13,36.08-57.62-14.7-116.92,9.83-173.38,28.49-43.14,14.25-87.79,25.34-133.22,26.25-27.62.56-57.09-3.4-78.23-21.17-22.2-18.65-30.8-48.55-37.56-76.74-4.77-19.89-9.1-41.3-1.65-60.36,7.97-20.37,27.93-33.67,48.39-41.38,15.05-5.67,32.17-8.96,47.01-2.74,11.79,4.94,20.4,15.1,29.99,23.54,11.61,10.21,25.18,18.19,39.75,23.37,7.21,2.56,14.9,4.46,22.47,3.35,13.29-1.96,23.93-13.32,27.75-26.2,3.82-12.88,1.73-26.89-2.87-39.51-12.27-33.6-41.09-58.55-71.79-76.93-30.69-18.37-64.26-31.72-94.32-51.12-14.57-9.4-28.94-21.14-34.53-37.55-5.61-16.47-1.12-35.19,8.56-49.65,14.39-21.48,39.44-34.54,65.12-37.56,25.68-3.03,51.84,3.23,75.22,14.27,14.95,7.06,64.53,42.39,29.58,55.26-13.86,5.1-27.12-4.77-39.29-9.59-15.53-6.15-32.09-9.98-48.85-7.65Z"/>
        <path class="cls-5" d="M651.06,1119.81c-15.39-10.91-41.97-16.32-60.82-16.86-46.38-1.33-83.36,30.93-129.68,37.67-40.38,5.88-87.61,8.38-124.96-13.69-23.09-13.65-71.98-43.14-44.97-76.44,27.01-33.3,47.63,23.45,102.79,24.47s93.69-19.07,108.35-61.39c7.11-20.53-3.13-57.06-13.17-76.33-28.11-53.95-88.99-80.39-144.07-106.2-14.48-6.78-29.47-14.3-38.75-27.32-13.34-18.71-7.97-43.57,15.08-50.23,34.84-10.07,69.94,19.01,100.82,34.84,7.92,4.06,82.38,63.24,80.09,65.63,0,0,57.82-74.8,57.82-74.8-12.42-2.24-24.56-6-36.07-11.16-31.11-13.94-71.48-44.78-101.46-61.02-57.42-31.11-118.8-31.73-176.41.5-30.32,16.96-46.95,71.36-33.03,105.17,19.9,48.34,70.16,71.27,112.92,84.08,42.77,12.8,101.06,53.06,93.56,79.92-7.5,26.86-29.03,22.52-42.31,20.42-18.43-2.91-33.16-16.21-48.64-26.62-32.38-21.78-76.74-19.29-104.19,8.45-11.12,11.23-21.91,35.27-25.12,50.74-8.99,43.36-5.13,68.58,14.67,108.18,22.76,45.51,65.93,79.05,115.64,89.91,38.49,8.41,81.65,6.26,118.29-8.2,36.65-14.46,102.87-53.45,141.04-63.18,38.18-9.72,50.24,10.97,82.88,33.03,7.88-17.14-4.95-58.67-20.34-69.58Z"/>
        <path class="cls-6" d="M528.62,771.69c8.51-4.41,15.4-1.15,22.91-3.91-9.66-13.47-16.69-22.75-30.3-32.21-2.21-1.54-4.58-3.06-7.26-3.35-2.68-.3-5.73,1.02-6.53,3.6-.56,1.81.07,3.75.8,5.5,2.11,5.06,5.06,9.76,8.7,13.86-10.6-13.11-23.92-24-38.88-31.78-2.54-1.32-5.48-2.58-8.18-1.63-4.51,1.58-4.98,7.81-3.88,12.46,2.03,8.54,6.64,16.45,13.07,22.42-6.65-6.07-14.85-10.42-23.6-12.53-2.23-.54-4.97-.78-6.46.97-1.32,1.55-.96,3.88-.42,5.84,1,3.67,2.45,7.3,4.28,10.84-7.53-3.51-15.3-6.52-23.24-8.94-2.44-.75-5.13-1.43-7.48-.44-5.09,2.15-4.37,9.61-2.13,14.67,5.3,11.97,14.25,22.29,25.36,29.22-5.17-2.8-11.14-4.13-17.01-3.79-1.2.07-2.48.24-3.37,1.05-1.86,1.67-.89,4.73.32,6.92,8.41,15.26,22.46,27.33,38.82,33.34-3.72-1.34-7.79-1.72-11.69-1.08-1.41.23-2.86.63-3.89,1.62-3.09,3-.09,8.12,3.02,11.09,10.4,9.95,77.41,36.39,77.41,36.39,0,0-31.81-39.82-36.96-50.82-3.32-7.09-6.19-15.08-4.03-22.6,1.38-4.81,1.59-14.67,13.77-16.72,12.19-2.05,18.33-15.57,26.84-19.98Z"/>
        <path class="cls-2" d="M448.97,693.28c11.87,27.27,26.64,53.6,44.47,77.45,4.69,6.27,9.87,11.9,17.28,14.86,1.93.77,4.22-.84,4.72-2.68.6-2.19-.75-3.95-2.68-4.72-5.52-2.2-9.62-7.18-13.06-11.83-4.19-5.66-8.17-11.49-12.02-17.39-7.86-12.05-15.08-24.52-21.61-37.34-3.72-7.3-7.2-14.71-10.47-22.22-.83-1.9-3.61-2.34-5.25-1.38-1.96,1.15-2.21,3.34-1.38,5.25h0Z"/>
        <path class="cls-2" d="M486.62,679.19c9.44,25.44,21.37,49.95,35.7,72.99,4.03,6.47,8.25,12.83,12.64,19.06,1.19,1.69,3.36,2.49,5.25,1.38,1.68-.98,2.58-3.55,1.38-5.25-15.3-21.73-28.43-44.96-39.12-69.29-3.03-6.89-5.83-13.87-8.44-20.93-.72-1.94-2.6-3.27-4.72-2.68-1.87.51-3.41,2.77-2.68,4.72h0Z"/>
        <path class="cls-2" d="M516.91,729.74c5.68-17.91,5.45-37.56-.7-55.31-.68-1.96-2.63-3.26-4.72-2.68-1.9.52-3.36,2.76-2.68,4.72,5.74,16.57,6.01,34.52.7,51.23-1.5,4.72,5.91,6.74,7.41,2.04h0Z"/>
        <path class="cls-2" d="M428.63,693.05c4.83,11.63,9.74,23.36,17.88,33.12,7.45,8.93,17.57,15.42,29.21,16.92,2.06.26,3.84-1.95,3.84-3.84,0-2.29-1.77-3.57-3.84-3.84-9.74-1.25-18.12-7.73-24.16-15.13-7-8.58-11.32-19.14-15.52-29.27-.79-1.91-2.55-3.28-4.72-2.68-1.81.5-3.48,2.8-2.68,4.72h0Z"/>
        <path class="cls-2" d="M588.22,836.89c-3.88-3.5-6.11-8.42-9.47-12.42-3.36-4-9.05-7.06-13.71-4.71-3.78,1.91-5.46,6.7-9.29,8.51-4.76,2.25-10.23-1.12-14.07-4.72-3.85-3.6-7.97-7.9-13.24-7.82-4.29.07-8.05,3.24-10.05,7.04s-2.59,8.16-3.14,12.41c-8.63-2.44-19.03.4-23.73,8.04-4.7,7.64-1.36,19.55,7.22,22.17-2.99,9.1,6.73,19.6,16.04,17.34,1.16-.28,2.31-.72,3.5-.6,4.69.48,4.37,7.68,7.52,11.18,5.99,6.66,17.26-4.37,25.55-.96,5.66,2.33,7.46,10.6,13.41,12.07,4.13,1.02,8.62-1.83,12.63-.4,3.03,1.08,5.17,4.43,8.39,4.46,3.13.03,5.38-3.14,8.42-3.88,2.8-.68,5.61.81,8.41,1.51,2.8.7,6.58.03,7.23-2.78.76-3.26-3.26-5.4-6.48-6.31l-42.08-11.87c-8.09-2.28-16.31-4.62-23.34-9.23s-12.79-11.92-13.41-20.29c-.62-8.42,4.5-16.97,12.23-20.38,8.16-3.61,18.64.94,26.86,4.41,8.22,3.47,27.27,11.93,35.91,14.14,5.27,1.35,13.69-8.37,13.69-8.37,0,0-16.22-.63-24.98-8.54Z"/>
        <path class="cls-2" d="M567.92,798.42c-.93-.06-1.89.02-2.75.4-2.26.99-3.23,3.87-2.7,6.28.53,2.41,2.22,4.4,4.05,6.06,1.65,1.49,3.57,2.85,5.78,3.15,3.3.44,6.73-1.96,7.45-5.2,1.34-5.98-6.86-10.37-11.84-10.68Z"/>
        <path class="cls-2" d="M587.22,792.32c.31,1.43.83,2.85,1.78,3.96.95,1.11,2.39,1.87,3.85,1.74,2.12-.19,3.73-2.23,4.04-4.34.31-2.11-.39-4.24-1.28-6.18-1.04-2.28-3.83-5.68-6.78-4.18-2.74,1.39-2.13,6.59-1.61,8.99Z"/>
        <path class="cls-5" d="M585.59,950.32c8.93-1.1,18.18.61,26.13,4.82.58-11.52-12.78-19.72-24.23-18.3-11.45,1.42-20.94,9.22-29.73,16.69-6.12,5.2-12.24,10.41-18.36,15.61-2.87,2.44-5.97,4.98-9.71,5.42-3.39.4-6.69-1.01-9.81-2.39-14.83-6.56-29.64-13.15-44.44-19.78l11.95,38.25c-.36-.21-.87-.25-1.15.08-.57.68-.26,1.71.13,2.51,4.01,8.19,13.42,12.77,22.54,13.02,9.12.25,17.96-3.17,25.98-7.51,12.72-6.88,24.11-16.22,33.34-27.36,7.62,6.9,13.37,15.84,16.49,25.63,2.01-10.7-.06-22.12-5.71-31.44,9.18,0,18.25,4.52,23.78,11.85,2.38-11.12-7.98-20.48-17.21-27.13Z"/>
        <path class="cls-5" d="M535.95,1069.94c5.93-6.77,13.97-11.65,22.71-13.79-7.24-8.99-22.66-6.21-30.26,2.47-7.6,8.68-9.49,20.82-11.08,32.25-1.1,7.96-2.2,15.91-3.3,23.87-.52,3.73-1.14,7.69-3.64,10.51-2.26,2.55-5.67,3.7-8.91,4.75-15.43,4.98-30.87,9.92-46.33,14.82l34.38,20.59c-.41.09-.81.39-.8.83.02.89.94,1.45,1.77,1.79,8.44,3.45,18.51.6,25.49-5.28,6.97-5.88,11.29-14.32,14.39-22.9,4.91-13.6,7.19-28.16,6.67-42.61,10.28.07,20.52,2.92,29.37,8.15-5.62-9.33-14.77-16.47-25.19-19.66,6.85-6.11,16.63-8.77,25.63-6.99-5.63-9.88-19.59-9.97-30.9-8.8Z"/>
        <path class="cls-2" d="M503.47,852.88c-29.78-4.62-58.72-14.19-85.32-28.38-13.35-7.12-26.09-15.37-38.06-24.63-12.43-9.62-24.09-20.18-35.64-30.82-22.58-20.81-44.98-42.24-71.41-58.2-12.7-7.67-26.27-14.09-40.52-18.29-13.42-3.95-28.07-6.27-42.06-4.82-11.84,1.23-23.66,5.08-33.54,11.83-9.28,6.34-17.24,15.55-19.35,26.87-.54,2.89-.76,5.81-.61,8.74.26,4.92,7.94,4.95,7.68,0-1.19-22.56,22.64-35.99,42.49-39.32,12.93-2.17,26.73-.3,39.32,2.97,13.74,3.58,26.77,9.38,39.04,16.46,26.13,15.07,48.18,35.75,70.21,56.11,22.39,20.7,45.25,40.83,71.86,56.01,25.75,14.69,53.94,25.25,83.03,30.96,3.6.71,7.21,1.33,10.84,1.9,2.05.32,4.13-.52,4.72-2.68.5-1.82-.62-4.4-2.68-4.72h0Z"/>
        <path class="cls-7" d="M412.63,710.12c-4.61-3.38-9.98-6.71-15.95-5.5-4.87.98-9.28,5.12-9.2,10.32.07,4.41,3.24,7.46,6.49,9.95,1.54,1.18,2.43,1.71,3.72,2.96.27.26.55.53.79.83-.43-.51.23.35.26.4.47.73-.08-.37.19.37.1.45.12.46.07.04.02.25.03.5.02.75,2.18-.9,4.37-1.81,6.55-2.72-7.13-7.5-20.5-4.71-24.08,4.94-1.65,4.45-.97,9.9,1.64,13.86,3.26,4.94,8.62,6.69,14.16,7.82,2.03.41,4.15-.59,4.72-2.68.52-1.9-.64-4.31-2.68-4.72-3.16-.64-7.14-1.21-9.29-3.88-1.68-2.09-2.15-5.01-1.46-7.42,1.45-5.05,8.27-5.93,11.56-2.48,2.34,2.46,6.51.54,6.56-2.72.04-3.5-1.85-6.41-4.45-8.61-2.3-1.94-4.97-3.33-6.5-5.39-.2-.28-.46-.81-.51-.97-.22-.66-.08.19-.08-.33,0-.29-.06-.22.06-.62.26-.89,1.44-1.68,2.52-2.05,3.8-1.29,8.14,2.37,11.02,4.48,1.67,1.23,4.28.28,5.25-1.38,1.14-1.95.3-4.02-1.38-5.25h0Z"/>
        <path class="cls-7" d="M360.66,699.37c-3.14-4.57-8.52-6.54-13.94-5.54-5.37,1-9.51,5.42-10.58,10.72-1.12,5.52.62,11.49,4.95,15.21,4.48,3.85,10.24,5.11,15.99,4.16-.68-2.47-1.36-4.94-2.04-7.41-4.54,1.43-9.34,3.04-12.75,6.54-3.27,3.36-5.19,8.48-3.69,13.09,1.41,4.34,5.5,7.26,9.89,7.99,5.52.92,10.6-1.22,15.51-3.5,1.88-.87,2.35-3.58,1.38-5.25-1.13-1.93-3.37-2.25-5.25-1.38-2.93,1.36-6.24,2.99-9.56,2.7-1.9-.17-4.21-1.09-4.72-3.12-.57-2.29,1.19-4.76,2.94-6.07,2.42-1.82,5.44-2.69,8.29-3.59,4.8-1.51,2.76-8.2-2.04-7.41-5.94.98-12.5-3.43-11.51-9.91.38-2.5,1.99-4.55,4.3-5.17,2.12-.57,4.89-.1,6.2,1.81,1.17,1.71,3.37,2.48,5.25,1.38,1.69-.99,2.56-3.54,1.38-5.25h0Z"/>
        <path class="cls-7" d="M252.61,713.79c-6.31-.07-10.82,4.63-13.57,9.87-2.99,5.7-6.14,13.24-2.88,19.42,2.71,5.14,9.1,7.94,14.75,7.56,7.22-.48,13.05-4.9,18.54-9.18-2.01-1.55-4.02-3.1-6.03-4.65-2.48,5.26-5.08,10.95-4.46,16.93.52,5.06,3.52,10.03,8.26,12.18,4.84,2.19,9.61.58,13.42-2.75,1.42-1.25,2.66-2.68,4.02-4,1.06-1.02,2.52-2.21,3.4-2.33,2.05-.28,3.84-1.57,3.84-3.84,0-1.86-1.77-4.12-3.84-3.84-3.92.53-6.76,2.47-9.5,5.24-1.85,1.87-3.94,4.69-6.39,4.91-2.92.26-5.16-3.25-5.55-5.79-.68-4.42,1.6-8.96,3.43-12.84,1.92-4.08-2.59-7.34-6.03-4.65-3.68,2.87-7.77,6.11-12.51,6.86-3,.48-6.91-.58-8.49-3.26-1.08-1.84-.46-4.16.2-6.16.67-2.03,1.46-4.03,2.45-5.92,1.56-2.98,3.74-6.1,6.93-6.06,4.94.06,4.95-7.62,0-7.68h0Z"/>
        <path class="cls-7" d="M223.83,792.39c-.89,6.14-.63,12.87,3.17,18.09,3.47,4.76,9.06,7.74,15.01,6.8,10.11-1.6,13.82-13.1,15.3-21.79-2.51-.34-5.03-.68-7.54-1.02-.22,8.43,1.51,20.35,10.99,23.19,5.61,1.68,11.3-1.14,14.71-5.59,3.96-5.15,4.34-11.81,4.51-18.06.13-4.94-7.55-4.94-7.68,0-.11,4.26-.06,9.15-2.5,12.86-1.67,2.53-4.83,4.45-7.52,3.21-.77-.36-1.65-1.21-2.14-1.96-.87-1.33-1.26-2.34-1.68-3.86-.91-3.22-1.09-6.4-1-9.79.11-4.22-6.8-5.36-7.54-1.02-.57,3.36-1.3,6.84-2.72,9.95-1.22,2.67-2.98,5.23-5.39,6.07-3.17,1.09-6.48-.61-8.41-3.18-2.45-3.27-2.71-7.94-2.15-11.84.3-2.05-.51-4.13-2.68-4.72-1.8-.5-4.42.62-4.72,2.68h0Z"/>
        <path class="cls-7" d="M262.06,849.24c4,3.46,7.19,7.76,11.63,10.72,3.86,2.58,9.01,3.66,13.52,2.32,5.26-1.55,8.11-6.03,8.24-11.39.07-2.97-.31-5.99-.51-8.96-.22-3.29-.44-6.57-.67-9.86h-7.68c.6,5.63,3.86,10.67,8.95,13.31,4.62,2.39,10.5,2.71,14.83-.5,3.79-2.81,5.82-7.63,5.52-12.32-.34-5.23-3.04-9.42-7.92-11.43-1.92-.79-4.22.86-4.72,2.68-.61,2.21.76,3.93,2.68,4.72-.5-.21.5.34.51.34-.41-.28.13.13.27.25.08.07.63.68.28.23.2.25.35.54.51.81.42.68.7,1.95.73,2.8.04,1.35-.08,2.18-.52,3.28-.08.2-.55,1.07-.84,1.48.11-.16-.92.93-.69.75-2.01,1.56-4.67,1.38-6.98.15-2.48-1.32-4.65-3.89-4.93-6.56-.22-2.06-1.61-3.84-3.84-3.84-1.97,0-3.98,1.76-3.84,3.84.36,5.31.74,10.62,1.08,15.93.11,1.72.43,3.78-.42,5.36-.52.96-1.34,1.34-2.53,1.63-6.98,1.75-12.43-7.05-17.23-11.19-1.57-1.35-3.89-1.54-5.43,0-1.39,1.39-1.58,4.07,0,5.43h0Z"/>
        <path class="cls-7" d="M327.05,880.31c3.82,2.74,7.81,5.32,12.58,5.92,3.99.5,8.41-.79,11.23-3.75,2.93-3.07,3.58-7.4,2.16-11.34-.7-1.94-1.69-3.75-2.59-5.6-.57-1.16-1.24-2.66-1.07-3.71-2.14.56-4.28,1.13-6.42,1.69,5.77,5.89,15.92,12.57,23.62,6,7.84-6.69,3.7-20-3.29-25.56-1.62-1.29-3.85-1.58-5.43,0-1.34,1.34-1.63,4.13,0,5.43,2.41,1.91,4.12,4.31,4.87,7.32.54,2.18.68,5.46-1.21,7.09-1.58,1.36-3.85.73-5.71-.13-2.83-1.32-5.25-3.37-7.42-5.58-1.87-1.9-5.94-1.23-6.42,1.69-.61,3.7.43,6.8,2.07,10.09.98,1.96,2.66,4.68,1.89,6.45-.77,1.76-3.4,2.52-5.33,2.33-3.59-.36-6.83-2.96-9.65-4.99-1.69-1.21-4.28-.29-5.25,1.38-1.13,1.93-.31,4.04,1.38,5.25h0Z"/>
        <path class="cls-7" d="M378.95,905.42c2.23,9.31,14.44,14.47,22.58,9.18,8.11-5.27,9.05-18.12,1.76-24.51-3.7-3.24-8.82,1.78-5.43,5.43,6.74,7.25,18.11,12.66,27.23,6.08,3.82-2.75,6.14-7.05,5.61-11.82-.53-4.81-3.43-8.99-8.15-10.44-4.74-1.45-6.76,5.96-2.04,7.41,1.67.51,2.54,2.38,2.6,4.2.07,2.12-1.42,4.08-3.69,5.11-6.06,2.75-12.17-1.7-16.13-5.97l-5.43,5.43c3.59,3.15,3.79,9.71-.2,12.45-3.91,2.69-10.18.07-11.3-4.59-1.15-4.8-8.56-2.77-7.41,2.04h0Z"/>
        <path class="cls-7" d="M417.93,937.42c0,9.51,10.1,15.77,18.89,13.88,9.41-2.03,14.6-12.64,13.92-21.57-.16-2.07-1.65-3.84-3.84-3.84-2.04,0-3.89,1.76-3.84,3.84.15,5.83,1.96,11.55,5.86,15.97,3.55,4.03,9.14,6.49,14.54,6.09,5.31-.4,10.21-3.22,12.47-8.17,2.28-5,1.8-10.42-1.64-14.74-1.29-1.62-4.08-1.35-5.43,0-1.6,1.6-1.3,3.8,0,5.43,1.36,1.7,1.01,4.42,0,6.32-1.4,2.63-4.16,3.65-7.06,3.5-7.29-.37-10.89-7.96-11.06-14.39h-7.68c.41,5.35-1.75,12.07-7.36,13.92-4.29,1.42-10.09-1.76-10.09-6.23,0-4.94-7.68-4.95-7.68,0h0Z"/>
        <path class="cls-7" d="M432.13,970.57c-.84,5.81-1.31,11.65-1.23,17.53.08,5.12.34,11.14,5.78,13.47,4.24,1.82,9.14.21,12.62-2.49,1.75-1.36,3.16-3.06,4.65-4.7,1.25-1.38,2.63-3.02,4.41-3.73-1.45-1.88-2.89-3.76-4.34-5.64-5.16,7.7-10.71,20-2.22,27.59,3.79,3.39,8.98,4.41,13.91,3.68,5.59-.82,10.42-4.01,14.97-7.17,1.7-1.18,2.48-3.37,1.38-5.25-.99-1.69-3.54-2.56-5.25-1.38-4.99,3.45-13.55,9.65-19.58,4.68-5.6-4.62.51-13.94,3.42-18.28,1.76-2.63-1.22-6.88-4.34-5.64-3.73,1.48-6.31,4.05-8.95,6.98-1.8,2-4.33,4.82-7.2,4.43-.26-.03-.58-.03-.87-.36-.14-.16-.37-.95-.45-1.28-.44-1.92-.28-4.09-.28-6.05-.02-4.8.28-9.61.96-14.36.3-2.05-.51-4.13-2.68-4.72-1.8-.5-4.43.62-4.72,2.68h0Z"/>
        <path class="cls-7" d="M411.89,1007.88c-7.41,3.79-16.41,10.64-13.23,20.21,1.53,4.61,5.39,7.93,9.82,9.66,5.07,1.98,10.72,1.45,16,.84-.34-2.51-.68-5.03-1.02-7.54-5.1,1.73-10.31,3.64-14.29,7.42-3.76,3.57-5.92,8.92-5.07,14.1.74,4.48,4.08,8.06,8.53,9.02,4.33.94,9.25-.51,11.36-4.66,2.23-4.4-4.4-8.29-6.63-3.88-.13.25-.25.5-.41.73.22-.31-.11.03-.19.13.4-.42-.4.18-.1.05.24-.1-.41.13-.49.15-.77.21-1.42.16-2.32-.14-.61-.2-1.25-.62-1.56-1.09-.69-1.01-.84-2.33-.68-3.52.89-6.58,8.54-9.09,13.89-10.91,1.8-.61,3.04-2.27,2.75-4.21-.26-1.71-1.85-3.55-3.77-3.33-5.69.65-15.7,2.06-18.41-4.86-2.16-5.52,5.78-9.53,9.7-11.54,4.4-2.25.52-8.88-3.88-6.63h0Z"/>
        <path class="cls-7" d="M370.11,1008.61c-6.32-7.43-19.35-6.23-24.51,1.9-5.31,8.36.18,20.74,9.7,22.88,3.03.68,6.34-2.71,4.34-5.64-4.89-7.16-15.79-5.54-20.13,1.41-5.48,8.77,2.6,19.3,11.18,21.68,4.77,1.32,6.8-6.08,2.04-7.41-2.43-.67-4.64-2.16-5.99-4.32-.56-.89-1.06-2.03-1.18-2.93-.08-.57-.06-1.21.02-1.7.05-.27.13-.55.21-.81.19-.58-.4.63.15-.32.82-1.41,1.98-2.12,3.85-2.58.68-.16-.1-.03.3-.06.25-.02.5-.01.75-.02.07,0,.81.05.41,0-.46-.06.47.12.57.14.27.06.47.16.1,0,.22.1.43.22.63.34.57.35-.07-.09.22.19.09.09.53.69.23.25,1.45-1.88,2.89-3.76,4.34-5.64-4.97-1.11-7.7-7.43-5.11-11.6,1.12-1.8,3.74-2.94,5.77-3.03,2.82-.13,4.85.54,6.68,2.69,1.34,1.58,4.05,1.38,5.43,0,1.57-1.57,1.35-3.85,0-5.43h0Z"/>
        <path class="cls-7" d="M316.06,977.05c-2.4-3.99-6.97-5.48-11.42-4.71-4.61.8-8.3,4.51-9.22,9.09-1.03,5.12.63,10.27,4.07,14.14,3.44,3.88,8.42,6.06,13.29,7.49,4.1,1.2,6.89-5.01,2.96-7.02-4.94-2.52-10.7-2.79-15.71-.28-4.74,2.36-7.66,7.45-7.79,12.67-.13,5.07,2.68,9.85,7.35,11.91,4.67,2.06,10.05,1.45,13.85-2.07,3.63-3.36-1.81-8.79-5.43-5.43-1.32,1.22-3.53,1.31-5.16.59-2.16-.95-3.15-3.01-2.9-5.49.57-5.65,7.22-7.66,11.92-5.26.99-2.34,1.97-4.68,2.96-7.02-5.28-1.54-12.03-4.69-12.05-11.12,0-1.14.23-2.3.92-3.25.43-.59,1.13-1.04,1.76-1.24.76-.24.6-.24,1.26-.25.28,0,.56,0,.83.01.66.05-.43-.11.2.04,1.12.26,1.24.35,1.68,1.09,2.54,4.23,9.19.37,6.63-3.88h0Z"/>
        <path class="cls-7" d="M235.38,982.57c-2.28,5.35-6.02,10.02-7.73,15.63-1.4,4.58-1.26,10.06,1.31,14.22,2.92,4.73,8.47,6.62,13.78,5.4,5.32-1.23,9.91-5.05,13.68-8.82-1.81-1.81-3.62-3.62-5.43-5.43-4.37,4.84-9.1,10.19-10.27,16.83-1.08,6.15.65,12.97,6.09,16.56,5.91,3.91,13.31,1.95,19.02-1.28,2.55-1.44,6.23-3.35,6.92-6.42.92-4.07-3.65-8.23-7.06-4.61-3.39,3.59,2.03,9.04,5.43,5.43.06-.07.13-.14.19-.2-.91.37-1.81.75-2.72,1.12.06,0,.11-.01.17-.02-.91-.37-1.81-.75-2.72-1.12.05.05.09.09.14.14-.33-.56-.66-1.13-.99-1.69.18.63.36.33.52-.88.64-1.09.7-1.41.17-.95-.43.13-.88.64-1.26.9-.87.59-1.76,1.16-2.68,1.68-1.7.96-3.46,1.75-5.38,2.19-3.11.71-6.25-.17-7.69-3.2-3.37-7.08,3.17-14.2,7.54-19.04,3.29-3.65-1.91-8.95-5.43-5.43-3.21,3.2-12.91,11.58-15.98,3.88-1.15-2.9-.47-6.33.74-9.09,1.8-4.12,4.5-7.77,6.26-11.91.81-1.91.57-4.11-1.38-5.25-1.61-.94-4.44-.54-5.25,1.38h0Z"/>
        <path class="cls-7" d="M206.48,1062.73c-1.3,10.94.82,30.4,15.2,30.97,5.78.23,11.3-2.77,14.79-7.25,3.83-4.9,5.48-10.95,6.92-16.89-2.47-.68-4.94-1.36-7.41-2.04-1.25,5.4-1.25,11.02.18,16.39,1.36,5.12,4.14,11.83,10.63,10.73,4.94-.84,9.2-5.32,12.08-9.16,2.88-3.84,4.82-8.44,5.55-13.19.31-2.05-.52-4.13-2.68-4.72-1.82-.5-4.41.62-4.72,2.68-.99,6.46-4.51,12.9-10.28,16.3-.26.15-.53.28-.8.42-.24.13-.87.08-.33.17.43.07.18.4.03-.07-.1-.31-.38-.65-.53-.95-.83-1.64-1.37-3.44-1.78-5.23-.86-3.73-.8-7.62.06-11.35,1.11-4.8-6.23-6.86-7.41-2.04-1.77,7.26-4.41,18.41-13.81,18.51-4.13.05-5.73-3.58-6.78-7.15-1.56-5.27-1.9-10.71-1.25-16.16.24-2.06-1.94-3.84-3.84-3.84-2.28,0-3.59,1.77-3.84,3.84h0Z"/>
        <path class="cls-7" d="M226.56,1134.94c2.72,5.7,5.77,11.51,11.2,15.07,4.82,3.16,11.46,4.07,16.52.93,9.24-5.73,7.52-18.61,4.88-27.46-2.47.68-4.94,1.36-7.41,2.04,2.65,8.14,8.78,19.25,19.1,16.76,4.93-1.19,8.42-5.83,9.39-10.65,1.25-6.21-1.26-12.09-3.77-17.63-2.21,1.29-4.42,2.58-6.63,3.88,3.38,7.02,11.08,12.85,19.2,11,3.52-.8,6.67-3.3,8.55-6.34,2.16-3.49,2.29-7.44.66-11.15-.84-1.9-3.61-2.34-5.25-1.38-1.96,1.14-2.22,3.35-1.38,5.25,1.08,2.45-2.26,6.02-5.07,6.27-4.63.42-8.26-3.78-10.07-7.53-.9-1.87-3.57-2.36-5.25-1.38-1.94,1.14-2.24,3.36-1.38,5.25,1.59,3.5,3.65,7.71,3.02,11.68-.38,2.39-1.89,5.13-4.52,5.41-.57.06-1.56-.18-2.23-.56-1.05-.59-1.96-1.46-2.78-2.51-1.93-2.47-3.21-5.47-4.17-8.43-1.52-4.67-8.83-2.73-7.41,2.04,1.06,3.57,1.87,7.23,1.83,10.97-.04,2.91-.68,6-2.79,7.57-2.98,2.21-7.06.98-9.76-1.1-3.78-2.91-5.84-7.71-7.84-11.89-.89-1.87-3.57-2.36-5.25-1.38-1.91,1.12-2.27,3.38-1.38,5.25h0Z"/>
        <path class="cls-7" d="M278.63,1185.68c2.99,4.58,6.16,9.19,10.84,12.2,4.07,2.61,9.61,3.57,14.21,1.84,5.04-1.9,8.31-6.63,8.15-12.06-.16-5.56-3.13-10.71-6.31-15.1-2.86-3.93-9.03-.56-6.63,3.88,4.71,8.72,18.37,10.56,24.93,2.91,6.85-7.99,2.87-20.93-6.71-24.5-3.25-1.21-5.91,2.92-4.34,5.64,4.64,8.04,17.35,9.34,23.24,1.97,6.1-7.63,1.62-20.33-7.92-22.5-4.81-1.1-6.87,6.31-2.04,7.41,2.17.5,3.75,1.99,4.55,4.01.55,1.39.66,2.24.55,3.61-.05.58-.5,1.94-.84,2.39-2.64,3.61-8.86,2.77-10.9-.76-1.45,1.88-2.89,3.76-4.34,5.64,4.33,1.62,5.98,8.61,3.02,12.01-3.29,3.78-10.23,2.64-12.57-1.7-2.21,1.29-4.42,2.58-6.63,3.88,2.58,3.56,9.48,14.02,1.81,16.19-7.12,2.02-12.15-5.81-15.43-10.82-2.69-4.12-9.35-.28-6.63,3.88h0Z"/>
        <path class="cls-7" d="M357.09,1218.63c8.15,6.03,21.97,3.79,26.38-5.82,4.71-10.26-5.23-23.85-16.62-20.71-4.25,1.17-3.27,7.37,1.02,7.54,7.25.3,15.74-3.93,16.84-11.77,1.02-7.28-6.1-15.42-13.71-12.75-3.32,1.16-3.97,6.56,0,7.41,8.34,1.78,17.38-4.9,16.98-13.76-.38-8.52-9.44-14.77-17.55-12.51-4.75,1.32-2.74,8.73,2.04,7.41,3.25-.91,7.42,1.58,7.83,5.11.43,3.68-3.82,7.09-7.26,6.35v7.41c.83-.29,1.04-.32,1.49-.14.58.23,1.24.74,1.74,1.41.81,1.09,1.17,2.54.68,3.73-1.44,3.45-5.65,4.58-9.08,4.44.34,2.51.68,5.03,1.02,7.54,2.38-.66,4.74.49,6.41,2.75,1.82,2.45,2.41,5.39.91,7.91-3,5.03-10.63,5.24-15.24,1.83-1.67-1.23-4.29-.28-5.25,1.38-1.14,1.95-.29,4.02,1.38,5.25h0Z"/>
        <path class="cls-7" d="M408.58,1160.43c.78,3.46,4.17,4.68,7.37,4.39,1.32-.12,2.54-.5,3.53-.41.65.06,1.1.41,1.51.95,1.36,1.78,1.32,3.8.25,5.71-1.54,2.77-4.28,4.64-6.88,6.33,1.55,2.01,3.1,4.02,4.65,6.03,3.14-3.5,10-3.07,12.4,1.22,1.21,2.17.78,5.05-.93,7.4-1.82,2.49-4.39,3.62-7.27,3.27-2.06-.25-3.84,1.94-3.84,3.84,0,2.28,1.77,3.59,3.84,3.84,11.09,1.32,20.25-12.01,15.04-21.85-4.59-8.67-18.09-10.48-24.67-3.15-2.78,3.1.81,8.51,4.65,6.03,6.42-4.14,13.42-10.6,10.96-19.08-1-3.46-3.44-6.52-6.9-7.72-1.85-.64-3.64-.4-5.53-.17-.03,0-1.07.09-1.49.14-.36.04-.73.25-.4.07-.12-.03-.23-.06-.35-.09.61.28,1.09.69,1.45,1.22-1.08-4.82-8.49-2.78-7.41,2.04h0Z"/>
        <path class="cls-7" d="M468.72,1153.77c.37-.61-.26.19.03-.11.14-.14.28-.28.43-.42.34-.33-.53.41.06,0,.35-.25.18-.09-.12.01.24-.08.48-.14.71-.21.26-.08.86-.04.03-.03.21,0,.41-.02.62-.02.11,0,.99.06.43,0-.56-.06.4.09.43.1.21.05.41.11.62.17.1.03.91.38.44.15-.42-.2.2.12.27.16.23.14.46.28.69.42-.29-.18-.29-.28-.02,0,.19.19.38.37.57.56.36.36-.37-.71.08.1.1.18.21.37.32.55.38.62-.08-.38.05.17.07.27.15.54.21.81.05.27.06.27.02,0,0,.14.02.27.03.41,0,.27,0,.55,0,.82,0,1.17.08-.24-.04.41-.12.61-.28,1.22-.51,1.8.15-.39-.18.36-.22.43-.16.32-.34.63-.53.93-.37.6-.41.67-.81,1.13-.93,1.07-1.63,1.66-2.66,2.32,1.75,1.75,3.5,3.5,5.25,5.25.12-.2.25-.4.39-.59-.25.31-.23.29.06-.05.25-.25.48-.51.74-.75.17-.16.35-.31.53-.46-.27.21-.29.23-.07.08.34-.23.69-.45,1.05-.64.05-.03,1.08-.52.36-.21.43-.18.89-.33,1.34-.46.34-.1.69-.16,1.04-.24.87-.21-.44-.02.38-.06.82-.03,1.64-.07,2.46.04-.86-.11.34.1.51.14.39.1.77.22,1.15.36-.74-.27.17.1.33.18.13.07,1.27.84.64.35.27.21.52.45.76.7.16.17.32.34.47.52-.21-.27-.24-.3-.09-.09.21.33.4.66.57,1.01-.36-.76.03.18.07.31.03.12.24,1.27.18.77-.06-.51,0,.68,0,.8,0,.33-.03.66-.07.99.11-.94-.13.44-.18.62-.09.32-.2.64-.31.96-.22.66.25-.33-.23.46-.2.33-.4.67-.6,1-.48.83.45-.42-.2.28-.3.32-.61.62-.91.93-.54.54.47-.22-.24.19-.28.16-.55.32-.82.48-.4.19-.38.18.05,0-.2.07-.4.13-.61.19-.22.06-1.1.11-.24.08-.45.02-.88.02-1.32-.02-2.07-.17-3.84,1.89-3.84,3.84,0,2.22,1.76,3.67,3.84,3.84,7.69.64,13.72-7.25,13.34-14.48-.21-4.1-2.25-7.64-5.67-9.91-3.26-2.17-7.35-2.59-11.13-1.95-4.26.72-8.08,3.3-10.38,6.93-2.04,3.22,2.03,7.3,5.25,5.25,6.47-4.1,11.81-13.67,6.53-20.79-4.28-5.77-14.08-7.11-18.16-.36-2.56,4.24,4.08,8.11,6.63,3.88h0Z"/>
        <path class="cls-7" d="M518.72,1140.25c.55-.4,1.12-.76,1.72-1.08.3-.16.61-.31.93-.45-.75.33.29-.08.37-.11.65-.22,1.32-.38,1.99-.51,1.05-.21-.74.01.33-.04.34-.02.67-.04,1.01-.04.33,0,.66.03.99.05-.67-.04-.06-.02.27.06.32.07.62.18.94.25.67.15-.21-.19.13.02.27.16.57.31.84.46.14.08.27.17.4.26-.3-.24-.35-.28-.14-.1.23.21.45.53.7.69.27.18-.32-.58.06.13.25.47.13.34.01-.06.07.26.15.52.22.77.24.77.03-.71,0,.05,0,.27,0,.55,0,.82,0,.87.21-.78-.01.07-.07.27-.13.54-.21.8-.08.27-.46.9-.01.11-.14.24-.24.49-.38.73-.14.23-.29.45-.44.68.33-.48.26-.32-.08.02-.2.2-.83.58,0,.06-.21.13-.43.25-.63.39-.59.41.75-.23.01-.03-.65.18.61.09.18,0-.12.01-.25.01-.37,0-.34-.02-.33-.02,0,.02.34.05.34.04,0-.03-.18-.05-.35-.11-.52-.17.31,2.34.61,4.68.92,7.02.53-.39,1.18-.64,1.7-1.03.25-.12.18-.09-.22.08.19-.07.38-.14.58-.21.29-.09.59-.18.89-.25.3-.07.6-.12.91-.17-.97.16.03.03.2.02.62-.03,1.23,0,1.84.06-1-.1.11.05.33.1.3.07.58.17.87.25.93.24-.3-.23.34.11.26.14.53.27.79.42.26.15.5.32.74.49-.75-.53,0,.04.12.16.21.21.41.43.6.65-.61-.71.05.16.16.33.08.13.15.27.22.4-.16-.41-.19-.48-.09-.22.05.32.19.69.28,1.01-.16-.61-.02-.31-.01.16,0,.3-.03.6-.03.89,0-.89,0-.11-.06.16-.07.3-.17.58-.26.87-.24.81.31-.47-.09.2-.18.3-.36.61-.53.92-.08.13-.17.25-.26.37.27-.34.31-.4.13-.19-.26.2-.48.53-.72.75-.18.17-.89.59-.14.14-.24.15-.5.3-.74.45-.69.45.66-.13-.13.07-.28.07-.55.15-.83.21.95-.24.15-.07-.12-.04-.44-.03-.39,0,.15.06-.2-.03-.4-.08-.59-.13-1.95-.48-4.25.62-4.72,2.68-.45,1.98.6,4.21,2.68,4.72,7.09,1.74,13.1-4.23,13.89-10.96.38-3.26-.95-6.54-3.23-8.85-2.33-2.36-5.47-3.54-8.72-3.89-3.35-.36-7.04.54-9.77,2.54-2.73,2.01-2.32,5.82.92,7.02,8.2,3.02,14.26-7.68,11.39-14.47-3.53-8.37-15.19-7.99-21.54-3.42-1.68,1.21-2.5,3.34-1.38,5.25.97,1.66,3.56,2.6,5.25,1.38h0Z"/>
        <path class="cls-7" d="M576.84,1118.84c1.48-.05,2.7.33,3.74,1.19.77.64,1.03.97,1.47,1.77.28.51.25.44.38.89.03.12.21,1.2.17.7.11,1.39-.33,2.71-.99,3.6-1.04,1.4-2.11,1.95-3.65,2.27,1.57,1.57,3.15,3.15,4.72,4.72-.21.63.21-.22-.05.14-.09.13-.35.57-.22.28.19-.1.19-.1,0,0-.26.11-.2.1.18-.02-.11-.09-.54,0,.04,0,.25,0,.49,0,.74,0,1.09.01-.29-.09.31.05.25.06.5.12.75.19.2.06.81.32.33.09,2.01.93,3.93,2.88,4.6,4.76.39,1.1.39,1.65.21,2.53-.08.37.27-.35-.08.22-.13.2-.23.41-.37.6.45-.61-.76.64-.5.44.29-.22-1.3.65-.54.35-.27.11-.55.16-.83.25-.53.18.56,0,.02.02-.28.01-.55.02-.83,0,.59.05.17-.12.06-.04-.05.04.67.09.02,0-.32-.21-.37-.24-.15-.09.22.16.18.11-.12-.17-3.44-3.56-8.87,1.87-5.43,5.43,3.12,3.23,8.17,3.21,11.78.79,4.09-2.73,5.75-7.69,4.17-12.38-1.55-4.61-5.47-8.64-10.11-10.16-4.51-1.48-9.74-.13-11.37,4.68-1.01,2.96,2.05,5.27,4.72,4.72,6.08-1.24,10.86-7.46,10.24-13.69-.66-6.67-6.65-12.04-13.4-11.81-4.93.17-4.95,7.85,0,7.68h0Z"/>
        <path class="cls-7" d="M624.71,1123.75c.08-.09.64-.69.2-.29-.42.38.2-.09.26-.13-.12.1-.69.36-.21.13.71-.34-.58.13-.15.03.86-.19-.18.07-.12-.06.02-.04.6.16.64.17.37.03-.69-.41-.03-.02.16.1.33.18.49.28.03.02.75.54.32.2-.43-.35.2.2.28.28.18.17.32.37.5.54.32.3-.36-.68.01.06.09.17.19.35.3.51.42.66-.03-.36.02.02.03.22.13.48.19.7-.13-.43-.05-.55-.03-.01,0,.09-.02.73.02.25.05-.55-.1.41-.13.52-.07.29-.17.57-.27.85-.2.56.42-.69-.11.22-.27.46-.53.92-.84,1.36-.22.32.28-.27-.18.22-.21.22-.41.46-.62.68-.39.4-.79.79-1.21,1.15-.24.21-.48.41-.72.61-.15.12-.68.52-.27.21-1,.75-2.05,1.44-3.1,2.12l5.25,5.25c-.15.22-.34.47-.06.11-.32.4-.45.1.01.03.43-.07-.54.27-.15.06.07-.04.73-.28.18-.08-.48.17.18.02.35,0,.47-.04.14.02-.15-.05.18.05.38.1.57.13.43.07.18.08-.1-.08.2.11.42.27.63.36.38.16-.48-.07-.1-.06,0,0,.6.55.17.16-.31-.27,0,.27-.05-.06-.06-.48.08.36.12.47-.11-.31,0-.5-.03-.05,0,.22,0,.43-.03.65.05-.56.03-.26-.09.11-.03.08-.28.71-.1.32.18-.4-.14.22-.18.29-.04.07-.44.63-.18.3.3-.38-.31.29-.37.36-.23.26-.32.22,0,.03-.19.12-.38.23-.57.34.35-.19.23-.07-.08.02.02,0-1.01.25-.56.17.39-.07-.32.01-.4.01-.25,0-.49,0-.74-.02-.4-.02.41.14-.26-.06-.24-.07-.48-.13-.72-.2-.22-.06-.5-.19-.13-.02-.23-.1-.45-.22-.67-.34.02.01-.84-.52-.55-.32.28.2-.48-.42-.47-.42-1.53-1.4-3.92-1.51-5.43,0-1.42,1.42-1.53,4.02,0,5.43,3.11,2.85,7.45,4.36,11.62,3.27,3.9-1.01,6.91-4.45,7.45-8.43.56-4.19-1.6-7.96-5.59-9.44-3.71-1.38-7.74-.06-9.98,3.14-2.21,3.16,2.12,7.28,5.25,5.25,5.58-3.62,12.83-9.36,10.94-17-1.54-6.23-10.48-11.54-15.51-5.66-1.35,1.57-1.55,3.88,0,5.43,1.38,1.38,4.08,1.58,5.43,0h0Z"/>
        <path class="cls-7" d="M656.13,1150.64c.06.23.08.68.2.87-.02-.19-.05-.39-.07-.58.02.15.03.3.04.44.03.5-.11,1.07-.04,1.56-.06-.4.14-.83,0-.14-.05.22-.1.44-.16.65-.07.25-.17.49-.25.74-.11.27-.05.14.18-.4-.06.14-.12.27-.19.41-.22.43-.47.85-.74,1.25-.54.76.48-.53-.02.02-.15.16-.3.33-.46.49-.18.18-.38.35-.58.52-.22.18-.11.1.34-.26-.12.09-.24.17-.37.25-.19.12-.38.24-.57.34-.11.06-.96.53-.35.19.58-.33-.22.05-.39.1-.22.06-.43.1-.65.16-.75.19.86-.05.14-.01-.3.02-.59.04-.89.04-.22,0-.45-.02-.67-.03-.78-.03.85.18.13.02-.51-.11-1.02-.22-1.52-.4-.14-.05-.28-.1-.42-.16.17.07.34.14.51.21-.16-.17-.59-.29-.8-.41-.19-.11-.38-.23-.57-.35-.09-.06-.18-.13-.27-.19-.23-.17-.12-.08.33.26-.21-.36-.82-.78-1.12-1.09-.53-.56.46.73.06.07-.16-.26-.32-.5-.47-.76-.97-1.76-3.54-2.48-5.25-1.38-1.78,1.15-2.42,3.37-1.38,5.25,2.3,4.16,7.13,6.81,11.87,6.62,5.34-.22,9.51-3.66,11.43-8.51.97-2.45,1.07-5.3.37-7.84-.53-1.94-2.75-3.32-4.72-2.68-1.98.64-3.25,2.65-2.68,4.72h0Z"/>
      </g>
      <path class="cls-3" d="M183.02,98.51c-10.16,21.51-2.39,66.32-11.05,78.48-8.86,12.45-29.19,8.6-32.39-10.86-3.57-21.72-3.16-29.51-2.05-61.22,1.11-31.71,5.38-58.05,4.27-71.34-1.11-13.29-25.8-33.57-25.8-33.57,0,0-24.4,20.62-25.33,33.92-.93,13.3,3.7,39.58,5.25,71.27,1.55,31.69,3.68,39.47.41,61.23-2.93,19.51-23.21,23.63-32.24,11.3-8.82-12.04-1.66-56.96-12.12-78.32C39.03,72.94-.04,89.42,0,95.47c.04,6.05,16.91,15.01,21.53,25.66,4.61,10.65-3.31,59.63,10.14,82.04,13.45,22.41,64.05,25.11,64.05,25.11l-6.01,141.91,59.31-.41-7.96-141.82s50.56-3.4,63.7-25.99c13.14-22.59,4.55-71.46,9.02-82.17,4.47-10.71,21.21-19.9,21.17-25.95s-39.33-21.99-51.92,4.65Z"/>
      <path class="cls-10" d="M171.42,355.89c-5.05-17.55-26.27-30.16-43.37-30.39-40.52-.56-73.96,25.98-95.17,61.64C15.8,415.85,0,472.46,3.99,536.17c0,0,7.85,4.18,10.52,5.61,1.29-16.42,9.08-25.21,9.08-25.21-3.4,13.62-3.65,22.67-2.94,28.48,8.67,4.62,12.29,6.55,24.01,12.79-.5-32.07,15.69-62.59,15.69-62.59-9.85,25.87-8.84,51.81-6.79,67.33,8.74,4.66,20.93,11.15,20.93,11.15,0,0,16.86-59.84,33.24-78.48,23.63-26.9,45.71-46.29,56.37-67.89,9.68-19.62,13.64-49.53,7.32-71.47Z"/>
    </g>
  </g>
</svg>