<svg width="49" height="48" viewBox="0 0 49 48" fill="none" xmlns="http://www.w3.org/2000/svg">
<g clip-path="url(#clip0_334_2321)">
<path d="M20.3778 24.0236C20.3778 23.1596 20.683 22.3343 21.2332 21.6809C19.9222 19.6349 17.1282 15.8867 14.2354 15.8867C13.711 15.8867 13.2124 16.0071 12.7138 16.2607L12.6063 16.308C12.5548 16.3252 11.1019 16.8582 10.2207 19.5575C9.34386 22.2569 10.2078 23.5421 10.2465 23.598L10.2981 23.6883C10.9815 25.0294 12.2883 25.6827 14.2956 25.6827C16.462 25.6827 18.882 24.8918 20.3821 24.2986C20.3821 24.2041 20.3778 24.1181 20.3778 24.0236Z" fill="#BE1E2D"/>
<path d="M20.915 25.9236C18.0136 26.6801 12.559 28.6101 13.1521 32.3411L13.165 32.3969L13.1607 32.4528C13.165 32.5044 13.2209 34.0518 15.5162 35.7239C16.247 36.2526 16.896 36.5707 17.4548 36.7641C18.0093 36.9532 18.4692 37.0091 18.8174 37.0091C19.1656 37.0091 19.359 36.9532 19.3633 36.9489L19.4621 36.9274C23.1931 36.3343 23.3436 30.5529 23.1674 27.5613C22.2346 27.3378 21.4179 26.7446 20.915 25.9236Z" fill="#BE1E2D"/>
<path d="M24.8739 27.5612C24.6934 30.5528 24.8481 36.3342 28.5748 36.9273L28.6909 36.9531C28.6909 36.9531 28.8843 37.009 29.2239 37.009C29.9288 37.009 31.0679 36.7855 32.5293 35.7238C34.8247 34.056 34.8848 32.5086 34.8848 32.4398L34.8934 32.3367C35.4866 28.6057 30.032 26.6757 27.1349 25.9192C26.6233 26.7445 25.8067 27.3377 24.8739 27.5612Z" fill="#BE1E2D"/>
<path d="M26.1248 24.8748L26.1807 24.7373L26.2193 24.5782C26.2709 24.3891 26.2924 24.2086 26.2924 24.028C26.2924 23.3575 25.9958 22.7256 25.4843 22.2915L25.3812 22.2012L25.2565 22.1196C24.5172 21.6424 23.5243 21.6424 22.7892 22.1196L22.6603 22.2055L22.5442 22.3044C22.0413 22.7342 21.749 23.3661 21.749 24.028C21.749 24.2043 21.7705 24.3848 21.8178 24.5696L21.8565 24.733L21.9124 24.8748C22.239 25.6743 22.9999 26.2331 23.8595 26.2933L24.0186 26.3019L24.1733 26.2933C25.0416 26.2288 25.8067 25.67 26.1248 24.8748Z" fill="#BE1E2D"/>
<path d="M26.7949 21.668C27.3537 22.3214 27.6632 23.1553 27.6632 24.0236C27.6632 24.1138 27.6589 24.2127 27.6503 24.3072C29.1461 24.8918 31.5532 25.6784 33.7153 25.6784C35.7227 25.6784 37.0294 25.0251 37.7128 23.684L37.773 23.5851C37.8031 23.5378 38.667 22.2526 37.7902 19.5532C36.9133 16.8539 35.4562 16.3209 35.396 16.3037L35.3014 16.2607C34.8114 16.0114 34.2999 15.8867 33.7798 15.8867C30.8913 15.8867 28.1059 19.622 26.7949 21.668Z" fill="#BE1E2D"/>
<path d="M24.0228 20.3787C24.5214 20.3787 25.0028 20.4818 25.4585 20.6753C27.3454 18.367 30.5778 13.6302 27.9214 10.9738L27.8441 10.8878C27.814 10.8449 26.8554 9.62842 24.0185 9.62842C21.1644 9.62842 20.2015 10.8792 20.1886 10.8878L20.1156 10.9738C17.4592 13.6302 20.6916 18.367 22.5785 20.6753C23.0342 20.4818 23.5242 20.3787 24.0228 20.3787Z" fill="#BE1E2D"/>
<path d="M16.3033 4.70679L4.71484 16.2952V31.7049L16.3033 43.2933H31.713L43.3014 31.7049V16.2952L31.713 4.70679H16.3033ZM35.8867 15.0229C36.2735 15.169 38.0832 16.0158 39.0976 19.1321C40.112 22.2485 39.1406 23.9979 38.917 24.3418C38.4528 25.2272 37.7737 25.9064 36.9054 26.3577C36.0285 26.8176 34.9582 27.0498 33.7203 27.0498C33.5785 27.0498 33.4366 27.0412 33.2991 27.0369C35.2075 28.3135 36.6174 30.0887 36.2564 32.513C36.2349 32.9256 35.9899 34.9072 33.3378 36.8329C32.4609 37.469 31.6571 37.8559 30.9607 38.088C30.2644 38.3115 29.6755 38.3803 29.2242 38.3803C28.7643 38.3803 28.4548 38.3072 28.3172 38.2728C25.893 37.8688 24.6421 35.9603 24.0232 33.7423C23.3999 35.9603 22.1491 37.8688 19.7291 38.2728C19.5915 38.3072 19.2778 38.3803 18.8178 38.3803C17.9109 38.3803 16.4666 38.1095 14.7086 36.8329C12.0565 34.9072 11.8115 32.9256 11.79 32.513C11.4289 30.0887 12.8388 28.3135 14.7473 27.0369C14.5968 27.0412 14.4507 27.0498 14.3002 27.0498C11.8201 27.0498 10.019 26.1127 9.09919 24.3418C8.87567 23.9979 7.90854 22.2485 8.91866 19.1321C9.93308 16.0201 11.7427 15.169 12.1295 15.0229C12.8001 14.6833 13.5136 14.5157 14.2358 14.5157C15.68 14.5157 17.0469 15.1862 18.2762 16.1491C17.5025 14.0128 17.4209 11.769 19.1187 10.0411C19.3766 9.723 20.7435 8.26155 24.0189 8.26155C27.2942 8.26155 28.6568 9.723 28.919 10.0411C30.6169 11.7647 30.5395 13.9956 29.7744 16.1276C30.9908 15.1733 32.3448 14.52 33.7805 14.52C34.5026 14.5157 35.2118 14.6833 35.8867 15.0229Z" fill="#BE1E2D"/>
<path d="M14.4246 0L0.0078125 14.4168V33.5875L14.4246 48.0043H33.5953L48.0121 33.5875V14.4168L33.591 0H14.4246ZM45.1408 32.47L32.4778 45.133H15.5422L2.87483 32.47V15.5343L15.5422 2.86702H32.4778L45.1408 15.53V32.47Z" fill="#BE1E2D"/>
</g>
<defs>
<clipPath id="clip0_334_2321">
<rect width="48.0043" height="48.0043" fill="white" transform="translate(0.0078125)"/>
</clipPath>
</defs>
</svg>
