<?xml version="1.0" encoding="utf-8"?>
<!-- Generator: Adobe Illustrator 25.0.0, SVG Export Plug-In . SVG Version: 6.00 Build 0)  -->
<svg version="1.1" id="Layer_1" xmlns="http://www.w3.org/2000/svg" xmlns:xlink="http://www.w3.org/1999/xlink" x="0px" y="0px"
	 viewBox="0 0 144 327" style="enable-background:new 0 0 144 327;" xml:space="preserve">
<style type="text/css">
	.st0{fill:#FFFFFF;}
	.st1{fill:none;stroke:#AD9F95;}
	.st2{fill:#AD9F95;fill-opacity:0.7;}
</style>
<rect x="0.5" y="0.5" class="st0" width="143" height="326"/>
<rect x="0.5" y="0.5" class="st1" width="143" height="326"/>
<path class="st2" d="M20.5,290.6h4.3v11.2h10.3v4.6H20.5V290.6z M35.1,19.6v4.6h0H24.8v11.2h-4.3V19.6H35.1z M124.5,35.4h-4.3V24.2
	h-10.3v-4.6h14.6V35.4z M108.5,301.8v4.6H36.5v-4.6H108.5z M31.4,300.2v-4.1h3.7v4.1H31.4z M29.9,296.1v4.1h-3.7v-4.1H29.9z
	 M29.9,290.6v4h-3.7v-4H29.9z M24.8,289h-4.3V37h4.3V289z M29.9,31.4v4.1h-3.7v-4.1H29.9z M29.9,25.8v4h-3.7v-4H29.9z M35.1,29.8
	h-3.7v-4h3.7V29.8z M40.2,25.8v4h-3.7v-4H40.2z M103.3,24.2H41.7h-5.1v-4.6h71.9v4.6H103.3z M108.5,29.8h-3.7v-4h3.7V29.8z
	 M113.6,25.8v4h-3.7v-4H113.6z M115.1,29.8v-4h3.7v4H115.1z M115.1,35.4v-4.1h3.7v4.1H115.1z M118.8,41h-3.7v-4h3.7V41z M120.2,289
	v-5.7V42.6V37h4.3v252H120.2z M115.1,294.5v-4h3.7v4H115.1z M115.1,300.2v-4.1h3.7v4.1H115.1z M109.9,296.1h3.7v4.1h-3.7V296.1z
	 M118.8,284.9v4h-3.7v-4H118.8z M109.9,294.5v-4h3.7v4L109.9,294.5L109.9,294.5z M108.5,296.1v4h-3.7v-4H108.5z M109.9,31.4h3.7v4.1
	h-3.7V31.4L109.9,31.4z M26.2,41v-4h3.7v4H26.2z M35.1,31.4L35.1,31.4l0,4.1h-3.7v-4.1L35.1,31.4L35.1,31.4z M36.5,300.1v-4h3.7v4
	H36.5z M35.1,294.5h-3.7v-4h3.7L35.1,294.5L35.1,294.5L35.1,294.5z M26.2,284.9h3.7v4h-3.7V284.9z M41.7,300.2v-5.7h-5.1V289h-5.2
	v-5.7h-5.2V42.6h5.2V37h5.2v-5.6h5.1v-5.6h61.7v5.6h5.2V37h5.2v5.6h5.2v240.7h-5.2v5.7h-5.2v5.5h-5.2v5.7H41.7z M109.9,306.4v-4.6
	h10.3v-11.2h4.3v15.9H109.9z M126,18H19v290h107V18z"/>
</svg>
