<svg width="168" height="171" viewBox="0 0 168 171" fill="none" xmlns="http://www.w3.org/2000/svg">
<path d="M162.066 75.5345C156.878 59.4659 133.596 36.312 110.82 29.4797C88.0445 22.6474 62.991 25.8105 41.2273 35.5529C28.574 41.2465 17.9452 50.3562 9.59404 61.2373C1.11633 72.1183 -1.28781 82.2403 0.610187 95.9049C1.87552 105.268 7.44295 121.463 12.3777 129.56C18.3248 139.176 20.7289 143.731 29.3332 151.069C44.011 163.469 63.244 170.174 82.6036 170.681C101.837 171.187 121.07 165.493 137.645 155.751C143.972 151.955 148.401 148.159 152.829 142.339C159.409 133.862 162.826 112.48 164.597 101.852C166.368 91.097 166.622 89.7052 162.066 75.5345Z" fill="#EA2C37"/>
<path d="M82.9824 72.8779C91.7132 75.4084 100.191 79.2041 107.909 84.1386C111.832 86.5425 115.501 89.3261 119.044 92.2361C120.816 93.7544 122.461 95.2727 124.106 96.9175C125.751 98.5623 127.395 100.081 128.914 101.978C130.306 103.876 131.571 105.901 132.457 108.178C133.343 110.329 133.975 112.733 134.481 114.884C135.367 119.312 136.126 123.867 136.506 128.422C136.885 132.977 137.012 137.532 136.885 142.087C136.632 146.641 136.253 151.196 135.494 155.625C136.126 146.515 135.747 137.532 134.608 128.549C133.975 124.12 133.216 119.692 132.204 115.264C131.698 112.986 131.191 110.962 130.306 108.937C129.42 106.913 128.281 105.015 127.016 103.37C125.751 101.725 124.106 100.081 122.461 98.5623C120.816 97.044 119.171 95.5257 117.526 94.0074C114.11 90.9709 110.567 88.3139 106.897 85.6569C99.4317 80.5959 91.4601 76.2941 82.9824 72.8779Z" fill="#A61721"/>
<path d="M76.7821 74.1436C70.9616 80.5963 65.1411 86.9225 60.0798 93.8813C55.145 100.84 50.9694 108.432 48.9449 116.529C46.9204 124.753 47.4265 133.357 49.198 141.707C50.9694 150.058 53.7532 158.282 56.4104 166.506C52.7409 158.662 49.3245 150.691 47.3 142.214C46.1612 138.038 45.5285 133.61 45.2754 129.182C45.1489 124.753 45.5285 120.325 46.5408 116.023C48.6918 107.419 53.1205 99.5749 58.5614 92.7426C64.0023 85.7838 70.329 79.9637 76.7821 74.1436Z" fill="#A61721"/>
<path d="M7.94922 65.7925C13.1371 64.0212 18.4515 63.009 23.8924 62.3764C29.3333 61.7437 34.7742 61.7437 40.3417 62.2498C45.7826 62.7559 51.2235 63.7681 56.4114 65.2864C61.7258 66.8047 66.7871 68.8291 71.4688 71.4861C66.281 69.8413 61.0931 68.323 55.9052 67.1843C50.7174 66.0456 45.403 65.2864 40.0886 64.7803C34.7742 64.2742 29.4598 64.1477 24.0189 64.2742C18.7045 64.5273 13.3901 65.0334 7.94922 65.7925Z" fill="#A61721"/>
<path d="M51.8574 34.668C55.1473 36.3128 58.0575 38.4637 60.8413 40.9942C63.625 43.3981 66.0291 46.1817 68.3067 49.0917C70.4578 52.0018 72.4823 55.1649 74.0007 58.4545C75.5191 61.7441 76.7844 65.1603 77.5436 68.8295C75.7721 65.6664 74.1272 62.5033 72.2292 59.4667C70.3312 56.4301 68.4332 53.5201 66.2822 50.61C64.1311 47.6999 61.8535 45.0429 59.4494 42.3859C57.0453 39.7289 54.3881 37.1985 51.8574 34.668Z" fill="#A61721"/>
<path d="M114.111 32.2637C111.074 34.5411 108.037 36.692 105.253 39.096C102.47 41.4999 99.686 44.0304 97.1554 46.6874C94.6247 49.3444 92.2206 52.128 89.943 55.038C87.6654 57.9481 85.5143 60.9846 83.3633 64.1477C84.5021 60.4785 86.2735 57.0624 88.2981 53.8993C90.3226 50.6097 92.7267 47.6996 95.3839 44.9161C98.0411 42.1326 100.951 39.7286 104.115 37.5777C107.151 35.4268 110.441 33.6554 114.111 32.2637Z" fill="#A61721"/>
<path d="M91.5879 67.1852C98.1676 66.2995 104.874 65.9199 111.58 65.9199C118.286 66.0464 124.993 66.5525 131.572 67.5647C134.862 68.0708 138.152 68.7034 141.442 69.3361C144.732 70.0952 148.022 70.7278 151.185 71.8665C154.348 73.0053 157.638 74.5236 160.042 77.054C162.446 79.5845 163.965 83.0007 163.585 86.2903C163.332 82.8741 161.561 79.9641 159.157 77.9397C156.752 75.7888 153.716 74.5236 150.552 73.6379C147.389 72.7522 144.099 72.1196 140.936 71.487C137.646 70.8544 134.483 70.3483 131.193 69.8422C124.613 68.83 118.033 68.1974 111.454 67.6913C105 67.4382 98.2941 67.3117 91.5879 67.1852Z" fill="#A61721"/>
<path d="M107.405 142.718C99.6862 137.531 89.184 136.772 80.7063 140.821C78.3021 141.959 75.7715 143.731 75.0123 146.388C74.5061 148.159 74.8858 150.183 75.898 151.828C76.9103 153.473 78.3022 154.738 79.8205 155.877C83.8696 158.787 88.9309 160.558 93.9922 160.179C99.0535 159.799 103.988 157.395 107.025 153.473C108.29 151.828 109.176 149.93 109.303 147.906C109.556 145.882 108.797 143.604 107.405 142.718Z" fill="#87BC9D"/>
<path d="M134.103 120.577C129.168 126.397 125.245 133.103 122.335 140.315C121.576 142.213 120.943 144.237 120.817 146.262C120.69 148.286 121.323 150.437 122.715 151.955C124.233 153.473 126.384 154.106 128.535 154.233C134.103 154.612 139.797 151.955 143.213 147.527C146.629 143.098 147.515 136.899 145.617 131.585C143.719 126.271 139.037 122.095 134.103 120.577Z" fill="#87BC9D"/>
<path d="M162.826 105.647C156.753 111.214 153.337 119.565 153.716 127.789C153.716 128.928 153.969 130.32 154.981 130.952C156.247 131.838 157.892 131.079 159.157 130.193C164.851 126.271 168.267 119.439 167.888 112.353C167.761 110.455 167.129 108.431 166.116 106.913C165.737 106.28 165.104 105.647 164.471 105.394C163.586 105.141 162.7 105.268 162.826 105.647Z" fill="#87BC9D"/>
<path d="M104.872 85.5307C106.391 86.2898 106.897 88.0611 106.138 89.5794C105.379 91.0977 103.607 91.7303 102.089 90.9712C100.57 90.212 100.064 88.4407 100.823 86.9224C101.583 85.4041 103.354 84.7715 104.872 85.5307Z" fill="white"/>
<path d="M109.808 85.4037C111.326 86.1629 111.833 87.9342 111.073 89.4525C110.314 90.9708 108.543 91.6034 107.024 90.8442C105.506 90.0851 105 88.3138 105.759 86.7955C106.518 85.2772 108.29 84.6446 109.808 85.4037Z" fill="white"/>
<path d="M114.617 82.7475C116.135 83.5066 116.641 85.2779 115.882 86.7962C115.123 88.3145 113.351 88.9471 111.833 88.188C110.314 87.4288 109.808 85.6575 110.568 84.1392C111.327 82.4944 113.098 81.9883 114.617 82.7475Z" fill="white"/>
<path d="M115.501 79.0775C117.02 79.8367 117.526 81.608 116.767 83.1263C116.007 84.6446 114.236 85.2772 112.718 84.5181C111.199 83.7589 110.693 81.9876 111.452 80.4693C112.212 78.951 113.983 78.3184 115.501 79.0775Z" fill="white"/>
<path d="M100.445 83.1264C101.963 83.8855 102.469 85.6568 101.71 87.1751C100.951 88.6934 99.1794 89.326 97.661 88.5669C96.1426 87.8078 95.6365 86.0364 96.3957 84.5181C97.1549 82.9998 98.9263 82.3672 100.445 83.1264Z" fill="white"/>
<path d="M98.5463 79.5844C100.065 80.3435 100.571 82.1149 99.8116 83.6331C99.0524 85.1514 97.281 85.7841 95.7626 85.0249C94.2442 84.2658 93.738 82.4944 94.4972 80.9761C95.2564 79.4579 97.0279 78.8252 98.5463 79.5844Z" fill="white"/>
<path d="M112.408 81.7407C114.236 78.1235 112.584 73.6068 108.717 71.6525C104.85 69.6982 100.233 71.0462 98.4043 74.6634C96.5759 78.2806 98.2285 82.7972 102.095 84.7515C105.962 86.7059 110.579 85.3579 112.408 81.7407Z" fill="white"/>
<path d="M98.041 79.3307C98.8002 80.9756 99.8125 82.4938 101.204 83.3795C102.596 84.3917 104.241 84.7713 105.886 84.7713C107.531 84.7713 109.302 84.3917 110.568 83.253C111.2 82.7469 111.833 82.1143 112.339 81.3551C112.845 80.596 113.098 79.8368 113.098 78.9512C113.352 79.8368 113.225 80.849 112.845 81.7347C112.466 82.6204 111.833 83.3795 111.2 84.0121C110.568 84.7713 109.682 85.2774 108.796 85.5304C107.911 85.91 106.898 86.0365 106.013 86.0365C104.115 86.0365 102.09 85.4039 100.698 84.1387C99.1798 82.8734 98.2941 81.1021 98.041 79.3307Z" fill="#C2C2C2"/>
<path d="M115.756 84.0122C115.503 84.3918 115.25 84.7713 114.743 84.8979C114.237 85.0244 113.731 85.0244 113.352 84.8979C112.466 84.6448 111.833 83.8857 111.58 83C112.466 83.253 113.098 83.5061 113.731 83.6326C114.237 84.0122 114.743 84.0122 115.756 84.0122Z" fill="#C2C2C2"/>
<path d="M111.452 87.8082C111.199 87.5552 111.073 87.4287 110.82 87.3022C110.693 87.1756 110.567 87.0491 110.44 86.7961C110.187 86.4165 110.061 86.0369 110.061 85.4043C110.44 85.4043 110.693 85.4043 110.946 85.5308C111.199 85.6573 111.326 85.9104 111.579 86.0369C111.705 86.29 111.832 86.543 111.832 86.7961C111.832 87.3022 111.705 87.6817 111.452 87.8082Z" fill="#C2C2C2"/>
<path d="M105.885 89.7056C105.506 89.5791 105.253 89.3261 105.126 88.9465C105 88.6934 105 88.3139 104.873 88.0608C104.873 87.6813 105 87.4282 105.126 87.1752C105.253 86.9221 105.506 86.5425 105.885 86.416C105.885 86.7956 106.012 87.0486 106.138 87.3017C106.138 87.5547 106.138 87.8078 106.265 88.0608C106.265 88.3139 106.265 88.5669 106.138 88.82C106.012 89.073 106.012 89.3261 105.885 89.7056Z" fill="#C2C2C2"/>
<path d="M96.1426 85.1512C96.6487 85.1512 97.0283 85.1512 97.2814 85.0247C97.661 84.8982 97.914 84.7716 98.1671 84.6451C98.4202 84.5186 98.7998 84.2656 99.0528 84.139C99.3059 83.886 99.6855 83.7595 99.9386 83.3799C100.192 83.886 100.065 84.3921 99.812 84.7717C99.559 85.2778 99.1794 85.5308 98.7998 85.7838C98.2936 86.0369 97.7875 86.1634 97.2814 86.0369C96.9018 85.9104 96.3956 85.5308 96.1426 85.1512Z" fill="#C2C2C2"/>
<path d="M100.57 88.6933C100.57 87.9341 100.697 87.428 100.95 87.0484C101.076 86.7954 101.203 86.6689 101.456 86.4158C101.583 86.1628 101.836 86.0363 102.089 85.7832C102.342 86.0363 102.468 86.4158 102.468 86.7954C102.468 87.175 102.342 87.428 102.215 87.6811C101.709 88.0606 101.33 88.5667 100.57 88.6933Z" fill="#C2C2C2"/>
<path d="M130.304 75.6615C131.823 76.4207 132.329 78.192 131.569 79.7103C130.81 81.2286 129.039 81.8612 127.52 81.1021C126.002 80.3429 125.496 78.5716 126.255 77.0533C127.014 75.535 128.786 74.9024 130.304 75.6615Z" fill="white"/>
<path d="M135.24 75.5355C136.758 76.2947 137.264 78.066 136.505 79.5843C135.746 81.1026 133.974 81.7352 132.456 80.9761C130.938 80.2169 130.431 78.4456 131.191 76.9273C131.95 75.409 133.848 74.7764 135.24 75.5355Z" fill="white"/>
<path d="M140.048 72.8783C141.567 73.6375 142.073 75.4088 141.314 76.9271C140.554 78.4454 138.783 79.078 137.265 78.3188C135.746 77.5597 135.24 75.7884 135.999 74.2701C136.758 72.7518 138.656 72.1192 140.048 72.8783Z" fill="white"/>
<path d="M140.933 69.2094C142.451 69.9685 142.958 71.7398 142.198 73.2581C141.439 74.7764 139.668 75.4091 138.149 74.6499C136.631 73.8908 136.125 72.1194 136.884 70.6011C137.643 69.0828 139.541 68.4502 140.933 69.2094Z" fill="white"/>
<path d="M125.876 73.2572C127.395 74.0164 127.901 75.7877 127.142 77.306C126.383 78.8243 124.611 79.4569 123.093 78.6978C121.574 77.9386 121.068 76.1673 121.827 74.649C122.587 73.1307 124.358 72.4981 125.876 73.2572Z" fill="white"/>
<path d="M123.978 69.7146C125.496 70.4738 126.002 72.2451 125.243 73.7634C124.484 75.2817 122.713 75.9143 121.194 75.1551C119.676 74.396 119.17 72.6247 119.929 71.1064C120.688 69.5881 122.586 69.082 123.978 69.7146Z" fill="white"/>
<path d="M134.227 61.7439C138.023 63.6418 139.668 68.1966 137.897 71.8658C135.999 75.535 131.443 76.9268 127.521 74.9024C123.725 73.0045 122.08 68.4497 123.851 64.7805C125.749 61.1113 130.305 59.846 134.227 61.7439Z" fill="white"/>
<path d="M123.6 69.4616C124.359 71.1064 125.371 72.6247 126.763 73.5104C128.155 74.5226 129.8 74.9021 131.445 74.9021C133.09 74.9021 134.861 74.5226 136.126 73.3839C136.759 72.8778 137.392 72.2451 137.898 71.486C138.404 70.7268 138.657 69.9677 138.657 69.082C138.91 69.9677 138.784 70.9799 138.404 71.8656C138.024 72.7512 137.392 73.5104 136.759 74.143C136.126 74.9021 135.241 75.4082 134.355 75.6613C133.469 76.0409 132.457 76.1674 131.571 76.1674C129.673 76.1674 127.649 75.5348 126.257 74.2695C124.612 73.0043 123.853 71.2329 123.6 69.4616Z" fill="#C2C2C2"/>
<path d="M141.187 74.1431C140.934 74.5226 140.681 74.9022 140.175 75.0287C139.669 75.1552 139.163 75.1552 138.783 75.0287C137.897 74.7757 137.265 74.0165 137.012 73.1309C137.897 73.3839 138.53 73.637 139.163 73.7635C139.795 74.1431 140.302 74.1431 141.187 74.1431Z" fill="#C2C2C2"/>
<path d="M136.886 78.0651C136.633 77.812 136.506 77.6855 136.253 77.559C136.127 77.4325 136 77.3059 135.874 77.0529C135.621 76.6733 135.494 76.2938 135.494 75.6611C135.874 75.6611 136.127 75.6611 136.38 75.7877C136.633 75.9142 136.759 76.1672 137.013 76.2938C137.139 76.5468 137.266 76.7998 137.266 77.0529C137.266 77.4325 137.266 77.812 136.886 78.0651Z" fill="#C2C2C2"/>
<path d="M131.317 79.8365C130.937 79.71 130.684 79.4569 130.558 79.0774C130.431 78.8243 130.431 78.4447 130.305 78.1917C130.305 77.8121 130.431 77.5591 130.558 77.306C130.684 77.053 130.937 76.6734 131.317 76.5469C131.317 76.9264 131.443 77.1795 131.57 77.4325C131.57 77.6856 131.57 77.9386 131.697 78.1917C131.697 78.4447 131.697 78.6978 131.57 78.9508C131.57 79.2039 131.443 79.4569 131.317 79.8365Z" fill="#C2C2C2"/>
<path d="M121.701 75.2821C122.207 75.2821 122.587 75.2821 122.84 75.1555C123.22 75.029 123.473 74.9025 123.726 74.776C123.979 74.6495 124.358 74.3964 124.611 74.2699C124.865 74.0168 125.244 73.8903 125.497 73.5107C125.75 74.0168 125.624 74.5229 125.371 74.9025C125.118 75.4086 124.738 75.6617 124.358 75.9147C123.852 76.1678 123.346 76.2943 122.84 76.1677C122.334 76.0412 121.828 75.7882 121.701 75.2821Z" fill="#C2C2C2"/>
<path d="M126.002 78.8241C126.002 78.065 126.128 77.5589 126.382 77.1793C126.508 76.9263 126.635 76.7997 126.888 76.5467C127.014 76.2936 127.267 76.1671 127.52 75.9141C127.773 76.1671 127.9 76.5467 127.9 76.9262C127.9 77.3058 127.773 77.5589 127.647 77.8119C127.267 78.1915 126.761 78.6976 126.002 78.8241Z" fill="#C2C2C2"/>
<path d="M146.629 65.7927C147.768 66.9314 147.768 68.8293 146.629 70.0945C145.49 71.2332 143.466 71.3597 142.327 70.0945C141.188 68.9558 141.188 67.0579 142.327 65.7927C143.466 64.5274 145.364 64.5274 146.629 65.7927Z" fill="white"/>
<path d="M151.311 67.1841C152.449 68.3228 152.449 70.2207 151.311 71.4859C150.172 72.6247 148.147 72.7512 147.008 71.4859C145.87 70.3472 145.87 68.4494 147.008 67.1841C148.274 66.0454 150.172 66.0454 151.311 67.1841Z" fill="white"/>
<path d="M156.752 66.1726C157.891 67.3113 157.891 69.2091 156.752 70.4744C155.613 71.6131 153.589 71.7396 152.45 70.4744C151.311 69.3357 151.311 67.4378 152.45 66.1726C153.715 64.9073 155.613 64.9073 156.752 66.1726Z" fill="white"/>
<path d="M158.775 62.8824C159.914 64.0211 159.914 65.9189 158.775 67.1842C157.637 68.3229 155.612 68.4494 154.473 67.1842C153.334 66.0455 153.334 64.1476 154.473 62.8824C155.612 61.7436 157.51 61.7436 158.775 62.8824Z" fill="white"/>
<path d="M143.086 62.1237C144.225 63.2625 144.225 65.1603 143.086 66.4256C141.947 67.5643 139.923 67.6908 138.784 66.4256C137.645 65.2868 137.645 63.389 138.784 62.1237C140.049 60.8585 141.947 60.8585 143.086 62.1237Z" fill="white"/>
<path d="M142.453 58.2007C143.592 59.3394 143.592 61.2373 142.453 62.5025C141.314 63.6413 139.29 63.7678 138.151 62.5025C137.012 61.3638 137.012 59.466 138.151 58.2007C139.416 57.062 141.314 57.062 142.453 58.2007Z" fill="white"/>
<path d="M154.599 53.7728C157.636 56.8094 157.763 61.6173 154.853 64.5274C151.942 67.4375 147.134 67.3109 144.097 64.2743C141.06 61.2378 140.934 56.4298 143.844 53.5198C146.754 50.6097 151.563 50.7363 154.599 53.7728Z" fill="white"/>
<path d="M142.074 57.6953C142.327 59.4666 142.833 61.238 143.846 62.6298C144.858 64.0215 146.25 64.9072 147.895 65.4133C149.54 65.9194 151.184 66.0459 152.829 65.4133C153.589 65.1602 154.348 64.6541 155.107 64.148C155.74 63.6419 156.372 62.8828 156.625 62.1237C156.625 63.0093 156.119 63.895 155.487 64.6541C154.854 65.4133 154.095 65.9194 153.209 66.2989C152.45 66.805 151.311 67.0581 150.425 67.0581C149.413 67.0581 148.527 66.9316 147.641 66.6785C145.87 66.1724 144.099 64.9072 143.213 63.2624C142.074 61.491 141.821 59.4666 142.074 57.6953Z" fill="#C2C2C2"/>
<path d="M157.385 67.6905C157.005 68.0701 156.626 68.1966 156.12 68.1966C155.613 68.1966 155.107 68.0701 154.728 67.817C153.968 67.1844 153.589 66.4253 153.715 65.4131C154.475 65.9192 154.981 66.4253 155.487 66.6783C155.993 67.1844 156.499 67.4375 157.385 67.6905Z" fill="#C2C2C2"/>
<path d="M152.196 70.0941C152.07 69.7145 151.943 69.7145 151.817 69.4615C151.69 69.3349 151.564 69.0819 151.564 68.8288C151.437 68.4493 151.437 67.9432 151.564 67.3105C151.943 67.4371 152.196 67.5636 152.323 67.8166C152.576 68.0697 152.576 68.1962 152.702 68.4493C152.702 68.7023 152.829 68.9554 152.702 69.2084C152.702 69.588 152.449 69.9675 152.196 70.0941Z" fill="#C2C2C2"/>
<path d="M146.25 70.0946C145.871 69.8416 145.744 69.462 145.744 69.209C145.744 68.8294 145.744 68.5763 145.871 68.1968C145.997 67.9437 146.124 67.5642 146.377 67.4376C146.63 67.1846 146.883 66.9315 147.389 67.0581C147.389 67.4376 147.389 67.6907 147.263 67.9437C147.263 68.1968 147.136 68.4498 147.136 68.7029C147.009 68.9559 146.883 69.209 146.756 69.462C146.63 69.462 146.503 69.7151 146.25 70.0946Z" fill="#C2C2C2"/>
<path d="M138.531 62.6297C139.037 62.7562 139.417 62.8827 139.67 62.8827C140.05 62.8827 140.303 62.8827 140.682 62.7562C141.062 62.7562 141.315 62.6297 141.695 62.5032C142.074 62.3766 142.454 62.2501 142.833 61.9971C142.833 62.5032 142.58 63.0093 142.201 63.2623C141.821 63.6419 141.315 63.7684 140.809 63.8949C140.303 64.0215 139.797 63.8949 139.29 63.6419C138.911 63.6419 138.531 63.1358 138.531 62.6297Z" fill="#C2C2C2"/>
<path d="M141.568 67.4377C141.821 66.6786 142.075 66.299 142.454 65.9194C142.707 65.7929 142.834 65.5398 143.087 65.4133C143.34 65.2868 143.593 65.1603 143.846 64.9072C144.099 65.2868 143.972 65.6664 143.846 65.9194C143.719 66.299 143.466 66.4255 143.34 66.6786C142.834 67.1847 142.328 67.5642 141.568 67.4377Z" fill="#C2C2C2"/>
<path d="M117.019 55.9236C118.158 57.0623 118.158 58.9602 117.019 60.2254C115.881 61.3641 113.856 61.4907 112.717 60.2254C111.579 59.0867 111.579 57.1888 112.717 55.9236C113.983 54.7849 115.881 54.6584 117.019 55.9236Z" fill="white"/>
<path d="M121.828 57.315C122.967 58.4537 122.967 60.3516 121.828 61.6168C120.689 62.7555 118.665 62.882 117.526 61.6168C116.387 60.4781 116.387 58.5802 117.526 57.315C118.665 56.1763 120.689 56.1763 121.828 57.315Z" fill="white"/>
<path d="M127.268 56.3025C128.406 57.4412 128.406 59.3391 127.268 60.6043C126.129 61.743 124.104 61.8696 122.965 60.6043C121.827 59.4656 121.827 57.5677 122.965 56.3025C124.104 55.1638 126.002 55.0373 127.268 56.3025Z" fill="white"/>
<path d="M129.166 53.1403C130.305 54.2791 130.305 56.1769 129.166 57.4422C128.027 58.5809 126.003 58.7074 124.864 57.4422C123.725 56.3034 123.725 54.4056 124.864 53.1403C126.129 51.8751 128.027 51.8751 129.166 53.1403Z" fill="white"/>
<path d="M113.603 52.2544C114.742 53.3931 114.742 55.291 113.603 56.5562C112.465 57.695 110.44 57.8215 109.301 56.5562C108.163 55.4175 108.163 53.5197 109.301 52.2544C110.44 51.1157 112.465 51.1157 113.603 52.2544Z" fill="white"/>
<path d="M112.844 48.3316C113.983 49.4703 113.983 51.3682 112.844 52.6334C111.705 53.7721 109.68 53.8986 108.542 52.6334C107.403 51.4947 107.403 49.5968 108.542 48.3316C109.807 47.1929 111.705 47.1929 112.844 48.3316Z" fill="white"/>
<path d="M125.117 43.9037C128.154 46.9403 128.28 51.7482 125.37 54.6583C122.46 57.5683 117.652 57.4418 114.615 54.4052C111.578 51.3686 111.451 46.5607 114.362 43.6507C117.272 40.7406 122.08 40.8671 125.117 43.9037Z" fill="white"/>
<path d="M112.59 47.8262C112.843 49.5975 113.349 51.3688 114.361 52.7606C115.373 54.1524 116.765 55.038 118.41 55.5441C120.055 56.0502 121.7 56.1768 123.345 55.5441C124.104 55.2911 124.863 54.785 125.622 54.2789C126.255 53.7728 126.888 53.0137 127.141 52.2545C127.141 53.1402 126.635 54.0259 126.002 54.785C125.369 55.5441 124.61 56.0502 123.724 56.4298C122.965 56.9359 121.826 57.189 120.941 57.189C119.928 57.189 119.043 57.0624 118.157 56.8094C116.385 56.3033 114.614 55.038 113.728 53.3932C112.463 51.6219 112.336 49.5975 112.59 47.8262Z" fill="#C2C2C2"/>
<path d="M127.9 57.9483C127.521 58.3279 127.141 58.4544 126.635 58.4544C126.129 58.4544 125.623 58.3279 125.243 58.0749C124.484 57.4422 124.104 56.6831 124.231 55.6709C124.99 56.177 125.496 56.6831 126.003 56.9361C126.509 57.3157 127.015 57.5688 127.9 57.9483Z" fill="#C2C2C2"/>
<path d="M122.587 60.2259C122.46 59.8463 122.334 59.8463 122.207 59.5933C122.081 59.4668 121.954 59.2137 121.954 58.9607C121.828 58.5811 121.828 58.075 121.954 57.4424C122.334 57.5689 122.587 57.6954 122.713 57.9485C122.84 58.2015 122.967 58.328 123.093 58.5811C123.093 58.8341 123.22 59.0872 123.093 59.3402C123.093 59.7198 122.967 60.0994 122.587 60.2259Z" fill="#C2C2C2"/>
<path d="M116.766 60.2255C116.386 59.9725 116.26 59.5929 116.26 59.3398C116.26 58.9603 116.26 58.7072 116.386 58.3276C116.513 58.0746 116.639 57.695 116.892 57.5685C117.145 57.3155 117.399 57.0624 117.905 57.1889C117.905 57.5685 117.905 57.8215 117.778 58.0746C117.778 58.3276 117.652 58.5807 117.652 58.8337C117.525 59.0868 117.399 59.3398 117.272 59.5929C117.145 59.5929 116.892 59.8459 116.766 60.2255Z" fill="#C2C2C2"/>
<path d="M108.92 52.8865C109.426 53.0131 109.806 53.1396 110.059 53.1396C110.438 53.1396 110.691 53.1396 111.071 53.0131C111.451 53.0131 111.704 52.8865 112.083 52.76C112.463 52.6335 112.842 52.507 113.222 52.2539C113.222 52.76 112.969 53.2661 112.589 53.5191C112.21 53.8987 111.704 54.0252 111.198 54.1518C110.691 54.2783 110.185 54.1518 109.679 53.8987C109.426 53.7722 108.92 53.3926 108.92 52.8865Z" fill="#C2C2C2"/>
<path d="M111.957 57.5686C112.21 56.8094 112.463 56.4298 112.843 56.0503C113.096 55.9238 113.222 55.6707 113.475 55.5442C113.728 55.4177 113.982 55.2911 114.235 55.0381C114.488 55.4177 114.361 55.7972 114.235 56.0503C114.108 56.4298 113.855 56.5564 113.728 56.8094C113.349 57.3155 112.716 57.6951 111.957 57.5686Z" fill="#C2C2C2"/>
<path d="M66.0273 53.8992C67.1661 55.0379 67.1661 56.9358 66.0273 58.201C64.8885 59.3397 62.864 59.4662 61.7252 58.201C60.5864 57.0623 60.5864 55.1644 61.7252 53.8992C62.9905 52.7605 64.8885 52.6339 66.0273 53.8992Z" fill="white"/>
<path d="M70.8359 55.2906C71.9747 56.4293 71.9747 58.3271 70.8359 59.5924C69.6971 60.7311 67.6726 60.8576 66.5338 59.5924C65.395 58.4537 65.395 56.5558 66.5338 55.2906C67.6726 54.1518 69.6971 54.1518 70.8359 55.2906Z" fill="white"/>
<path d="M76.2754 54.2781C77.4142 55.4168 77.4142 57.3147 76.2754 58.5799C75.1366 59.7186 73.112 59.8451 71.9732 58.5799C70.8344 57.4412 70.8344 55.5433 71.9732 54.2781C73.112 53.1394 75.01 53.0128 76.2754 54.2781Z" fill="white"/>
<path d="M78.1738 50.9888C79.3126 52.1275 79.3126 54.0254 78.1738 55.2906C77.035 56.4293 75.0105 56.5559 73.8717 55.2906C72.7329 54.1519 72.7329 52.254 73.8717 50.9888C75.137 49.8501 77.035 49.8501 78.1738 50.9888Z" fill="white"/>
<path d="M62.6177 54.5153C63.8037 53.3295 63.8036 51.4069 62.6177 50.221C61.4318 49.0352 59.509 49.0352 58.3231 50.221C57.1372 51.4069 57.1372 53.3295 58.3231 54.5153C59.509 55.7012 61.4318 55.7012 62.6177 54.5153Z" fill="white"/>
<path d="M61.9785 46.3072C63.1173 47.4459 63.1173 49.3437 61.9785 50.609C60.8397 51.7477 58.8152 51.8742 57.6764 50.609C56.5376 49.4703 56.5376 47.5724 57.6764 46.3072C58.8152 45.1684 60.7131 45.1684 61.9785 46.3072Z" fill="white"/>
<path d="M74.1249 41.8793C77.1617 44.9159 77.2882 49.7238 74.3779 52.6338C71.4677 55.5439 66.6594 55.4174 63.6226 52.3808C60.5858 49.3442 60.4593 44.5363 63.3696 41.6262C66.2798 38.7162 71.0881 38.8427 74.1249 41.8793Z" fill="white"/>
<path d="M61.5973 45.8018C61.8504 47.5731 62.3565 49.3444 63.3688 50.7362C64.3811 52.128 65.7729 53.0136 67.4178 53.5197C69.0628 54.0258 70.7077 54.1523 72.3526 53.5197C73.1118 53.2667 73.871 52.7606 74.6302 52.2545C75.2629 51.7484 75.8955 50.9892 76.1486 50.2301C76.1486 51.1158 75.6425 52.0014 75.0098 52.7606C74.3772 53.5197 73.618 54.0258 72.7322 54.4054C71.973 54.9115 70.8342 55.1645 69.9485 55.1645C68.9362 55.1645 68.0505 55.038 67.1648 54.785C65.3933 54.2789 63.6219 53.0136 62.7361 51.3688C61.4708 49.5975 61.3443 47.5731 61.5973 45.8018Z" fill="#C2C2C2"/>
<path d="M76.9083 55.9239C76.5287 56.3035 76.1491 56.43 75.6429 56.43C75.1368 56.43 74.6307 56.3035 74.2511 56.0504C73.4919 55.4178 73.1123 54.6587 73.2388 53.6465C73.998 54.1526 74.5041 54.6587 75.0103 54.9117C75.5164 55.2913 76.0225 55.5443 76.9083 55.9239Z" fill="#C2C2C2"/>
<path d="M71.5928 58.2015C71.4663 57.8219 71.3397 57.8219 71.2132 57.5689C71.0866 57.4424 70.9601 57.1893 70.9601 56.9363C70.8336 56.5567 70.8336 56.0506 70.9601 55.418C71.3397 55.5445 71.5928 55.671 71.7193 55.9241C71.8458 56.1771 71.9724 56.3036 72.0989 56.5567C72.0989 56.8097 72.2255 57.0628 72.0989 57.3158C72.0989 57.6954 71.9724 58.075 71.5928 58.2015Z" fill="#C2C2C2"/>
<path d="M65.7737 58.2011C65.3941 57.948 65.2676 57.5685 65.2676 57.3154C65.2676 56.9358 65.2675 56.6828 65.3941 56.3032C65.5206 56.0502 65.6472 55.6706 65.9002 55.5441C66.1533 55.291 66.4064 55.038 66.9125 55.1645C66.9125 55.5441 66.9125 55.7971 66.786 56.0502C66.786 56.3032 66.6594 56.5563 66.6594 56.8093C66.5329 57.0624 66.4064 57.3154 66.2798 57.5685C66.1533 57.5685 65.9002 57.8215 65.7737 58.2011Z" fill="#C2C2C2"/>
<path d="M57.9277 50.7361C58.4339 50.8627 58.8135 50.9892 59.0665 50.9892C59.4461 50.9892 59.6992 50.9892 60.0788 50.8627C60.4584 50.8627 60.7115 50.7361 61.0911 50.6096C61.4707 50.4831 61.8502 50.3566 62.2298 50.1035C62.2298 50.6096 61.9768 51.1157 61.5972 51.3688C61.2176 51.7483 60.7115 51.8749 60.2054 52.0014C59.6992 52.1279 59.1931 52.0014 58.6869 51.7483C58.4339 51.7483 57.9277 51.2422 57.9277 50.7361Z" fill="#C2C2C2"/>
<path d="M60.9648 55.5442C61.2179 54.785 61.471 54.4054 61.8506 54.0259C62.1037 53.8993 62.2302 53.6463 62.4833 53.5198C62.7363 53.3932 62.9894 53.2667 63.2425 53.0137C63.4955 53.3932 63.369 53.7728 63.2425 54.0259C63.1159 54.4054 62.8629 54.532 62.7363 54.785C62.3567 55.2911 61.724 55.6707 60.9648 55.5442Z" fill="#C2C2C2"/>
<path d="M39.4361 65.3718C40.622 64.1859 40.622 62.2633 39.4361 61.0775C38.2501 59.8916 36.3274 59.8916 35.1415 61.0775C33.9555 62.2633 33.9555 64.1859 35.1415 65.3718C36.3274 66.5576 38.2501 66.5576 39.4361 65.3718Z" fill="white"/>
<path d="M44.1367 62.5025C45.2755 63.6412 45.2755 65.5391 44.1367 66.8043C42.9979 67.943 40.9734 68.0695 39.8346 66.8043C38.6958 65.6656 38.6958 63.7677 39.8346 62.5025C41.0999 61.3638 42.9979 61.3638 44.1367 62.5025Z" fill="white"/>
<path d="M49.5781 61.4908C50.7169 62.6295 50.7169 64.5273 49.5781 65.7926C48.4393 66.9313 46.4148 67.0578 45.276 65.7926C44.1372 64.6539 44.1372 62.756 45.276 61.4908C46.5413 60.352 48.4393 60.352 49.5781 61.4908Z" fill="white"/>
<path d="M51.4746 58.3279C52.6134 59.4666 52.6134 61.3645 51.4746 62.6297C50.3358 63.7684 48.3113 63.8949 47.1725 62.6297C46.0337 61.491 46.0337 59.5931 47.1725 58.3279C48.4378 57.1892 50.3358 57.0626 51.4746 58.3279Z" fill="white"/>
<path d="M35.9121 57.4419C37.0509 58.5806 37.0509 60.4785 35.9121 61.7437C34.7733 62.8825 32.7488 63.009 31.61 61.7437C30.4712 60.605 30.4712 58.7072 31.61 57.4419C32.8753 56.3032 34.7733 56.3032 35.9121 57.4419Z" fill="white"/>
<path d="M35.2793 53.5191C36.4181 54.6578 36.4181 56.5557 35.2793 57.8209C34.1405 58.9596 32.1159 59.0861 30.9771 57.8209C29.8383 56.6822 29.8383 54.7843 30.9771 53.5191C32.2425 52.3804 34.1405 52.3804 35.2793 53.5191Z" fill="white"/>
<path d="M47.4257 49.0912C50.4624 52.1278 50.589 56.9357 47.6787 59.8457C44.7684 62.7558 39.9602 62.6293 36.9234 59.5927C33.8866 56.5561 33.7601 51.7482 36.6703 48.8382C39.5806 45.9281 44.3889 46.0546 47.4257 49.0912Z" fill="white"/>
<path d="M34.9022 53.0137C35.1552 54.785 35.6614 56.5563 36.6736 57.9481C37.6859 59.3399 39.0777 60.2255 40.7227 60.7316C42.3676 61.2377 44.0126 61.3643 45.6575 60.7316C46.4167 60.4786 47.1759 59.9725 47.9351 59.4664C48.5677 58.9603 49.2004 58.2012 49.4535 57.442C49.4535 58.3277 48.9473 59.2134 48.3146 59.9725C47.682 60.7316 46.9228 61.2377 46.0371 61.6173C45.2779 62.1234 44.1391 62.3765 43.2533 62.3765C42.2411 62.3765 41.3554 62.2499 40.4696 61.9969C38.6982 61.4908 36.9267 60.2255 36.041 58.5807C34.9022 56.8094 34.6491 54.9115 34.9022 53.0137Z" fill="#C2C2C2"/>
<path d="M50.211 63.1348C49.8314 63.5144 49.4518 63.6409 48.9457 63.6409C48.4395 63.6409 47.9334 63.5144 47.5538 63.2614C46.7946 62.6288 46.415 61.8696 46.5416 60.8574C47.3008 61.3635 47.8069 61.8696 48.313 62.1227C48.8191 62.6288 49.3253 62.7553 50.211 63.1348Z" fill="#C2C2C2"/>
<path d="M45.0225 65.4134C44.896 65.0338 44.7694 65.0338 44.6429 64.7808C44.5163 64.6543 44.3898 64.4012 44.3898 64.1482C44.2633 63.7686 44.2633 63.2625 44.3898 62.6299C44.7694 62.7564 45.0225 62.8829 45.149 63.136C45.2755 63.389 45.4021 63.5155 45.5286 63.7686C45.5286 64.0216 45.6551 64.2747 45.5286 64.5277C45.5286 64.9073 45.2756 65.2869 45.0225 65.4134Z" fill="#C2C2C2"/>
<path d="M39.0764 65.413C38.6968 65.16 38.5703 64.7804 38.5703 64.5273C38.5703 64.1478 38.5703 63.8947 38.6969 63.5151C38.8234 63.2621 38.9499 62.8825 39.203 62.756C39.456 62.503 39.7091 62.2499 40.2152 62.3764C40.2152 62.756 40.2152 63.0091 40.0887 63.2621C40.0887 63.5151 39.9622 63.7682 39.9622 64.0212C39.8357 64.2743 39.7091 64.5273 39.5826 64.7804C39.456 64.9069 39.3295 65.0334 39.0764 65.413Z" fill="#C2C2C2"/>
<path d="M31.3574 58.075C31.8636 58.2015 32.2431 58.3281 32.4962 58.3281C32.8758 58.3281 33.1289 58.328 33.5085 58.2015C33.8881 58.2015 34.1411 58.075 34.5207 57.9485C34.9003 57.822 35.2799 57.6954 35.6595 57.4424C35.6595 57.9485 35.4065 58.4546 35.0269 58.7076C34.6473 59.0872 34.1412 59.2137 33.635 59.3402C33.1289 59.4668 32.6228 59.3402 32.1166 59.0872C31.737 58.9607 31.3574 58.5811 31.3574 58.075Z" fill="#C2C2C2"/>
<path d="M34.3945 62.7561C34.6476 61.9969 34.9007 61.6173 35.2803 61.2378C35.5333 61.1112 35.6599 60.8582 35.9129 60.7317C36.166 60.6052 36.4191 60.4786 36.6721 60.2256C36.9252 60.6052 36.7987 60.9847 36.6721 61.2378C36.5456 61.6173 36.2926 61.7439 36.166 61.9969C35.6599 62.6295 35.1537 62.8826 34.3945 62.7561Z" fill="#C2C2C2"/>
<path d="M20.2222 67.1843C21.7406 67.6904 22.6263 69.4617 22.1202 70.98C21.614 72.6248 19.8426 73.5105 18.3242 72.8779C16.8058 72.3718 15.92 70.6005 16.4262 69.0822C16.9323 67.4374 18.7038 66.6782 20.2222 67.1843Z" fill="white"/>
<path d="M25.1577 66.2982C26.6761 66.8043 27.5618 68.5757 27.0557 70.094C26.5496 71.7388 24.7781 72.6244 23.2597 71.9918C21.7413 71.4857 20.8556 69.7144 21.3617 68.1961C21.8679 66.6778 23.5128 65.7921 25.1577 66.2982Z" fill="white"/>
<path d="M29.4585 62.8822C30.9769 63.3883 31.8626 65.1597 31.3565 66.6779C30.8504 68.3228 29.0789 69.2084 27.5605 68.5758C26.0421 68.0697 25.1564 66.2984 25.6625 64.7801C26.1686 63.2618 27.9401 62.3761 29.4585 62.8822Z" fill="white"/>
<path d="M29.8394 59.2126C31.3578 59.7187 32.2435 61.4901 31.7374 63.0084C31.2312 64.6532 29.4598 65.5388 27.9414 64.9062C26.423 64.4001 25.5372 62.6288 26.0434 61.1105C26.5495 59.4657 28.1944 58.7065 29.8394 59.2126Z" fill="white"/>
<path d="M15.5405 65.4125C17.0589 65.9186 17.9447 67.6899 17.4385 69.2082C16.9324 70.853 15.1609 71.7387 13.6425 71.1061C12.1241 70.6 11.2384 68.8286 11.7445 67.3104C12.2507 65.7921 13.8956 64.9064 15.5405 65.4125Z" fill="white"/>
<path d="M13.1362 62.2494C14.6546 62.7555 15.5404 64.5268 15.0342 66.0451C14.5281 67.6899 12.7566 68.5756 11.2382 67.943C9.71984 67.4369 8.83411 65.6656 9.34024 64.1473C9.84637 62.629 11.6178 61.7433 13.1362 62.2494Z" fill="white"/>
<path d="M21.9937 52.7604C26.0428 54.1521 28.4469 58.3274 27.0551 62.2497C25.7897 66.1719 21.3611 68.1963 17.312 66.8045C13.263 65.4128 10.8588 61.2375 12.2507 57.3152C13.516 53.5195 17.9447 51.4951 21.9937 52.7604Z" fill="white"/>
<path d="M12.6289 61.9969C13.6412 63.5151 14.9065 64.7804 16.2984 65.5395C17.8168 66.2987 19.4617 66.5517 21.1066 66.1721C22.7515 65.9191 24.3965 65.2865 25.4087 64.0212C26.0414 63.3886 26.5475 62.6295 26.8006 61.8703C27.1802 61.1112 27.3067 60.2255 27.1802 59.3398C27.5598 60.2255 27.5598 61.1112 27.3067 62.1234C27.0537 63.009 26.5475 63.8947 26.0414 64.6539C25.5353 65.413 24.6495 66.1721 23.8903 66.5517C23.0046 67.0578 22.1189 67.3109 21.2331 67.4374C19.3351 67.817 17.3106 67.4374 15.6657 66.4252C14.2738 65.413 13.135 63.7682 12.6289 61.9969Z" fill="#C2C2C2"/>
<path d="M30.8509 64.0212C30.7244 64.5273 30.3448 64.7803 29.9652 65.0334C29.5856 65.2864 29.0795 65.2864 28.5734 65.2864C27.6876 65.1599 26.9284 64.5273 26.5488 63.6416C27.4346 63.6416 28.1937 63.8947 28.6999 64.0212C29.3325 64.1477 29.8387 64.1477 30.8509 64.0212Z" fill="#C2C2C2"/>
<path d="M27.1816 68.4493C26.9285 68.1963 26.6755 68.1963 26.5489 68.0698C26.2959 67.9432 26.1694 67.8167 26.0428 67.6902C25.7898 67.3106 25.5367 67.0576 25.4102 66.2984C25.7898 66.1719 26.0428 66.2984 26.2959 66.2984C26.5489 66.4249 26.802 66.5515 26.9285 66.678C27.0551 66.931 27.3082 67.0576 27.3082 67.4371C27.4347 67.8167 27.4347 68.1963 27.1816 68.4493Z" fill="#C2C2C2"/>
<path d="M21.8669 71.1066C21.4873 71.1066 21.2343 70.727 20.9812 70.474C20.7281 70.2209 20.7281 69.8413 20.6016 69.5883C20.6016 69.3352 20.6016 68.9557 20.7281 68.5761C20.8546 68.323 20.9812 67.9435 21.3608 67.6904C21.4873 68.07 21.6138 68.323 21.7404 68.5761C21.8669 68.8291 21.8669 69.0822 21.8669 69.3352C21.8669 69.5883 21.8669 69.8413 21.8669 70.0944C21.9934 70.474 21.8669 70.727 21.8669 71.1066Z" fill="#C2C2C2"/>
<path d="M11.6172 68.07C12.1233 68.07 12.5029 67.9435 12.756 67.6904C13.0091 67.5639 13.3887 67.3108 13.6417 67.1843C13.8948 66.9313 14.1479 66.8047 14.4009 66.5517C14.654 66.2986 14.9071 66.0456 15.1601 65.666C15.4132 66.0456 15.4132 66.6782 15.1601 67.1843C15.0336 67.6904 14.654 68.07 14.2744 68.323C13.8948 68.5761 13.3886 68.8291 12.8825 68.8291C12.3764 68.7026 11.8703 68.4495 11.6172 68.07Z" fill="#C2C2C2"/>
<path d="M16.4255 70.8535C16.2989 70.0944 16.4255 69.5883 16.552 69.0822C16.6785 68.8291 16.805 68.5761 16.9316 68.4496C17.0581 68.1965 17.1846 68.07 17.4377 67.6904C17.8173 67.9435 17.9438 68.323 17.9438 68.5761C17.9438 68.9557 17.9439 69.2087 17.8173 69.4618C17.5643 70.0944 17.1847 70.6005 16.4255 70.8535Z" fill="#C2C2C2"/>
<path d="M50.3374 38.4633C51.8558 38.9694 52.7415 40.7407 52.2354 42.259C51.7293 43.9038 49.9578 44.7895 48.4394 44.1569C46.921 43.6508 46.0353 41.8794 46.5414 40.3611C47.0475 38.8429 48.819 37.9572 50.3374 38.4633Z" fill="white"/>
<path d="M55.273 37.5775C56.7913 38.0836 57.6771 39.855 57.1709 41.3733C56.6648 43.0181 54.8934 43.9037 53.375 43.2711C51.8566 42.765 50.9708 40.9937 51.477 39.4754C51.9831 37.9571 53.7546 37.0714 55.273 37.5775Z" fill="white"/>
<path d="M59.5737 34.1605C61.0921 34.6666 61.9779 36.438 61.4717 37.9563C60.9656 39.6011 59.1941 40.4867 57.6757 39.8541C56.1573 39.348 55.2716 37.5767 55.7777 36.0584C56.2839 34.5401 58.0553 33.6544 59.5737 34.1605Z" fill="white"/>
<path d="M59.9546 30.4916C61.473 30.9977 62.3587 32.769 61.8526 34.2873C61.3465 35.9321 59.575 36.8178 58.0566 36.1852C56.5382 35.6791 55.6525 33.9077 56.1586 32.3895C56.6647 30.8712 58.3097 29.9855 59.9546 30.4916Z" fill="white"/>
<path d="M45.6558 36.6918C47.1742 37.1979 48.0599 38.9692 47.5538 40.4875C47.0476 42.1323 45.2762 43.018 43.7578 42.3854C42.2394 41.8793 41.3536 40.1079 41.8598 38.5897C42.3659 37.0714 44.0108 36.1857 45.6558 36.6918Z" fill="white"/>
<path d="M43.2515 33.5287C44.7699 34.0348 45.6556 35.8061 45.1495 37.3244C44.6433 38.8427 42.8719 39.8549 41.3535 39.2223C39.8351 38.7162 38.9493 36.9449 39.4555 35.4266C39.9616 33.9083 41.7331 33.0226 43.2515 33.5287Z" fill="white"/>
<path d="M52.1089 24.1656C56.158 25.5574 58.5621 29.7327 57.1703 33.6549C55.9049 37.5772 51.4763 39.6016 47.4272 38.2098C43.3782 36.818 40.9741 32.6427 42.3659 28.7205C43.6313 24.7982 48.0599 22.7739 52.1089 24.1656Z" fill="white"/>
<path d="M42.7461 33.2752C43.7584 34.7935 45.0237 36.0587 46.4155 36.8178C47.9339 37.577 49.5789 37.83 51.2238 37.4505C52.8688 37.1974 54.5137 36.5648 55.5259 35.2996C56.1586 34.6669 56.6647 33.9078 56.9178 33.1486C57.2974 32.3895 57.4239 31.5038 57.2974 30.6182C57.677 31.5038 57.677 32.3895 57.4239 33.4017C57.1709 34.2874 56.6647 35.173 56.1586 35.9322C55.6525 36.6913 54.7667 37.4505 54.0075 37.83C53.1218 38.3361 52.2361 38.5892 51.3504 38.7157C49.4524 39.0953 47.4278 38.7157 45.7829 37.7035C44.391 36.6913 43.2522 35.0465 42.7461 33.2752Z" fill="#C2C2C2"/>
<path d="M60.9662 35.4255C60.8396 35.9316 60.4601 36.1846 60.0805 36.4377C59.7009 36.6907 59.1947 36.6907 58.6886 36.6907C57.8029 36.5642 57.0437 35.9316 56.6641 35.0459C57.5498 35.0459 58.309 35.2989 58.8151 35.4255C59.4478 35.552 59.9539 35.552 60.9662 35.4255Z" fill="#C2C2C2"/>
<path d="M57.2988 39.8546C57.0457 39.6016 56.7927 39.6016 56.6661 39.475C56.4131 39.3485 56.2865 39.222 56.16 39.0955C55.9069 38.7159 55.6539 38.4628 55.5273 37.7037C55.9069 37.5772 56.16 37.7037 56.4131 37.7037C56.6662 37.8302 56.9192 37.9567 57.0458 38.0833C57.1723 38.3363 57.4253 38.4628 57.4253 38.8424C57.5519 39.0955 57.5519 39.6016 57.2988 39.8546Z" fill="#C2C2C2"/>
<path d="M51.9841 42.3849C51.6045 42.3849 51.3514 42.0053 51.0983 41.7523C50.8453 41.4992 50.8453 41.1197 50.7188 40.8666C50.7188 40.6136 50.7187 40.234 50.8453 39.8544C50.9718 39.6014 51.0983 39.2218 51.4779 38.9688C51.6045 39.3483 51.731 39.6014 51.8575 39.8544C51.9841 40.1075 51.9841 40.3605 51.9841 40.6136C51.9841 40.8666 51.9841 41.1197 51.9841 41.3727C52.1106 41.7523 52.1106 42.0053 51.9841 42.3849Z" fill="#C2C2C2"/>
<path d="M41.7344 39.3483C42.2405 39.3483 42.6201 39.2218 42.8732 38.9687C43.1262 38.8422 43.5058 38.5892 43.7589 38.4626C44.012 38.2096 44.265 38.0831 44.5181 37.83C44.7711 37.577 45.0242 37.3239 45.2773 36.9443C45.5303 37.3239 45.5303 37.9565 45.2773 38.4626C45.1508 38.9687 44.7712 39.3483 44.3916 39.6013C44.012 39.8544 43.5058 40.1074 42.9997 40.1074C42.6201 39.9809 41.9874 39.8544 41.7344 39.3483Z" fill="#C2C2C2"/>
<path d="M46.5407 42.2588C46.4142 41.4997 46.5407 40.9936 46.6672 40.4875C46.7938 40.2344 46.9203 39.9814 47.0468 39.8548C47.1733 39.6018 47.2999 39.4753 47.553 39.0957C47.9326 39.3488 48.0591 39.7283 48.0591 39.9814C48.0591 40.3609 48.0591 40.614 47.9326 40.867C47.6795 41.4997 47.2999 42.0058 46.5407 42.2588Z" fill="#C2C2C2"/>
<path d="M108.288 32.1375C109.68 33.0232 110.186 34.9211 109.3 36.3128C108.415 37.7046 106.517 38.2107 105.125 37.325C103.733 36.4394 103.227 34.5415 104.113 33.1497C104.998 31.6314 106.896 31.2519 108.288 32.1375Z" fill="white"/>
<path d="M113.224 32.3898C114.616 33.2755 115.122 35.1734 114.236 36.5651C113.35 37.9569 111.452 38.463 110.06 37.5773C108.668 36.6916 108.162 34.7938 109.048 33.402C110.06 32.0103 111.832 31.5042 113.224 32.3898Z" fill="white"/>
<path d="M118.284 29.9865C119.676 30.8722 120.182 32.77 119.296 34.1618C118.411 35.5536 116.513 36.0597 115.121 35.174C113.729 34.2883 113.223 32.3905 114.109 30.9987C114.994 29.6069 116.892 29.1008 118.284 29.9865Z" fill="white"/>
<path d="M119.423 26.4435C120.815 27.3292 121.321 29.2271 120.435 30.6188C119.549 32.0106 117.651 32.5167 116.26 31.631C114.868 30.7454 114.362 28.8475 115.247 27.4557C116.133 26.064 118.031 25.5579 119.423 26.4435Z" fill="white"/>
<path d="M104.112 29.3537C105.504 30.2394 106.01 32.1372 105.125 33.529C104.239 34.9208 102.341 35.4269 100.949 34.5412C99.5571 33.6555 99.051 31.7577 99.9367 30.3659C100.822 28.9741 102.72 28.468 104.112 29.3537Z" fill="white"/>
<path d="M102.468 25.6842C103.86 26.5699 104.366 28.4677 103.48 29.8595C102.594 31.2513 100.696 31.7574 99.3045 30.8717C97.9126 29.986 97.4065 28.0882 98.2922 26.6964C99.1779 25.3046 101.076 24.9251 102.468 25.6842Z" fill="white"/>
<path d="M113.224 18.4725C116.893 20.75 118.159 25.3048 116.134 28.8475C113.983 32.3902 109.301 33.4024 105.632 31.125C101.963 28.8475 100.697 24.2927 102.722 20.75C104.873 17.3338 109.555 16.3216 113.224 18.4725Z" fill="white"/>
<path d="M102.088 25.3047C102.721 26.9495 103.606 28.5943 104.872 29.6065C106.137 30.7452 107.782 31.2513 109.427 31.3778C111.072 31.5044 112.843 31.2513 114.109 30.2391C114.868 29.733 115.5 29.2269 116.007 28.4678C116.513 27.8352 116.892 26.9495 117.019 26.0638C117.272 26.9495 117.019 27.9617 116.513 28.7208C116.133 29.6065 115.374 30.2391 114.741 30.8717C114.109 31.5044 113.096 32.0105 112.211 32.2635C111.325 32.5166 110.313 32.6431 109.3 32.5166C107.402 32.39 105.378 31.6309 104.112 30.2391C102.847 28.9739 102.214 27.2025 102.088 25.3047Z" fill="#C2C2C2"/>
<path d="M119.295 31.5041C119.042 31.8836 118.662 32.1367 118.156 32.2632C117.65 32.3897 117.144 32.3897 116.764 32.1367C115.878 31.7571 115.246 30.998 115.119 30.1123C116.005 30.3654 116.638 30.7449 117.144 30.998C117.776 31.251 118.282 31.3775 119.295 31.5041Z" fill="#C2C2C2"/>
<path d="M114.741 34.9211C114.488 34.6681 114.362 34.5415 114.235 34.415C114.109 34.2885 113.982 34.0354 113.855 33.9089C113.602 33.5293 113.476 33.1498 113.602 32.3906C113.982 32.3906 114.235 32.5171 114.488 32.6437C114.741 32.7702 114.868 33.0232 114.994 33.2763C115.121 33.5293 115.247 33.7824 115.247 34.0354C115.121 34.2885 114.994 34.7946 114.741 34.9211Z" fill="#C2C2C2"/>
<path d="M109.046 36.3121C108.666 36.1856 108.413 35.806 108.287 35.5529C108.16 35.1734 108.16 34.9203 108.16 34.5407C108.16 34.2877 108.287 33.9081 108.413 33.6551C108.54 33.402 108.793 33.0225 109.299 33.0225C109.299 33.402 109.425 33.6551 109.425 33.9081C109.425 34.1612 109.425 34.4142 109.425 34.6673C109.425 34.9203 109.299 35.1734 109.299 35.4264C109.299 35.6795 109.172 35.9325 109.046 36.3121Z" fill="#C2C2C2"/>
<path d="M99.6836 30.9983C100.19 30.9983 100.569 30.9983 100.822 30.9983C101.202 30.8718 101.455 30.8718 101.835 30.6188C102.214 30.4922 102.467 30.3657 102.72 30.1127C102.973 29.8596 103.353 29.7331 103.733 29.3535C103.859 29.8596 103.733 30.3657 103.48 30.7453C103.227 31.1249 102.847 31.5044 102.341 31.6309C101.835 31.7575 101.329 31.884 100.822 31.7575C100.316 31.884 99.8101 31.5044 99.6836 30.9983Z" fill="#C2C2C2"/>
<path d="M103.732 34.9208C103.732 34.1617 103.985 33.6556 104.239 33.276C104.365 33.0229 104.492 32.8964 104.745 32.6434C104.871 32.3903 105.124 32.2638 105.377 32.0107C105.63 32.2638 105.63 32.7699 105.63 33.0229C105.63 33.4025 105.504 33.6556 105.251 33.9086C104.998 34.4147 104.492 34.7943 103.732 34.9208Z" fill="#C2C2C2"/>
<path d="M30.2188 133.357C30.2188 131.712 31.6106 130.32 33.2555 130.32C34.9005 130.32 36.2923 131.712 36.2923 133.357C36.2923 135.002 34.9005 136.393 33.2555 136.393C31.4841 136.393 30.2188 135.128 30.2188 133.357Z" fill="white"/>
<path d="M25.2852 130.194C25.2852 128.549 26.677 127.157 28.3219 127.157C29.9669 127.157 31.3587 128.549 31.3587 130.194C31.3587 131.839 29.9669 133.23 28.3219 133.23C26.677 133.23 25.2852 131.839 25.2852 130.194Z" fill="white"/>
<path d="M31.3574 139.177C31.3574 137.532 32.7493 136.141 34.3942 136.141C36.0391 136.141 37.431 137.532 37.431 139.177C37.431 140.822 36.0391 142.214 34.3942 142.214C32.7493 142.214 31.3574 140.822 31.3574 139.177Z" fill="white"/>
<path d="M28.7012 142.34C28.7012 140.695 30.0931 139.304 31.738 139.304C33.3829 139.304 34.7748 140.695 34.7748 142.34C34.7748 143.985 33.3829 145.377 31.738 145.377C30.0931 145.377 28.7012 144.112 28.7012 142.34Z" fill="white"/>
<path d="M22.627 132.851C22.627 131.206 24.0188 129.814 25.6637 129.814C27.3087 129.814 28.7005 131.206 28.7005 132.851C28.7005 134.496 27.3087 135.888 25.6637 135.888C24.0188 135.888 22.627 134.496 22.627 132.851Z" fill="white"/>
<path d="M28.068 142.213C30.7235 142.213 32.8763 140.061 32.8763 137.406C32.8763 134.75 30.7235 132.598 28.068 132.598C25.4125 132.598 23.2598 134.75 23.2598 137.406C23.2598 140.061 25.4125 142.213 28.068 142.213Z" fill="white"/>
<path d="M28.8269 141.834C30.3453 141.328 31.4841 140.063 31.8637 138.798C32.3699 137.406 32.1168 136.014 31.2311 134.875C30.4719 133.737 29.08 132.977 27.6882 133.104C26.2963 133.104 24.7779 133.863 23.7656 135.128C24.2718 133.61 25.7902 132.345 27.5616 132.218C28.4473 132.092 29.3331 132.218 30.2188 132.598C30.978 132.977 31.7372 133.61 32.2434 134.243C32.7495 135.002 33.1291 135.761 33.2556 136.773C33.3821 137.659 33.2556 138.545 32.7495 139.43C32.1168 140.695 30.4719 141.834 28.8269 141.834Z" fill="#C2C2C2"/>
<path d="M25.4102 129.561C25.7898 129.434 26.1693 129.308 26.5489 129.308C26.9285 129.308 27.3081 129.434 27.6877 129.687C28.0673 129.94 28.3204 130.32 28.4469 130.826C28.5735 131.205 28.4469 131.838 28.0673 132.091C27.9408 131.712 27.6877 131.459 27.5612 131.332C27.3081 131.205 27.1816 130.952 27.0551 130.826C26.5489 130.446 25.9163 130.193 25.4102 129.561Z" fill="#C2C2C2"/>
<path d="M31.2315 131.078C31.1049 131.585 30.9784 131.838 30.8519 131.964C30.7254 132.091 30.4723 132.091 29.9661 132.344C29.5865 131.964 29.7131 131.331 29.9661 131.078C30.2192 130.825 30.7253 130.699 31.2315 131.078Z" fill="#C2C2C2"/>
<path d="M34.6469 136.013C34.6469 136.646 34.2673 136.899 33.8877 136.899C33.5081 136.899 33.1285 136.773 33.002 136.266C33.3816 135.887 33.5081 135.76 33.7611 135.634C33.8877 135.76 34.1407 135.76 34.6469 136.013Z" fill="#C2C2C2"/>
<path d="M34.9018 141.833C34.2691 141.201 34.016 140.948 33.6364 140.568L32.3711 139.176C33.1303 138.797 34.016 139.05 34.5221 139.682C35.0283 140.189 35.4079 141.074 34.9018 141.833Z" fill="#C2C2C2"/>
<path d="M56.9166 100.586C58.435 101.598 58.8146 103.623 57.8023 105.268C56.7901 106.912 54.639 107.418 53.1206 106.533C51.6022 105.521 51.2226 103.496 52.2349 101.851C53.3737 100.08 55.3982 99.574 56.9166 100.586Z" fill="white"/>
<path d="M62.483 100.839C64.0014 101.851 64.381 103.876 63.3688 105.52C62.3565 107.165 60.2054 107.671 58.687 106.786C57.1686 105.773 56.789 103.749 57.8013 102.104C58.8135 100.459 60.8381 99.8268 62.483 100.839Z" fill="white"/>
<path d="M68.0514 98.1829C69.5697 99.1951 69.9494 101.219 68.9371 102.864C67.9248 104.509 65.7738 105.015 64.2554 104.13C62.737 103.117 62.3574 101.093 63.3697 99.4481C64.5085 97.6768 66.533 97.1707 68.0514 98.1829Z" fill="white"/>
<path d="M69.569 94.1339C71.0874 95.1461 71.4669 97.1705 70.4547 98.8153C69.4424 100.46 67.2914 100.966 65.773 100.081C64.2546 99.0684 63.875 97.044 64.8872 95.3992C65.8995 93.7544 68.0506 93.1217 69.569 94.1339Z" fill="white"/>
<path d="M52.36 97.4234C53.8784 98.4356 54.258 100.46 53.2457 102.105C52.2335 103.75 50.0824 104.256 48.564 103.37C47.0456 102.358 46.666 100.333 47.6782 98.6887C48.817 97.0438 50.8416 96.5378 52.36 97.4234Z" fill="white"/>
<path d="M50.8424 93.3743C52.3608 94.3865 52.7404 96.4109 51.7281 98.0557C50.7158 99.7005 48.5648 100.207 47.0464 99.3209C45.528 98.3087 45.1484 96.2843 46.1607 94.6395C47.1729 92.8682 49.324 92.3621 50.8424 93.3743Z" fill="white"/>
<path d="M63.1157 85.0238C67.0382 87.5543 68.3036 92.8683 65.7729 96.7906C63.2422 100.713 57.9278 101.978 54.0053 99.4476C50.0828 96.9171 48.8175 91.6031 51.3481 87.6808C53.8788 83.7586 59.1932 82.4933 63.1157 85.0238Z" fill="white"/>
<path d="M50.3359 92.8682C50.9686 94.766 51.8544 96.6639 53.2462 97.9291C54.6381 99.1944 56.536 99.827 58.434 99.827C60.332 99.827 62.23 99.4474 63.7484 98.3087C65.2668 97.17 66.7852 95.6517 67.0383 93.6273C67.1648 94.6395 66.9118 95.6517 66.4056 96.6639C65.8995 97.5496 65.1403 98.4352 64.3811 99.0678C63.6219 99.827 62.6096 100.333 61.5974 100.713C60.5851 100.966 59.4463 101.092 58.434 101.092C57.4218 101.092 56.283 100.839 55.2707 100.46C54.2585 100.08 53.3728 99.4474 52.6136 98.5617C51.0952 97.0435 50.4625 94.8925 50.3359 92.8682Z" fill="#C2C2C2"/>
<path d="M69.1884 99.8269C68.9354 100.206 68.5558 100.586 68.0496 100.713C67.5435 100.839 67.0374 100.839 66.5313 100.586C65.519 100.206 64.8863 99.3208 64.7598 98.3086C65.6455 98.6882 66.2782 99.0677 66.9108 99.3208C67.5435 99.7004 68.1762 99.7004 69.1884 99.8269Z" fill="#C2C2C2"/>
<path d="M63.8747 103.749C63.6216 103.496 63.4951 103.369 63.3686 103.116C63.242 102.99 63.1155 102.737 62.989 102.484C62.7359 102.104 62.6094 101.598 62.6094 100.839C62.989 100.839 63.242 100.965 63.4951 101.218C63.7481 101.345 63.8747 101.598 64.0012 101.851C64.1278 102.104 64.2543 102.357 64.2543 102.737C64.3808 103.116 64.2543 103.622 63.8747 103.749Z" fill="#C2C2C2"/>
<path d="M57.5483 105.393C57.1687 105.267 56.9156 104.761 56.9156 104.508C56.7891 104.128 56.7891 103.749 56.7891 103.369C56.7891 102.989 56.9156 102.736 57.1686 102.357C57.2952 102.104 57.6748 101.724 58.0544 101.598C58.0544 101.977 58.0544 102.357 58.0544 102.61C58.0544 102.863 58.0544 103.242 58.0544 103.496C58.0544 103.749 57.9278 104.128 57.8013 104.381C57.8013 104.634 57.6748 105.014 57.5483 105.393Z" fill="#C2C2C2"/>
<path d="M47.4258 99.4477C47.9319 99.5742 48.3115 99.5742 48.8177 99.4477C49.1973 99.3211 49.5768 99.1946 49.9564 99.0681C50.336 98.9416 50.7156 98.6885 51.0952 98.4355C51.4748 98.1824 51.8544 97.9294 52.234 97.5498C52.3606 98.0559 52.1075 98.6885 51.8544 99.0681C51.6014 99.5742 51.0952 99.8272 50.5891 100.08C50.083 100.333 49.4503 100.46 48.9442 100.333C48.185 100.333 47.6788 99.9538 47.4258 99.4477Z" fill="#C2C2C2"/>
<path d="M51.7285 103.749C51.855 102.99 52.1081 102.357 52.4877 101.851C52.6143 101.598 52.8673 101.345 53.1204 101.092C53.3735 100.839 53.5 100.713 53.8796 100.333C54.1327 100.713 54.1326 101.092 54.1326 101.472C54.0061 101.851 53.8796 102.231 53.7531 102.484C53.1204 103.117 52.6142 103.623 51.7285 103.749Z" fill="#C2C2C2"/>
<path d="M79.1861 96.5383C80.7045 97.5505 81.0841 99.5749 80.0719 101.22C79.0596 102.865 76.9085 103.371 75.3902 102.485C73.8718 101.473 73.4921 99.4484 74.5044 97.8036C75.6432 96.0322 77.6677 95.5262 79.1861 96.5383Z" fill="white"/>
<path d="M84.7525 96.7913C86.2709 97.8035 86.6505 99.8278 85.6383 101.473C84.626 103.117 82.475 103.624 80.9566 102.738C79.4382 101.726 79.0585 99.7013 80.0708 98.0565C81.0831 96.2852 83.2342 95.7791 84.7525 96.7913Z" fill="white"/>
<path d="M90.4479 94.135C91.9663 95.1472 92.3458 97.1716 91.3336 98.8164C90.3213 100.461 88.1703 100.967 86.6519 100.082C85.1335 99.0695 84.7539 97.0451 85.7661 95.4003C86.7784 93.6289 88.9295 93.1228 90.4479 94.135Z" fill="white"/>
<path d="M91.8385 90.0862C93.3569 91.0984 93.7365 93.1228 92.7242 94.7676C91.7119 96.4124 89.5609 96.9185 88.0425 96.0328C86.5241 95.0206 86.1445 92.9962 87.1568 91.3514C88.2955 89.5801 90.3201 89.074 91.8385 90.0862Z" fill="white"/>
<path d="M74.6295 93.3752C76.1479 94.3873 76.5275 96.4117 75.5152 98.0565C74.5029 99.7014 72.3519 100.207 70.8335 99.3218C69.3151 98.3096 68.9355 96.2852 69.9478 94.6404C71.0866 92.9956 73.1111 92.363 74.6295 93.3752Z" fill="white"/>
<path d="M73.1119 89.3264C74.6303 90.3386 75.0099 92.363 73.9976 94.0078C72.9854 95.6526 70.8343 96.1587 69.3159 95.2731C67.7975 94.2609 67.4179 92.2365 68.4302 90.5917C69.4425 88.8203 71.5935 88.3142 73.1119 89.3264Z" fill="white"/>
<path d="M85.3853 80.976C89.3078 83.5065 90.5731 88.8205 88.0425 92.7427C85.5118 96.665 80.1974 97.9302 76.2749 95.3997C72.3523 92.8692 71.087 87.5552 73.6177 83.633C76.1483 79.7107 81.4627 78.4455 85.3853 80.976Z" fill="white"/>
<path d="M72.6074 88.8213C73.2401 90.7192 74.1258 92.617 75.5177 93.8823C76.9095 95.1475 78.8075 95.7801 80.7055 95.7801C82.6035 95.7801 84.5015 95.4005 86.0199 94.2618C87.5383 93.1231 89.0567 91.6048 89.3098 89.5804C89.4363 90.5926 89.1833 91.6048 88.6771 92.617C88.171 93.5027 87.4118 94.3884 86.6526 95.021C85.8934 95.7801 84.8811 96.2862 83.8689 96.6658C82.8566 96.9188 81.7178 97.0454 80.7055 97.0454C79.6933 97.0454 78.5545 96.7923 77.5422 96.4127C76.5299 96.0332 75.6442 95.4005 74.885 94.5149C73.3666 92.9966 72.734 90.8457 72.6074 88.8213Z" fill="#C2C2C2"/>
<path d="M91.4599 95.654C91.2068 96.0336 90.8272 96.4132 90.3211 96.5397C89.815 96.6662 89.3088 96.6662 88.8027 96.4132C87.7904 96.0336 87.1578 95.1479 87.0312 94.1357C87.917 94.5153 88.5497 94.8949 89.1823 95.1479C89.815 95.654 90.4476 95.654 91.4599 95.654Z" fill="#C2C2C2"/>
<path d="M86.2731 99.702C86.0201 99.449 85.8936 99.3225 85.767 99.0694C85.6405 98.9429 85.514 98.6898 85.3874 98.4368C85.1344 98.0572 85.0078 97.5511 85.0078 96.792C85.3874 96.792 85.6405 96.9185 85.8936 97.1716C86.1466 97.2981 86.2732 97.5511 86.3997 97.8042C86.5262 98.0572 86.6528 98.3103 86.6528 98.6899C86.6528 99.0694 86.5262 99.449 86.2731 99.702Z" fill="#C2C2C2"/>
<path d="M79.8198 101.347C79.4402 101.221 79.1871 100.715 79.1871 100.462C79.0606 100.082 79.0605 99.7027 79.0605 99.3231C79.0605 98.9435 79.1871 98.5639 79.4401 98.3109C79.5667 98.0579 79.9463 97.6783 80.3259 97.5518C80.3259 97.9313 80.3259 98.3109 80.3259 98.5639C80.3259 98.817 80.3259 99.1966 80.3259 99.4496C80.3259 99.7027 80.1993 100.082 80.0728 100.335C80.0728 100.588 79.9463 100.841 79.8198 101.347Z" fill="#C2C2C2"/>
<path d="M69.6973 95.4008C70.2034 95.5273 70.583 95.5273 71.0891 95.4008C71.4687 95.2743 71.8483 95.1477 72.2279 95.0212C72.6075 94.8947 72.9871 94.6417 73.3667 94.3886C73.7463 94.1356 74.1259 93.8825 74.5055 93.5029C74.632 94.009 74.379 94.6417 74.1259 95.0212C73.8729 95.5273 73.3667 95.7804 72.8606 96.0334C72.3545 96.2865 71.7218 96.413 71.2156 96.2865C70.4564 96.1599 69.9503 95.9069 69.6973 95.4008Z" fill="#C2C2C2"/>
<path d="M74.125 99.7023C74.2515 98.9431 74.5046 98.3105 74.8842 97.8044C75.0107 97.5514 75.2638 97.2983 75.5168 97.0453C75.7699 96.7922 75.8964 96.6657 76.276 96.2861C76.5291 96.6657 76.5291 97.0453 76.5291 97.4249C76.4026 97.8044 76.276 98.184 76.1495 98.437C75.5168 99.0697 74.8842 99.5758 74.125 99.7023Z" fill="#C2C2C2"/>
<path d="M121.829 93.6272C123.347 94.6394 123.727 96.6638 122.714 98.3086C121.702 99.9534 119.551 100.46 118.033 99.5738C116.514 98.5616 116.135 96.5373 117.147 94.8925C118.159 93.1211 120.31 92.615 121.829 93.6272Z" fill="white"/>
<path d="M127.268 93.88C128.787 94.8922 129.166 96.9166 128.154 98.5614C127.142 100.206 124.991 100.712 123.472 99.8267C121.954 98.8145 121.574 96.7901 122.586 95.1453C123.725 93.5005 125.75 92.8678 127.268 93.88Z" fill="white"/>
<path d="M132.963 91.2239C134.482 92.2361 134.861 94.2605 133.849 95.9053C132.837 97.5501 130.686 98.0562 129.167 97.1705C127.649 96.1583 127.269 94.1339 128.282 92.4891C129.421 90.7178 131.445 90.2117 132.963 91.2239Z" fill="white"/>
<path d="M134.481 87.1741C135.999 88.1863 136.379 90.2107 135.367 91.8555C134.355 93.5003 132.203 94.0064 130.685 93.1207C129.167 92.2351 128.787 90.0841 129.799 88.4393C130.812 86.668 132.963 86.1619 134.481 87.1741Z" fill="white"/>
<path d="M117.272 90.4644C118.79 91.4766 119.17 93.501 118.158 95.1458C117.146 96.7906 114.994 97.2967 113.476 96.4111C111.958 95.3989 111.578 93.3745 112.59 91.7297C113.603 90.0849 115.754 89.5788 117.272 90.4644Z" fill="white"/>
<path d="M115.628 86.4153C117.146 87.4275 117.526 89.4519 116.513 91.0967C115.501 92.7415 113.35 93.2476 111.832 92.3619C110.313 91.3497 109.934 89.3254 110.946 87.6805C112.085 85.9092 114.109 85.4031 115.628 86.4153Z" fill="white"/>
<path d="M128.028 78.0648C131.95 80.5953 133.216 85.9093 130.685 89.8316C128.154 93.7538 122.84 95.0191 118.917 92.4886C114.995 89.9581 113.73 84.6441 116.26 80.7218C118.791 76.7996 123.979 75.5344 128.028 78.0648Z" fill="white"/>
<path d="M115.248 85.9092C115.881 87.807 116.766 89.7049 118.158 90.9701C119.55 92.2354 121.448 92.868 123.346 92.868C125.244 92.868 127.142 92.4884 128.661 91.3497C130.179 90.211 131.697 88.6927 131.95 86.6683C132.077 87.6805 131.824 88.6927 131.318 89.7049C130.812 90.5906 130.052 91.4762 129.293 92.1089C128.534 92.868 127.522 93.3741 126.509 93.7537C125.497 94.0067 124.358 94.1332 123.346 94.1332C122.334 94.1332 121.195 93.8802 120.183 93.5006C119.171 93.1211 118.285 92.4884 117.526 91.6028C116.007 90.0845 115.248 87.9336 115.248 85.9092Z" fill="#C2C2C2"/>
<path d="M134.102 92.8679C133.849 93.2475 133.47 93.627 132.964 93.7536C132.458 93.8801 131.951 93.8801 131.445 93.627C130.433 93.2475 129.8 92.3618 129.674 91.3496C130.56 91.7292 131.192 92.1088 131.825 92.3618C132.458 92.7414 133.09 92.7414 134.102 92.8679Z" fill="#C2C2C2"/>
<path d="M128.787 96.7899C128.534 96.5369 128.407 96.4104 128.281 96.1573C128.154 96.0308 128.028 95.7777 127.901 95.5247C127.648 95.1451 127.521 94.639 127.521 93.8799C127.901 93.8799 128.154 94.0064 128.407 94.2595C128.66 94.386 128.787 94.639 128.913 94.8921C129.04 95.1451 129.166 95.3982 129.166 95.7777C129.166 96.1573 129.166 96.6634 128.787 96.7899Z" fill="#C2C2C2"/>
<path d="M122.46 98.4344C122.081 98.3079 121.828 97.8018 121.828 97.5487C121.701 97.1692 121.701 96.7896 121.701 96.41C121.701 96.0304 121.828 95.7774 122.081 95.3978C122.207 95.1448 122.587 94.7652 122.967 94.6387C122.967 95.0182 122.967 95.3978 122.967 95.6509C122.967 95.9039 122.967 96.2835 122.967 96.5365C122.967 96.7896 122.84 97.1692 122.713 97.4222C122.587 97.6753 122.46 98.0548 122.46 98.4344Z" fill="#C2C2C2"/>
<path d="M112.338 92.4887C112.844 92.6152 113.224 92.6152 113.73 92.4887C114.109 92.3622 114.489 92.2356 114.869 92.1091C115.248 91.9826 115.628 91.7295 116.007 91.4765C116.387 91.2234 116.767 90.9704 117.146 90.5908C117.273 91.0969 117.02 91.7295 116.767 92.1091C116.513 92.6152 116.007 92.8683 115.501 93.1213C114.995 93.3744 114.362 93.5009 113.856 93.3743C113.097 93.3743 112.464 92.9948 112.338 92.4887Z" fill="#C2C2C2"/>
<path d="M116.641 96.7902C116.767 96.031 117.02 95.3984 117.4 94.8923C117.526 94.6393 117.779 94.3862 118.032 94.1332C118.286 93.8801 118.412 93.7536 118.792 93.374C119.045 93.7536 119.045 94.1332 119.045 94.5127C118.918 94.8923 118.792 95.2719 118.665 95.5249C118.032 96.1576 117.526 96.6637 116.641 96.7902Z" fill="#C2C2C2"/>
<path d="M51.0963 80.8488C52.6147 81.861 52.9943 83.8854 51.982 85.5302C50.9698 87.175 48.8187 87.6811 47.3003 86.7954C45.7819 85.7832 45.4023 83.7588 46.4146 82.114C47.5534 80.4692 49.5779 79.8366 51.0963 80.8488Z" fill="white"/>
<path d="M56.6627 81.1021C58.1811 82.1143 58.5607 84.1387 57.5484 85.7835C56.5362 87.4283 54.3851 87.9344 52.8667 87.0488C51.3483 86.0366 50.9687 84.0122 51.981 82.3674C52.9932 80.7226 55.1443 80.2165 56.6627 81.1021Z" fill="white"/>
<path d="M62.358 78.4455C63.8764 79.4577 64.256 81.482 63.2437 83.1269C62.2315 84.7717 60.0804 85.2778 58.562 84.3921C57.0436 83.3799 56.664 81.3555 57.6763 79.7107C58.6886 78.0659 60.7131 77.4333 62.358 78.4455Z" fill="white"/>
<path d="M63.7486 74.3957C65.267 75.4079 65.6467 77.4322 64.6344 79.0771C63.6221 80.7219 61.4711 81.228 59.9527 80.3423C58.4343 79.3301 58.0546 77.3057 59.0669 75.6609C60.0792 74.0161 62.2302 73.3835 63.7486 74.3957Z" fill="white"/>
<path d="M46.5396 77.8128C48.058 78.8249 48.4376 80.8493 47.4254 82.4941C46.4131 84.139 44.262 84.6451 42.7436 83.7594C41.2252 82.7472 40.8457 80.7228 41.8579 79.078C42.9967 77.3067 45.0212 76.8006 46.5396 77.8128Z" fill="white"/>
<path d="M45.0221 73.6369C46.5405 74.6491 46.9201 76.6734 45.9078 78.3183C44.8955 79.9631 42.7445 80.4692 41.2261 79.5835C39.7077 78.5713 39.3281 76.5469 40.3403 74.9021C41.3526 73.2573 43.5037 72.6247 45.0221 73.6369Z" fill="white"/>
<path d="M57.2954 65.4131C61.2179 67.9436 62.4832 73.2576 59.9526 77.1798C57.4219 81.1021 52.1075 82.3673 48.185 79.8368C44.2625 77.3063 42.9972 71.9923 45.5278 68.0701C48.0585 64.0213 53.3729 62.8826 57.2954 65.4131Z" fill="white"/>
<path d="M44.5156 73.2578C45.1483 75.1557 46.034 77.0535 47.4259 78.3188C48.8178 79.584 50.7158 80.2166 52.6138 80.2166C54.5118 80.2166 56.4097 79.8371 57.9281 78.6984C59.4465 77.5596 60.9649 76.0413 61.218 74.017C61.3445 75.0292 61.0915 76.0413 60.5853 77.0535C60.0792 77.9392 59.32 78.8249 58.5608 79.4575C57.8016 80.2166 56.7894 80.7227 55.7771 81.1023C54.7648 81.3554 53.626 81.4819 52.6138 81.4819C51.6015 81.4819 50.4627 81.2288 49.4504 80.8493C48.4382 80.4697 47.5524 79.8371 46.7932 78.9514C45.2748 77.3066 44.6422 75.2822 44.5156 73.2578Z" fill="#C2C2C2"/>
<path d="M63.3681 80.0896C63.115 80.4691 62.7354 80.8487 62.2293 80.9752C61.7231 81.1018 61.217 81.1018 60.7109 80.8487C59.6986 80.4691 59.066 79.5835 58.9395 78.5713C59.8252 78.9509 60.4578 79.3304 61.0905 79.5835C61.7232 79.963 62.3558 79.9631 63.3681 80.0896Z" fill="#C2C2C2"/>
<path d="M58.1813 84.0126C57.9283 83.7595 57.8018 83.633 57.6752 83.38C57.5487 83.2534 57.4221 83.0004 57.2956 82.7473C57.0425 82.3678 56.916 81.8617 56.916 81.1025C57.2956 81.1025 57.5487 81.2291 57.8017 81.4821C58.0548 81.6086 58.1814 81.8617 58.3079 82.1147C58.4344 82.3678 58.5609 82.6208 58.5609 83.0004C58.5609 83.38 58.4344 83.8861 58.1813 84.0126Z" fill="#C2C2C2"/>
<path d="M51.728 85.6571C51.3484 85.5305 51.0953 85.0244 51.0953 84.7714C50.9688 84.3918 50.9688 84.0122 50.9688 83.6327C50.9688 83.2531 51.0953 82.8735 51.3484 82.6205C51.4749 82.3674 51.8545 81.9879 52.2341 81.8613C52.2341 82.2409 52.2341 82.6205 52.2341 82.8735C52.2341 83.1266 52.2341 83.5061 52.2341 83.7592C52.2341 84.0122 52.1076 84.3918 51.981 84.6449C51.981 85.0244 51.8545 85.2775 51.728 85.6571Z" fill="#C2C2C2"/>
<path d="M41.6055 79.7104C42.1116 79.8369 42.4912 79.8369 42.9973 79.7104C43.3769 79.5838 43.7565 79.4573 44.1361 79.3308C44.5157 79.2043 44.8953 78.9512 45.2749 78.6982C45.6545 78.4451 46.0341 78.1921 46.4137 77.8125C46.5402 78.3186 46.2872 78.9512 46.0341 79.3308C45.7811 79.8369 45.2749 80.0899 44.7688 80.343C44.2627 80.596 43.63 80.7226 43.1239 80.596C42.3647 80.596 41.8585 80.2165 41.6055 79.7104Z" fill="#C2C2C2"/>
<path d="M46.0352 84.0118C46.1617 83.2527 46.4148 82.6201 46.7944 82.114C46.9209 81.8609 47.174 81.6079 47.427 81.3548C47.6801 81.1018 47.8066 80.9753 48.1862 80.5957C48.4393 80.9753 48.4393 81.3548 48.4393 81.7344C48.3127 82.114 48.1862 82.4936 48.0597 82.7466C47.3005 83.5058 46.7944 83.8853 46.0352 84.0118Z" fill="#C2C2C2"/>
<path d="M100.949 68.1965C100.949 65.0334 103.353 62.5029 106.39 62.5029C109.427 62.5029 111.831 65.0334 111.831 68.1965C111.831 71.3596 109.427 73.8901 106.39 73.8901C103.353 73.8901 100.949 71.3596 100.949 68.1965Z" fill="#FFD9BC"/>
<path d="M101.455 58.4543C101.455 55.2912 103.859 52.7607 106.896 52.7607C109.933 52.7607 112.337 55.2912 112.337 58.4543C112.337 61.6174 109.933 64.1479 106.896 64.1479C103.986 64.0214 101.455 61.4909 101.455 58.4543Z" fill="#8C1C24"/>
<path d="M101.709 48.5852C101.709 45.4221 104.113 42.8916 107.15 42.8916C110.187 42.8916 112.591 45.4221 112.591 48.5852C112.591 51.7483 110.187 54.2788 107.15 54.2788C104.24 54.1522 101.709 51.6218 101.709 48.5852Z" fill="#F5B669"/>
<path d="M69.5698 44.1567C72.5748 44.1567 75.0108 41.6076 75.0108 38.4631C75.0108 35.3186 72.5748 32.7695 69.5698 32.7695C66.5649 32.7695 64.1289 35.3186 64.1289 38.4631C64.1289 41.6076 66.5649 44.1567 69.5698 44.1567Z" fill="#FFD9BC"/>
<path d="M64.6348 28.595C64.6348 25.4318 67.0389 22.9014 70.0757 22.9014C73.1125 22.9014 75.5166 25.4318 75.5166 28.595C75.5166 31.7581 73.1125 34.2885 70.0757 34.2885C67.1654 34.162 64.6348 31.6315 64.6348 28.595Z" fill="#8C1C24"/>
<path d="M65.0156 18.7258C65.0156 15.5627 67.4197 13.0322 70.4565 13.0322C73.4933 13.0322 75.8975 15.5627 75.8975 18.7258C75.8975 21.8889 73.4933 24.4194 70.4565 24.4194C67.4197 24.4194 65.0156 21.8889 65.0156 18.7258Z" fill="#F5B669"/>
<path d="M93.6094 25.4309C93.6094 22.2678 96.0135 19.7373 99.0503 19.7373C102.087 19.7373 104.491 22.2678 104.491 25.4309C104.491 28.594 102.087 31.1245 99.0503 31.1245C96.14 30.998 93.6094 28.4675 93.6094 25.4309Z" fill="#87BC9D"/>
<path d="M94.2422 15.5627C94.2422 12.3996 96.6463 9.86914 99.6831 9.86914C102.72 9.86914 105.124 12.3996 105.124 15.5627C105.124 18.7258 102.72 21.2563 99.6831 21.2563C96.6463 21.1298 94.2422 18.5993 94.2422 15.5627Z" fill="#8C1C24"/>
<path d="M100.062 11.3872C103.067 11.3872 105.503 8.83806 105.503 5.69358C105.503 2.5491 103.067 0 100.062 0C97.0571 0 94.6211 2.5491 94.6211 5.69358C94.6211 8.83806 97.0571 11.3872 100.062 11.3872Z" fill="#F5B669"/>
<path d="M75.1367 77.5588C75.1367 74.3957 77.5408 71.8652 80.5776 71.8652C83.6144 71.8652 86.0186 74.3957 86.0186 77.5588C86.0186 80.7219 83.6144 83.2524 80.5776 83.2524C77.5408 83.1259 75.1367 80.5954 75.1367 77.5588Z" fill="#87BC9D"/>
<path d="M75.6426 67.6907C75.6426 64.5276 78.0467 61.9971 81.0835 61.9971C84.1203 61.9971 86.5244 64.5276 86.5244 67.6907C86.5244 70.8538 84.1203 73.3842 81.0835 73.3842C78.1733 73.2577 75.6426 70.7272 75.6426 67.6907Z" fill="#8C1C24"/>
<path d="M81.4643 63.5151C84.4693 63.5151 86.9052 60.966 86.9052 57.8215C86.9052 54.677 84.4693 52.1279 81.4643 52.1279C78.4594 52.1279 76.0234 54.677 76.0234 57.8215C76.0234 60.966 78.4594 63.5151 81.4643 63.5151Z" fill="#F5B669"/>
<path d="M127.018 59.8459C127.018 56.6828 129.422 54.1523 132.458 54.1523C135.495 54.1523 137.899 56.6828 137.899 59.8459C137.899 63.009 135.495 65.5395 132.458 65.5395C129.422 65.5395 127.018 63.009 127.018 59.8459Z" fill="#87BC9D"/>
<path d="M127.523 49.9778C127.523 46.8147 129.928 44.2842 132.964 44.2842C136.001 44.2842 138.405 46.8147 138.405 49.9778C138.405 53.1409 136.001 55.6713 132.964 55.6713C130.054 55.6713 127.523 53.1409 127.523 49.9778Z" fill="#8C1C24"/>
<path d="M133.345 45.8022C136.35 45.8022 138.786 43.2531 138.786 40.1086C138.786 36.9641 136.35 34.415 133.345 34.415C130.34 34.415 127.904 36.9641 127.904 40.1086C127.904 43.2531 130.34 45.8022 133.345 45.8022Z" fill="#F5B669"/>
<path d="M58.3082 87.0481C60.3347 87.0481 61.9776 85.5187 61.9776 83.632C61.9776 81.7453 60.3347 80.2158 58.3082 80.2158C56.2816 80.2158 54.6387 81.7453 54.6387 83.632C54.6387 85.5187 56.2816 87.0481 58.3082 87.0481Z" fill="#8C1C24"/>
<path d="M16.4258 50.2296C16.4258 48.3318 18.0707 46.8135 20.0952 46.8135C22.1198 46.8135 23.7647 48.3318 23.7647 50.2296C23.7647 52.1275 22.1198 53.6458 20.0952 53.6458C18.0707 53.6458 16.4258 52.254 16.4258 50.2296Z" fill="#8C1C24"/>
<path d="M94.4959 30.7454C94.7489 25.5579 91.9652 20.3704 87.6631 17.5869C83.7406 21.2561 82.0956 26.9497 83.1079 31.7576C81.2099 27.7088 77.0343 24.6723 72.6057 24.0396C72.0995 23.9131 71.4668 23.9131 71.0872 24.2927C70.5811 24.7988 70.5811 25.5579 70.8342 26.1906C72.0995 31.378 76.0221 35.9329 80.9568 37.4512C78.5527 37.0716 76.022 37.7042 74.2506 39.2225C72.3526 40.7408 71.2138 43.0183 71.0872 45.4222C75.8955 47.5731 81.5895 47.1936 85.8916 44.5365C85.8916 49.5975 87.7896 54.6585 91.206 58.3277C95.5082 54.6585 97.4061 48.3323 95.2551 42.7652C96.9 44.7896 99.3041 46.3079 101.835 46.6875C104.365 47.067 107.149 46.5609 109.3 45.0426C106.77 40.9939 102.594 37.9573 97.9123 37.0716C102.721 37.0716 107.276 33.782 108.668 29.2271C104.112 26.6966 98.0388 27.3293 94.4959 30.7454Z" fill="#F5B669"/>
<path d="M90.5732 40.9941C93.9974 40.9941 96.7733 38.2184 96.7733 34.7944C96.7733 31.3704 93.9974 28.5947 90.5732 28.5947C87.149 28.5947 84.373 31.3704 84.373 34.7944C84.373 38.2184 87.149 40.9941 90.5732 40.9941Z" fill="white"/>
<path d="M98.165 34.9208C101.589 34.9208 104.365 32.1452 104.365 28.7212C104.365 25.2972 101.589 22.5215 98.165 22.5215C94.7408 22.5215 91.9648 25.2972 91.9648 28.7212C91.9648 32.1452 94.7408 34.9208 98.165 34.9208Z" fill="#8C1C24"/>
<path d="M101.961 46.814C104.112 47.067 106.137 46.9405 108.161 46.4344C108.414 46.3079 108.667 46.3079 108.92 46.1813C109.173 46.0548 109.3 46.0548 109.3 46.0548V46.1813C109.3 46.1813 109.173 46.0548 109.173 45.9283L108.794 45.2957C108.161 44.41 107.528 43.5243 106.896 42.6387C107.908 43.1448 108.794 43.7774 109.553 44.6631C109.806 44.9161 109.933 45.0426 110.059 45.2957C110.186 45.4222 110.186 45.5487 110.312 45.6753L110.439 45.8018C110.439 45.9283 110.439 46.0548 110.439 46.1813C110.439 46.3079 110.312 46.4344 110.312 46.5609C109.932 46.9405 109.553 47.067 109.3 47.1935C109.047 47.3201 108.794 47.4466 108.541 47.4466C106.263 48.2057 103.859 47.9527 101.961 46.814Z" fill="#C78F4C"/>
</svg>
