<svg width="133" height="133" viewBox="0 0 133 133" fill="none" xmlns="http://www.w3.org/2000/svg">
<path d="M54.36 129.62C53.11 129.62 51.81 129.54 50.46 129.36C43.14 128.42 36.45 123.94 32.57 117.38C29.59 112.33 28.8 105.43 30.52 99.3699C31.95 94.3399 34.98 90.3999 39.04 88.2599C43.75 85.7899 49.88 85.4199 55.04 87.3099C59.28 88.8499 62.44 91.7299 63.94 95.4199C65.82 100.01 64.96 105.85 61.87 109.62C59.7 112.27 56.82 113.4 53.79 112.81C53.38 112.73 53.12 112.34 53.2 111.93C53.28 111.52 53.68 111.26 54.08 111.34C56.55 111.82 58.91 110.87 60.71 108.67C63.47 105.31 64.23 100.09 62.55 95.9899C61.21 92.6999 58.36 90.1199 54.52 88.7299C49.74 86.9899 44.07 87.3199 39.73 89.5999C36.03 91.5499 33.27 95.1699 31.95 99.7899C30.34 105.46 31.06 111.91 33.84 116.62C37.49 122.78 43.77 126.99 50.63 127.87C64.88 129.71 73.53 120.7 76.86 111.64C80.59 101.5 79.03 86.9599 66.8 79.0099C59.79 74.4299 51.03 74.1399 42.57 73.8599C38.21 73.7099 33.71 73.5599 29.54 72.8199C10.77 69.4699 0 58.5799 0 42.9299C0 42.5199 0.34 42.1799 0.75 42.1799C1.16 42.1799 1.5 42.5199 1.5 42.9299C1.5 51.6599 5.18 66.9599 29.8 71.3499C33.86 72.0699 38.31 72.2199 42.62 72.3699C51.29 72.6599 60.26 72.9599 67.62 77.7599C80.55 86.1599 82.2 101.49 78.27 112.17C75.05 120.92 67.16 129.63 54.34 129.63L54.36 129.62Z" fill="white"/>
<path d="M101.449 80.15C92.7995 80.15 83.6094 76.61 77.7694 67.62C72.9694 60.26 72.6694 51.29 72.3794 42.62C72.2394 38.32 72.0894 33.87 71.3594 29.8C66.9694 5.17999 51.6695 1.5 42.9395 1.5C42.5295 1.5 42.1895 1.16 42.1895 0.75C42.1895 0.34 42.5295 0 42.9395 0C58.5895 0 69.4794 10.77 72.8294 29.54C73.5694 33.71 73.7195 38.21 73.8695 42.57C74.1495 51.04 74.4494 59.79 79.0194 66.8C86.9794 79.04 101.519 80.59 111.659 76.86C120.719 73.53 129.739 64.89 127.889 50.63C127.009 43.76 122.799 37.48 116.639 33.84C111.929 31.06 105.479 30.33 99.8095 31.95C95.1795 33.26 91.5595 36.03 89.6195 39.73C87.3395 44.07 86.9995 49.74 88.7495 54.52C90.1495 58.35 92.7295 61.2 96.0095 62.55C100.119 64.23 105.329 63.47 108.699 60.71C110.899 58.9 111.849 56.55 111.369 54.08C111.289 53.67 111.559 53.28 111.959 53.2C112.359 53.12 112.759 53.39 112.839 53.79C113.429 56.83 112.289 59.7 109.639 61.87C105.869 64.97 100.019 65.81 95.4394 63.94C91.7594 62.44 88.8794 59.27 87.3294 55.04C85.4494 49.88 85.8095 43.75 88.2795 39.04C90.4195 34.97 94.3595 31.94 99.3895 30.52C105.439 28.8 112.339 29.58 117.399 32.57C123.959 36.45 128.439 43.14 129.379 50.46C131.339 65.59 121.779 74.76 112.179 78.29C108.929 79.49 105.239 80.17 101.449 80.17V80.15Z" fill="white"/>
<path d="M15.0395 132.66H0.769531C0.359531 132.66 0.0195312 132.32 0.0195312 131.91V0.75C0.0195312 0.34 0.359531 0 0.769531 0H131.93C132.34 0 132.68 0.34 132.68 0.75V15.02C132.68 15.43 132.34 15.77 131.93 15.77C130.78 15.77 129.52 15.77 128.17 15.75C111.45 15.62 80.2895 15.4 64.7695 30.8C58.6495 36.88 55.5395 44.94 55.5395 54.76C55.5395 55.17 55.1995 55.51 54.7895 55.51C44.8195 55.51 36.6695 58.64 30.5595 64.81C15.3195 80.2 15.6095 111.07 15.7695 127.65C15.7795 129.2 15.7995 130.62 15.7995 131.91C15.7995 132.32 15.4595 132.66 15.0495 132.66H15.0395ZM1.51953 131.16H14.2895C14.2895 130.08 14.2695 128.91 14.2595 127.67C14.0995 110.87 13.7995 79.59 29.4895 63.76C35.7395 57.45 43.9995 54.18 54.0395 54.02C54.1895 44.12 57.4495 35.96 63.7095 29.74C79.6695 13.89 111.22 14.12 128.18 14.25C129.24 14.25 130.25 14.27 131.18 14.27V1.5H1.51953V131.16Z" fill="white"/>
<path d="M24.8403 40.85C16.0103 40.85 8.82031 33.6601 8.82031 24.8301C8.82031 16.0001 16.0103 8.81006 24.8403 8.81006C33.6703 8.81006 40.8603 16.0001 40.8603 24.8301C40.8603 33.6601 33.6703 40.85 24.8403 40.85ZM24.8403 10.3C16.8303 10.3 10.3203 16.8101 10.3203 24.8201C10.3203 32.8301 16.8303 39.3401 24.8403 39.3401C32.8503 39.3401 39.3603 32.8301 39.3603 24.8201C39.3603 16.8101 32.8503 10.3 24.8403 10.3Z" fill="white"/>
</svg>
