<svg width="133" height="133" viewBox="0 0 133 133" fill="none" xmlns="http://www.w3.org/2000/svg">
<path d="M78.3099 3.04974C79.5599 3.04974 80.8599 3.12975 82.2099 3.30975C89.5299 4.24975 96.2199 8.72973 100.1 15.2897C103.08 20.3397 103.87 27.2397 102.15 33.2997C100.72 38.3297 97.6899 42.2697 93.6299 44.4097C88.9199 46.8797 82.7899 47.2497 77.6299 45.3597C73.3899 43.8197 70.2299 40.9398 68.7299 37.2498C66.8499 32.6597 67.7099 26.8197 70.7999 23.0497C72.9699 20.3997 75.8499 19.2697 78.8799 19.8597C79.2899 19.9397 79.5499 20.3297 79.4699 20.7397C79.3899 21.1497 78.9899 21.4097 78.5899 21.3297C76.1199 20.8497 73.7599 21.7998 71.9599 23.9998C69.1999 27.3598 68.4399 32.5797 70.1199 36.6797C71.4599 39.9697 74.3099 42.5498 78.1499 43.9398C82.9299 45.6798 88.5999 45.3498 92.9399 43.0698C96.6399 41.1198 99.3999 37.4998 100.72 32.8798C102.33 27.2098 101.61 20.7597 98.8299 16.0497C95.1799 9.88974 88.8999 5.67974 82.0399 4.79974C67.7899 2.95974 59.1399 11.9697 55.8099 21.0297C52.0799 31.1697 53.6399 45.7097 65.8699 53.6597C72.8799 58.2397 81.6399 58.5297 90.0999 58.8097C94.4599 58.9598 98.9599 59.1097 103.13 59.8497C121.9 63.1997 132.67 74.0897 132.67 89.7397C132.67 90.1497 132.33 90.4897 131.92 90.4897C131.51 90.4897 131.17 90.1497 131.17 89.7397C131.17 81.0097 127.49 65.7098 102.87 61.3198C98.8099 60.5998 94.3599 60.4497 90.0499 60.2997C81.3799 60.0097 72.4099 59.7097 65.0499 54.9097C52.1199 46.5097 50.4699 31.1797 54.3999 20.4997C57.6199 11.7497 65.5099 3.03973 78.3299 3.03973L78.3099 3.04974Z" fill="white"/>
<path d="M31.2205 52.5199C39.8705 52.5199 49.0605 56.0599 54.9005 65.0499C59.7005 72.4099 60.0005 81.3799 60.2905 90.0499C60.4305 94.3499 60.5805 98.7999 61.3105 102.87C65.7005 127.49 81.0005 131.17 89.7305 131.17C90.1405 131.17 90.4805 131.51 90.4805 131.92C90.4805 132.33 90.1405 132.67 89.7305 132.67C74.0805 132.67 63.1905 121.9 59.8405 103.13C59.1005 98.9599 58.9505 94.4599 58.8005 90.0999C58.5205 81.6299 58.2205 72.8799 53.6505 65.8699C45.6905 53.6299 31.1505 52.0799 21.0105 55.8099C11.9505 59.1399 2.93047 67.7799 4.78047 82.0399C5.66047 88.9099 9.87047 95.1899 16.0305 98.8299C20.7405 101.61 27.1905 102.34 32.8605 100.72C37.4905 99.4099 41.1105 96.6399 43.0505 92.9399C45.3305 88.5999 45.6705 82.9299 43.9205 78.1499C42.5205 74.3199 39.9405 71.4699 36.6605 70.1199C32.5505 68.4399 27.3405 69.1999 23.9705 71.9599C21.7705 73.7699 20.8205 76.1199 21.3005 78.5899C21.3805 78.9999 21.1105 79.3899 20.7105 79.4699C20.3105 79.5499 19.9105 79.2799 19.8305 78.8799C19.2405 75.8399 20.3805 72.9699 23.0305 70.7999C26.8005 67.6999 32.6505 66.8599 37.2305 68.7299C40.9105 70.2299 43.7905 73.3999 45.3405 77.6299C47.2205 82.7899 46.8605 88.9199 44.3905 93.6299C42.2505 97.6999 38.3105 100.73 33.2805 102.15C27.2305 103.87 20.3305 103.09 15.2705 100.1C8.71047 96.2199 4.23048 89.5299 3.29048 82.2099C1.33048 67.0799 10.8905 57.9099 20.4905 54.3799C23.7405 53.1799 27.4305 52.4999 31.2205 52.4999L31.2205 52.5199Z" fill="white"/>
<path d="M117.63 0.00994742L131.9 0.00994866C132.31 0.0099487 132.65 0.349949 132.65 0.759949L132.65 131.92C132.65 132.33 132.31 132.67 131.9 132.67L0.740387 132.67C0.330387 132.67 -0.00961301 132.33 -0.00961297 131.92L-0.00961172 117.65C-0.00961169 117.24 0.330388 116.9 0.740388 116.9C1.89039 116.9 3.15038 116.9 4.50038 116.92C21.2204 117.05 52.3804 117.27 67.9004 101.87C74.0204 95.7899 77.1304 87.7299 77.1304 77.9099C77.1304 77.4999 77.4704 77.1599 77.8804 77.1599C87.8504 77.1599 96.0004 74.0299 102.11 67.8599C117.35 52.4699 117.06 21.5999 116.9 5.0199C116.89 3.4699 116.87 2.04995 116.87 0.759947C116.87 0.349947 117.21 0.00994738 117.62 0.00994742L117.63 0.00994742ZM131.15 1.50995L118.38 1.50995C118.38 2.58995 118.4 3.75994 118.41 4.99994C118.57 21.7999 118.87 53.0799 103.18 68.9099C96.9304 75.2199 88.6704 78.4899 78.6304 78.6499C78.4804 88.5499 75.2204 96.7099 68.9604 102.93C53.0004 118.78 21.4504 118.55 4.49039 118.42C3.43039 118.42 2.42039 118.4 1.49039 118.4L1.49039 131.17L131.15 131.17L131.15 1.50995Z" fill="white"/>
<path d="M107.83 91.8199C116.66 91.8199 123.85 99.0098 123.85 107.84C123.85 116.67 116.66 123.86 107.83 123.86C98.9996 123.86 91.8096 116.67 91.8096 107.84C91.8096 99.0098 98.9996 91.8199 107.83 91.8199ZM107.83 122.37C115.84 122.37 122.35 115.86 122.35 107.85C122.35 99.8399 115.84 93.3298 107.83 93.3298C99.8196 93.3298 93.3096 99.8399 93.3096 107.85C93.3096 115.86 99.8196 122.37 107.83 122.37Z" fill="white"/>
</svg>
