<svg width="212" height="232" viewBox="0 0 212 232" fill="none" xmlns="http://www.w3.org/2000/svg">
<path d="M122.378 230.726C125.505 227.291 129.74 225.351 134.214 225.351C136.234 225.351 138.205 225.75 140.047 226.5C141.203 226.073 142.351 225.621 143.487 225.15C140.681 223.464 137.502 222.55 134.214 222.55C128.845 222.55 123.772 224.974 120.128 229.244C118.068 227.998 115.913 226.974 113.687 226.186C118.567 219.197 126.114 215.077 134.211 215.077C140.4 215.077 146.268 217.485 150.87 221.74C151.711 221.31 152.543 220.867 153.369 220.415C148.196 215.231 141.401 212.276 134.211 212.276C124.972 212.276 116.387 217.153 111.056 225.37C108.895 224.795 106.683 224.437 104.442 224.299C110.511 212.518 121.738 205.287 134.211 205.287C143.86 205.287 152.758 209.617 159.105 217.027C161.736 215.357 164.298 213.567 166.78 211.661C166.556 211.645 166.332 211.636 166.106 211.636C163.836 211.636 161.658 212.433 159.856 213.9C158.144 212.072 156.261 210.43 154.238 208.986C157.369 205.529 161.618 203.576 166.106 203.576C168.863 203.576 171.532 204.317 173.907 205.689C174.605 205.052 175.296 204.405 175.979 203.749C173.029 201.824 169.632 200.778 166.109 200.778C160.726 200.778 155.639 203.218 151.995 207.507C149.937 206.26 147.783 205.237 145.559 204.446C150.439 197.437 157.997 193.305 166.109 193.305C171.56 193.305 176.759 195.174 181.066 198.524C181.675 197.855 182.277 197.18 182.871 196.495C178.076 192.652 172.237 190.505 166.109 190.505C156.858 190.505 148.259 195.393 142.931 203.632C140.773 203.058 138.564 202.697 136.325 202.558C142.391 190.759 153.624 183.518 166.109 183.518C173.907 183.518 181.218 186.344 187.089 191.343C187.631 190.64 188.165 189.93 188.69 189.214C187.864 188.511 187.009 187.842 186.128 187.211C188.116 185.029 190.552 183.452 193.209 182.589C193.906 181.487 194.586 180.372 195.249 179.245C190.905 179.917 186.899 182.187 183.878 185.729C181.818 184.482 179.663 183.459 177.437 182.671C182.317 175.681 189.863 171.562 197.961 171.562C198.431 171.562 198.899 171.577 199.367 171.606C199.808 170.714 200.236 169.813 200.655 168.905C199.765 168.814 198.864 168.764 197.961 168.764C188.721 168.764 180.137 173.64 174.805 181.857C172.645 181.283 170.433 180.925 168.192 180.787C174.26 169.006 185.488 161.775 197.961 161.775C199.837 161.775 201.685 161.941 203.49 162.258C203.831 161.382 204.164 160.503 204.488 159.618C203.031 159.332 201.553 159.14 200.064 159.046C202.133 155.024 204.801 151.536 207.911 148.678C208.287 147.24 208.643 145.793 208.97 144.333C207.263 145.623 205.665 147.058 204.19 148.631C202.391 147.174 200.222 146.383 197.961 146.383C195.7 146.383 193.545 147.168 191.749 148.616C190.033 146.788 188.15 145.143 186.125 143.699C189.252 140.264 193.487 138.323 197.961 138.323C202.173 138.323 206.172 140.047 209.237 143.115C209.455 142.088 209.664 141.058 209.86 140.022C206.497 137.13 202.328 135.525 197.963 135.525C192.595 135.525 187.522 137.949 183.878 142.22C181.818 140.973 179.663 139.95 177.437 139.161C182.317 132.172 189.863 128.053 197.961 128.053C202.663 128.053 207.177 129.444 211.093 131.977C211.214 130.976 211.323 129.974 211.42 128.966C207.349 126.564 202.741 125.255 197.958 125.255C188.719 125.255 180.134 130.131 174.803 138.348C172.642 137.774 170.43 137.416 168.189 137.278C174.257 125.497 185.485 118.266 197.958 118.266C202.887 118.266 207.621 119.399 211.923 121.493C211.96 120.504 211.986 119.512 212 118.517C211.119 118.118 210.224 117.754 209.314 117.43C210.135 116.256 211.03 115.167 211.989 114.159C211.966 112.944 211.928 111.735 211.871 110.532C209.925 112.275 208.178 114.316 206.683 116.617C204.523 116.043 202.313 115.682 200.072 115.54C202.841 110.165 206.689 105.741 211.234 102.513C211.036 100.714 210.798 98.9272 210.525 97.1563C207.053 93.8783 202.615 92.0509 197.952 92.0509C192.584 92.0509 187.511 94.4749 183.867 98.7451C181.807 97.4986 179.652 96.475 177.425 95.6869C182.306 88.6975 189.852 84.578 197.949 84.578C201.662 84.578 205.257 85.4446 208.534 87.0585C208.258 85.9156 207.972 84.7821 207.667 83.6549C204.597 82.4335 201.318 81.7804 197.949 81.7804C188.71 81.7804 180.125 86.6566 174.794 94.8737C172.633 94.2991 170.421 93.9411 168.18 93.803C174.249 82.0222 185.476 74.7911 197.949 74.7911C200.428 74.7911 202.853 75.0799 205.203 75.6294C204.847 74.5995 204.48 73.576 204.098 72.5618C202.781 72.32 201.45 72.1536 200.107 72.0657C200.798 70.7312 201.562 69.4564 202.379 68.2413C201.98 67.2931 201.57 66.3511 201.151 65.4154C199.975 67.023 198.907 68.7311 197.966 70.524C196.698 68.1126 195.209 65.855 193.525 63.789C194.824 62.8282 196.357 62.3101 197.949 62.3101C198.586 62.3101 199.214 62.398 199.823 62.5582C199.329 61.5346 198.821 60.5235 198.302 59.5188C198.184 59.5156 198.067 59.5125 197.949 59.5125C195.694 59.5125 193.533 60.2975 191.737 61.7449C190.021 59.9175 188.139 58.2722 186.113 56.8279C188.308 54.4196 191.048 52.7492 194.033 51.9642C193.528 51.1416 193.011 50.3252 192.486 49.5152C189.215 50.5702 186.234 52.5671 183.861 55.349C181.801 54.1025 179.646 53.0789 177.419 52.2908C180.24 48.2529 183.953 45.1727 188.148 43.2919C187.582 42.5352 187.011 41.7879 186.429 41.0469C181.827 43.2825 177.792 46.8494 174.788 51.4776C172.628 50.903 170.415 50.545 168.175 50.4069C171.463 44.0267 176.266 38.984 181.959 35.6997C181.347 35.0121 180.728 34.3308 180.099 33.6588C180.076 33.6745 180.051 33.6871 180.028 33.7028C176.395 29.5393 171.388 27.1782 166.091 27.1782C160.795 27.1782 155.776 29.5456 152.144 33.7154C150.087 32.4531 147.935 31.4138 145.711 30.61C150.244 24.2361 157.013 20.3018 164.376 19.7681C163.257 18.9611 162.126 18.173 160.978 17.41C153.825 18.8387 147.41 23.2251 143.08 29.7811C140.916 29.1939 138.698 28.8234 136.452 28.6727C140.311 21.3129 146.193 15.7616 153.128 12.672C152.138 12.1319 151.137 11.6107 150.127 11.1052C149.51 11.4317 148.899 11.774 148.299 12.1382C146.933 10.5337 145.364 9.18986 143.654 8.13487C141.484 7.23373 139.281 6.40794 137.049 5.66065C136.113 5.50994 135.163 5.43144 134.205 5.43144C128.837 5.43144 123.764 7.85542 120.12 12.1256C118.06 10.8791 115.905 9.85551 113.678 9.06741C115.758 6.08767 118.324 3.6323 121.21 1.79548C119.916 1.59139 118.616 1.41555 117.308 1.2617C114.929 3.19272 112.812 5.54134 111.05 8.25418C108.889 7.67959 106.677 7.32164 104.436 7.18349C105.659 4.80975 107.093 2.6244 108.703 0.643147C107.805 0.618028 106.907 0.605469 106.003 0.605469C105.805 0.605469 105.607 0.605469 105.406 0.608609C104.276 2.16912 103.245 3.82383 102.333 5.56018C101.464 3.90547 100.485 2.32298 99.415 0.825259C98.3792 0.894336 97.3491 0.979113 96.3219 1.08273C97.7881 2.94781 99.0994 4.98558 100.233 7.18349C97.9947 7.32478 95.7825 7.68273 93.6248 8.26046C92.1356 5.96522 90.394 3.93059 88.4514 2.18796C87.3037 2.39833 86.1618 2.62754 85.0284 2.87559C87.2808 4.55856 89.2979 6.64343 90.9936 9.07369C88.7699 9.86493 86.6151 10.8885 84.5578 12.1382C81.8091 8.91355 78.2454 6.73763 74.3546 5.8616C71.9932 6.66855 69.6691 7.56341 67.3823 8.54305C68.3894 8.33582 69.4195 8.22592 70.4639 8.22592C74.9429 8.22592 79.1837 10.1726 82.3112 13.6171C80.2883 15.0614 78.4061 16.7067 76.6931 18.5341C74.8941 17.0772 72.7249 16.286 70.4639 16.286C68.2029 16.286 66.0481 17.0709 64.2519 18.5184C62.5361 16.691 60.6538 15.0457 58.6281 13.6014C59.245 12.9263 59.9049 12.3109 60.5993 11.752C58.8289 12.672 57.0816 13.6422 55.3657 14.6658C60.6481 17.9093 65.1156 22.6881 68.2488 28.6633C66.0022 28.8109 63.7813 29.1782 61.615 29.7654C58.3326 24.8013 53.8536 21.0805 48.7635 18.9486C47.8597 19.586 46.9645 20.2359 46.0807 20.9016C51.1479 22.5751 55.6641 25.9316 58.9839 30.5912C56.7573 31.3919 54.6025 32.4311 52.5423 33.6934C48.9098 29.5299 43.9029 27.1687 38.6062 27.1687C38.5661 27.1687 38.5259 27.1687 38.4828 27.1687C37.3294 28.2112 36.1989 29.2819 35.0856 30.3777C36.2305 30.1076 37.4097 29.9664 38.6034 29.9664C43.0077 29.9664 47.1797 31.8503 50.2928 35.1848C48.27 36.6417 46.3877 38.3027 44.6776 40.1458C42.9102 38.7705 40.8012 38.0232 38.6034 38.0232C36.4055 38.0232 34.288 38.7705 32.5205 40.1521C31.4244 38.9715 30.2566 37.8631 29.0286 36.8395C28.449 37.5115 27.8751 38.1897 27.307 38.8773C30.9998 41.923 34.1416 45.8164 36.503 50.3975C34.2621 50.5356 32.0528 50.8967 29.8922 51.4713C28.0272 48.5952 25.7633 46.1335 23.2154 44.1397C22.6817 44.8682 22.1566 45.606 21.6373 46.3502C23.7519 47.986 25.6543 49.9767 27.2639 52.2845C25.0374 53.0726 22.8825 54.0994 20.8253 55.3459C19.8755 54.2312 18.8282 53.2453 17.7035 52.3913C17.2301 53.17 16.7652 53.9549 16.309 54.7462C17.1124 55.3616 17.8756 56.0555 18.5758 56.8279C16.5529 58.2722 14.6707 59.9144 12.9548 61.7449C12.863 61.6727 12.7712 61.6005 12.6794 61.5314C10.5733 65.7985 8.70541 70.2226 7.09 74.7911C19.4222 74.9292 30.4919 82.1289 36.503 93.7967C34.265 93.9348 32.0528 94.2959 29.8922 94.8705C24.5611 86.6503 15.9733 81.7741 6.73421 81.7741C6.09723 81.7741 5.46599 81.7993 4.83761 81.8464C4.56503 82.8009 4.30106 83.7617 4.04856 84.7288C4.93517 84.6283 5.83039 84.5749 6.73421 84.5749C14.8342 84.5749 22.3833 88.6944 27.2639 95.6869C25.0374 96.475 22.8825 97.5017 20.8253 98.7483C17.1813 94.4749 12.1084 92.0478 6.73708 92.0478C5.21636 92.0478 3.71572 92.2424 2.2696 92.6192C2.07449 93.6365 1.89086 94.6601 1.7187 95.69C3.32263 95.1374 5.01264 94.8454 6.73708 94.8454C11.2132 94.8454 15.4511 96.789 18.5786 100.227C16.5558 101.671 14.6735 103.314 12.9577 105.144C11.1615 103.694 8.99521 102.905 6.73708 102.905C4.47895 102.905 2.31264 103.694 0.516471 105.147C0.516471 105.147 0.513602 105.144 0.510733 105.141C0.4017 106.366 0.307014 107.596 0.232412 108.834C1.8966 110.859 3.37715 113.097 4.6339 115.537C3.073 115.634 1.52646 115.842 0 116.149C0 116.3 0 116.451 0 116.602C0 117.396 0.00860785 118.187 0.0229543 118.978C2.20361 118.507 4.45026 118.263 6.73708 118.263C19.2127 118.263 30.4374 125.494 36.5059 137.274C34.2679 137.413 32.0557 137.774 29.8951 138.348C24.5639 130.128 15.9762 125.252 6.73708 125.252C4.55929 125.252 2.41881 125.525 0.347183 126.049C0.416046 126.991 0.496386 127.93 0.585334 128.863C2.57375 128.329 4.63676 128.049 6.73708 128.049C14.8371 128.049 22.3862 132.169 27.2668 139.161C25.0403 139.95 22.8854 140.976 20.8281 142.223C17.1841 137.949 12.1113 135.522 6.73995 135.522C4.95526 135.522 3.20499 135.792 1.52646 136.307C1.67279 137.234 1.82487 138.157 1.99128 139.077C3.51487 138.584 5.1102 138.323 6.73995 138.323C11.216 138.323 15.454 140.267 18.5815 143.705C16.5586 145.146 14.6764 146.791 12.9606 148.622C11.1644 147.171 8.99808 146.383 6.73995 146.383C5.68118 146.383 4.6425 146.559 3.6526 146.892C3.8764 147.793 4.10882 148.694 4.34984 149.586C5.11594 149.319 5.91933 149.181 6.73995 149.181C8.33527 149.181 9.87321 149.702 11.1759 150.666C9.49446 152.729 8.00817 154.98 6.74282 157.388C7.25355 158.88 7.79298 160.356 8.35823 161.816C20.1797 162.412 30.7071 169.511 36.5117 180.784C34.2707 180.922 32.0614 181.283 29.9008 181.857C25.4993 175.072 18.877 170.566 11.503 169.201C12.008 170.284 12.5273 171.355 13.061 172.416C18.6762 173.961 23.6917 177.543 27.2697 182.671C25.0575 183.456 22.9141 184.473 20.8654 185.713C21.3733 186.46 21.8898 187.201 22.412 187.936C27.2812 185.079 32.8103 183.512 38.612 183.512C51.0962 183.512 62.3295 190.753 68.3951 202.552C66.1542 202.687 63.9449 203.045 61.7843 203.62C56.4532 195.387 47.8597 190.505 38.612 190.505C34.3826 190.505 30.2882 191.531 26.5811 193.428C27.175 194.163 27.7775 194.891 28.3858 195.607C31.565 194.109 35.034 193.302 38.6091 193.302C46.7148 193.302 54.2697 197.428 59.1503 204.43C56.9237 205.218 54.766 206.238 52.7059 207.485C49.0619 203.205 43.9833 200.775 38.6091 200.775C36.942 200.775 35.3037 201.011 33.7284 201.46C34.5003 202.248 35.2836 203.023 36.0784 203.783C36.9076 203.645 37.7541 203.573 38.6091 203.573C43.0881 203.573 47.326 205.519 50.4564 208.961C48.9787 210.013 47.5785 211.171 46.2615 212.43C46.9845 212.97 47.7133 213.501 48.4479 214.022C54.4791 208.455 62.1946 205.278 70.4582 205.278C82.9338 205.278 94.1585 212.509 100.23 224.293C97.9918 224.434 95.7796 224.792 93.6219 225.37C88.2908 217.146 79.703 212.27 70.461 212.27C64.5589 212.27 58.9236 214.264 54.2324 217.843C55.0731 218.361 55.9224 218.864 56.7803 219.357C60.8202 216.594 65.5373 215.068 70.461 215.068C78.5639 215.068 86.113 219.19 90.9936 226.186C88.7699 226.977 86.6151 228.001 84.5578 229.25C80.9138 224.974 75.8352 222.544 70.461 222.544C68.5013 222.544 66.5789 222.867 64.754 223.486C66.2087 224.161 67.6836 224.798 69.1727 225.401C69.6003 225.366 70.0306 225.341 70.461 225.341C74.2801 225.341 77.9212 226.761 80.8536 229.313C82.9769 229.878 85.1259 230.375 87.298 230.798C91.8802 228.352 96.9991 227.024 102.347 227.024C108.338 227.024 114.037 228.695 119.021 231.734C120.329 231.558 121.632 231.357 122.926 231.131C122.739 230.993 122.553 230.855 122.366 230.72L122.378 230.726ZM134.237 200.913C132.968 198.502 131.479 196.244 129.795 194.178C131.095 193.217 132.627 192.699 134.219 192.699C135.812 192.699 137.358 193.224 138.664 194.194C136.985 196.257 135.499 198.508 134.237 200.913ZM140.449 192.15C138.652 190.693 136.48 189.902 134.219 189.902C131.958 189.902 129.804 190.687 128.007 192.134C126.292 190.307 124.409 188.661 122.384 187.217C125.511 183.782 129.746 181.842 134.219 181.842C138.693 181.842 142.939 183.788 146.067 187.233C144.044 188.677 142.162 190.322 140.449 192.15ZM148.313 185.751C144.669 181.474 139.591 179.044 134.217 179.044C128.842 179.044 123.775 181.468 120.131 185.738C118.071 184.492 115.916 183.468 113.69 182.68C118.57 175.691 126.117 171.571 134.214 171.571C142.311 171.571 149.866 175.694 154.746 182.686C152.523 183.478 150.368 184.501 148.31 185.751H148.313ZM157.38 181.873C152.049 173.65 143.461 168.774 134.219 168.774C124.977 168.774 116.395 173.65 111.064 181.867C108.904 181.292 106.691 180.934 104.451 180.796C110.519 169.015 121.747 161.784 134.219 161.784C146.692 161.784 157.92 169.015 163.991 180.799C161.753 180.941 159.541 181.298 157.383 181.876L157.38 181.873ZM102.367 29.9789C106.772 29.9789 110.944 31.8628 114.057 35.1974C112.034 36.6543 110.152 38.3153 108.442 40.1584C106.674 38.7831 104.565 38.0358 102.367 38.0358C100.17 38.0358 98.0435 38.7862 96.2731 40.1741C94.563 38.331 92.6836 36.6668 90.6637 35.2099C93.7768 31.866 97.9574 29.9758 102.367 29.9758V29.9789ZM88.4199 33.7185C86.3626 32.4563 84.2106 31.417 81.9869 30.6132C86.8705 23.7494 94.3478 19.7084 102.367 19.7084C110.387 19.7084 117.859 23.7463 122.742 30.6037C120.516 31.4044 118.361 32.4437 116.301 33.7059C112.668 29.5425 107.661 27.1813 102.365 27.1813C97.0679 27.1813 92.0495 29.5487 88.417 33.7185H88.4199ZM102.367 40.8366C103.905 40.8366 105.389 41.3201 106.66 42.2181C105.03 44.2402 103.584 46.4381 102.35 48.7867C101.119 46.4444 99.679 44.2496 98.0521 42.2338C99.3289 41.3264 100.818 40.8366 102.367 40.8366ZM102.367 53.1386C114.814 53.1386 126.016 60.3351 132.096 72.0688C129.852 72.2101 127.64 72.5712 125.477 73.1489C120.143 64.9759 111.578 60.1279 102.367 60.1279C93.1571 60.1279 84.5894 64.979 79.2554 73.1583C77.0948 72.5775 74.8826 72.2164 72.6388 72.072C78.7188 60.3383 89.9205 53.1386 102.367 53.1386ZM134.219 146.389C131.964 146.389 129.804 147.174 128.007 148.622C126.292 146.794 124.409 145.149 122.384 143.705C125.511 140.27 129.746 138.329 134.219 138.329C138.693 138.329 142.939 140.276 146.067 143.721C144.044 145.165 142.162 146.81 140.449 148.638C138.652 147.181 136.48 146.389 134.219 146.389ZM138.664 150.682C136.985 152.745 135.499 154.996 134.237 157.401C132.968 154.99 131.479 152.732 129.795 150.666C131.095 149.705 132.627 149.187 134.219 149.187C135.812 149.187 137.358 149.711 138.664 150.682ZM134.219 135.532C128.851 135.532 123.778 137.956 120.134 142.226C118.074 140.979 115.919 139.956 113.693 139.168C118.573 132.178 126.119 128.059 134.217 128.059C142.314 128.059 149.868 132.182 154.749 139.174C152.525 139.965 150.371 140.989 148.313 142.239C144.669 137.962 139.591 135.532 134.217 135.532H134.219ZM134.219 125.258C124.98 125.258 116.395 130.134 111.064 138.351C108.904 137.777 106.691 137.419 104.451 137.281C110.519 125.5 121.747 118.269 134.219 118.269C146.692 118.269 157.92 125.5 163.991 137.284C161.753 137.425 159.541 137.783 157.383 138.361C152.052 130.137 143.464 125.258 134.222 125.258H134.219ZM102.367 73.196C106.818 73.196 111.033 75.1176 114.155 78.5212C112.129 79.9687 110.247 81.6171 108.534 83.4508C106.749 82.0285 104.603 81.2529 102.367 81.2529C100.132 81.2529 97.9717 82.0316 96.1813 83.4665C94.4683 81.6328 92.589 79.9813 90.5661 78.5338C93.6908 75.1239 97.9115 73.196 102.367 73.196ZM88.3195 77.0486C86.2622 75.7958 84.1102 74.766 81.8837 73.9716C86.7643 67.0199 94.2933 62.9224 102.367 62.9224C110.442 62.9224 117.965 67.0168 122.846 73.9622C120.619 74.7534 118.464 75.7833 116.404 77.0361C112.766 72.8004 107.713 70.3953 102.367 70.3953C97.022 70.3953 91.9577 72.8067 88.3195 77.0486ZM102.367 84.0537C103.943 84.0537 105.458 84.5623 106.749 85.5012C105.082 87.5546 103.607 89.7902 102.35 92.1828C101.096 89.7965 99.6244 87.564 97.9631 85.5169C99.26 84.5686 100.784 84.0537 102.367 84.0537ZM102.367 96.5346C114.84 96.5346 126.065 103.763 132.133 115.543C129.893 115.682 127.68 116.039 125.52 116.614C120.189 108.397 111.604 103.524 102.365 103.524C93.1255 103.524 84.5377 108.4 79.2066 116.62C77.046 116.046 74.8367 115.685 72.5986 115.543C78.6672 103.763 89.8947 96.5346 102.367 96.5346ZM102.367 106.322C110.465 106.322 118.011 110.438 122.891 117.424C120.665 118.212 118.51 119.236 116.45 120.486C112.809 116.218 107.736 113.794 102.367 113.794C96.999 113.794 91.9175 116.225 88.2736 120.498C86.2163 119.248 84.0614 118.225 81.8377 117.434C86.7184 110.441 94.2675 106.322 102.367 106.322ZM102.367 116.595C106.838 116.595 111.073 118.536 114.2 121.968C112.175 123.409 110.292 125.057 108.577 126.885C106.783 125.44 104.623 124.655 102.367 124.655C100.112 124.655 97.9373 125.447 96.1411 126.903C94.4282 125.076 92.5459 123.428 90.5231 121.986C93.6506 118.545 97.8914 116.598 102.37 116.598L102.367 116.595ZM102.367 127.453C103.96 127.453 105.489 127.971 106.789 128.929C105.105 130.995 103.618 133.249 102.35 135.661C101.085 133.255 99.6015 131.007 97.923 128.944C99.2285 127.977 100.766 127.453 102.365 127.453H102.367ZM129.798 107.191C131.098 106.231 132.63 105.712 134.222 105.712C135.815 105.712 137.361 106.237 138.667 107.207C136.988 109.27 135.502 111.521 134.24 113.926C132.971 111.515 131.482 109.257 129.798 107.191ZM134.222 102.915C131.967 102.915 129.806 103.7 128.01 105.147C126.294 103.32 124.412 101.675 122.386 100.23C125.514 96.7953 129.749 94.8548 134.222 94.8548C138.695 94.8548 142.942 96.8015 146.07 100.246C144.047 101.69 142.164 103.336 140.452 105.163C138.655 103.706 136.483 102.915 134.222 102.915ZM134.222 92.0572C128.854 92.0572 123.781 94.4812 120.137 98.7514C118.077 97.5049 115.922 96.4813 113.695 95.6932C118.576 88.7038 126.122 84.5843 134.219 84.5843C142.317 84.5843 149.871 88.707 154.752 95.6994C152.528 96.4907 150.373 97.5143 148.316 98.7639C144.672 94.4874 139.594 92.0572 134.219 92.0572H134.222ZM134.222 81.7836C124.983 81.7836 116.398 86.6598 111.067 94.8768C108.907 94.3022 106.694 93.9443 104.453 93.8061C110.522 82.0253 121.75 74.7942 134.222 74.7942C146.695 74.7942 157.923 82.0253 163.994 93.8092C161.756 93.9505 159.544 94.3085 157.386 94.8862C152.055 86.6629 143.467 81.7836 134.225 81.7836H134.222ZM129.798 63.7921C131.098 62.8313 132.63 62.3132 134.222 62.3132C135.815 62.3132 137.361 62.8376 138.667 63.8078C136.988 65.8707 135.502 68.122 134.24 70.5271C132.971 68.1157 131.482 65.8582 129.798 63.7921ZM134.222 59.5156C131.967 59.5156 129.806 60.3006 128.01 61.7481C126.294 59.9207 124.412 58.2754 122.386 56.831C125.514 53.396 129.749 51.4556 134.222 51.4556C138.695 51.4556 142.942 53.4023 146.07 56.8467C144.047 58.2911 142.164 59.9364 140.452 61.7638C138.652 60.3069 136.483 59.5156 134.222 59.5156ZM134.222 48.658C128.854 48.658 123.781 51.082 120.137 55.3522C118.077 54.1056 115.922 53.082 113.695 52.2939C118.576 45.3046 126.122 41.1851 134.222 41.1851C142.322 41.1851 149.874 45.3077 154.755 52.3002C152.531 53.0915 150.376 54.1151 148.319 55.3647C144.675 51.0882 139.596 48.658 134.222 48.658ZM84.5779 55.3647C80.9339 51.0882 75.8553 48.658 70.4811 48.658C65.1069 48.658 60.0398 51.082 56.3958 55.3522C54.3357 54.1056 52.1808 53.082 49.9543 52.2939C54.8349 45.3046 62.3811 41.1851 70.4782 41.1851C78.5754 41.1851 86.1302 45.3077 91.0109 52.3002C88.7872 53.0915 86.6323 54.1151 84.5751 55.3647H84.5779ZM70.4811 51.4556C74.9601 51.4556 79.2009 53.4023 82.3284 56.8467C80.3055 58.2911 78.4233 59.9364 76.7103 61.7638C74.9113 60.3069 72.7421 59.5156 70.4811 59.5156C68.2201 59.5156 66.0653 60.3006 64.2691 61.7481C62.5533 59.9207 60.671 58.2754 58.6453 56.831C61.7728 53.396 66.0079 51.4556 70.4811 51.4556ZM70.4811 62.3132C72.0822 62.3132 73.6201 62.8376 74.9256 63.8078C73.2471 65.8707 71.7608 68.122 70.4983 70.5271C69.2301 68.1157 67.741 65.8582 66.0567 63.7921C67.3565 62.8313 68.8887 62.3132 70.4811 62.3132ZM100.253 93.8061C98.0148 93.9474 95.8026 94.3053 93.6449 94.8831C88.3137 86.6598 79.726 81.7804 70.484 81.7804C61.242 81.7804 52.66 86.6566 47.3289 94.8737C45.1683 94.2991 42.9561 93.9411 40.7152 93.803C46.7837 82.0222 58.0112 74.7911 70.484 74.7911C82.9568 74.7911 94.1843 82.0222 100.256 93.8061H100.253ZM70.4811 84.5812C78.584 84.5812 86.1331 88.7038 91.0137 95.6963C88.79 96.4875 86.6352 97.5111 84.5779 98.7608C80.9339 94.4843 75.8553 92.0541 70.4811 92.0541C65.1069 92.0541 60.0398 94.478 56.3958 98.7483C54.3357 97.5017 52.1808 96.4781 49.9543 95.69C54.8349 88.7007 62.3811 84.5812 70.4782 84.5812H70.4811ZM70.4811 94.8548C74.9601 94.8548 79.2009 96.8015 82.3284 100.246C80.3055 101.69 78.4233 103.336 76.7103 105.163C74.9113 103.706 72.7421 102.915 70.4811 102.915C68.2201 102.915 66.0653 103.7 64.2691 105.147C62.5533 103.32 60.671 101.675 58.6453 100.23C61.7728 96.7953 66.0079 94.8548 70.4811 94.8548ZM70.4811 105.712C72.0822 105.712 73.6201 106.237 74.9256 107.207C73.2471 109.27 71.7608 111.521 70.4983 113.926C69.2301 111.515 67.741 109.257 66.0567 107.191C67.3565 106.231 68.8887 105.712 70.4811 105.712ZM100.253 137.284C98.0148 137.425 95.8026 137.783 93.6449 138.361C88.3137 130.137 79.726 125.258 70.484 125.258C61.242 125.258 52.66 130.134 47.3289 138.351C45.1683 137.777 42.9561 137.419 40.7152 137.281C46.7837 125.5 58.0112 118.269 70.484 118.269C82.9568 118.269 94.1843 125.5 100.256 137.284H100.253ZM70.4811 128.059C78.584 128.059 86.1331 132.182 91.0137 139.174C88.79 139.965 86.6352 140.989 84.5779 142.239C80.9339 137.962 75.8553 135.532 70.4811 135.532C65.1069 135.532 60.0398 137.956 56.3958 142.226C54.3357 140.979 52.1808 139.956 49.9543 139.168C54.8349 132.178 62.3811 128.059 70.4782 128.059H70.4811ZM70.4811 138.333C74.9601 138.333 79.2009 140.279 82.3284 143.724C80.3055 145.168 78.4233 146.813 76.7103 148.641C74.9113 147.184 72.7421 146.393 70.4811 146.393C68.2201 146.393 66.0653 147.178 64.2691 148.625C62.5533 146.798 60.671 145.152 58.6453 143.708C61.7728 140.273 66.0079 138.333 70.4811 138.333ZM70.4811 149.19C72.0822 149.19 73.6201 149.715 74.9256 150.685C73.2471 152.748 71.7608 154.999 70.4983 157.404C69.2301 154.993 67.741 152.735 66.0567 150.669C67.3565 149.708 68.8887 149.19 70.4811 149.19ZM102.367 140.012C114.852 140.012 126.085 147.253 132.151 159.053C129.913 159.191 127.7 159.545 125.54 160.12C120.209 151.887 111.615 147.002 102.367 147.002C93.1198 147.002 84.5205 151.89 79.1894 160.126C77.0317 159.552 74.8195 159.194 72.5814 159.053C78.6471 147.256 89.8804 140.012 102.365 140.012H102.367ZM102.367 149.799C110.476 149.799 118.031 153.928 122.909 160.93C120.682 161.718 118.527 162.739 116.467 163.985C112.823 159.706 107.745 157.272 102.367 157.272C96.9904 157.272 91.9003 159.709 88.2563 163.998C86.1991 162.751 84.0442 161.728 81.8205 160.94C86.6983 153.931 94.2589 149.799 102.367 149.799ZM102.367 160.073C106.846 160.073 111.087 162.02 114.218 165.464C112.192 166.905 110.31 168.547 108.594 170.375C106.798 168.921 104.628 168.13 102.367 168.13C100.106 168.13 97.923 168.927 96.1239 170.391C94.411 168.563 92.5287 166.921 90.5059 165.477C93.6362 162.023 97.8828 160.07 102.37 160.07L102.367 160.073ZM102.367 170.931C103.966 170.931 105.501 171.452 106.806 172.419C105.116 174.491 103.624 176.752 102.35 179.17C101.082 176.758 99.5929 174.501 97.9086 172.435C99.217 171.458 100.761 170.931 102.367 170.931ZM166.091 179.17C164.823 176.758 163.334 174.501 161.65 172.435C162.958 171.458 164.502 170.931 166.109 170.931C167.715 170.931 169.242 171.452 170.547 172.419C168.857 174.491 167.363 176.752 166.091 179.17ZM172.335 170.375C170.539 168.921 168.37 168.13 166.109 168.13C163.848 168.13 161.664 168.927 159.865 170.391C158.152 168.563 156.27 166.921 154.247 165.477C157.377 162.023 161.624 160.07 166.112 160.07C170.599 160.07 174.831 162.017 177.962 165.461C175.936 166.902 174.054 168.544 172.338 170.372L172.335 170.375ZM180.208 163.985C176.564 159.706 171.486 157.272 166.109 157.272C160.732 157.272 155.641 159.709 151.997 163.998C149.94 162.751 147.785 161.728 145.562 160.94C150.442 153.931 158 149.799 166.109 149.799C174.217 149.799 181.772 153.928 186.65 160.93C184.423 161.718 182.268 162.739 180.208 163.985ZM197.963 149.19C199.565 149.19 201.102 149.715 202.408 150.685C200.729 152.748 199.243 154.999 197.981 157.404C196.712 154.993 195.223 152.735 193.539 150.669C194.839 149.708 196.371 149.19 197.963 149.19ZM195.895 159.053C193.657 159.191 191.444 159.545 189.284 160.12C183.953 151.887 175.359 147.002 166.112 147.002C156.864 147.002 148.265 151.89 142.933 160.126C140.776 159.552 138.564 159.194 136.325 159.053C142.391 147.256 153.624 140.012 166.109 140.012C178.593 140.012 189.826 147.256 195.892 159.053H195.895ZM166.094 135.664C164.829 133.259 163.346 131.01 161.667 128.947C162.973 127.98 164.51 127.456 166.109 127.456C167.707 127.456 169.23 127.974 170.53 128.932C168.846 130.998 167.36 133.252 166.091 135.664H166.094ZM172.321 126.888C170.527 125.443 168.367 124.658 166.112 124.658C163.856 124.658 161.681 125.45 159.885 126.907C158.172 125.079 156.29 123.431 154.267 121.99C157.395 118.548 161.635 116.602 166.114 116.602C170.593 116.602 174.82 118.542 177.947 121.974C175.922 123.415 174.039 125.063 172.324 126.891L172.321 126.888ZM180.194 120.492C176.553 116.225 171.48 113.801 166.112 113.801C160.743 113.801 155.662 116.231 152.018 120.504C149.96 119.255 147.805 118.231 145.582 117.44C150.462 110.447 158.012 106.328 166.112 106.328C174.212 106.328 181.755 110.444 186.636 117.43C184.409 118.219 182.254 119.242 180.194 120.492ZM197.984 113.93C196.715 111.518 195.226 109.261 193.542 107.194C194.842 106.234 196.374 105.716 197.966 105.716C199.559 105.716 201.105 106.24 202.411 107.21C200.732 109.273 199.246 111.524 197.984 113.93ZM197.966 94.858C202.445 94.858 206.686 96.8047 209.814 100.249C207.791 101.693 205.908 103.339 204.196 105.166C202.396 103.709 200.227 102.918 197.966 102.918C195.705 102.918 193.55 103.703 191.754 105.15C190.038 103.323 188.156 101.678 186.131 100.233C189.258 96.7984 193.493 94.858 197.966 94.858ZM195.88 115.547C193.639 115.685 191.427 116.043 189.267 116.617C183.936 108.4 175.351 103.527 166.112 103.527C156.872 103.527 148.285 108.403 142.954 116.624C140.793 116.049 138.584 115.688 136.346 115.547C142.414 103.766 153.642 96.5378 166.114 96.5378C178.587 96.5378 189.812 103.766 195.88 115.547ZM166.097 92.1891C164.843 89.8028 163.371 87.5703 161.71 85.5231C163.007 84.5749 164.531 84.06 166.114 84.06C167.698 84.06 169.205 84.5686 170.496 85.5074C168.829 87.5609 167.354 89.7965 166.097 92.1891ZM172.28 83.4571C170.496 82.0347 168.35 81.2592 166.114 81.2592C163.879 81.2592 161.719 82.0379 159.928 83.4728C158.215 81.6391 156.336 79.9875 154.313 78.5401C157.438 75.1302 161.658 73.2023 166.114 73.2023C170.57 73.2023 174.78 75.1239 177.901 78.5275C175.876 79.975 173.993 81.6234 172.28 83.4571ZM180.151 77.0424C176.513 72.8067 171.46 70.4015 166.114 70.4015C160.769 70.4015 155.705 72.813 152.066 77.0549C150.009 75.8021 147.857 74.7722 145.631 73.9778C150.511 67.0262 158.04 62.9287 166.114 62.9287C174.189 62.9287 181.712 67.023 186.592 73.9684C184.366 74.7597 182.211 75.7896 180.151 77.0424ZM195.843 72.072C193.599 72.2132 191.387 72.5743 189.224 73.1521C183.89 64.979 175.325 60.131 166.114 60.131C156.904 60.131 148.336 64.9821 143.002 73.1615C140.842 72.5806 138.63 72.2195 136.386 72.0751C142.466 60.3414 153.667 53.1417 166.114 53.1417C178.561 53.1417 189.763 60.3383 195.843 72.072ZM166.097 48.7898C164.866 46.4475 163.426 44.2527 161.799 42.2369C163.076 41.3295 164.565 40.8397 166.114 40.8397C167.664 40.8397 169.136 41.3232 170.407 42.2212C168.777 44.2433 167.331 46.4412 166.097 48.7898ZM166.114 29.9821C170.519 29.9821 174.691 31.866 177.804 35.2005C175.781 36.6574 173.899 38.3184 172.189 40.1615C170.421 38.7862 168.312 38.0389 166.114 38.0389C163.917 38.0389 161.79 38.7894 160.02 40.1772C158.31 38.3341 156.433 36.67 154.411 35.2131C157.524 31.8691 161.704 29.9789 166.114 29.9789V29.9821ZM163.997 50.4132C161.759 50.5545 159.547 50.9124 157.389 51.4901C152.058 43.2668 143.47 38.3906 134.228 38.3906C124.986 38.3906 116.404 43.2668 111.073 51.4838C108.912 50.9093 106.7 50.5513 104.459 50.4132C110.381 38.9181 121.216 31.7592 133.327 31.417L133.379 31.53L133.6 31.4138C133.809 31.4107 134.019 31.4013 134.231 31.4013C134.455 31.4013 134.676 31.4107 134.897 31.4138L135.115 31.53L135.163 31.417C147.263 31.7686 158.083 38.9275 164 50.4132H163.997ZM134.242 27.31C132.974 24.8986 131.485 22.641 129.801 20.575C131.101 19.6142 132.633 19.0961 134.225 19.0961C135.818 19.0961 137.364 19.6205 138.67 20.5907C136.991 22.6536 135.505 24.9049 134.242 27.31ZM134.225 8.23848C138.704 8.23848 142.945 10.1852 146.072 13.6296C144.05 15.074 142.167 16.7193 140.454 18.5467C138.658 17.0898 136.486 16.2985 134.225 16.2985C131.964 16.2985 129.809 17.0835 128.013 18.531C126.297 16.7036 124.415 15.0583 122.389 13.6139C125.517 10.1789 129.752 8.23848 134.225 8.23848ZM102.373 9.91831C114.757 9.91831 125.913 17.0458 132.013 28.6759C129.766 28.8234 127.545 29.1908 125.379 29.778C120.037 21.6959 111.526 16.9076 102.37 16.9076C93.2145 16.9076 84.6984 21.6991 79.3587 29.7842C77.1952 29.1971 74.9744 28.8266 72.7306 28.6759C78.8307 17.0427 89.9865 9.91517 102.37 9.91517L102.373 9.91831ZM66.0624 20.575C67.3622 19.6142 68.8944 19.0961 70.4869 19.0961C72.0793 19.0961 73.6259 19.6205 74.9314 20.5907C73.2528 22.6536 71.7666 24.9049 70.5041 27.31C69.2358 24.8986 67.7467 22.641 66.0624 20.575ZM69.5859 31.4138L69.6376 31.5269L69.8585 31.4107C70.0679 31.4076 70.2774 31.3981 70.4897 31.3981C70.7135 31.3981 70.9345 31.4076 71.1554 31.4107L71.3735 31.5269L71.4222 31.4138C83.522 31.7655 94.3421 38.9244 100.259 50.41C98.0205 50.5513 95.8083 50.9093 93.6506 51.487C88.3195 43.2637 79.7317 38.3875 70.4897 38.3875C61.2478 38.3875 52.6657 43.2637 47.3346 51.4807C45.174 50.9061 42.9618 50.5482 40.7209 50.41C46.6431 38.915 57.4775 31.7561 69.5888 31.4138H69.5859ZM34.331 42.2244C35.605 41.3201 37.0912 40.8334 38.6349 40.8334C40.1786 40.8334 41.6563 41.317 42.9274 42.215C41.3005 44.2308 39.8572 46.4255 38.6263 48.7679C37.3954 46.4287 35.955 44.237 34.331 42.2244ZM8.89765 72.072C14.9777 60.3383 26.1794 53.1417 38.6263 53.1417C51.0733 53.1417 62.275 60.3383 68.355 72.072C66.1112 72.2132 63.899 72.5743 61.7355 73.1521C56.4015 64.979 47.8367 60.131 38.6263 60.131C29.4159 60.131 20.8511 64.979 15.5142 73.1583C13.3537 72.5806 11.1386 72.2164 8.89765 72.0751V72.072ZM24.584 77.0486C22.5268 75.7958 20.3719 74.766 18.1454 73.9747C23.026 67.0262 30.5521 62.9287 38.6263 62.9287C46.7005 62.9287 54.2237 67.023 59.1044 73.9684C56.8778 74.7597 54.723 75.7896 52.6629 77.0424C49.0246 72.8067 43.9718 70.4015 38.6263 70.4015C33.2808 70.4015 28.2223 72.8098 24.584 77.0486ZM26.8307 78.5338C29.9553 75.127 34.1732 73.2023 38.6263 73.2023C43.0794 73.2023 47.2916 75.1239 50.4133 78.5275C48.3876 79.975 46.5054 81.6234 44.7924 83.4571C43.0077 82.0347 40.8615 81.2592 38.6263 81.2592C36.3911 81.2592 34.2363 82.0347 32.4487 83.4634C30.7358 81.6297 28.8535 79.9781 26.8307 78.5307V78.5338ZM34.2334 85.5137C35.5275 84.5686 37.0482 84.0568 38.6263 84.0568C40.2044 84.0568 41.7165 84.5655 43.0077 85.5043C41.3435 87.5515 39.8716 89.7839 38.6177 92.1702C37.3638 89.7871 35.8948 87.5578 34.2334 85.5137ZM2.32125 107.201C3.62391 106.237 5.15897 105.716 6.7543 105.716C8.34962 105.716 9.88756 106.237 11.1902 107.201C9.50881 109.264 8.02252 111.518 6.7543 113.926C5.48894 111.518 4.00265 109.264 2.31838 107.201H2.32125ZM8.85748 115.547C14.926 103.769 26.1535 96.5378 38.6263 96.5378C51.0991 96.5378 62.3237 103.766 68.3923 115.547C66.1514 115.685 63.9391 116.043 61.7786 116.617C56.4474 108.4 47.8625 103.527 38.6234 103.527C29.3843 103.527 20.7994 108.403 15.4683 116.62C13.3077 116.046 11.0955 115.685 8.85748 115.547ZM24.5381 120.495C22.4808 119.248 20.326 118.222 18.0995 117.434C22.9801 110.444 30.5263 106.325 38.6263 106.325C46.7263 106.325 54.2697 110.441 59.1503 117.427C56.9237 118.215 54.7689 119.239 52.7088 120.489C49.0676 116.222 43.9947 113.798 38.6263 113.798C33.2579 113.798 28.1821 116.225 24.5381 120.495ZM26.7876 121.977C29.9152 118.542 34.1531 116.598 38.6263 116.598C43.0995 116.598 47.3317 118.539 50.4592 121.971C48.4335 123.412 46.5513 125.06 44.8354 126.888C43.0421 125.443 40.8816 124.658 38.6263 124.658C36.3711 124.658 34.2047 125.447 32.4086 126.897C30.6956 125.07 28.8105 123.421 26.7876 121.98V121.977ZM34.1961 128.941C35.4988 127.977 37.0339 127.456 38.6292 127.456C40.2245 127.456 41.751 127.974 43.0508 128.932C41.3722 130.992 39.8859 133.243 38.6206 135.648C37.3581 133.246 35.8747 131.001 34.1961 128.941ZM8.84601 159.056C14.9117 147.259 26.1449 140.016 38.6292 140.016C51.1134 140.016 62.3467 147.256 68.4124 159.056C66.1743 159.194 63.9621 159.552 61.8015 160.123C56.4704 151.89 47.8769 147.005 38.6292 147.005C29.3815 147.005 20.7851 151.89 15.454 160.126C13.2963 159.552 11.084 159.194 8.84601 159.056ZM24.5238 163.995C22.4665 162.748 20.3117 161.725 18.0851 160.936C22.9658 153.931 30.5206 149.802 38.6292 149.802C46.7378 149.802 54.2926 153.931 59.1704 160.933C56.9438 161.721 54.789 162.742 52.7289 163.988C49.0849 159.709 44.0062 157.275 38.6292 157.275C33.2521 157.275 28.1678 159.709 24.5238 163.995ZM26.7733 165.474C29.9037 162.026 34.1474 160.076 38.6292 160.076C43.111 160.076 47.3489 162.023 50.4793 165.467C48.4536 166.908 46.5714 168.551 44.8555 170.378C43.0594 168.924 40.8902 168.133 38.6292 168.133C36.3682 168.133 34.1933 168.927 32.3942 170.384C30.6784 168.557 28.7961 166.915 26.7733 165.47V165.474ZM38.6206 179.157C37.3523 176.746 35.8632 174.494 34.1818 172.428C35.4873 171.458 37.0281 170.931 38.6292 170.931C40.2302 170.931 41.7624 171.452 43.068 172.419C41.3808 174.485 39.8917 176.743 38.6206 179.154V179.157ZM40.7123 180.796C46.7808 169.015 58.0083 161.784 70.4811 161.784C82.9539 161.784 94.1814 169.015 100.253 180.799C98.0148 180.941 95.8026 181.298 93.6449 181.876C88.3137 173.653 79.726 168.777 70.484 168.777C61.242 168.777 52.66 173.653 47.3289 181.87C45.1683 181.295 42.9561 180.937 40.7152 180.799L40.7123 180.796ZM56.3958 185.738C54.3357 184.492 52.1808 183.468 49.9543 182.68C54.8349 175.691 62.3811 171.571 70.4782 171.571C78.5754 171.571 86.1302 175.694 91.0109 182.686C88.7872 183.478 86.6323 184.501 84.5751 185.751C80.9311 181.474 75.8524 179.044 70.4782 179.044C65.1041 179.044 60.0369 181.468 56.3929 185.738H56.3958ZM58.6453 187.217C61.7728 183.782 66.0079 181.842 70.4811 181.842C74.9543 181.842 79.2009 183.788 82.3284 187.233C80.3055 188.677 78.4233 190.322 76.7103 192.15C74.9113 190.693 72.7421 189.902 70.4811 189.902C68.2201 189.902 66.0653 190.687 64.272 192.134C62.5562 190.307 60.6739 188.661 58.6482 187.217H58.6453ZM66.0567 194.178C67.3565 193.217 68.8887 192.699 70.4811 192.699C72.0736 192.699 73.6201 193.224 74.9256 194.194C73.2471 196.257 71.7608 198.505 70.4983 200.913C69.2301 198.502 67.741 196.244 66.0567 194.178ZM72.5843 202.565C78.65 190.765 89.8832 183.525 102.367 183.525C114.852 183.525 126.085 190.765 132.151 202.565C129.91 202.7 127.7 203.058 125.54 203.632C120.209 195.4 111.615 190.517 102.367 190.517C93.1198 190.517 84.5177 195.406 79.1894 203.645C77.0317 203.07 74.8223 202.709 72.5843 202.571V202.565ZM88.2535 207.513C86.1962 206.267 84.0414 205.243 81.8177 204.452C86.6954 197.444 94.256 193.312 102.367 193.312C110.479 193.312 118.028 197.437 122.909 204.439C120.682 205.227 118.524 206.248 116.464 207.494C112.82 203.215 107.742 200.784 102.367 200.784C96.9933 200.784 91.8975 203.224 88.2535 207.513ZM90.5001 208.992C93.6305 205.538 97.8799 203.582 102.367 203.582C106.855 203.582 111.084 205.529 114.215 208.97C112.189 210.411 110.307 212.053 108.591 213.881C106.795 212.43 104.628 211.639 102.367 211.639C100.106 211.639 97.9201 212.437 96.1182 213.903C94.4052 212.075 92.523 210.433 90.5001 208.989V208.992ZM102.342 222.682C101.073 220.27 99.5871 218.016 97.9029 215.95C99.2113 214.97 100.758 214.443 102.367 214.443C103.977 214.443 105.498 214.964 106.801 215.928C105.111 218 103.616 220.264 102.342 222.685V222.682Z" fill="#E7E7E7"/>
</svg>
