<svg width="22" height="22" viewBox="0 0 22 22" fill="none" xmlns="http://www.w3.org/2000/svg">
<g id="Frame" clip-path="url(#clip0_314_12599)">
<g id="Group">
<path id="Vector" d="M9.33629 11.0109C9.33629 10.6149 9.47616 10.2366 9.72833 9.93718C9.12746 8.99941 7.8469 7.28149 6.52103 7.28149C6.28068 7.28149 6.05215 7.33666 5.82362 7.45289L5.77436 7.47456C5.75072 7.48244 5.08483 7.72673 4.68096 8.96395C4.27906 10.2012 4.67505 10.7902 4.69278 10.8158L4.71642 10.8572C5.02967 11.4719 5.62858 11.7713 6.54861 11.7713C7.54153 11.7713 8.6507 11.4088 9.33826 11.137C9.33826 11.0936 9.33629 11.0542 9.33629 11.0109Z" fill="#BE1E2D"/>
<path id="Vector_2" d="M9.58238 11.8816C8.25257 12.2283 5.75252 13.1129 6.0244 14.8229L6.03031 14.8485L6.02834 14.8742C6.03031 14.8978 6.05592 15.607 7.10795 16.3734C7.44286 16.6157 7.74035 16.7615 7.99646 16.8502C8.2506 16.9368 8.4614 16.9625 8.62098 16.9625C8.78055 16.9625 8.86921 16.9368 8.87118 16.9349L8.91649 16.925C10.6265 16.6532 10.6955 14.0034 10.6147 12.6322C10.1872 12.5298 9.81288 12.2579 9.58238 11.8816Z" fill="#BE1E2D"/>
<path id="Vector_3" d="M11.3969 12.6322C11.3141 14.0034 11.3851 16.6532 13.0931 16.925L13.1463 16.9369C13.1463 16.9369 13.235 16.9625 13.3906 16.9625C13.7137 16.9625 14.2358 16.86 14.9056 16.3734C15.9576 15.609 15.9852 14.8998 15.9852 14.8683L15.9892 14.821C16.261 13.1109 13.761 12.2264 12.4331 11.8796C12.1987 12.2579 11.8244 12.5298 11.3969 12.6322Z" fill="#BE1E2D"/>
<path id="Vector_4" d="M11.9704 11.401L11.996 11.3379L12.0137 11.265C12.0374 11.1783 12.0472 11.0956 12.0472 11.0129C12.0472 10.7055 11.9113 10.4159 11.6769 10.2169L11.6296 10.1756L11.5724 10.1381C11.2336 9.91945 10.7785 9.91945 10.4416 10.1381L10.3825 10.1775L10.3293 10.2228C10.0988 10.4199 9.96484 10.7095 9.96484 11.0129C9.96484 11.0936 9.97469 11.1764 9.99637 11.2611L10.0141 11.3359L10.0397 11.401C10.1894 11.7674 10.5381 12.0235 10.9322 12.0511L11.0051 12.055L11.076 12.0511C11.4739 12.0215 11.8246 11.7654 11.9704 11.401Z" fill="#BE1E2D"/>
<path id="Vector_5" d="M12.2778 9.93127C12.5339 10.2307 12.6758 10.6129 12.6758 11.0109C12.6758 11.0522 12.6738 11.0976 12.6699 11.1409C13.3555 11.4088 14.4587 11.7694 15.4497 11.7694C16.3697 11.7694 16.9686 11.4699 17.2819 10.8552L17.3094 10.8099C17.3232 10.7883 17.7192 10.1992 17.3173 8.96198C16.9154 7.72476 16.2476 7.48047 16.22 7.47259L16.1766 7.45289C15.9521 7.33863 15.7176 7.28149 15.4792 7.28149C14.1553 7.28149 12.8787 8.9935 12.2778 9.93127Z" fill="#BE1E2D"/>
<path id="Vector_6" d="M11.0069 9.34028C11.2354 9.34028 11.4561 9.38756 11.6649 9.47622C12.5298 8.41828 14.0113 6.24724 12.7937 5.02972L12.7583 4.99032C12.7445 4.97062 12.3052 4.41309 11.0049 4.41309C9.69676 4.41309 9.25546 4.98638 9.24955 4.99032L9.21606 5.02972C7.99854 6.24724 9.48005 8.41828 10.3449 9.47622C10.5537 9.38756 10.7783 9.34028 11.0069 9.34028Z" fill="#BE1E2D"/>
<path id="Vector_7" d="M7.46859 2.15723L2.15723 7.46859V14.5314L7.46859 19.8427H14.5314L19.8427 14.5314V7.46859L14.5314 2.15723H7.46859ZM16.4443 6.88544C16.6216 6.95243 17.451 7.34053 17.916 8.76885C18.3809 10.1972 17.9357 10.999 17.8332 11.1566C17.6205 11.5624 17.3092 11.8737 16.9112 12.0806C16.5093 12.2914 16.0188 12.3978 15.4514 12.3978C15.3864 12.3978 15.3214 12.3938 15.2583 12.3918C16.133 12.977 16.7792 13.7906 16.6138 14.9017C16.6039 15.0909 16.4916 15.9991 15.2761 16.8817C14.8742 17.1733 14.5058 17.3506 14.1866 17.4569C13.8674 17.5594 13.5975 17.5909 13.3907 17.5909C13.1799 17.5909 13.038 17.5574 12.975 17.5417C11.8639 17.3565 11.2906 16.4818 11.0069 15.4652C10.7212 16.4818 10.1479 17.3565 9.03875 17.5417C8.97571 17.5574 8.83189 17.5909 8.62109 17.5909C8.2054 17.5909 7.54345 17.4668 6.73769 16.8817C5.52214 15.9991 5.40985 15.0909 5.4 14.9017C5.23451 13.7906 5.8807 12.977 6.75542 12.3918C6.68646 12.3938 6.61948 12.3978 6.55053 12.3978C5.41379 12.3978 4.58832 11.9683 4.16672 11.1566C4.06427 10.999 3.621 10.1972 4.08397 8.76885C4.54892 7.3425 5.37832 6.95243 5.55563 6.88544C5.86297 6.72981 6.19 6.65297 6.52098 6.65297C7.18293 6.65297 7.80942 6.96031 8.37286 7.40161C8.01825 6.42247 7.98081 5.39409 8.759 4.60211C8.8772 4.45632 9.50369 3.78649 11.0049 3.78649C12.5061 3.78649 13.1306 4.45632 13.2508 4.60211C14.029 5.39212 13.9935 6.41459 13.6429 7.39176C14.2004 6.9544 14.821 6.65494 15.479 6.65494C15.81 6.65297 16.135 6.72981 16.4443 6.88544Z" fill="#BE1E2D"/>
<path id="Vector_8" d="M6.60768 0L0 6.60768V15.3943L6.60768 22.002H15.3943L22.002 15.3943V6.60768L15.3923 0H6.60768ZM20.6859 14.8821L14.8821 20.6859H7.11991L1.31405 14.8821V7.11991L7.11991 1.31405H14.8821L20.6859 7.11794V14.8821Z" fill="#BE1E2D"/>
</g>
</g>
<defs>
<clipPath id="clip0_314_12599">
<rect width="22" height="22" fill="white"/>
</clipPath>
</defs>
</svg>
