<?xml version="1.0" encoding="UTF-8"?>
<svg id="_레이어_1" data-name="레이어 1" xmlns="http://www.w3.org/2000/svg" version="1.1" viewBox="0 0 427 435">
  <defs>
    <style>
      .cls-1 {
        fill: #231f20;
        fill-opacity: .8;
        stroke-width: 0px;
      }
    </style>
  </defs>
  <path class="cls-1" d="M149.5,397.6c-.5-.2-1-.2-1.4-.1.5,0,1.2.1,2,.4-.2,0-.3-.2-.6-.2Z"/>
  <path class="cls-1" d="M7.6,200.5h0s0,0,0,0Z"/>
  <path class="cls-1" d="M123.3,413.6c-.1-.1-.3-.3-.4-.4.2.2.3.3.4.4Z"/>
  <path class="cls-1" d="M150.9,421.6c-.3.9-.3,1-1.7.5-.3.9-3.1,0-3.1,0-.6-.2-1.3-.6-2-.9.8,2.2,3.4,3.1,7.3,4.4,2.7,1,6.2,1.7,8.6,2,2.3.3,3.5,0,1.6-1,0,0-1.4-.4-2.7-.8,0,0-1.4-.4-2.7-.8-1.3-.3-2.2-1.6-2.1-2.6-.1,0-.3.1-.4.2-1.7.5-1.7.5-2.8-.9Z"/>
  <path class="cls-1" d="M102.9,397.3c-.4-.3-.5-.5-.4-.6,0,0-.1,0-.1,0-.4,0-.1.4.6.9.8.6,2,1.3,3.4,2,2.9,1.5,6.5,3.1,8.6,3.7-1.3-.6-5.4-2.1-7.9-3.6-2.3-1.1-3.6-2-4.3-2.5Z"/>
  <path class="cls-1" d="M7.9,197.6s0,0,0,0c0-.1,0-.2,0-.3,0,0,0,.2,0,.3Z"/>
  <path class="cls-1" d="M133.9,418.6s0,0,0,0c.5,0,.9.1,1.4.2.2,0,.3-.1.3-.3,0,0,0,0,0-.1-.6-.1-1.2,0-1.8.2Z"/>
  <path class="cls-1" d="M413.1,146.7c-.2-.2-.3-.5-.6-.8-.6-.9-1.4-2.1-2-3.4,0,0,0,0,0,.1,0,.2.1.3.2.4q0,0,0,0c0,0,0-.2-.2-.4,0,0,0,0,0-.1-.1,0-.3-.1-.4-.4.8,1.7,1.7,3.7,2.5,5.8,0,0,0-.1,0-.1.2-.3.3-.7.4-1.1Z"/>
  <path class="cls-1" d="M185.4,403.5c-.1,0-.6,0-1.6-.2.8.2,1.5.3,2.3.4-.8-.5-1.5-.9-2.3-1.4,1.1.8,1.7,1.1,1.5,1.2Z"/>
  <path class="cls-1" d="M123.5,405.6s.5-.9,1.7-.3c1.3.6.8,1.5.8,1.5l-.5.9c1.3-.7,2.6-.5,3.6.1-1.8-2.5-4.6-5-9.2-7.6-1.8-1-3.8-1.8-5.3-2.4-1.5-.6-2.5-.9-2.5-.9-.5.9.2,2.4,1.4,3.2,6.6,2.7,7.9,3.2,9.9,5.5Z"/>
  <path class="cls-1" d="M132,383.9c.8.5,1.7.9,2.2,1.2,2.1.2,2.6.2,1.8-.8-.2.4-.2.4-.2.4-1.1-.5-2.7-.3-3.8-.9Z"/>
  <path class="cls-1" d="M23.5,316.2c0-.1-.1-.2-.2-.3,0,0,0,0,0,.2,0,0,0,0,0,.2Z"/>
  <path class="cls-1" d="M370.6,287.4c.5-.1,1.1-.8,1.9-2.1-.8,1.1-1.4,1.8-1.9,2.1Z"/>
  <path class="cls-1" d="M35.1,262.9c-.4.9-.6,1.8-.4,2.7,0,2,0,3,.1,3.1,0-.3,0-.9.2-1.9-.3-1.2.3-2.7,0-3.9Z"/>
  <path class="cls-1" d="M404,234.9c.1.6.3,1.2.7,1.8.7,1.1.9,1.3,1.1-1.3-.5-.2-1-.4-1.4-.7-.2.2-.3.3-.4.2Z"/>
  <path class="cls-1" d="M24.7,318.5c-.5-1-1-2-1.2-2.4.2.3.4.7.6,1.1.4.8.6,1.1.6,1.2Z"/>
  <path class="cls-1" d="M156,394.6c.8,1.4,2,1.9,3.2,2.2h0c-1.6-.6-2.5-1.1-3.2-2.2Z"/>
  <path class="cls-1" d="M159.5,400.1c.6.2,1.1.3,1.4.5,0-.3-.6-.7-1.1-1.4-.4-.1-1-.2-1.6-.2.5.2.9.6,1.3,1.1Z"/>
  <path class="cls-1" d="M403.5,307.6c-.5-.2-.4-.9,0-2.1.4-1.2,1-2.8,1.9-4.7,1.3-2.9,2.1-5.1,2.9-5.8,0-.1-.2-.3-.3-.6.5-1.3,1.4-3.9,3.4-6.2.3-1,.6-1.8.8-2.4,0-.4,0-.9.1-1.3-.6.3-.5-.4.1-2.7,0-1.7-.1-3.2-.4-3.9.7-2.6.5-5.4.8-6.7.6-2.6,1.2-5.2,1.2-5.2-.7-1.5-1-4.3-.6-6.9.5-2.6.5-8-.3-10.7-.3-2-.5-4-.8-5.9-.3-1.8-.7-3.5-1.1-4.8q.2-2.6,2.2-2.4l1.5.8c.2-.2.4-.4.5-.6l-1.9-2.8c-.8-.8-1.4-1.4-1.8-1.9-.6.1-1-.3-1.3-1,0,0,0,0,0,0,.6,2.9.2,8.6-1.7,8.4,0,0-.1,1.3-.4,3.9q.4-3.9,1.4-3.8c2,.2,1.7,2.8,0,9.2-.4,2.6-1.4,2.5-2.4,2.3,1,.1.8,1.4.8,1.4,0,0-.2,1.3-1.2,1.1q1,.2.6,2.7c-.4,2.6-.4,2.6-1.8-1.6-.8-1.4-1.6-2.9-1.6-2.9-.2,1.3-.4,2.5-1.8,4.9-1.5,2.3-2,4.8-2.3,6,0,0-1.2,1-2.2.8-2.2.8-3.1.6-3.8,2.9-.6,2.4-.9,3.6-1.6,2.1-.3-2.6-1.6-1.7-2.3.7-.3,1.2-.6,2.3-.8,3.2-.3.9-.5,1.4-.5,1.4q-.4,1.2-1.3.9c-1-1.1-1.5-1-1.3-.4h.4q1,.4.6,1.6c1.2,2.9.8,4.1-.1,3.8-1.3.9-3.1,2.7-4,5-.6,1.7-1,2.8-1.3,3.4h0c-.2.6-.2.6,0,0q0-2.6-.9-.4c1.2,1.6.6,3.5-.8,3.5,0,.1.1.2.3.2l-.5,1.1c-.7.4-1.2.8-1.5,1.6-.3.8-.6,2-1,3.8-1.1,2.2-1.6,3.2-2.5,2.8-.5,1.1-1,2.2-.7,3.7,0,4.1-3.1,7.9-4.1,7.3-1.6-1,3.1-11.8,4.9-13.6,2.5-2.8,2.5-5.4-.3-4-.9-.4-1.8-.8-1.8-.8,0-1.3-.6-1.8-1.2-1.7-.6.2-1.3,1.1-1.6,2.9-.5,1-1,2.1-1,2.1q-.9-.4-1.4.6c-.5,1-1,2-1,2-.9-.5-2.3,0-2.9,1.1-1.1,2-1.1,2-.3-1.5.6-1,1.5-3,2.4-2.5,0,0,1-2,1.5-3l1-2c1.4,1.9,2.3-.2.9-2.1-.5-1.4,0-2.5.4-1,.4-1,.9-2.1.9-2.1-1.4.6-.9-.4.4-1,.5-.2.9-.5,1.1-.8,1.1-2,2.4-5.5,3.7-9.5.7-1.7,1.3-3.3,1.8-4.7-.2-.5-.5-1.4-.2-2.1.9-3.2,0-3.4-2.6-1.9-2.2.5-2.5,1.5-1.2,4.2.9.8,0,4.8-1.3,8.4-1.5,3.5-3.5,6.5-4.7,5.4-.2.5-.6,1.5-1.3,3-.2,1.7-1.5,5.5-4.4,11.2-2.9,5.7-7.2,13.2-13.7,21.9-2.1,2.2-4.7,5.5-8,9.1-.8.9-1.6,1.9-2.5,2.8-.9.9-1.8,1.9-2.7,2.8-.9.9-1.8,2-2.7,2.9l-2.9,2.8c-7.6,7.6-15.7,14-19,16.9-1.5,1.7-3.3,3-4.7,4-1.5,1-2.8,1.5-3.5,1.3-1.9,1.1-3.8,2.2-6.6,3.8-1.2,1.2-2.3,2-3.5,2.8-1.2.7-2.4,1.4-3.9,2-2.4,0-5.4,1.4-7,3.1-1,.4-3.1,1.2-4.1,1.6,0,0-1,.4-2.5,1.1-1.5.6-3.5,1.6-5.5,2.8-1,.4-2.3.8-3.8,1.3-1.5.5-3.2,1.1-4.9,1.8-1.8.6-3.7,1.1-5.6,1.7-1,.3-1.9.5-2.9.8-1,.2-2,.4-2.9.6-9.8,1.8-15.3,3.1-21.9,5.6-3.4,1.1-6.5,2-9.7,2.4-.3,0-.5,0-.8,0-.7.6-1.3.8-1.3.1-.9,0-1.8.2-2.7.2-1.6,0-3.3.1-5,0-2.3-.2-4.9-.3-7.2-.6-1-.1-2-.3-2.9-.4-1.8.6-4.2,1.1-5.9.7-3.3-1.5-3.5-.6-.2,1,2.2,1.4,2.2,1.4-1.3.8-1.2-.2-3.6-.6-3.4-1.5-.1.6-.2,1-.2,1,0,0,2.2,1.4,5.8,1.9,1.2.2,2.2.3,2.8.4.3,0,.5,0,.6,0,0,0,0,0,0,0,.3,0,.3,0,0,0-.1,0-.4,0-.6,0-.1,0-.2,0-.4,0-.8.3-1.8.5-2.9.6,1.6.3,2.7.7,2.6,1.4,0,0-.1,1,1.1,1.1q2.3,1.3-.1,1c-2.5-.3-2.6.6-2.7,1.7-.1,1-.3,2-2.9,2.6-2.7.6-2.7.6-3.4-2.6-.4,2,1.8,4.4,1.8,4.4,1.8,1.9,1.3,2.2-1.9.7l-2.1-.3-2.5-.5c-2.5-.5-3.8-.8-3.4-2.8-.4-1.1-.6-1.7-1.3-2.2-.7-.5-1.9-1.1-4.2-2.2-.5-.1-.9-.2-1.3-.3-1.8-.5-1.7-.4,0,0,.4,0,.8.2,1.3.3.4,0,.8.2,1.2.3,2.4.7,4.6,1,6.3,1.4,1.7.4,2.9.6,3.5.7-.9-.4-2.5-1-4.6-1.5-1-.3-2.1-.5-3.3-.8-1.2-.3-2.4-.6-3.6-.9-2.8-.6-5.7-1.2-7.9-1.6.7.2.9.3,1,.3,0,0,0,0,0,0,0,0,0,0,0,0-.4-.1-.7-.2-1-.3-1.4-.2-2.6-.3-3.4-.3,0,.1-.2.2-.5,0q-.3,1,.9,1.3c1.2.4,2.1,1.7,3.1,3.1q.9,1.4-2.8.2c-1.1-.4-2-.6-2.5-.8-.2,0-.3,0-.4-.1-.2,0-.1,0,0,0,0,0,.2,0,.4.1.9,0,1.4-.1,1.6-.3-.5,0-1.4,0-2.8-.1-2.5-.2-3.7-.8-3.7-1.3-3.1,1-3.1,1-3.1,1,0-.2.2-.5.2-.7-.5.6-1.6.2-2.7-.2-.4-.2-.9-.3-1.2-.5,0,0,0,0,0,0q-.4.9-1.6.4c-1.2-.5-3.6-1.5-3.6-1.5-.4.9-1.6.4-2.8-.1-.5-.2-.9-.4-1.2-.5h0c0,0-.1,0-.2-.1-.8-.4-.7-.3,0,0,0,0,.1,0,.2.1.8-.2,1.2-.3,1.3-.5-.3-.1-.5-.2-.9-.4-1.2-.6-2.4-1.1-1.9-2.1-.2-.3-.2-.5,0-.6-.3,0-.5.5-.4,1.5,1.2.6-.4.9-1.2-.6-1.2-.6-2.4-1.1-2.4-1.1-.4.9-1.9.8-3.5,0-1.7-.8-3.6-2.1-5.1-3.5-1.9-2.1-5.1-4.2-4.6-2.6.1,2.4-5,.5-5-1.9-1.1-.7-.6-1.5.5-.8,2.8.5,3.8-3.6,1.6-4.9-1.1-.7-2.1-1.4-2.1-1.4.6-.9,2.7-.5,4.9,0,2.2.6,4.5,1.7,5.3,2.8,1.1.7,2.2,1.3,2.7.4,0,0,1.1.6,2.2,1.2.3.2.7.4,1.2.6,0-.3.2-.6.4-.9.5-.9-1.2-2.9-4.9-3.9-2.1-1.3-5.3-3.2-5.8-4.7-2.1-1.4-2-1.4.5-.8,1,.7,1.3.8,1.1.5-.2-.3-.9-.9-1.6-2.1,1.5,2.2.4,1.6-7.6-4-2.5-1.8-4.4-3.3-5.7-4.2,0,0-.1-.1-.2-.2,0,0,0,0,0,0,2.4,3,1.3,2.4-7-3.2-2.8-2.4-5.3-4.8-7.4-6.7-2-2-3.5-3.5-4.4-4.4l-.9-.9c-.3-.3-.5-.5-.7-.7,0,0-.2-.2-.2-.2.5,1.2.6,1.6.1,1.4-.4-.2-1.3-1.1-2.5-2.5-1.7-1.8-2.5-2.8-1.8-3.4.4-.3.2-1-.9-2.3-1-1.4-2.7-3.5-5.5-6.9-2.2-3-3.8-5.2-5-7-1.1-1.8-1.7-3-2-3.8,0,0,0-.1,0-.2-.9-.8-1.8-1.4-2.4-1.6-.8.5-3.6-3.5-8.4-12-1-1.9-1.9-3.7-2.8-5.4-.4-.8-.8-1.6-1.2-2.4-.3-.8-.7-1.5-1-2.1-1.2-2.6-1.9-4.3-1.9-4.3-.7-.3-2.4-2.9-5.6-10.4-.7-1.9-1.6-4.1-2.5-6.6-.9-2.6-1.7-5.5-2.8-8.8-1.7-6.7-3.8-15-4.9-25.5-1.9-15.9-.9-28.3-2.1-28.3-1.1-1.3.6-8.7,1.6-9.8.3-.3.4-1,.6-2.2.2-1.2.4-3,.6-5.6.1-2.5.5-5.8,1.1-9.9.2-2.1.6-4.4,1.1-6.9.2-1.3.5-2.6.7-4,.3-1.4.7-2.8,1-4.3.7-2.4,1.7-6,1.2-7.4,0-3.9,5-16.8,7.2-18.6l1.5-3.4c.5-1.1.2-2.7.7-3.8.4-.8,1.1-2.2,1.8-4.3-.5-.1-1.1-.4-1.9-.9l-.9-.5c.9.5,1.5-.7,2.1-1.8,0,0,.6-1.1,1.5-.6.1,0,.2.1.3.2,2.1-5.4,3.2-7.2,3.1-3.1,0,0,0,0,0-.1.4-.7,1.1-2.1,2.5-4.2,1-1.6,2.4-4.4,4.2-7.4.9-1.5,1.9-3,2.8-4.5.5-.8.9-1.5,1.4-2.2.5-.7,1-1.3,1.5-2,1.2-1.5,2.3-2.9,3.3-4.2,1-1.3,2-2.4,2.8-3.4,1.6-2,2.4-3.3,2-3.7,0,0,0,0,.7-.8-.7.4-1.8,1.2-2.9,2.1-1.6,1.6-3.3,3.6-3.7,4.9.4,1.1-.9,2.2-2.2,2.8-1.3.6-2.7.8-2.7,0,0-1.7,0,0-.8,1.1,0,.8-.4,1.8-1.3,3.1-.9,1.4-2.2,3.2-4,5.9-1.5,1.3-2.7,2.6-3.3,3.3-.6.8-.8,1.1-.5.5,1.4-2.2.6-2.7-.2-3.3,0,0,.7-1.1,1.5-2.2.7-1.1,1.3-2.3,1.6-3.3.3-1,.5-1.7.5-1.7-.8-.6-1.7-1.2-2.4,0-1.1,1.7-5.4,6.9-9.2,12.3-2,2.6-3.7,5.4-5.1,7.6-.7,1.1-1.3,2.1-1.8,2.8-.4.8-.8,1.4-.9,1.7-1.5.8-1.2,2.4.3,1.7,2.4-.3,1.8.9.6,3.3-2.1,2-2.1,2-1.2,2.4l.9.4c-.6,1.2-1.5.8-2.4.4,0,0-2,2.1-2.1,4.9-.5,1.2-1.1,2.5-2,2.1v.3c-.2.2-.3.5-.5.9.5-1.2.5-1.2,1.4-.9-.5,1.2-.5,4.1-1.4,3.8,0,0-.9-.4,0-2.9-.1.3-.3.7-.5,1.3-.5,4.2-1.4,6.7-3.3,6,0,0-.1.3-.3.8-.1.3-.2.7-.4,1.2.4-1,.8-1.9,1.6-1.6.2.5.3,1.1.5,1.6l-1.4,1s1,.3.1,2.9c.7,4.5,1.3,5.9,4.4,2.8,1.4-.9,1.7-2.2,2.1-3.4-.6-1.6-.1-2.8,1.7-4.9l2.3-3.3-1.8,4.9c-1,2.4-.7,5.2.2,5.5,0,0-.4,1.2-1.7,2.1-.4,1.2-1.2,3.7-1.5,4.9-1,3.7-1.3,5-3.6,5.8-2.3.8-3.3.6-2.6-2l1,.2c-.3,1.3,1,.2.3-1.3q.3-1.3,1.3-1c.6,1.5,1.9.5,1.3-1,0,0-.6-1.5-1.6-1.8,0,0-1.9-.5-2.6-2.1-.1-1.4-.4-2.2-.8-2-.2.1-.5.5-.8,1.1-.3.7-.6,1.6-1,2.9-.7,2.6-1,3.9-1.3,1.1-.1.4-.2.8-.3,1.2,0,0,0,0,0,0,0,0,0,0,0,0,.2,1.4,0,3.1-.3,5-.3,1.8-.7,3.8-1.1,5.8-.3,1.5-.6,2.7-.7,3.7,0,0,0,.2,0,.3,0,0,0,.6-.2,1.3.2-1.3,1.2-1.2,2.2-1-.2,1.3.9.2.5-2.6.6-2.6,1.1-5.2,2.1-5,1,.2.4,2.8-.1,5.4-.3,4,0,6,.4,6.1.4,0,.9-1.9,1.6-5.7.5-2.6,1.4-6.4,1.4-6.4,1,.2-.2,5.3-.8,9.2-1,6.4-1.4,9-2,6.3.2-1.3,0,0-.4,2.6-.1,1.3-.1,3.3-.2,5.6,0,1.1-.2,2.4-.3,3.6-.1,1.3-.3,2.6-.6,3.8-.4,5.2.7,9.2.7,10.5,1,1.3.9,2.6,1,5.2-.5,1.3,0,5.2.8,8.7,1,3.5,2.3,6.6,3.3,6.5.6.6.9,1.8,1.1,3.2.2,1.4.2,3-.1,4.4-.8,1.4-.8,1.4-2,.3,0,.3.1.8.2,1.3.2,1.3,1.5,3.7,2.1,6.2.5,2.5,1,5,2,4.8.5-.1.9.8,1.1,2,.1.7.1,1.5,0,2.3.7-.7.7-.2.4,1.9l.9,3.7c.2.6,0,1-.2,1.2-.2.2-.4.3-.4.3l1.3.9-1,.3s1.3.9,1.7,2.2l-1,.3c-.1,0-.2,0-.4,0,.4.4.9,1.8,1.4,3.6-.1-.4-.3-.9-.4-1.2-.2-.7-.2-.5,0,0t0,0s.4,1.2.8,2.4l.5,3.3c.1-.2.2-.5.4-.9,0,0,0-.1,0-.2,0,0,0-.1,0-.2,0-.1,0-.1,0,0,0,0,0,.1,0,.2,0,0,0,.1,0,.2.1.3.3.8.4,1.2.4,1.2,1.3,3.6.4,4,0,0,.3.2.7.6.4.4.9.9,1.1,1.5,1,2.4.6,3.9.6,3.9,1.4.8,1.9,2,2.4,3.2.2.4.4.8.5,1.2,0,0,0,0,0,0,.4.7.2.5,0,0-.4-.7-.8-.8-1.4-.7.1,0,.4.2.7.5.4.3.9.8,1.2,1.4,1.1,2.3.8,3.9.8,3.9-.9.4-1.5-.7-2-1.9-.5-1.1-1.6-3.3-.8-3.8-.3,0-.5.2-.8.3-.4,1.6,1.9,6.3,3.3,7,.5-.2,1.1.6,2,1.9,1,1.3,2.3,3.2,3.9,5.2.9,1.7,1.9,3.3,2.8,4.5.9,1.2,1.6,1.9,2,1.6-.7-1.1.9-.5.7,1.1,0,0,2.1,1.7,3.7,2.1,3.1,1,4.5,3,1.4,2.1-.6,0-1.1-.1-1.6-.1.4.7.7,1.5.6,2.3,0,0,0,0,0,0,.2-.2.5-.4.8-.6,0,0,.4.5.9,1.5.3.5.6,1.1.9,1.8.3.7.7,1.5,1.1,2.4,1.5,3.6,2.2,4.8,4.6,6.1,2.4,1.3,4,1.7,3.2,2.3-.8.6.8,2.7,2.5,4.5,2.5,1.2,2.6,2.8,1.8,3.5-.7.7,1,2.6,1.9,3.5.9.9,2,3.4,2,3.4-.3,1.2-.8,1.3-1.7.5-.8-.8-1.9-2.5-2.8-5.2-1.7-1.9-1.9-3.5-1.1-4.2l-.9-.9c-.2-.3-.5-.5-.7-.7-.1-.1-.2-.2-.2-.2-.7,2.3-3.2-.7-7.3-5.7-2.3-4.8-4.7-6.2-4.7-6.2-.8.6-2.4.2-3.9-2-1.5-2.2-2.2-3.3-1.6-.5,0,1.2,0,2.9.1,4.8.2,1.8.5,3.8.9,5.8.4,1.9.7,3.9,1.1,5.4.4,1.5.8,2.8,1,3.5.9,1,0,0-3.5-4.3-2.5-3.3-4.2-7.2-4.1-8.9.8-.6.1-3.4.1-3.4-.8-1.1-1.5-2.2-.7-2.8-2.3-3.3-2.9-4.5-2-5.1-.9.5-1.7,1.1-1,2.2.7,1.2,0,0-1.4-2.3-1.4-2.3-2.8-4.6-1.2-4,0,0-.6-.5-1.3-1.2-.7-.8-1.6-1.8-2.2-3-.2-.4-.5-.8-.9-1.2,0,.2-.3.3-.6.5q-.9.5-2.2-1.9c-.2-.4-.4-.8-.6-1.2-1.5-.8-2.1-2-5.6-9.4.2.6.5,1.2.8,1.7.9,2,1,2,1,2-.3-.7-.6-1.3-1-2,0-.2-.1-.3-.2-.5-.3-.6-.4-.9-.5-1.1v-.2c-.7-4.2-2.9-9.2-3.7-11.8l-.5-1.3.4,1.2c-.5-1.3-.9-2.5,0-2.8-.9.3-1.4-.9-1.9-2.2l.9-.3c.5,1.3,1-.3-.5-1.3-.4-1.3-2.2-3.6-3-6.2-.2-.5-.3-.9-.4-1.3,0-.1,0-.3-.1-.4-.6-2-.5-1.8,0,0,0,.1,0,.2.1.4-.4-1.3-.8-2.6-1-3.8-.3-1.2-.5-2.1-.7-2.8,0,0,.3-2.9-.3-5.5-.3-1.3.5-2.9.5-2.9.2,0,.4.3.6.5-.3-.7-.5-1.2-.9-1.8-.8-1.2-1.5-2.5-2.2-4.4-.6-2-1-4.7-1.1-8.8-.4-2.7-.6-5.1-.9-6.9-.3-1.8-.7-3.2-1.2-3.8-.2-1.4-.2-2.7-.3-4.1,0-1.4.8-5.5.7-8.2,0-1.4,2.1-5.4,3.1-6.7,1-1.3,1-2.6,1.2-5.3-.8-4-1.6-8.1-2.5-8.2q.1-1.3-.9-1.4c-1,0-2-.2-2.2,1.2,0,0,0,0,0,0,0,.6,0,.6,0,0,0,0,0,0,0,0,0-.5.2-1.5.3-2.7-.9-1.5-.6-4.2.4-4.1,0-.7.2-1.4.1-2.2,0-.9,0-1.9-.4-3.3.4-2.7.7-4.1.7-4.1,1.2-1.2,2.2-1,2.4-2.4-.2,1.3-1.2,1.2-2.2,1l.2-1.4s-1-.2.3-1.4c.3-1.3-.1-4.2.4-7,.2-1.4,1.4-5.4,1.7-6.7,1-1.9,1.6-3.1,1.8-4,.2-.8.1-1.2-.4-1.4-1-.3-.5-1.6.4-1.3,1.4-1,2.2-3.6,3-6.3.2-.6.4-1.2.6-1.7,0,.1,0,.2-.1.4,0,0,0,0,.1-.4.9-2.6,1.1-3.3-.1-2.6-.5,1.3-.7,1.9-.7,1.9,0,0,.2-.6.7-1.9.5-1.3,1-2.6,1.9-2.2l.5-1.3c-.5-1.7.6-4.2.6-4.2,1.5-.9,1.1-2.5.7-4.2,0,0,.2-1.1.6-2.6.4-1.5,1.1-3.5,2-5.4.9-1.9,1.7-3.5,2.3-4.5.7-1,1.3-1.5,1.7-1.3-.7,1.2.9.5.7-1.2.9-2.7,1.8-5.4,2.6-7.2.8-1.8,1.3-2.7,1.4-1.8.3.2.6.4.9.5.3-.5.7-1.2,1.4-2.3.5-.8,1-1.6,1.5-1.8,0-.6-.5-.8-.9-1.1,0,0,.2-.3.5-.7.3-.4.7-1,1.1-1.6.5-.8,1-1.5,1.3-1.9,0-.1.1-.3.2-.4.5-.8.7-1,1-.9,0,0-.1-.2-.2-.2.6-2.4,3.5-5.4,4.9-5.2.7-.9.8-1,1.4-.5.1-.6.3-1.2.7-1.9.4-.7.9-1.5,1.5-2.3.5-.7,1.2-1.5,1.8-2.3-.4.4-.8.9-1.2,1.5,0,0-.1.2-.2.2-.3.4-.3.4,0,0,0,0,0,0,.1-.1,0,0,0,0,0,0,.4-.4.9-1.1,1.7-2.1,1.8-2.1,2.7-3.2,1.8-2.1-.5.6-1.1,1.3-1.8,2.1,2.2-1.8,3.7-3.7,4.9-5.2,1.2-1.5,1.9-2.7,2.4-3.2,0-.9.6-1.8,1.4-2.8.7-1,1.7-2,2.7-3,2.4-1.6,6.4-5.4,10.5-9,1-.9,2-1.8,2.9-2.7,1-.8,1.9-1.7,2.7-2.4,1.7-1.5,3-2.8,3.6-3.7,1.1-.9,2.2-1.7,3.3-2.6,1.7,0,1.7,0,1.2,1.6.4-.3.8-.6,1.1-.8,1.2-1.2,2.6-2.6,4-3.9,1.4-1.2,2.9-2.4,4.2-3.5,1.3-1,2.5-1.9,3.3-2.4.9-.5,1.5-.7,1.6-.5.5.9,1.7.1,5.3-2,.8-.8,1.6-1.5,2.4-2.1.8-.6,1.6-1.1,2.3-1.6,1.5-.9,2.7-1.6,3.3-1.9,1.2-.7,2.5-1.3,2.5-1.3-.5-.9,2.1-2.1,4.6-3.3,1.9-.9,3.4-1.9,4.3-2.7,1-.8,1.4-1.6,1.2-2q1.3-.5,2.6-1.1c1.3-.5,2.6-1.1,2.1,1.3.4.9.8,1.9,2,1.3.6-.3,1.2-.8,1.9-1.4.2-.2.5-.5.7-.7-.1,0-.2.1-.4.2-1.3.5-2,.6-2.5.4-.4-.1-.5-.3-.5-.3-.4-.9-.4-1,2.2-2,1.3-.5,2.7-1,3,0,1.6-3.8,4.3-4.7,3.3-3.3.2.5.2.7.7.8.6-.2,1.2-.4,1.8-.6.2,0,.3-.1.5-.2l1.3-.4-.3-1c1.4-.4,2.7-.8,3,.1.3,1,1.1,1.2,2.9,1,.9-.1,2-.4,3.4-.8,1.4-.3,3.1-.8,5.1-1.2,2.7-.7,4.1-1,4.1-1-1.1,1.2,6.3,2.8,10.3,2,1.3-.3,1.2-1.2,1.2-1.2-.2-1-1.5-.7-2.9-.5l-1.4.3c0-.5,1.5-1.3,3.3-2.1,1.8-.7,3.9-1.2,4.5-1.3.1,1,2.9.6,4.3.4,1.7,0,3.1,0,4.2.1,1.1,0,1.9.1,2.4.2,1.1.2,1.1.4.4,1-.7,0-1.7.4-2.8.8-.6.2-1.2.4-1.9.5-.6.2-1.3.3-2,.4-2.7.4-5.4.8-6.6,2-1.2,1.1-3.5,3.7-4.8,3.9-1.8.4-2.4.5-1.6.7,7.7-2,19.6-4.3,32.8-5,1.6,0,3.1-.2,4.7-.2,0,0,0,0,0,0,0-3,5.4-3,6.7,0,10.5,0,21.1,1.1,30.2,2.8,1.2.2,2.4.4,3.6.6,1.2.2,2.3.5,3.4.7,2.2.5,4.4.9,6.4,1.4,2,.5,4,1,5.9,1.4.6.2,1.2.3,1.8.4-.3-.4-.4-.8-.2-1.2,0,0-1.3-.4-2.6-.8-1.3-.3-2.6-.7-3.7-2,1.1,1.3-.3,1-1.3-.3-3.7-2-2.2-2.7.7-2.9q2.7.7,1.6-.6c-2.7-.7-2.5-1.7,0,0,1.4.4,4,1.1,5.7.5,1.3.4,6.7,2,10.7,3.4,2.5,1.5,5.3,2.8,8,3.9,2.7,1.3,5.2,2.4,7.2,3.2,4.2.8,9.3,3.3,10.5,3.9,2,2.2,4.4,3.5,5.7,4.2.9-.1,1.9.2,2.9.6,1,.4,1.9,1,2.5,1.3,1,1.2,1,2.5.4,3.4,1.2.7,2.5,1.4,3.7,2.1-.4-.9-.6-1-1.5-1.6.5-.9,1.5-1.1,3.3-.6,1.8.5,4.2,1.9,7.7,4.3,1.8,1.2,3,2.1,3.9,2.9.9.7,1.5,1.2,1.8,1.5.6.6.2.6-.7.6q-2.3.8.5,1.6c3.2,1.4,3.4,2.1,1.6,2.4,2.1,1.6,4.3,3.2,6.4,5,2.5,2.1,5.1,4.2,7.4,6.4,4.7,4.3,8.8,8.6,11.8,11.8,2.9,3.3,4.8,5.5,5,5.8.1,1,1,2.5,2.6,4.3,0,0,.2,0,.3,0,2.3-.2,3.2.8,6.6,7.9.6.9,1.2,1.8,1.7,2.6.6.9,1.1,1.8,1.4,2.5.3.7.5,1.3.5,1.8,1.5,2.3,2.2,3.4,3,2.9.7,1.1.7,1.1,2.3,1.8.9.7,2.6,2.4,4.6,4.9.2.1.3.3.4.5,0,0,0,0,0,0,.4.5.8,1.1,1.3,1.6,1.4,1.8,2.8,3.9,4.2,6.2.5.8.9,1.6,1.4,2.4l.2-1.1.9-.5c.6,1.3,1.2,2.6.3,3l-.9-.5c0,0,0,.1,0,.1.7,1.2,1.2,2.5,1.8,3.7.7,1.3,1.7,3.4,2.9,6-.3-.9-.7-2.2-1-3.5-.6-2.3-1.1-4.4-.8-3.8.9-.4.3-1.7-.3-3-.6-1.3-1-4.3,0-4.8-.5-3-1.2-4.3-1.9-5.6-1.6-.8-1.4-2.6-.7-1.3.9-.5-.5-3.1-2-5.6-3.9-4.5-3.7-6.3-3.7-8,0-.9.2-1,1.1.1.9,1.2,2.4,3.7,5.1,8.1,5,9,6.3,11.7,7.2,11.3,1.2-2.2,1.8-.9,1.5.9-1.2,2.2.4,3.1,1.9,4q2.2,2.3-.3,1.8c-2.2-2.2-1.5-.9.3,3.1,1.7,4.1,1.3,5.8-.7,3.5,0,0,0,0,0,0,0,0,0,.2.6,1.3.3.8.7,1.7.8,1.9,0,0,0,0,0,0,0,0,0-.2-.2-.5,0,0-.6-1.3-1.1-2.7,0,0,0,0,0,0q-1.5-1-.4,1.7t2.1,2.3c.9-.4,1.7.1,2.4,1.4.6,1.3,1.1,3.5,1.7,6.4-.5,1.7,0,3.1.5,1.4.5-1.7,1.9-.7,1-.3.5,1.4-.5,1.7-1.4,2-1.5-1-1.8.6.4,4.5.4,1.4,3.2,6.7,4.1,10.9,0,.2.1.4.2.6v-1.1c0-1.1,0-2.1-.1-3.2,0-2,0-3.9,0-5.5,0-.8,0-1.7,0-2.7,0-1-.2-2.1-.4-3.2-.3-2.2-.8-4.4-1.3-5.7-1.5-4.1-3.2-8.2-3.3-11.3-.3-1.3-.9-3.2-1.9-5.9-.5-1.3-1.1-2.8-1.7-4.5-.7-1.7-1.6-3.5-2.5-5.5-3.8-8.1-9.5-19.1-19.1-32.2-4.9-6.5-10.5-13.6-17.5-20.9-7-7.3-15.1-15-24.8-22.4-4-3.1-8.2-6.1-12.7-9.1,0,.1,0,.2-.1.4,0,0-1.8,0-3.1-.8l.5-.8c0-.1.2-.2.3-.3-5.8-3.7-11.9-7.3-18.6-10.7-12.8-6.6-27.4-12.5-43.6-16.8-2.8-.8-5.7-1.4-8.5-2.1l-.8.3v-.5c-9.9-2.2-19.8-3.7-29.4-4.5-3.1-.2-6.2-.5-9.3-.6C225.2.1,222.2,0,219.2,0c-6,.1-11.8.2-17.5.7-2.7.2-5.3.4-7.9.8.4,0,.7.2.7.2.1,1,1.6.9,3.1.7h1.5c.2,1.9-1.3,2-5.9,1.4-4.6-.4-4.6-.4-1.7-1.8.1-.1.3-.2.4-.3-2.2.3-4.5.6-6.6.9-2.6.4-5.2.9-7.8,1.4-1.3.2-2.5.5-3.8.7,0,0-.1,0-.2,0,.2.2.5.1,1.4,0,1.5-.3,3.2.4,3.3,1.4.4,2,.4,1.9,4.8,1.2,2.8-1.4,2.8-1.4,3.1.6-1.3,1.2-1.2,2.2-2.6,2.4l-1.5.2c.2,1,1.6.8,6,.2,2.9-.4,5.8-.8,7.4,0,.1,1,5.6-1.6,9.9-4.9,1.4-1.1,4.4-1.2,5.9-1.3,1.5,0,3-1.1,2.9-2.1,0-2,1.5-2,3,0,0,0,1.5,0,4.5-1,3,0,4.6-1,7.6.2,1.5,1.1,4.5,1.3,6,1.4,3,.2,4.4,1.4,5.8,2.6,1.4,1.2,2.7,2.3,5.7,2.6,4.4.6,10.1,2.6,8.4,3.3,0,0-.1,0-.2,0,.4,0,1,.2,1.6.3.2-1.1,4.5-.1,7.4.5,2.9.6,4.3.9,4.6,0,.2-1,.2-1,4.3,1.1,2.6,1.8,4.3,1.1,7.1,2,3.4-1,4.8-.6,2.8.9-1.4-.4-.3,1,1.4.4,0,0,.8,0,1.9,0,1.1.1,2.6.3,4,.8.5.2,1,.4,1.4.5.1,0,.2,0,.3.1,0,0,0,0,0,0,0,0,0,0,0,0,.2,0,.2,0,0,0,0,0,0,0,0,0,0,0,0,0,0,0,0,0-.2,0-.3-.1-3.1,0-3.4.9.7,2.4,4.1,1.5,6.5,2.4,8.3,3.1,1.7.6,2.9.8,4.4.9,1.8-.3,3.2.2,4.1,1.8-.1.2,1.5,1.2,3.9,2.5,1.2.7,2.6,1.4,4.2,2.2,1.5.8,3.1,1.7,4.7,2.6,1.6.9,3.2,1.8,4.8,2.6,1.5.9,2.9,1.7,4.1,2.3,2.4,1.3,4.1,2.1,4.2,1.9,1.8,0,1.8,0,3.7,2.5,1.9,2.5,3.1,3.3,4.9,3.3,1.8,0,3,.9,4.2,1.8.3.8,1.3,1.9,2.6,3,.6.5,1.3,1.1,2,1.6.7.5,1.3,1.1,1.9,1.5l4.1,2-3.6-.3c-1.2.3-2.6-.2-3.9-1-1.3-.7-2.5-1.6-3.1-2,1.8,0,1.8,0,.6-.8-1.7-2.6-6.4-3.6-10-3.5-2.3.8-3.5,0-5.3-2.4-5-5.5-6.3-6.2-6.1-3.8q.5-.9,1.7-.1c1.2.8,2.5,1.5,1.9,2.4h-1.8c-.7-.3-1.3-1.1-1.6-1.7-.2,0-.6-.1-.3-.6-1.2-.7-.7-1.6-.2-2.5.5-.9-.2-2.5-1.5-3.2q-.5.9-3.1-.5c-1.3-.7-4.3-1.2-6.9-2.6-2.6-1.3-9.5-3.6-16.2-6.3-2-.9-4-1.5-5.8-2.1-1.8-.6-3.5-1.1-5-1.5-3-.8-5.1-1.1-5.8-1.4-1.5,0-3.3-.3-5.4-.8-2.1-.5-4.5-1.1-7.3-1.8-3.3-1.4-5.4-2-6.5-2.7-1.1-.6-1.4-1.2-1.2-2.2.2-1-1.2-1.3-5.7-1.1-3,.5-7.5.8-10.3.4-2.9-.3-7.1-.8-7.2.2q-2.9.7-1.4-.2s-1.5.8-2.9.8v-1c.2-1,1.6-1,3-.8v1c1.5-1.8,0-2.1-2.9-1.2-1.5.9-4.4,1.8-7.3,1.6-1.4-.1-2.9.9-2.9.9,1.3,2-4.2,2-7.1,0-1.4-1.1-4.3-.9-5.7-.9-1.4,0-4.2.1-8.6-.6-2.9-.7-5.8-.5-7.2-.3,0,0-.3.3-.8.6-.5.3-1.2.6-1.9.7v-1c-1.2,3.2-2.5,3.4-7.1,2-1.4.2-2.8.4-4.2.7-2.6,1.5-4,1.8-4.2.8-.8-.3-3.6.1-6.3,1.1s-5.4,2.1-5.9,2.8c-.8-.3-2-.6-3.3-.6-1.3,0-2.7.2-4.1.6-2.7.9-5.8.7-7.2,1.2-4.7-.4-7.5.6-8.2,2.9.7,1.9-.6,2.4-4.6,4-1.3.6-3.1,1-4.7,1.4-.7.2-1.3.4-1.9.5.7.2.2.8-1.3,1.5-1.3.6-3,.3-3,.3-.3-.6-.4-.8,0-1.1-.3,0-.4.2-.4.2.4.9-.9,1.5-2.2,2.1-1.3.6-4.6,3.6-7.1,4.9-1.9,1-3.1,1.7-3.6,1.9-.5.2-.3-.2.6-1.4,1.3-.7.7-1.6-1.2.7-1.1,1-2.5,2.1-4,3.3-1.5,1.2-3.1,2.4-4.6,3.6-2.9,2.4-5.4,4.4-6,4.8-1.7,0-5.2,2.6-8.6,5.1-1.7,1.3-3.6,2.9-5.5,4.3-.9.7-1.9,1.3-2.7,1.9-.8.6-1.6,1-2.3,1.3-2,1.9-5.7,3.9-6.9,4.9-.4.4-.8.8-1.2,1.1,2.7-1.3,1.7-.3-2.4,3.8-8.7,7.4-20.4,20.5-30,38.3-1.1,1.8-2.1,3.4-2.9,4.8-.8,1.4-1.4,2.4-1.9,3.2-1,1.5-1.4,1.7-1.1.2,0,0,0,0,0,.1-.2.3-.6,1.2-1.2,2.1-.3.5-.5,1-.9,1.6-.4,3-2.5,5.2-4.1,6-1.5.9-2.2,2.2-.6,1.3,2.5-.4,1.1,2.1-2.4,5.3-1.5.9-2.1,2.3-1.7,4-.2,3-.2,3-2,2.3-.9-.4-2.8-1.1-2.3-2.5.6-1.4-.4-1.7-1.3-2.1.6-1.4,1.2-2.7,2.1-2.3.9.4.9.4,2.1-2.3.5-1.4,1.8-4,4-6.2.2-.5.5-1,.6-1.3-2.2,2.2-1.6.9.4-3.1,1.3-2.6,1.9-5.7,1-6.2-.5-1.1.2-4.2,1.4-6.7,1.2-2.5,2.8-4.7,3.7-4.1.9.5,1.6-.7,2.4-2,.8-1.3,3.3-3.2,5-5.6-2.5,1.9-1.7.6,1.7-4.2,1.8-2.4,4.5-5.9,4.6-7.8,0,0,.5-1.1,1.1-2.2.6-1.2,1.4-2.5,1.9-3.1,2.9-3.5,3.8-4.6,2.7-1.7.9-1.2,1.9-2.3,2.9-3.4-1,1.1,0,0,1-1.1,1.8-.4,3.8-2.6,3.8-2.6.2-1.8,4.5-6.1,8.7-10.2,4.4-4,6.7-6,4.9-5.8l2.2-2c3-1.1,6.4-4.1,10-6.8,4-3.3,7.4-6.1,10.3-8.1,2.9-2.1,5.1-3.8,6.9-5,3.6-2.4,5.1-3.6,5.5-4.5,0,0,0-.2.2-.3-1.7,1.1-3.3,2-4.7,2.9-1.5,1-2.7,1.9-3.8,2.6-2,1.4-3.1,2.3-3.2,2.5-.6.4-1.2.8-1.7,1.1-.5.3-.8.5-.8.5-.3-.4-3.9,1.5-7.7,3.9-3.7,2.5-7.5,5.5-8.3,6.8-.1.4-1.7,2-4,4.1-1.1,1.1-2.5,2.3-3.9,3.5-1.4,1.3-2.8,2.7-4.2,4.1-1.4,1.4-2.9,2.7-4.2,4-1.3,1.3-2.5,2.5-3.6,3.5-2.1,2-3.6,3.3-3.8,3.2-1,1.1-3.1,5.1-6,8.5-2.7,3.5-6.4,8.1-6.4,9.9-.9,1.2-2.6,3.6-2.6,3.6-.8.3-2.5,1.9-6.8,8.7-1.1,1.7-2.4,3.7-3.8,6.2-.7,1.2-1.4,2.6-2.2,4-.8,1.4-1.7,3-2.5,4.7-1.6,3.4-3.6,7.2-5.5,11.7-.9,2.2-2,4.6-3,7.1-.9,2.6-1.9,5.2-3,8.1-2.7,7.6-5.7,17.5-7.6,27.6-.3,1.3-.5,2.5-.8,3.8-.3,1.2-.4,2.5-.6,3.8-.4,2.5-.8,5-1.1,7.4-.3,2.4-.5,4.7-.8,7-.2,2.2-.5,4.4-.7,6.4-.2,2.9-.4,5.6-.6,8-.2,2.5-.1,4.7-.2,6.7,0,2,0,3.8,0,5.3,0,1.5.1,2.8.2,3.9.4,4.2.9,4.5,1.8.9,0-.7,0,.2.2,2.4,0,1.1.2,2.5.3,4.2,0,.8.2,1.7.3,2.6-.1-2.1-.1-3.9-.1-5.4,0-2.4.2-3.9.7-3.9,0,0,0,0,0-.2,0-.3,0-1.1,0-2.7,0-1.7.2-4.2.4-8.2.1-2,.4-4.3.6-7.1.1-1.4.3-2.9.4-4.4.2-1.6.5-3.3.7-5.1.8-5.8,2-10.6,2.8-14.5,1-3.9,2-6.8,2.7-8.9.7-2.1,1.4-3.2,1.9-3.5.5-.3.8.4.9,1.9.7,1.6-.6,2.8-1.9,4-2.6,2.4-2.9,3.9-.6,2.8,2.3-1,1.7,1.8.4,3-.5,0-1.2,2.7-1.8,5.5-.3,1.4-.5,2.8-.7,3.9-.2,1.1-.3,1.8-.3,1.8.5,0,.3,3.7-.1,7.9-.4,4.3-.9,9.3-1.5,12.1-1,2.9-1.1,7.2-1.1,7.2,0,0,.2,1.1.5,2.7.3,1.6.6,3.8.7,5.9.2,5.8.7,10,1.7,10,.6.7,1.3,6.3,2.2,11.8.7,5.5,1.7,10.8,1.1,10.9-1,.2-1.3-1.2-1.5-2.6-.6-2.8-2-5.5-3.2-6.8-1.1-.6-1.8-1.6-2.4-3.7-.6-1.8-1.1-4.5-1.9-8.4.5,3.9,1.3,8.4,2.2,13.3.7,3,1.3,6.2,2.1,9.5.8,3.3,1.8,6.7,2.7,10.1.9,3.5,2,7.1,3.2,10.7,1.3,3.5,2.6,7.1,3.9,10.4,1.4,3.3,2.8,6.4,4,9.2.7,1.4,1.3,2.7,1.9,3.9.9,0,1-1.5,0-3.7-1.1-2.7-1.7-4-.7-4.4l.6,1.3c.6,1.3,1.1,2.7,1.1,2.7.5-.2,1.1.7,1.9,2.1.7,1.4,1.7,3.4,2.6,5.3,1.5,3.2,2.4,5.6,2.5,6.2,0,.6-.9-.5-2.8-4.5-1.2-2.6-2.2-2.2-3.1-1.8-.1.2-.2.5-.2.8.3.6.6,1.2.9,1.8.5,1,1.1,2,1.7,3.1.3.5.5.9.8,1.4.7.7,1.5,1.2,2.3,1.6,1.6.8,2.3,2.1,2.3,2.1,2.5.3,3,1.6,5.2,7,.3,1.5,1,3.6,1.9,5.8,1,2.2,2.2,4.4,3.4,6.2,1.6,2.4,3.4,4.7,2.5,5.3l.9,1.2q-.9-1.2,0-1.8l1.7.6v1.2c.4.1.9.7.9,1.7.9,1.2,1.7,2.3,2.5,1.7,2.5-.1,4.3,2.1,7.9,6.5,5.8,6.4,8.4,7.7,6.3,3.9-.2-1.8,4.3,3.7,14.8,13.1,2.1,1.9,3.9,3,5,3.6,1.1.6,1.5.6,1,.2-.4-1.7-.4-2.3,1.1-1.6,1.5.7,4.2,2.8,9.5,6.1,1.1.8,2.3,1.7,3.5,2.4,1.2.7,2.5,1.4,3.6,1.9,2.2,1,3.9,1.6,4.2,1.2,3.1.3,6.6,1.1,10.8,2.8,2.2.8,4.6,1.7,7.3,2.9.7.3,1.4.6,2.1.9.7.3,1.5.6,2.2.9,1.5.6,3.1,1.2,4.8,1.9,3.8,1.3,6.3,2.2,7.7,3.1,1.4.9,1.9,1.6,1.7,2.1.9,1.4,1.8,2.8,5.6,4.2,2.5,1,6.4,2.2,7.7,2.6,2.3,1.8,2.3,1.8-.3,1-1.3-.4-4.2-.3-4.2-.3-.7,1.9,2,2.7,4.9,2.6,2.9-.1,2.9-.1-.3,1-1.6.5-4.8.1-7.4-.8-2.6-1-4.7-2.3-4.4-3.2,0,0-.6-.2-1.8-.7-1.1-.4-2.7-1.1-4.6-1.9-2.3-.7-4.2-1.3-5.5-1.7-1.4-.4-2.3-.7-2.8-.8-1.1-.1-.7.6.8,2.5.9,1.5.9,1.5-.8,1.8-1.1.6-1.6.9-1.3,1.2.3.3,1.3.5,3.5.9,1.9.8,3.1,1.3,3.5,1.9.2,0,.3-.1.5-.2q1.3.6,2.6,1.1c-.5-.7-.7-1.1-.3-.8.4.3,1.6,1.3,3.9,3.2,2.3,1.9,5,3,6.7,2.4,2.8,0,5,1.4,2.8,2.5.3,0,.8.3,1.6.5,1.2.3,2.9.8,4.9,1.4,2.7.8,4.4,1.3,5.4,1.8,1,.5,1.2,1,.9,2,.9,2.2.9,2.3,9.3,4.1,2.8.5,5.7.8,8,.9,1.6.1,2.9.1,3.8.1,0-.5-.5-.6-2.8-1-2.9-.5-5.8-.9-5.8-.9.2-1,.4-2,3.2-1.5,1.4.2,2.9.5,3-.5.2-1,5.9-1.1,7.2,0v1c-1.5-.2-3.1.7-3.2,1.7,0,.6-.1,1-.2,1.4,1.3.2,2.4.2,2.5-.7.1-1,2.3-1.5,4.6-1.6,2.3-.2,4.8,0,5.4.5,1.3,1.6,4.8,2.7,11.4,3.2,1.6.1,3.5.3,5.5.3,2,0,4.3,0,6.8,0,1.2,0,2.5,0,3.9,0,1.3,0,2.7-.2,4.2-.3,2.9-.2,6.1-.4,9.4-.9,3.9-.5,7.7-.9,11.2-1.6,3.5-.6,6.7-1.1,9.4-1.8,2.7-.6,4.9-1.1,6.5-1.5,1.6-.3,2.4-.6,2.4-.6-.3-1,2.5-1.7,5.2-2.5,3.5-.7,6.7-1.7,9.7-2.7,1.5-.5,2.9-1,4.2-1.5,1.3-.5,2.5-1.1,3.7-1.6,2.3-1,4.2-2,5.7-2.8,1.5-.9,2.5-1.6,3-2.2.9-1.5,2.2-2.1,3.4-2.7,1.3-.6,2.6-1.2,2.1-2.1-.4-.9.8-1.5,2-2.2q1.2-.6.8-1.5c-1.7-.3.8-1.5,4.2-1,1.5-.2,2.5-.5,3.2-.8.7-.2,1-.4,1-.4.7-1.6,3.2-2.9,6.7-5.1,3.6-2.1,7.4-4,10.7-6.2,1.7-1.1,3.4-2.1,5-3.1,1.6-1.1,3.1-2.1,4.5-3,1.4-1,2.8-1.9,4-2.7,1.2-.9,2.3-1.7,3.3-2.4,2-1.4,3.6-2.4,4.6-2.9,1.1-.9,2.1-1.9,2.8-2.6.8-.7,1.3-1.2,1.3-1.2-.1-.6,1.2-2.4,3.5-5.2,2.2-2.9,5.6-6.7,9.5-11.8,1-1.3,2.1-2.5,3.1-4,.2-.3.5-.6.7-.9-.7-.5-.6-.6.2-1.6l-.9,1.1-1.7.5v-1.7c1-1.1,1.8-.5,2.6.2.8-.9,1.5-2,2.2-1.8,0,0,0,0,0,0,2.3-3,4.5-6.5,6.9-10,.8-1.3,1.7-2.7,2.6-4.1,0,0,0,0,0,0-1.7-1.1-1.7-2.8-1-4-.2.3-.5.8-.7,1.2-2.3,5.2-3.1,4.6-2.4,1.8-.7,2.9-.7,2.9,1.7,1.1,0,0,.1-.2.1-.2.4-.7.5-.8,0,0,0,0,0,.1-.1.2-.2.3-.5.7-.8,1.2,0,1.7,0,1.7.8.6,2.4-1.8,2.4-1.8.8.6-.8,1.2-1.6.6-3.3,1.2q-1.7-1.1,0-3.4c.3-.4.6-.8.8-1.2.5-.7.4-.5,0,0,0,0,.4-.6,1-1.2.6-.6,1.4-1.4,2.2-1.7,0,0,0,0,0,0,.7-1.2.7-1.2-.1-1.7q-1.6.6.7-1.2c1.6-.7,2.5-.2,2.6,1.6,0,.6.2,1.1.4,1.3.6-1,1.1-2,1.7-3-.7-3-.7-4.5.5-6.7,1.3-2.5,1.9-5.4,2.2-8.3-.4.8-.8,1.7-1.3,2.5.8-.4-.5,2.5-2.2,5.7-.8,1.6-1.9,3.3-2.9,4.6-1,1.4-1.9,2.4-2.4,2.9-2.3,1.8-3.1,1.3-1.7-1.1q.7-1.2-.1-1.7-.9-.5-1.6.6s-.7,1.2-1.6.6c0,0-.1-1.7,1.4-2.3,2.1-3.5,1.2-4-1-2.2,0,0,.7-1.1,2.1-3.4,1.3-2.4,1.7-5.2,1.7-5.2.6-1.2-.9-.5-1.5.7-1.3,2.3-1.9,3.5-3,1.3-.9-.5-1.7-1-2.4.1-1.4,2.2-2.2,1.7-1.1-2.1.9-1.6,3-3.3,4.2-3.6l-.3-1.6.9.5q.9.5.3,1.6c.6-1.1,1.2-2.3.4-2.7,2.4-.2,6.1-5.7,4.7-5q-.9-.4-.3-1.6c.6-1.2,1.1-2.4,1.1-2.4-.9-.4.1-2.8.6-4,1.9-2,1.6-3.6.6-6.7-.5-1.6-1-3.1-.6-4.3l.4-1.2c.4-1.2,1.4-.9,2.3-.5,1.9.7,5-2.4,5.8-4.9.4-1.2,2.1-3.5,3.1-3.2-.3,1.3-.4,1.3-.8,2.5.2,2.8-1,6.6-1,6.6-.5-.2-.8,0-1.1.7-.3.6-.7,1.5-1.1,2.8-1.8,5-1.8,4.9-2.8,1.8-.5-1.6-1.4-1.9-1.9-.7-1.3,3.6-.5,6.8.4,7.2q.9.4.4,1.6c-2.4,3.3-6.5,11.5-5.6,12,0,0,1.5-.7,2.1-1.9.3-.6.6-1.2,1.2-2.2s1.6-2.4,3.1-4.6l3-4.5-.7,4.1c-.1,2.9.3,4.6-.4,5.8,1.5-.8,1.5-.8,1.2,2.1.3,1.7-.3,2.9-.3,2.9-.2,0-.3,0-.5,0,0,.1,0,.3,0,.4.2.2.4.7.8,1.3q.3,1.7.3,1.7c.6-1.3,1.5-.8,2.4-.4.4.2-.1,1.5-1.4,3.3-1.2,1.7-3,4-4.8,6.2-.7,1.2-1.4,2.4-.5,2.9.2.1.6,0,1,0,2.1-3.7,4.1-7.7,6-11.8.8-1.6,1.6-3.2,2.3-4.8-1,.4-2.1-.2-2.8-2ZM412.3,250.6c.2-1.3,0,0-.4,2.6,0,.4-.1.8-.2,1.1v.2c0,.1,0,.2,0,.2,0,.4,0,.3,0,0,0-.1,0-.3,0-.4l.6-3.8ZM410.4,288.1c0,0,0,0,0,0h0c0,.3-.3.8-.9,2.6-.3.8-.4,1.1-.5,1.2h0s0,0,0,0h0s0,0,0,0h0s0,0,0,0l1.4-3.7ZM51.7,125.4l.6-1.1s0,0,0,0c.5-.8.8-1.2,1-1.6v-.2c.4-.5.4-.5.4-.5l-.3.5c0,0,0,.1-.1.2l-1,1.6c-.3.5-.6.9-.7,1.2-.5.8-.4.7,0,0,0,0,0,0,0-.2ZM185.7,3.9c-2.8,1.4-4.3,1.6-4.5.7-.2-1,1.3-1.2,2.8-1.4q3-.4,1.6.8ZM263.6,7.1c-1.5-.3-1.3-1.3-1.1-2.3l1.5.3,1.3,1.3-1.7.7ZM369.3,82.1c-.9-1.1-2.6-1.4-1.9-2.1,0,0,.2-.2.5-.2.3,0,.7,0,1.2.6q1,1.1.2,1.7ZM389.3,110.8l-1.6-.6.8-.6q.8-.6,1.6.6s0,0-.8.5ZM389.5,100.4c2.5,1.8,4.8,8.9,3.9,11.1-.2,3.5-1,2.3-.8.5-.7-1.2-1.5-4.1-2.3-5.2,0-1.7-.8-2.9-1.6-.6-1.7,1.1-1.6,1.1-3.2-2.9-.9-2.8,1.6-4.6,4.1-2.9ZM353.7,59.2s1.8.2,4,2c3.9,2.1,6.8,3.4,4.2-.3-2.2-2,5.8,2.4,7.9,4.5,1.1,1.1,3.2,3.2,2.4,3.9,0,0,1,1.1,2.1,2.1.4,0,1.3.7,2.3,1.5,1,.9,2.1,2.1,3.2,3.2,2.1,2.3,3.9,4.7,3.5,5.1,0,0-.8.7.2,1.8,1.9,2.3,1.1,2.9-1.5,1.3l.9,1.1c.9,1.1.1,1.8-.6,2.4,0,0-.8.6.1,1.8.9,1.1,1.6,2,2.2,2.6.5.7,1,1.3,1.4,1.9.9,1.2,1,4.7-.7,4.1-1.7-.5-3.3-2.8-3.4-4.5-.1-1.7-1.9-3.9-2.8-5-1.7-.5-1.8-2.2-.9-1.1.4-.3.6-.5.3-1-.2-.5-.9-1.3-2.4-2.9-2.8-2.3-4.6-4-5.7-5.2-1.1-1.2-1.5-1.8-1.1-2.2,1.2-.2-.8-3.3-3.7-6.7-1.5-1.7-3.3-3.4-5-5-1.7-1.5-3.3-2.8-4.6-3.5-1.8-.2-2.9-1.1-2.2-1.8ZM354.4,65c1.5,2.6.8,3.4-.3,2.4-.5-.5-.9-1.1-1.1-1.6-.2-.5-.4-.9-.4-.9q.7-.8,1.7.1ZM261,26q.2-1,1.6-.7l-.2,1-1.6.7.2-1ZM119.9,43.8c1.2-.7,2.5-1.3,1.2-.7,0,0-1.2.6-2.4,1.3,0,0,0,0,0,0s0,0,0,0h0s0,0,0,0c0,0,.4-.2,1.2-.6ZM61.4,90.8c.6-.7.8-.9.8-1h0q0,0,0,0l-2.6,3.1h0s0,0,0,0c0-.1.4-.5,1.7-2.1ZM99.2,37.5l1.3-.8-3.8,2.5h0s0,0,0,0c0,0,.3-.2,2.5-1.7ZM22.8,130.7c.2-.5.5-.9.6-1.3,0,0,0,0,0,0,0,0,0-.1,0-.2.2-.4.2-.5,0,0,0,0,0,.1-.1.2-.1.2-.7,1.4-1.2,2.6,0,0,0,0,0,0,0,0,0,0,0,0h0s0,0,0,0c0,0,.2-.3.6-1.3ZM2.5,207.8c0,.2,0,.4,0,.6-.2,2.9-.2,2.5,0,0,0-.2,0-.4,0-.6,0,0,0,0,0,0,0-.4,0-.9.1-1.4.2-2.2.3-4,.4-5.2,0-1.3.2-2,.2-2,.9.1.5,5.8-.7,8.6ZM5.3,190.7c-.6,4.3-1.6,4.2-2.2,1.2.2-1.4.4-2.9,1.4-2.7,0,0,1,.1.8,1.6ZM13.2,266.2c.1.7,0,1.5,0,2-.1.6-.3,1-.3,1-1,.2-1,.2-1.3-1.2.4-3,1.4-3.2,1.7-1.8ZM12.6,276.7l-.6,1.7c-.4-1.4-.7-2.8,0-4.5,1-.2,2-.5,2-.5.3,1.4-.3,3-1.3,3.3ZM15.7,153.8c0-.2.1-.3.2-.5.5-1.4.5-1.4.5-1.4-.2.6-.5,1.3-.7,1.9-.6,1.9-.7,2.2-.7,2.2t0,0s0,0,0,0c.3-.7.5-1.5.7-2.2ZM16.2,281.7c-.1-.5-.3-.9-.4-1.3,0,0,0,0,0,0,0,0,0,0,0,0-.2-.7-.2-.5,0,0,0,0,0,.1,0,.2,0,.3.5,1.5.8,2.7t-.4-1.4ZM32.8,301.2s-.5-1.3-1.1-2.5q-.1-2.9.9-.4c.5,1.3,1.1,2.5.1,2.9ZM56.4,348.9c0,0-.1-.1-.2-.2,0-.1-.2-.2-.2-.3-.3-.5-.6-.8-.6-.8-.4-.5-.5-.7,0,0h0c.2.2.4.5.6.8.1.2.3.4.4.6.7.8.7.8.7.8-.2-.3-.5-.6-.7-.8ZM70.8,349.1c-.8-1-1.7-2.1-1.8-3.7,0-1.7.7-2.3.7-2.3.8,1,.9,2.7,1,4.3,0,1.7,1,2.7,0,1.7ZM96.5,362c1.3,2.4.3,1.6-1.6-.1-1.9-1.7-3.8-3.4-3.1-4.2-.2-1.6,2.5.9,4.7,4.3ZM87.3,353.3l1.6.2.2,1.6q-.7.7-.7.7c-.9-.9-1.8-1.8-1.1-2.5ZM82.1,349.5s1.6.3,2.5,1.2q.9.9.2,1.6l-.9-.9c-.9-.9-1.8-1.9-1.8-1.9ZM89.6,372c-1.1-.8-2-1.8-3-2.7-1-.9-1.3-2.6-2.3-3.5,0,0-1-.9-.3-1.6.7-.7,4.6,2.9,7,6.3,1.4,2.5,1.4,2.5-1.3,1.5ZM97.2,369.1c-.6.8-1.6,0-3.7-1.7-3-2.6-3.9-3.5-1.3-2.5,3.6,1.8,5.6,3.4,5,4.2ZM105.9,377.1c-1-.8-3.8-1.6-4.8-2.3,0,0-.3-.2-.4-.3,0,0,0,0,0,0,0,0,.2.1.4.3,0,0,.6-.8,1.2-1.6-.4-1.6,2.7.8,5.2,3.9,1.6,2.3,1.6,2.4-1.6,0ZM114,368.1c.3.2.7.5,1,.7,1,.7,2,1.4,2,1.4.5,1.5.5,1.5-1.1,1.7l-3.1-2.1c-.4-1.6-.4-1.6,1.2-1.6ZM157,403.5c-.2,0-.3-.1-.5-.1-.3-.1-.6-.2-.7-.2-.6-.2-.9-.3,0,0,0,0,0,0,0,0,.3.1.7.3,1.2.4,0,0,0,0,0,0,.4.1.6.2.8.3,0,0,.1,0,.2,0,0,0,.2,0,.2,0,0,0,0,0,0,0,0,0,0,0,0,0,0,0-.1,0-.2,0,0,0-.1,0-.2,0-.3,0-.5-.2-.8-.3,0,0,0,0,0,0ZM166.7,412.7c-1.1-.3-1.3-.3-1.3-.3h0,0l3.7,1s0,0,0,0h0s0,0,0,0h0c-.3-.1-.9-.3-2.4-.7ZM200.3,415.2c.6,0,1.2.2,1.8.3.6.1,1.2.2,1.8.4,1.2.3,2.2.8,2.9,1.3q2.6,2.2-2.7.8c-2.7,0-5.3-1.5-6.6-1.6-1.2-1.1.5-1.5,2.8-1.2ZM209.2,423.4v1c-1.4,0-2.8-.2-2.8-1.2l1.4-.9,1.3,1.1ZM190.9,406.5q2.5.4,2.7-.6c.1-1,2.6-.7,3.7,1.4q-.2,2-4.1,1.6c-1.3-.2-3.8-.6-3.7-1.6,0,0,.2-1,1.4-.8ZM188.8,411.3c2.7-.6,4-.4,3.9.6-.1,1-1.4.8-2.7.6-2.6-.4-2.6-.4-1.1-1.2ZM171.7,415.1s.4-.2.9-.3c.6-.1,1.3-.2,1.9-.1,2.6.6,2.4,1.5,2.4,1.5q-.2,1-2.9.4c-1.3-.3-2.7-.6-2.4-1.6ZM187.9,426.4c-.8-.1-1.6-.3-1.9-.3-.1,0-.1,0,0,0,0,0,.2,0,.5,0,0,0,1.4.2,2.8.4t-1.4-.2ZM208.9,431.4c-1.5.9-2.9.8-4.3-.3-1.4-1.1-1.4-1.1,1.5-.9h1.4c0,0,0-.2-.3-.3-.5.4-1.5.3-2.6.2-1.4,0-4.3-.2-4.2-1.3,0,0,.4-.2.9-.4.1,0,.3,0,.4-.1-2-.4-4.3-.7-6.9-1-1.4-.2-2.8-.3-2.8-.3l-1.4-.2c-1.4-.2-4-1.7-6.8-2.1-2.8-.4-5.4-2-5.2-3l-.2,1c-1.4-.3-2.7-.6-2.5-1.6l1.6-.7,1.2,1.3c-.6-.6-.9-1,.1-.6.5.2,1.3.5,2.6,1,1.3.5,3,1.1,5.4,2,1.4.2,2.7.7,3.7,1.2,1,.5,1.6,1.1,1.6,1.6.1-1-1.1-2.1-2.5-2.4-2.8-.4-4.1-.7-2.6-1.4,1.4.2,4.1.7,8.2,2.1,2,.7,4.1,1.2,5.8,1.5,1.7.2,3.2.3,3.9.4,4.1,1.3,5.6,2.3,4,4.3ZM215.2,398.4h-1.2c-.6,0-1.2,0-1.7,0-.5,0-.8,0-.8,0,0,0,.3-.2.8-.5.5-.2,1.1-.5,1.7-.5q1.2,0,1.2,1ZM216.4,396.4c-.4,0-.8,0-1.2,0,0,.9-1.2.9-2.4.9-1,0-1.5,0-1.8-.2-.2,0-.4,0-.6,0-1.2,0-2.4-.1-2.4-.1,0-1,2.8-1.5,5.6-1.7,2.8-.2,5.8,0,6.4,1.1,0,0-1.2,0-3.6,0ZM228.4,419.3s-1.4,0-1.4-.9c0-1,1.2-2.1,1.2-2.1,1.3,0,1.4.9,1.4.9,0,1,.1,2-1.2,2.1ZM232.1,397.9c-.3,0-.4,0-.5,0,0,0,0,0,0,0,.2,0,.9,0,1.7-.2.7,0,1,0,1.1-.1,0,0,0,0,0,0,0,0,0,0,0,0-1.2.1-2.3.2-2.3.2ZM237.7,393.4c-2.4.2-3.4,1.3-3.3,2.3,0,1-1.2.1-1.4-1.9,0,0,0,0,0,0-.4.7-1.2,1.2-2.3,1.3-2.8-.6-4.2-.8-4.1-1.8-.4,1.1-1.1,1.7-1.9,1.1,0-1,0-2,1-3.1h1.2c0,.4,0,.9-.1,1.3,0-.1,0-.2.2-.4.5-1,1.7-1.6,2.8-1.7,1.1-.2,2.3,0,2.9.3.5.7.7,1.4.6,2.1,1-1.2,4.4-1.4,5.5-.6q.1,1-1.1,1.1ZM249.1,421.2c-1.2,1.2-2.7.4-1.4.2,1.1-2.2,4.9-3.7,5.3-1.8-1.3.3-2.5,1.4-3.9,1.6ZM253.4,387.8l-.2-1,.9-1.2.2,1q.2,1-.9,1.2ZM259.1,396.9c-.6.2-1.5.4-2.2.5-.8.2-1.4.3-1.4.3-.1-.5,1-1.5,2.2-2.3,1.2-.9,2.5-1.8,3.1-1.9,1.4.7.5,1.9-1.7,3.5ZM266.2,395.1c-1.2.3-3.6.9-3.8,0-.2-1,2.1-1.6,3.6-.9,2.6.3,2.6.3.3,1ZM292.8,385.5s0,0,0,0c-.3.1-.6.3-1,.5-.2,0-.3.1-.5.2-.6.2-1.2.5-1.8.7h0s0,0,0,0c0,0,.3-.1,1.8-.7.5-.2,1-.4,1.5-.7,0,0,.2,0,.3-.1.6-.3.8-.4,0,0,0,0-.1,0-.2,0ZM299.5,369.8l-.5-.9c1-.5,2.5-.2,2.5-.2l.5.9c-1,.5-2,1.1-2.5.2ZM372.4,314.8q1.3-2.1.9.5c.2,1.6-.4,2.6-1.1,3.7-1.5.5-1.1-2.1.2-4.2ZM365.5,310.6c.9-1.5,1.5-2.5,1.9-2.9.4-.5.6-.3.8.4.3,1.5-.4,2.5-2.5,4-2.1,1.5-2.1,1.5-.3-1.5ZM360.9,302.6c.4-.7.5-.9.5-1h0s0,0,0,0c-.2.4-.4.7-.6,1-.1.2-.3.5-.4.7,0,.1-.1.2-.1.2,0,.1-.1.2-.1.2-.1.2-.1.2,0,0,0-.1.2-.3.3-.5,0-.2.2-.4.4-.7,0,0,0,0,0,0ZM316.8,356.4c-.6-.8-2.1-.9-3-.3,0,0,.6.8,1.2,1.6,1.5.1,1.5.2.2,2.3-1.7,3.6-4.7,5.5-2.9,1.9,1.4-2.1,1.3-2.1-1.1-1.7-1.9,1.3-2.4.4.7-2.9.7-1,1.4-1.9,2-2.5.6-.6,1-.9,1-.9,0,0,.9-.7,1.8-1.3,3.3-1.2,3.3-1.2,2.1.9-.3,1.5-.6,3-2.1,2.8ZM347.2,362.7q-1,.9-1.6.1l.3-1.6c1-.9,2.6-1,2.6-1q.7.7-1.2,2.5ZM344.1,360s.2-.1.4-.3c0,0,0,0,.1-.1.2-.2.5-.5.8-.7.7-.6.9-.8.9-.8h0s0,0,0,0c-.7.7-1.4,1.3-1.7,1.6-.3.2-.4.4-.5.5t0,0ZM345.9,336.9c-.4-.3-1.2.1-3.2,2.4-2.1,2.2-5.6,6.2-11.8,12.4-1.8,1.5-3.8,3.2-5.5,4.6-1.7,1.4-3.2,2.4-3.6,2.8-4.4,2-4.6-.3-1.2-1.6,1.2-.3,2.2-1,2.8-1.8.6-.8,1-1.8,1.1-2.5.3-1.5,1.1-2.2,2.7-2.2,3.1,0,4-.8,2.6-2.2,0,0-.7-.8-1.5,0l-.7-.8s2.5-2.3,4.2-3.8c1.7-1.5,3.3-3.2,3.4-4.7.2-1.4.4-2.5.6-3.4-.6.6-1.2,1.2-1.2,1.2-.2.2-.2.2-.3.3t0,0c0,0,.1-.1.3-.3q-.8.8-1.5,0c.8-.8.9-2.3,1.6-1.6,0,0,.7.7,0,1.5.2-.2.5-.5.8-.8.2-.2.3-.3.4-.4.6-3.3.7-3.1,1.9-2,1.5,1.4,2.2.5,3.8-1.1,0,0-.7-.7,0-1.5.8-2.3.8-2.3.8-2.3-.8-.7,0-1.5,0-1.5.7-.9,1.4-1.7,2.8-3.4,2.2-1.8,3.4-2.3,3.7-1.7.2.3,0,.9-.2,1.7-.3.8-1,1.7-1.9,2.8,1.1-1.3,1.8-2.2,2.3-2.7.4-.6.6-.8.6-.8-.7-.5-.9-1.8,0-3.3,0,0-.2.1-.3.3l.7-.9c.7-.9,2-2.7,1.2-3.3.6-.9,1.9-2.8,3.3-3.1l1.3-1.8c-.6.9.2,1.5.2,1.5.6-.9,1.3-1.9,2.1-1.3.4.3-.9,3.5-2.4,6.6-1.6,3.1-3.5,6-3.9,5.7.8.6,1.5-.3,2.2-1.2,0,0,1.3-3.3,3.2-6.2,1.1-3.4,1.7-4.3,2.6-3.8.2,1.5,1,2.1,1.7,1.1,1.4-.5,1.5-.4.2,1.5-2,2.9,1.2,3.6,4,1.2,1.2-2,3.3-3.6,4.2-3,.6-1,.9.5-.6,1-.3.5-1.2,1.4-2.1,2.4-.9,1-2,2.1-2.7,3.1-4.2,4.4-5.7,4.7-4.5,1.2.5-2.5-1.2-3.6-3.1-.8-1.4,1.9-.6,2.4.2,3,.8.6.8.6.2,3.1-.6,2.5-.6,2.5,1.6,1.2q2.2-1.3.8.6c-.7,1-2.1,2.9-4.5,4.1-1.6.3-3.8,3-4.6,4,0,1.6-4.7,2.2-4.7.6ZM362.9,332.2c-.7,1-1.5,2-2.3,1.4,0,0,0-1.6.7-2.6.7-1,1.5-.4,1.5-.4q.8.6,0,1.6ZM363.5,347.5c-1.8,2-2.6,2.9-1.9,3.6.9-1,.7.7-1.8,1.9-.8.6-1.6,1.1-2.3,1.5-.7.4-1.3.8-1.8,1.1-1,.7-1.7,1.2-2.1,1.6-.8.8-.5,1.2.7,1.4,1.6-.2,1.6-.2-.9.9-3.3.4-4.6-1.1-.3-4,2.8-2.7,2.9-4.4.4-3.2-.2.2-.2.2,0,0h0c.2-.2.5-.5,1-1,1-1.1,2.5-2.7,4.2-4.6,2.5-1.2,3.3-2.2,2.4.4-.9.9.8.7,3.3-4,1.7-2,3.3-4,4.1-3.4,0,0,.8-1,1.6-2.1l.8-1c1.6,1.2,1.6,2.9,0,3.3-.8-.6-1.6.5-2.4,1.4,0,1.6-1.7,3.7-5,6.1ZM366.8,355.8c.2-.3.5-.6.9-1,.5-.5.9-1,1.3-1.4.3-.4.6-.6.6-.6,1.5,1.3.6,2.3-2.8,3-.7.8-.9.9,0,0ZM374.7,359.1c-1,1.1-2.9,3.1-4.8,5.2-1.3.7-2,1-2.1.9,0,0,.4-.6,1.4-1.6.2-1.2.7-2.1,1.3-2.9-2,.2-2.4-.4-1.6-1.2.9-1,2.6-1.4,3.4-.7-.4-.3.7-1.8,1.9-3.3,1.2-1.5,2.8-2.9,3.6-3.2,1.7-.5-.2,3.5-3,6.7ZM377.5,323.7s0,0,0,0h0c0,0,0,0,0,0h0s0,0,0,0h0c0-.2.3-.5.6-1,.9-1.5,1.2-2,1.3-2.1h0c0,0,0,0,0,0l-1.9,3.1ZM381.3,344.5c-.8,1.1-1.7,2.2-1.7,2.2,0,0,0-1.7.9-2.8,1.7-2.2,1.7-2.2,2.5-1.6t-1.7,2.2ZM387.9,340.7c.8.6.8.6,0,1.8-.8,1.1-.8,1.1-1.7.6-.8-.6-.8-2.3-.8-2.3,0,0,1.6-.6,2.4,0ZM385.1,328.8c.8.5.9.5-.7,2.8q-.8,1.1-1.6.6v-1.7c.7-1.1,2.3-1.7,2.3-1.7ZM383.6,321.6s-.7,1.1-1.4,2.3c-1.5.6-2.4,0-1-2.2.7-1.1,1.5-.6,2.4,0ZM387.8,285.4c-.9,2.3-1.3,3.5-2.7,4.2-.2.4-.2.4,0,0h0c.3-.7,1-2.4,1.8-4.6l1.7-4.6-.8,5ZM394.7,270.7c-.3,1.2,0,0,.3-1.2l.3-1.2c-.3,1.2-.6,2.4-.6,2.4ZM398.9,266.6q-.3,1.2-1.3,1s-.7-1.5-.3-2.7l1,.2q1,.2.7,1.5Z"/>
  <path class="cls-1" d="M407.8,300.4c-2,2.2-3.5,3.1-1.1,2.6,0,0,.9.4,2.4-.5,0,0,0,0,0,0,0-.2.1-.3.2-.5.6-1.8,1-3.3,1.4-4.5-.8.8-1.8,1.7-3,2.9Z"/>
  <path class="cls-1" d="M88.3,389.1c-1.2-.8-2.9-1-2.9-1-1.3,1.6-3.5-.3-3.4-2.8,0,0-.3-.2-1.1-.7-.8-.5-2.1-1.2-4-2.3l-3.5-1.1c1.3,1.2,2.7,2.4,4.2,3.6,2,1.8,4.1,3.6,6.3,5.2.7.5,1.4,1.1,2.1,1.6.2,0,.3-.1.5-.2,2.4-.7,3-1.5,1.9-2.4Z"/>
  <path class="cls-1" d="M6.6,243.9s1-.1.9-1.5l-1.1-1.4c-1,0-.9,1.5-.9,1.5q.1,1.4,1.1,1.3Z"/>
  <path class="cls-1" d="M114.8,408.5c.3.3.5.6.7,1,.2-.4-.1-.8-.7-1Z"/>
  <path class="cls-1" d="M73.4,378.1c.3-.3.3-.8.3-1.4,0,.4-.1.7-.3.9,0,.2,0,.4,0,.5Z"/>
  <path class="cls-1" d="M161.2,15.2c.3,0,.6-.2.8-.2-.1,0-.4.1-.8.2Z"/>
  <path class="cls-1" d="M66,370.5c-.3.3-.8.2-1.6-.2-.8-.5-2-1.4-3.9-2.6-3.7-2.6-4.7-3.7-4.9-5.4-.9-1.1-1.9-2.3-4.5-3.9-.4-.2-1-.6-1.6-1.2,0,.1.2.2.3.3,0,0,.7.8,2,2.3,1.4,1.4,3.3,3.5,5.7,6.1,1.2,1.3,2.6,2.6,4.1,4.1,1.5,1.5,3,3,4.7,4.7.9.8,1.7,1.6,2.6,2.4-.2-.8-.7-2.1-1.5-3.7-.2-1.1-1-2.2-1.4-2.7Z"/>
  <path class="cls-1" d="M138.6,416c.1,0,.3,0,.5.1-.5-.2-.6-.3-.5-.1Z"/>
  <path class="cls-1" d="M160.4,15.4c-.4.1-.7.2-1.1.3,0,0,0,0,1.1-.3Z"/>
  <path class="cls-1" d="M389.5,260.2c-.6-.7-1.5,0-2,2.3.2-.9,1.2-2.5,2-2.3Z"/>
  <path class="cls-1" d="M318.9,47.3c-.3-.3-1.2-.8-2.3-1.4-2.4-1.3-4.8-2.6-4.8-2.6-.4,0-.8,0-1.2,0,.5.3,1,.5,1.6.8,1.6.8,4,1.9,6.7,3.2Z"/>
  <path class="cls-1" d="M82.9,382c1.4.5,2.1.8,1.7.2-.2-.3-.8-.8-1.6-1.5-.4-.4-1-.8-1.6-1.3-.6-.5-1.3-1.2-2.1-1.9-2.1-1.9-4-3.6-5.2-4.9-1.2-1.4-1.8-2.3-1.4-2.6,0,0-.3-1.7-1.3-2.7-1-1-1.7-.3-1.7-.3-.7.7,1.5,4.5,4,8.2,4.6,5.6,5.7,6.6,9.3,6.9Z"/>
  <path class="cls-1" d="M24.7,318.5h0s0,0,0,0Z"/>
  <path class="cls-1" d="M154,18.4c1.4-.4,1.1-1.4,1.1-1.4-.3-1-1.7-.5-3.1-.1q-1.4.4-1.1,1.4s.3,1,3.1.1Z"/>
  <path class="cls-1" d="M390.1,262.4c0,1.1-.2,2.6-.6,4.3.5-1.8.7-3.2.6-4.3,0,0,0-.1,0-.2h0Z"/>
  <path class="cls-1" d="M72.6,378.3c.1,0,.3,0,.4,0-.3-.3-.6-.9-.8-1.7-.7.7.4,1.7.4,1.7Z"/>
  <path class="cls-1" d="M72.6,374.2c0,0,.1.1.2.2,0,0-.1-.1-.2-.2Z"/>
  <path class="cls-1" d="M43,347.8c.9,1.2.8-.5-1.7-2.4-.2-.3-.4-.7-.7-1-.4.5.6,2.2,2,3.7,0-.2.2-.3.4-.3Z"/>
  <path class="cls-1" d="M100.5,391.8c3.5,2.4,4.7,3.2,4.1,1.5.6-.8-1.8-2.4-1.8-2.4-1.2-.8-3.5-2.3-4.6-3.2-1.1-.8-2.8-.9-2.8-.9-.3.4.1,1,1,1.9.9.9,2.3,1.9,4.1,3.1Z"/>
  <path class="cls-1" d="M226.1,9.5l1.5-.9c0-1-1.4-1.1-1.4-1.1-1.5,0-1.5,0-1.5,1,0,0,0,1,1.4,1Z"/>
  <path class="cls-1" d="M291.7,37.4c-1.4-.5-2.4-.9-3.1-.9,1.1.3,2.1.6,3.1.9Z"/>
  <path class="cls-1" d="M217.3,9.5c1.5,0,2.9,0,2.9-1,0,0-1.5,0-2.9,0h-1.5q0,1,1.5,1Z"/>
  <path class="cls-1" d="M411.1,294c0-.5,0-1,0-1.6,0-.1,0-.2,0-.3-.1.1-.2.3-.3.5-.3.7,0,1.1.2,1.4Z"/>
  <path class="cls-1" d="M86.6,346.9c0,0,.1.1.2.2.3.3.9.9,1.6,1.6-1-2.4-2.5-2.7-1.8-1.8Z"/>
  <path class="cls-1" d="M239,11.4c2.9.3,5.9-.4,5.9-.4,1.7-1.8-5.6-2.7-8.7-.9-1.5.4-2.3.9-1.9,1.1.3.3,1.8.3,4.7.2Z"/>
  <path class="cls-1" d="M232,7.9s-1.5,0-1.5.9v1c1.4,0,2.9-.8,2.9-.8,0-1-1.4-1.1-1.4-1.1Z"/>
  <path class="cls-1" d="M410.4,139.5s-.9.4-.4,1.7c.2.5.4,1,.5,1.3-.5-1.3-.2-3-.2-3Z"/>
  <path class="cls-1" d="M31.6,328.8c-.6-1.1-1.3-2.1-1.9-3.1-.9-.5-1.6-1.1-2.3-1.9,0,0,0,0,0,.1.9,1.8,2.4,4.3,4.2,7.4,1.8,3.2,3.6,5.9,4.9,7.9,1.3,2,2.1,3.2,2.1,3.2.2-.1-.4-1.5-1.4-3.4-.4-.8-.9-1.6-1.4-2.6-2.1-2.8-4.4-6.8-4.3-7.5Z"/>
  <path class="cls-1" d="M385.7,248.1c0,0,0,.1,0,.2.1-.7.3-1.5.3-2.2.3-2.6,0-5.4-.8-6.2-.2,3.3-.1,7.4.4,8.3Z"/>
  <path class="cls-1" d="M395.1,260.6l.7,1.4c1,.2,1.2-1,1.5-2.2l-1-.2-1.2,1Z"/>
  <path class="cls-1" d="M114.7,37.5s1.3-.7,2.6-1.4c0,0,.5-.6,1.5-1.4,1-.8,2.5-2,4.4-2.9l4.8-3.4-5.3,2.5c-7,2.5-11.1,7.1-8.1,6.5Z"/>
  <path class="cls-1" d="M80.6,86.1c-.9.9-1.9,1.8-2.8,2.8-.9,1-1.6.3-2.4-.4-1.5-1.4-3.1-1.1-3.3.6.8.7-.3,3.3-2.1,5.3-2.7,4.8-1.9,7-.2,3.3.8-1,1.6-1.9,2.3-2.5.7-.6,1.4-1.1,1.9-1.4,1.1-.6,1.7-.5,1.6.3l.8.7c.4-.4,1.4-.6,2.5-.6,2-2.5,6.6-8.5,8.5-11.3,0,0,0-.1.1-.2-1.3.8-2.6,1.6-3.7,2.2-1.5.8-2.6,1.3-3.2,1.1Z"/>
  <path class="cls-1" d="M48.8,109.2c-.5.7-.4.5,0,0h0Z"/>
  <path class="cls-1" d="M55.2,101.8c.8,2.3.8,2.3.8.6-.3-.2-.6-.4-.8-.6Z"/>
  <path class="cls-1" d="M45.2,116.8c-.3.3-.6.5-.9.7.3,0,.6-.3.9-.7Z"/>
  <path class="cls-1" d="M154,27.8c1.3-.4,1-1.4,1-1.4-.6.2-1.2.4-1.8.6-1,.3-1.5.5-1.8.6.4.1,1.2.1,2.6.1Z"/>
  <path class="cls-1" d="M80.1,83.7c.5-.5,1.7-2.1,3.3-4,1.7-1.9,3.8-4.1,5.8-5.9,5.7-4.8,8.5-7.7,8.6-8.2,0-.2-.7,0-2.1,1.1-1.4,1.1-3.4,2.8-6.1,5.4-9.1,8-11.8,11.2-10.4,12.5t.9-.9Z"/>
  <path class="cls-1" d="M27.4,277c.5,1.5.7,2.4.8,2.8.3,0,.1-1.4-.2-4.4-.2-1.2-.3-2.2-.5-3.2,0,.2-.1.4-.2.6,0,0-.3,2.9.1,4.2Z"/>
  <path class="cls-1" d="M56.2,333.4c.3.5.5.7.7.8-.4-.5-1.3-1.8-2.8-4,.2.4,1,1.4,2.2,3.2Z"/>
  <path class="cls-1" d="M24.4,195.5c.6-4,.8-5.3-.4-4.1-.2,1.3-.5,2.6-.8,5.3.7,2.8.7,2.8,1.2-1.2Z"/>
  <path class="cls-1" d="M47.4,319.3c0,0,0,.2.1.2.4.6.6,1,.8,1.3,0,0-.3-.5-.9-1.5Z"/>
  <path class="cls-1" d="M97.1,59.8s-.5.4-1.1.8c-2.2,1.7-.5,1.6,1.1-.8Z"/>
  <path class="cls-1" d="M344.5,331.1c0,.6.3,1.3.7,2.2,2.1,1.9,2.3,2,1.6-1.3-.8,1-1.8.7-2.4-.9Z"/>
  <path class="cls-1" d="M187.3,391.6c.2,0,.5-.2.8-.3,0,0-.1,0-.2-.1-.3.1-.5.3-.6.5Z"/>
  <path class="cls-1" d="M153.3,11.2c-.3-1,1.1-1.4,5.4-2.7-.8.2-1.7.5-2.5.7-1.8.5-3.4,1-5.1,1.6,1-.3,1.9-.3,2.1.4Z"/>
  <path class="cls-1" d="M2.4,208.4c0-.2,0-.4,0-.6,0,.2,0,.4,0,.6Z"/>
  <path class="cls-1" d="M24.7,318.5s0,0,0,0h0Z"/>
  <path class="cls-1" d="M56.7,127.9c-.3.5-.3.5,0,0h0Z"/>
  <path class="cls-1" d="M350.8,324.1c.5-.3.9-.4.9-.4-.2-.1-.5,0-.9.4Z"/>
  <path class="cls-1" d="M193.6,13c.3-.2.7-.2.7-.2-.1-1-1.4.2-1.3,1.2,0-.5.3-.8.6-1Z"/>
  <path class="cls-1" d="M153.3,11.2v.4c.8-.2.9-.7,0-.4Z"/>
  <path class="cls-1" d="M409,294.8s.3-.8.9-2.3c-.4,1.1-.7,1.9-1,2.3,0,0,0,0,.1,0Z"/>
  <path class="cls-1" d="M62.9,327.2c-.5-.7-1.2-1.8-1.5-2.7-.7.3-.3,1.2,1.5,2.7Z"/>
  <path class="cls-1" d="M105,61.4c3.3-2.2,6.2-5.3,6.2-5.3-.5-.8-2.8.7-6.2,2.9-2.3,1.5-5.5,4-4.9,4.8,0,0,1.7,0,4.9-2.4Z"/>
  <path class="cls-1" d="M25.9,172.4s0,0,0,0c0,0,0,0,0,0h0s0,0,0,0Z"/>
  <path class="cls-1" d="M31.6,248.6s0,0,0,0h0Z"/>
  <path class="cls-1" d="M23.4,189s0,0,0,0h0Z"/>
  <path class="cls-1" d="M37.8,276.7c0-.2.2-.3.2-.4-1.1.1-.8,1.7,0,4.6-.4-1.6-.6-3.2-.3-4.2Z"/>
  <path class="cls-1" d="M23.5,188.3c0-.6.2-1.2.2-1.5-.1.6-.2,1.1-.2,1.5Z"/>
  <path class="cls-1" d="M41.4,290.2c-.2,1.5.5,3.2,1.7,4.1-.4-.6-.7-1.4-1.2-2.7-.2-.5-.4-1-.5-1.5Z"/>
  <path class="cls-1" d="M131.1,41.5l.8-1.5c-.4-.9-1.7-.3-2.9.3l.4.9,1.7.3Z"/>
  <path class="cls-1" d="M2,237.1c-.5-2.9-.8-4.7-.8-4.7-.3,0-.4,1.7-.3,4.4,0,1.3.1,2.8.2,4.5,0,1.6.2,3.4.5,5.2.5,3.5.9,7.1,1.5,9.8.6,2.7,1.1,4.7,1.5,5,.3,1.4-.2-5.9-1-13.1-.6-4.3-1.1-8.3-1.6-11.1Z"/>
  <path class="cls-1" d="M26.5,170.3s0,.1,0,.2c0,0,0-.1,0-.2,0,0,0,0,0,0Z"/>
  <path class="cls-1" d="M118.1,51.8l.7-1.6c.7-1.6-1-1.7-1.7-.2l-.7,1.6c-.6,1.6,1,1.7,1.7.2Z"/>
  <path class="cls-1" d="M132,43.3c.4.9,1.7.3,4.1-.8,1.2-.6,3.7-1.6,4.1-.7,1.6.4,4.1-.6,3.7-1.5-.4-.9.5-2.4,1.8-2.9,1.2-.5,3.8-1.4,5.1-1.9.5-.7,0-.8-1.3-.5-1.3.3-3.6,1.1-6.7,2.5-6.3,2.6-9.1,4-10.3,4.7-1.2.7-.8.8-.5,1.2Z"/>
  <path class="cls-1" d="M57.1,334.3c.2,0,.3-.2.6-.4-.4-1.7-1.9-4.3-3.4-6.3.6,1.1,1.3,2.4,1.9,4.1.5,1.4.8,2.3.9,2.6Z"/>
  <path class="cls-1" d="M325,36.8c-1.3-.7.5-.9,0,0h0Z"/>
  <path class="cls-1" d="M63.7,328.2s0,0,0,0c-.2-.3-.4-.6-.7-1q.7,1.1.7,1.1Z"/>
  <path class="cls-1" d="M76.2,344.5c0,0,.1.1.2.2.3.3.9,1,1.5,1.7,0,0,.8-.7-.1-1.6-.8-.9-1.6-.3-1.6-.3Z"/>
  <path class="cls-1" d="M160.4,8.1h0s0,0,0,0h0c.1,0,.5-.1,2-.5.3,0,.6-.2.9-.2-.2,0-.3,0-.5,0-1.3.4-2.6.8-3.9,1.1,1.3-.3,2.3-.6,3.1-.8l-1.6.4Z"/>
  <path class="cls-1" d="M342.2,329.1c.5.4.8,1,.8,1.5,0-.5-.1-1-.8-1.5Z"/>
  <path class="cls-1" d="M393.6,311.9c.9.5,1.5-.8,2.1-2,0,0-.9-.5-1.8-.9-1.5.8-2.1,1.9-.3,2.9Z"/>
  <path class="cls-1" d="M17,298.4c-.8-1.8-1.5-3.9-2.2-6-.7-2.1-1.4-4.2-2.1-6.3-1.7-4-3-7.8-3.9-10.5-.8-2.8-1.2-4.5-1.2-4.5-.5.1-.4,1.6,0,4.1.5,2.5,1.5,6,2.7,10.2,3.7,11.8,6.8,19.2,8.8,23.5,2.1,4.3,2.9,5.5,3,4.6.9-.4-.3-3-2.1-7-.6-1.3-1.7-4.4-3.2-8Z"/>
  <path class="cls-1" d="M181.9,395c-.6-.1-1.5,0-2.9.2,1.3-.2,2.2-.3,2.9-.2Z"/>
  <path class="cls-1" d="M33.4,121.1c0,0,0-.2.1-.2,0,.1-.3.6-.8,1.5.2-.4.4-.7.6-1,0,0,0-.1,0-.1,0,0,0-.1.1-.2Z"/>
  <path class="cls-1" d="M166.7,389.6s0,0,0,.1c.6.2,1.4.7,2.3,1.4.9.7,1.9,1.5,3,2.2-1-.8-2.3-1.8-3.3-2.9-.2-.2-.3-.3-.4-.4-.5-.2-1.1-.5-1.7-.7,0,0,0,.2,0,.3Z"/>
  <path class="cls-1" d="M116.3,27.5c0,0-.2,0-.3.1h-.1c.1,0,.3,0,.4-.1Z"/>
  <path class="cls-1" d="M141.6,378.7c-1.1-.5-2.6-.1-2.6-.1,1.1.5,3.7.7,3.2,1.6,0,0,0,0,0,0,1.1-.1.9-.8-.6-1.5Z"/>
  <path class="cls-1" d="M331.8,52.9c-2.3-1.6-3.5-2.3-2.3-1.6.3.8.6,1.7.7,2.2.5.3,1.1.6,1.7.9.6.4,1.3.9,2,1.3,1.3-.6.9-.9-2.1-2.9Z"/>
  <path class="cls-1" d="M110.8,30.5s.9-.5,2.7-1.5l-1.4.7c-1.3.7,0,0,2.7-1.4.5-.3,1-.5,1.3-.7-.9,0-1-.3-.2-.9.8-.5,2.4-1.5,5.2-2.8,2.1-1,4.4-2.1,6.6-3.3,1.8-.9,3.5-1.8,4.7-2.7-9,3.9-16.2,7.9-21.8,11.2.3.1.5.5.3,1.2Z"/>
  <path class="cls-1" d="M390.4,322l-.2.4c.9.5,2.5-.1,3.1-1.4-1.3,1.1-2.5,1.2-2.9,1Z"/>
  <path class="cls-1" d="M136.2,17.4c.3-.3,1.3-.7,2.8-1.3,1-.4,2-.7,2.6-.6,0-.1.2-.3.2-.5.5-.7,1.9-1.5,3.7-2.1.9-.3,1.9-.6,3-.9.6-.1,1.2-.2,1.9-.3-.1-.4-.2-.6-.2-.6-2.2.8-4.3,1.5-6.3,2.2-2.8,1-5.4,2.1-8,3.1,0,.4.1.7.4.8Z"/>
  <path class="cls-1" d="M351.3,320.6c-.2-.2-.4-.3-.7-.4,0,.6.2.8.7.4Z"/>
  <path class="cls-1" d="M394.5,316.3c.5-.3.6,0,.7,1.1.3-1.8.4-2.4-.7-1.1Z"/>
  <path class="cls-1" d="M33.3,121.3c.2-.3.2-.4.2-.4,0,0,0,.1-.1.2,0,0,0,0,0,.2Z"/>
  <path class="cls-1" d="M23.4,315.9c-.2-.5-.2-.4,0,0h0Z"/>
  <path class="cls-1" d="M105.4,361.5s0,0,0,0h0Z"/>
  <path class="cls-1" d="M368.8,68.6c.7-.7-.3-1.8-1.4-2.8q-1.1-1-1.8-.3s-.7.7.4,1.7c1.1,1,2.8,1.3,2.8,1.3Z"/>
  <path class="cls-1" d="M70.5,72s0,0,0,0c-1.7,1.7-1.6,1.6,0,0Z"/>
</svg>