<svg width="133" height="133" viewBox="0 0 133 133" fill="none" xmlns="http://www.w3.org/2000/svg">
<path d="M3.05023 54.35C3.05023 53.1 3.13024 51.8 3.31024 50.45C4.25024 43.13 8.73022 36.44 15.2902 32.56C20.3402 29.58 27.2402 28.79 33.3002 30.51C38.3302 31.94 42.2702 34.97 44.4102 39.03C46.8802 43.74 47.2502 49.87 45.3602 55.03C43.8202 59.27 40.9402 62.43 37.2502 63.93C32.6602 65.81 26.8202 64.95 23.0502 61.86C20.4002 59.69 19.2702 56.81 19.8602 53.78C19.9402 53.37 20.3302 53.11 20.7402 53.19C21.1502 53.27 21.4102 53.67 21.3302 54.07C20.8502 56.54 21.8002 58.9 24.0002 60.7C27.3602 63.46 32.5802 64.22 36.6802 62.54C39.9702 61.2 42.5502 58.35 43.9402 54.51C45.6802 49.73 45.3503 44.06 43.0703 39.72C41.1203 36.02 37.5002 33.26 32.8802 31.94C27.2102 30.33 20.7602 31.05 16.0502 33.83C9.89023 37.48 5.68023 43.76 4.80023 50.62C2.96023 64.87 11.9702 73.52 21.0302 76.85C31.1702 80.58 45.7102 79.02 53.6602 66.79C58.2402 59.78 58.5302 51.02 58.8102 42.56C58.9602 38.2 59.1102 33.7 59.8502 29.53C63.2002 10.76 74.0902 -0.0100098 89.7402 -0.0100098C90.1502 -0.0100098 90.4902 0.32999 90.4902 0.73999C90.4902 1.14999 90.1502 1.48999 89.7402 1.48999C81.0102 1.48999 65.7103 5.16999 61.3203 29.79C60.6003 33.85 60.4502 38.3 60.3002 42.61C60.0102 51.28 59.7102 60.25 54.9102 67.61C46.5102 80.54 31.1802 82.19 20.5002 78.26C11.7502 75.04 3.04022 67.15 3.04022 54.33L3.05023 54.35Z" fill="white"/>
<path d="M52.5199 101.44C52.5199 92.7899 56.0599 83.5999 65.0499 77.7599C72.4099 72.9599 81.3799 72.6599 90.0499 72.3699C94.3499 72.2299 98.7999 72.0799 102.87 71.3499C127.49 66.9599 131.17 51.6599 131.17 42.9299C131.17 42.5199 131.51 42.1799 131.92 42.1799C132.33 42.1799 132.67 42.5199 132.67 42.9299C132.67 58.5799 121.9 69.4699 103.13 72.8199C98.9599 73.5599 94.4599 73.7099 90.0999 73.8599C81.6299 74.1399 72.8799 74.4399 65.8699 79.0099C53.6299 86.9699 52.0799 101.51 55.8099 111.65C59.1399 120.71 67.7799 129.73 82.0399 127.88C88.9099 127 95.1899 122.79 98.8299 116.63C101.61 111.92 102.34 105.47 100.72 99.7999C99.4099 95.1699 96.6399 91.5499 92.9399 89.6099C88.5999 87.3299 82.9299 86.9899 78.1499 88.7399C74.3199 90.1399 71.4699 92.7199 70.1199 95.9999C68.4399 100.11 69.1999 105.32 71.9599 108.69C73.7699 110.89 76.1199 111.84 78.5899 111.36C78.9999 111.28 79.3899 111.55 79.4699 111.95C79.5499 112.35 79.2799 112.75 78.8799 112.83C75.8399 113.42 72.9699 112.28 70.7999 109.63C67.6999 105.86 66.8599 100.01 68.7299 95.4299C70.2299 91.7499 73.3999 88.8699 77.6299 87.3199C82.7899 85.4399 88.9199 85.7999 93.6299 88.2699C97.6999 90.4099 100.73 94.3499 102.15 99.3799C103.87 105.43 103.09 112.33 100.1 117.39C96.2199 123.95 89.5299 128.43 82.2099 129.37C67.0799 131.33 57.9099 121.77 54.3799 112.17C53.1799 108.92 52.4999 105.23 52.4999 101.44H52.5199Z" fill="white"/>
<path d="M0.00994873 15.03V0.76001C0.00994873 0.35001 0.349949 0.0100098 0.759949 0.0100098L131.92 0.0100098C132.33 0.0100098 132.67 0.35001 132.67 0.76001L132.67 131.92C132.67 132.33 132.33 132.67 131.92 132.67H117.65C117.24 132.67 116.9 132.33 116.9 131.92C116.9 130.77 116.9 129.51 116.92 128.16C117.05 111.44 117.27 80.28 101.87 64.76C95.7899 58.64 87.7299 55.53 77.9099 55.53C77.4999 55.53 77.1599 55.19 77.1599 54.78C77.1599 44.81 74.0299 36.66 67.8599 30.55C52.4699 15.31 21.5999 15.6 5.0199 15.76C3.4699 15.77 2.04995 15.79 0.759949 15.79C0.349949 15.79 0.00994873 15.45 0.00994873 15.04V15.03ZM1.50995 1.51001V14.28C2.58995 14.28 3.75994 14.26 4.99994 14.25C21.7999 14.09 53.0799 13.79 68.9099 29.48C75.2199 35.73 78.4899 43.99 78.6499 54.03C88.5499 54.18 96.7099 57.44 102.93 63.7C118.78 79.66 118.55 111.21 118.42 128.17C118.42 129.23 118.4 130.24 118.4 131.17H131.17L131.17 1.51001L1.50995 1.51001Z" fill="white"/>
<path d="M91.8194 24.8301C91.8194 16.0001 99.0094 8.81006 107.839 8.81006C116.669 8.81006 123.859 16.0001 123.859 24.8301C123.859 33.6601 116.669 40.8501 107.839 40.8501C99.0094 40.8501 91.8194 33.6601 91.8194 24.8301ZM122.369 24.8301C122.369 16.8201 115.859 10.3101 107.849 10.3101C99.8394 10.3101 93.3293 16.8201 93.3293 24.8301C93.3293 32.8401 99.8394 39.3501 107.849 39.3501C115.859 39.3501 122.369 32.8401 122.369 24.8301Z" fill="white"/>
</svg>
