<svg width="133" height="133" viewBox="0 0 133 133" fill="none" xmlns="http://www.w3.org/2000/svg">
<path d="M129.62 78.3202C129.62 79.5702 129.54 80.8702 129.36 82.2202C128.42 89.5402 123.94 96.2302 117.38 100.11C112.33 103.09 105.43 103.88 99.3697 102.16C94.3397 100.73 90.3997 97.7002 88.2597 93.6402C85.7897 88.9302 85.4197 82.8002 87.3097 77.6402C88.8497 73.4002 91.7297 70.2402 95.4197 68.7402C100.01 66.8602 105.85 67.7202 109.62 70.8102C112.27 72.9802 113.4 75.8602 112.81 78.8902C112.73 79.3002 112.34 79.5602 111.93 79.4802C111.52 79.4002 111.26 79.0002 111.34 78.6002C111.82 76.1302 110.87 73.7702 108.67 71.9702C105.31 69.2102 100.09 68.4502 95.9897 70.1302C92.6997 71.4702 90.1197 74.3202 88.7297 78.1602C86.9897 82.9402 87.3197 88.6102 89.5997 92.9502C91.5497 96.6502 95.1697 99.4102 99.7897 100.73C105.46 102.34 111.91 101.62 116.62 98.8402C122.78 95.1902 126.99 88.9102 127.87 82.0502C129.71 67.8002 120.7 59.1502 111.64 55.8202C101.5 52.0902 86.9597 53.6502 79.0097 65.8802C74.4297 72.8902 74.1397 81.6502 73.8597 90.1102C73.7097 94.4702 73.5597 98.9702 72.8197 103.14C69.4697 121.91 58.5797 132.68 42.9297 132.68C42.5197 132.68 42.1797 132.34 42.1797 131.93C42.1797 131.52 42.5197 131.18 42.9297 131.18C51.6597 131.18 66.9597 127.5 71.3497 102.88C72.0697 98.8202 72.2197 94.3702 72.3697 90.0602C72.6597 81.3902 72.9597 72.4202 77.7597 65.0602C86.1597 52.1302 101.49 50.4802 112.17 54.4102C120.92 57.6302 129.63 65.5202 129.63 78.3402L129.62 78.3202Z" fill="white"/>
<path d="M80.15 31.2302C80.15 39.8802 76.61 49.0702 67.62 54.9102C60.26 59.7102 51.29 60.0102 42.62 60.3002C38.32 60.4402 33.87 60.5902 29.8 61.3202C5.17999 65.7102 1.5 81.0102 1.5 89.7402C1.5 90.1502 1.16 90.4902 0.75 90.4902C0.34 90.4902 2.97237e-08 90.1502 6.55671e-08 89.7402C1.43373e-06 74.0902 10.77 63.2002 29.54 59.8502C33.71 59.1102 38.21 58.9602 42.57 58.8102C51.04 58.5302 59.79 58.2302 66.8 53.6602C79.04 45.7002 80.59 31.1602 76.86 21.0202C73.53 11.9602 64.89 2.94024 50.63 4.79023C43.76 5.67023 37.48 9.88023 33.84 16.0402C31.06 20.7502 30.33 27.2002 31.95 32.8702C33.26 37.5002 36.03 41.1202 39.73 43.0602C44.07 45.3402 49.74 45.6802 54.52 43.9302C58.35 42.5302 61.2 39.9502 62.55 36.6702C64.23 32.5602 63.47 27.3502 60.71 23.9802C58.9 21.7802 56.55 20.8302 54.08 21.3102C53.67 21.3902 53.28 21.1202 53.2 20.7202C53.12 20.3202 53.39 19.9202 53.79 19.8402C56.83 19.2502 59.7 20.3902 61.87 23.0402C64.97 26.8102 65.81 32.6602 63.94 37.2402C62.44 40.9202 59.27 43.8002 55.04 45.3502C49.88 47.2302 43.75 46.8702 39.04 44.4002C34.97 42.2602 31.94 38.3202 30.52 33.2902C28.8 27.2402 29.58 20.3402 32.57 15.2802C36.45 8.72024 43.14 4.24024 50.46 3.30024C65.59 1.34025 74.76 10.9002 78.29 20.5002C79.49 23.7502 80.17 27.4402 80.17 31.2302L80.15 31.2302Z" fill="white"/>
<path d="M132.66 117.64L132.66 131.91C132.66 132.32 132.32 132.66 131.91 132.66L0.75 132.66C0.34 132.66 2.97237e-08 132.32 6.55671e-08 131.91L1.15319e-05 0.750153C1.15678e-05 0.340153 0.340012 0.000152618 0.750012 0.000152653L15.02 0.000153901C15.43 0.000153937 15.77 0.340154 15.77 0.750154C15.77 1.90015 15.77 3.16015 15.75 4.51015C15.62 21.2301 15.4 52.3902 30.8 67.9102C36.88 74.0302 44.94 77.1402 54.76 77.1402C55.17 77.1402 55.51 77.4802 55.51 77.8902C55.51 87.8602 58.64 96.0102 64.81 102.12C80.2 117.36 111.07 117.07 127.65 116.91C129.2 116.9 130.62 116.88 131.91 116.88C132.32 116.88 132.66 117.22 132.66 117.63L132.66 117.64ZM131.16 131.16L131.16 118.39C130.08 118.39 128.91 118.41 127.67 118.42C110.87 118.58 79.59 118.88 63.76 103.19C57.45 96.9402 54.18 88.6802 54.02 78.6402C44.12 78.4902 35.96 75.2302 29.74 68.9702C13.89 53.0102 14.12 21.4602 14.25 4.50015C14.25 3.44015 14.27 2.43015 14.27 1.50015L1.50001 1.50015L1.5 131.16L131.16 131.16Z" fill="white"/>
<path d="M40.8505 107.84C40.8505 116.67 33.6606 123.86 24.8306 123.86C16.0006 123.86 8.81055 116.67 8.81055 107.84C8.81055 99.0103 16.0006 91.8204 24.8306 91.8204C33.6606 91.8204 40.8505 99.0104 40.8505 107.84ZM10.3005 107.84C10.3005 115.85 16.8106 122.36 24.8206 122.36C32.8306 122.36 39.3406 115.85 39.3406 107.84C39.3406 99.8303 32.8306 93.3204 24.8206 93.3204C16.8106 93.3204 10.3005 99.8303 10.3005 107.84Z" fill="white"/>
</svg>
