<svg width="261" height="182" viewBox="0 0 261 182" fill="none" xmlns="http://www.w3.org/2000/svg">
<rect width="182" height="182" rx="91" transform="matrix(1 0 0 -1 0 182)" fill="#FAEEBB"/>
<path d="M134.112 105.91H261V107.122H134.112C130.146 107.122 126.919 111.103 126.919 115.996C126.919 120.889 130.146 124.87 134.112 124.87H164.341C167.077 124.87 169.302 127.616 169.302 130.991C169.302 134.367 167.077 137.113 164.341 137.113H74.1744C70.209 137.113 66.982 141.094 66.982 145.987C66.982 150.88 70.209 154.861 74.1744 154.861H220.246V156.073H74.1744C69.6669 156.073 66 151.548 66 145.987C66 140.425 69.6669 135.901 74.1744 135.901H164.341C166.534 135.901 168.32 133.698 168.32 130.991C168.32 128.285 166.534 126.082 164.341 126.082H134.112C129.604 126.082 125.937 121.557 125.937 115.996C125.937 110.434 129.604 105.91 134.112 105.91Z" fill="#ADA999"/>
</svg>
