<svg width="56" height="58" viewBox="0 0 56 58" fill="none" xmlns="http://www.w3.org/2000/svg">
<path d="M0.0293581 27.7211C0.0451806 24.9824 0.52892 22.3141 1.43758 19.7583C5.14909 9.25149 12.3144 2.65571 22.9539 0.557163C31.9592 -1.21781 40.0354 1.277 46.8798 7.62892C51.8232 12.2176 54.7029 18.0044 55.7359 24.7808C55.8511 25.5405 55.8828 26.3119 55.9822 27.0763C56.05 27.5616 55.937 27.7258 55.4126 27.7211C49.2464 27.7047 43.0846 27.7094 36.9207 27.7094C36.1114 27.7094 36.2154 27.6109 36.2064 28.4433C36.1996 28.9614 36.2154 29.4843 36.1996 30.0002C36.1905 30.2792 36.299 30.3894 36.5635 30.3613C36.6901 30.3519 36.8212 30.3613 36.95 30.3613C43.0982 30.3613 49.2464 30.3683 55.3832 30.3519C55.9257 30.3519 56.0252 30.523 55.9822 31.0248C55.4804 37.3908 53.3014 43.0534 49.2599 47.8953C44.8794 53.1475 39.3663 56.4489 32.7571 57.5627C24.2446 59.0047 16.5707 56.8827 9.92747 51.1639C5.12647 47.0301 2.06594 41.738 0.655481 35.4447C0.275741 33.7752 0.0474675 32.0823 0 30.3659C4.48003 30.3659 8.96231 30.3589 13.4423 30.3589C15.4043 30.3589 17.355 30.3495 19.3057 30.3706C19.699 30.3777 19.8256 30.2604 19.7985 29.8524C19.7691 29.2827 19.7781 28.7035 19.7985 28.122C19.8143 27.7961 19.708 27.7023 19.3893 27.7023C12.9337 27.7117 6.48044 27.714 0.0248606 27.7187L0.0293581 27.7211ZM51.0614 32.8092C50.8603 32.6685 50.6297 32.7365 50.4082 32.7365C45.3472 32.7365 40.2841 32.7271 35.2163 32.7365C34.1562 32.7365 33.1007 32.7646 32.036 32.7576C31.6925 32.7529 31.5772 32.8701 31.5907 33.2219C31.6178 33.6439 31.5975 34.0683 31.5975 34.4904C31.5975 34.9921 31.8333 35.243 32.305 35.243C38.4102 35.2454 44.5132 35.2454 50.6161 35.2454C49.8115 38.4131 48.4123 41.2761 46.4887 43.867C46.1474 44.3266 45.4535 44.7463 45.562 45.2621C45.666 45.7592 46.3215 46.1156 46.7035 46.5658C46.9499 46.8425 47.0832 46.7839 47.3115 46.5236C48.4349 45.1801 49.4272 43.7427 50.2861 42.2046C51.8616 39.3839 52.8855 36.3497 53.3896 33.1304C53.4167 32.9405 53.48 32.7177 53.1681 32.7318C52.4674 32.7599 51.7599 32.638 51.0592 32.8045L51.0614 32.8092ZM36.2041 49.0559C36.3601 48.9997 36.4324 48.9879 36.4957 48.9575C41.3351 46.6901 44.8658 43.0581 47.1578 38.1106C47.3544 37.6769 47.1962 37.6487 46.8368 37.6487C41.907 37.6534 36.9726 37.6628 32.036 37.6487C31.6879 37.6487 31.5568 37.7285 31.5568 38.1224C31.5772 40.235 31.5772 42.357 31.5568 44.472C31.5568 44.8096 31.6359 44.9597 31.9908 44.9362C32.4542 44.9081 32.9266 44.9081 33.3855 44.9362C33.7471 44.9597 33.8714 44.8424 33.8624 44.4579C33.8398 43.2105 33.8714 41.956 33.8488 40.711C33.833 40.2608 33.9709 40.1647 34.3823 40.167C37.2484 40.1834 40.1145 40.1764 42.9829 40.1764C43.0801 40.1764 43.2044 40.1248 43.3084 40.2842C41.9952 42.1835 40.4129 43.8107 38.4509 45.1496C38.4509 44.8049 38.4645 44.5704 38.4509 44.3453C38.4102 43.7545 38.7041 42.969 38.3266 42.6337C37.9333 42.3007 37.1806 42.5657 36.5861 42.5375C36.5703 42.5375 36.5522 42.5422 36.5341 42.5375C36.3058 42.5211 36.1951 42.6173 36.1951 42.8705C36.2018 44.9081 36.2018 46.948 36.2018 49.0489L36.2041 49.0559ZM12.7009 40.2256C12.7552 40.2092 12.8049 40.1811 12.8524 40.1811C15.827 40.1811 18.8062 40.1881 21.7808 40.174C22.0995 40.1717 22.1492 40.31 22.1424 40.5891C22.1357 41.4308 22.1289 42.2866 22.1515 43.1284C22.1605 43.7169 21.8893 44.5235 22.2667 44.8284C22.6126 45.1285 23.363 44.8964 23.9349 44.9386C24.3124 44.962 24.4005 44.8166 24.4005 44.4485C24.387 42.3687 24.3847 40.2936 24.4005 38.2162C24.4051 37.766 24.2875 37.6417 23.849 37.6487C18.9734 37.6651 14.0956 37.6651 9.22224 37.6487C8.70236 37.6394 8.67975 37.7777 8.87866 38.2162C10.5536 41.8388 12.9677 44.7932 16.1841 47.0512C17.3008 47.8437 18.4739 48.5354 19.7962 49.0794C19.7962 47.4615 19.8075 45.9069 19.7894 44.3547C19.7804 43.7662 20.0426 42.9901 19.6741 42.6384C19.3079 42.3054 18.5666 42.5891 17.997 42.5375C17.6104 42.5 17.5291 42.6876 17.5404 43.044C17.563 43.7193 17.5494 44.3969 17.5494 45.1144C16.0869 44.3383 13.3248 41.5246 12.7032 40.2233L12.7009 40.2256ZM42.5286 25.2802C45.9914 25.2802 49.4543 25.2802 52.9149 25.2872C53.2676 25.2872 53.4574 25.2732 53.3828 24.7972C52.5804 19.967 50.6772 15.6714 47.637 11.9128C47.2241 11.4048 46.7871 11.3899 46.326 11.8682C46.1271 12.0722 45.9508 12.295 45.7293 12.4732C45.4218 12.7311 45.4625 12.9281 45.7134 13.2211C47.9015 15.8097 49.4521 18.7641 50.4172 22.0444C50.5574 22.5337 50.3901 22.7783 49.9154 22.7783H34.8344C33.9483 22.7783 33.0486 22.7994 32.1558 22.769C31.706 22.7479 31.5048 22.851 31.5546 23.3598C31.5975 23.8007 31.5953 24.2532 31.5546 24.687C31.5094 25.1653 31.6698 25.3036 32.1377 25.2989C35.6029 25.2755 39.0657 25.2825 42.5263 25.2825L42.5286 25.2802ZM13.4785 32.7388C10.0337 32.7388 6.58892 32.7435 3.1464 32.7224C2.58809 32.7154 2.54063 32.9241 2.62201 33.3954C2.96106 35.1868 3.40181 36.9547 4.04149 38.657C5.13776 41.5504 6.69515 44.1578 8.65036 46.5095C8.88544 46.7933 9.05044 46.8308 9.30134 46.5377C9.59745 46.1695 9.93652 45.8296 10.2824 45.5177C10.5491 45.2692 10.5106 45.1214 10.2914 44.8635C8.06945 42.214 6.48269 39.1963 5.49491 35.8339C5.35703 35.3321 5.44065 35.2407 5.93793 35.243C11.8216 35.2571 17.7099 35.2477 23.5891 35.2477C23.7383 35.2477 23.8874 35.243 24.0366 35.2501C24.3011 35.2805 24.396 35.1633 24.3915 34.889C24.3779 34.3684 24.3553 33.8432 24.3937 33.325C24.4322 32.842 24.2649 32.7201 23.7993 32.7248C20.359 32.7412 16.9165 32.7388 13.4717 32.7388H13.4785ZM13.4853 25.2802H16.5548C18.9938 25.2802 21.435 25.2708 23.8739 25.2966C24.2898 25.3013 24.4322 25.1794 24.4005 24.7432C24.3644 24.2485 24.3689 23.742 24.4005 23.2426C24.4231 22.844 24.2649 22.7643 23.9123 22.769C23.2477 22.7924 22.5764 22.7737 21.9051 22.7737H5.99218C5.3525 22.7737 5.34348 22.769 5.53787 22.1242C5.91083 20.8721 6.35611 19.6528 6.90763 18.4734C7.805 16.5788 8.89676 14.825 10.253 13.2446C10.5378 12.9116 10.5378 12.7006 10.2077 12.4146C9.90486 12.1637 9.62685 11.8682 9.37822 11.5564C9.10471 11.2328 8.93742 11.1976 8.62097 11.5681C5.42935 15.3854 3.44929 19.7864 2.61069 24.7456C2.53384 25.2192 2.69434 25.2943 3.1012 25.2849C6.55955 25.2732 10.0247 25.2778 13.4853 25.2778V25.2802ZM43.4011 17.8919C40.2479 17.8919 37.2145 17.8895 34.1901 17.8942C33.8488 17.8966 33.8533 17.6973 33.8533 17.4511C33.8533 16.6093 33.8669 15.7582 33.8533 14.9164C33.8398 14.3349 34.0862 13.5963 33.7584 13.2376C33.4035 12.8413 32.6644 13.1649 32.0948 13.0969C31.6156 13.0336 31.5523 13.2821 31.5546 13.6948C31.5727 15.7136 31.5817 17.7395 31.5546 19.7607C31.5455 20.2507 31.6857 20.3609 32.1445 20.3609C37.0043 20.3468 41.8595 20.3492 46.7193 20.3492C47.3318 20.3492 47.3318 20.3445 47.0787 19.7864C45.0828 15.4534 42.0291 12.1332 37.9604 9.8283C37.4134 9.5141 36.8664 9.18818 36.2018 8.98888C36.2018 11.0898 36.2018 13.1297 36.1951 15.1696C36.1951 15.4346 36.3103 15.4909 36.5409 15.4909C37.0427 15.4745 37.5445 15.4674 38.0373 15.4909C38.3582 15.5049 38.4622 15.4041 38.4577 15.0712C38.4373 14.3724 38.4487 13.676 38.4487 12.8624C40.4265 14.2575 42.02 15.8613 43.3988 17.8919H43.4011ZM17.5471 12.8601C17.5471 13.7018 17.5539 14.3935 17.5381 15.0852C17.5336 15.3736 17.6104 15.5002 17.9133 15.4932C18.4129 15.4698 18.9169 15.4698 19.4187 15.4932C19.7171 15.5026 19.8007 15.3994 19.8007 15.0993C19.7894 13.1954 19.7894 11.2891 19.8007 9.38748C19.8007 8.99357 19.6945 8.97715 19.3871 9.12253C14.6177 11.3922 11.1255 14.9961 8.85154 19.8779C8.67975 20.2624 8.7453 20.3633 9.1612 20.3609C10.3275 20.3422 11.5007 20.3515 12.6783 20.3515C16.3989 20.3515 20.1194 20.3515 23.8354 20.3468C24.0999 20.3468 24.4028 20.4617 24.4028 19.9646C24.387 17.8075 24.3915 15.662 24.4005 13.5025C24.4005 13.2071 24.3147 13.0828 24.014 13.0969C23.5326 13.1133 23.0556 13.125 22.5651 13.0969C22.2035 13.0711 22.1357 13.2211 22.1379 13.5635C22.1515 14.8085 22.1289 16.0677 22.1515 17.3151C22.1515 17.7395 22.0792 17.9106 21.6135 17.906C18.7881 17.8825 15.9513 17.8919 13.1327 17.8919H12.5879C13.9554 15.859 15.5467 14.2528 17.5471 12.8601ZM31.697 27.9063C30.9737 27.9063 30.2436 27.8829 29.518 27.9204C29.1337 27.9344 29.0456 27.7891 29.0523 27.4139C29.0704 26.129 29.0524 24.8347 29.0637 23.5474C29.0682 23.2379 28.9755 23.116 28.6568 23.1324C28.2183 23.1605 27.7707 23.1605 27.3322 23.1324C26.9819 23.1066 26.9254 23.2637 26.9254 23.5826C26.9367 24.8558 26.9118 26.129 26.9366 27.3975C26.9457 27.8031 26.844 27.9251 26.4394 27.9204C25.0221 27.8922 23.6026 27.9204 22.1831 27.9016C21.8712 27.9016 21.7695 27.9954 21.7785 28.3166C21.8057 28.7856 21.8057 29.2616 21.7785 29.7376C21.7604 30.0846 21.8848 30.169 22.208 30.1643C23.6275 30.1479 25.0493 30.169 26.4642 30.1479C26.8508 30.1455 26.9434 30.2651 26.9344 30.6473C26.9163 31.9088 26.9434 33.1562 26.9231 34.4153C26.9095 34.8092 27.0316 34.9241 27.3955 34.8983C27.8001 34.8632 28.2183 34.8632 28.6251 34.8983C29.0071 34.9288 29.0682 34.7624 29.0659 34.4153C29.0456 33.1562 29.0682 31.9064 29.0501 30.652C29.0433 30.2722 29.1292 30.1432 29.5157 30.1455C30.9556 30.1666 32.3886 30.1526 33.8285 30.162C34.102 30.162 34.2286 30.108 34.2127 29.7891C34.1879 29.285 34.1879 28.7762 34.2127 28.2697C34.2286 27.9509 34.0997 27.8993 33.8285 27.904C33.1142 27.918 32.4045 27.904 31.6924 27.904L31.697 27.9063ZM26.7332 11.7275V20.3773C26.7332 21.1816 26.6473 21.0972 27.4678 21.0995C27.8363 21.1042 28.2183 21.0667 28.5845 21.1089C29.1179 21.1722 29.2671 20.9729 29.2671 20.4101C29.2467 14.6468 29.2558 8.87398 29.2558 3.1059C29.2558 3.01446 29.2467 2.91598 29.2558 2.81984C29.2716 2.55723 29.1744 2.43999 28.9054 2.44468C28.3607 2.45641 27.825 2.45875 27.2848 2.43296C26.853 2.40482 26.7219 2.55254 26.7265 3.0168C26.7445 5.91726 26.7309 8.81537 26.7309 11.7252L26.7332 11.7275ZM26.7332 46.2C26.7332 49.1497 26.7468 52.0924 26.7287 55.035C26.7287 55.4196 26.7988 55.6001 27.2147 55.5626C27.73 55.5298 28.2544 55.5345 28.7721 55.5626C29.1834 55.5954 29.2603 55.4172 29.2603 55.035C29.2354 53.0725 29.2535 51.1123 29.2535 49.1497C29.2535 45.3395 29.2535 41.5293 29.249 37.7191C29.249 36.8398 29.3326 36.9711 28.4963 36.9664C28.1414 36.9617 27.782 36.9992 27.4317 36.9547C26.8915 36.889 26.7061 37.0461 26.7174 37.6558C26.7558 40.507 26.7287 43.3559 26.7287 46.2H26.7332ZM31.5613 51.2999C31.5613 52.491 31.5749 53.6821 31.5568 54.8756C31.5568 55.2344 31.6359 55.3281 32.0044 55.2625C36.9433 54.4395 41.2651 52.2917 45.0263 48.9035C45.3269 48.6362 45.293 48.4815 45.0263 48.24C44.7121 47.9375 44.3956 47.6303 44.1244 47.295C43.8577 46.9668 43.6814 46.9926 43.3695 47.2692C40.7768 49.5999 37.8384 51.267 34.5428 52.2682C33.8556 52.4769 33.8556 52.4746 33.8556 51.7641C33.8556 50.4956 33.8307 49.2224 33.8669 47.9633C33.8827 47.431 33.7087 47.288 33.243 47.3419C32.8678 47.3771 32.4903 47.3748 32.1287 47.3419C31.697 47.2997 31.5365 47.4381 31.5546 47.9023C31.584 49.0419 31.5613 50.1744 31.5613 51.3069V51.2999ZM31.5613 6.73792C31.5613 7.87512 31.584 9.00764 31.5546 10.1495C31.5523 10.5552 31.6405 10.7521 32.079 10.717C32.5084 10.6771 32.9356 10.6771 33.3651 10.717C33.7584 10.7451 33.8714 10.5997 33.8646 10.1988C33.842 8.86695 33.8737 7.53513 33.8511 6.2127C33.8353 5.70623 33.9709 5.56789 34.4388 5.73906C35.1033 5.98057 35.7837 6.17518 36.4437 6.44717C38.9685 7.44838 41.2583 8.86226 43.2858 10.7076C43.6362 11.0265 43.8667 11.078 44.1764 10.6748C44.4137 10.3606 44.7053 10.0722 44.9992 9.81423C45.3088 9.54458 45.284 9.36873 44.9811 9.10612C43.7695 8.01815 42.4834 7.04039 41.1068 6.19159C38.3469 4.48462 35.37 3.37789 32.2123 2.81281C31.5749 2.69088 31.5613 2.71199 31.5613 3.39431V6.74026V6.73792ZM22.1402 5.57258C22.1402 6.73089 22.1266 7.84464 22.1492 8.95605C22.1492 9.51879 21.9029 10.2597 22.2645 10.6138C22.5923 10.9374 23.2975 10.6607 23.8264 10.717C24.3192 10.7662 24.4051 10.5552 24.3983 10.0933C24.3825 7.85402 24.3915 5.61478 24.3915 3.37555C24.3915 2.69557 24.3847 2.69557 23.736 2.81046C19.1949 3.63347 15.1376 5.55851 11.5821 8.59027C10.9401 9.13738 10.9062 9.70793 11.4803 10.3019C11.6295 10.4543 11.7855 10.5903 11.9143 10.7521C12.1336 11.0382 12.3076 11.0499 12.5811 10.792C13.5033 9.94553 14.4889 9.19522 15.5264 8.51758C17.5652 7.1928 19.7555 6.21738 22.1402 5.56554V5.57258ZM24.3915 51.4007C24.3915 50.648 24.4028 49.8977 24.3847 49.1497C24.3666 48.5588 24.6379 47.7851 24.2627 47.4381C23.9033 47.1028 23.1664 47.3818 22.5923 47.3349C22.2103 47.3021 22.1266 47.4639 22.1334 47.832C22.1492 49.1732 22.1131 50.5214 22.1492 51.8626C22.1673 52.3808 22.0543 52.4605 21.5774 52.3151C18.2275 51.2999 15.2212 49.6351 12.5992 47.2481C12.3054 46.9761 12.1313 46.9785 11.8872 47.2763C11.616 47.5952 11.3266 47.8976 11.017 48.1696C10.6824 48.4651 10.6756 48.655 11.026 48.9645C14.7737 52.3034 19.0706 54.4418 23.9688 55.2601C24.3621 55.3281 24.3983 55.1968 24.396 54.8615C24.3847 53.7056 24.3915 52.552 24.3915 51.4007Z" fill="#AD9F95" fill-opacity="0.7"/>
</svg>
