<svg width="93" height="128" viewBox="0 0 93 128" fill="none" xmlns="http://www.w3.org/2000/svg">
<path d="M0 0V92.8905L46.4302 127.295L93 92.8905V0H0Z" fill="white"/>
<path d="M18.0294 54.7211C18.0452 51.9824 18.5289 49.3141 19.4376 46.7583C23.1491 36.2515 30.3144 29.6557 40.9539 27.5572C49.9592 25.7822 58.0354 28.277 64.8798 34.6289C69.8232 39.2176 72.7029 45.0044 73.7359 51.7808C73.8511 52.5405 73.8828 53.3119 73.9822 54.0763C74.05 54.5616 73.937 54.7258 73.4126 54.7211C67.2464 54.7047 61.0846 54.7094 54.9207 54.7094C54.1114 54.7094 54.2154 54.6109 54.2064 55.4433C54.1996 55.9614 54.2154 56.4843 54.1996 57.0002C54.1905 57.2792 54.299 57.3894 54.5635 57.3613C54.6901 57.3519 54.8212 57.3613 54.95 57.3613C61.0982 57.3613 67.2464 57.3683 73.3832 57.3519C73.9257 57.3519 74.0252 57.523 73.9822 58.0248C73.4804 64.3908 71.3014 70.0534 67.2599 74.8953C62.8794 80.1475 57.3663 83.4489 50.7571 84.5627C42.2446 86.0047 34.5707 83.8827 27.9275 78.1639C23.1265 74.0301 20.0659 68.738 18.6555 62.4447C18.2757 60.7752 18.0475 59.0823 18 57.3659C22.48 57.3659 26.9623 57.3589 31.4423 57.3589C33.4043 57.3589 35.355 57.3495 37.3057 57.3706C37.699 57.3777 37.8256 57.2604 37.7985 56.8524C37.7691 56.2827 37.7781 55.7035 37.7985 55.122C37.8143 54.7961 37.708 54.7023 37.3893 54.7023C30.9337 54.7117 24.4804 54.714 18.0249 54.7187L18.0294 54.7211ZM69.0614 59.8092C68.8603 59.6685 68.6297 59.7365 68.4082 59.7365C63.3472 59.7365 58.2841 59.7271 53.2163 59.7365C52.1562 59.7365 51.1007 59.7646 50.036 59.7576C49.6925 59.7529 49.5772 59.8701 49.5907 60.2219C49.6178 60.6439 49.5975 61.0683 49.5975 61.4904C49.5975 61.9921 49.8333 62.243 50.305 62.243C56.4102 62.2454 62.5132 62.2454 68.6161 62.2454C67.8115 65.4131 66.4123 68.2761 64.4887 70.867C64.1474 71.3266 63.4535 71.7463 63.562 72.2621C63.666 72.7592 64.3215 73.1156 64.7035 73.5658C64.9499 73.8425 65.0832 73.7839 65.3115 73.5236C66.4349 72.1801 67.4272 70.7427 68.2861 69.2046C69.8616 66.3839 70.8855 63.3497 71.3896 60.1304C71.4167 59.9405 71.48 59.7177 71.1681 59.7318C70.4674 59.7599 69.7599 59.638 69.0592 59.8045L69.0614 59.8092ZM54.2041 76.0559C54.3601 75.9997 54.4324 75.9879 54.4957 75.9575C59.3351 73.6901 62.8658 70.0581 65.1578 65.1106C65.3544 64.6769 65.1962 64.6487 64.8368 64.6487C59.907 64.6534 54.9726 64.6628 50.036 64.6487C49.6879 64.6487 49.5568 64.7285 49.5568 65.1224C49.5772 67.235 49.5772 69.357 49.5568 71.472C49.5568 71.8096 49.6359 71.9597 49.9908 71.9362C50.4542 71.9081 50.9266 71.9081 51.3855 71.9362C51.7471 71.9597 51.8714 71.8424 51.8624 71.4579C51.8398 70.2105 51.8714 68.956 51.8488 67.711C51.833 67.2608 51.9709 67.1647 52.3823 67.167C55.2484 67.1834 58.1145 67.1764 60.9829 67.1764C61.0801 67.1764 61.2044 67.1248 61.3084 67.2842C59.9952 69.1835 58.4129 70.8107 56.4509 72.1496C56.4509 71.8049 56.4645 71.5704 56.4509 71.3453C56.4102 70.7545 56.7041 69.969 56.3266 69.6337C55.9333 69.3007 55.1806 69.5657 54.5861 69.5375C54.5703 69.5375 54.5522 69.5422 54.5341 69.5375C54.3058 69.5211 54.1951 69.6173 54.1951 69.8705C54.2018 71.9081 54.2018 73.948 54.2018 76.0489L54.2041 76.0559ZM30.7009 67.2256C30.7552 67.2092 30.8049 67.1811 30.8524 67.1811C33.827 67.1811 36.8062 67.1881 39.7808 67.174C40.0995 67.1717 40.1492 67.31 40.1424 67.5891C40.1357 68.4308 40.1289 69.2866 40.1515 70.1284C40.1605 70.7169 39.8893 71.5235 40.2667 71.8284C40.6126 72.1285 41.363 71.8964 41.9349 71.9386C42.3124 71.962 42.4005 71.8166 42.4005 71.4485C42.387 69.3687 42.3847 67.2936 42.4005 65.2162C42.4051 64.766 42.2875 64.6417 41.849 64.6487C36.9734 64.6651 32.0956 64.6651 27.2222 64.6487C26.7024 64.6394 26.6797 64.7777 26.8787 65.2162C28.5536 68.8388 30.9677 71.7932 34.1841 74.0512C35.3008 74.8437 36.4739 75.5354 37.7962 76.0794C37.7962 74.4615 37.8075 72.9069 37.7894 71.3547C37.7804 70.7662 38.0426 69.9901 37.6741 69.6384C37.3079 69.3054 36.5666 69.5891 35.997 69.5375C35.6104 69.5 35.5291 69.6876 35.5404 70.044C35.563 70.7193 35.5494 71.3969 35.5494 72.1144C34.0869 71.3383 31.3248 68.5246 30.7032 67.2233L30.7009 67.2256ZM60.5286 52.2802C63.9914 52.2802 67.4543 52.2802 70.9149 52.2872C71.2676 52.2872 71.4574 52.2732 71.3828 51.7972C70.5804 46.967 68.6772 42.6714 65.637 38.9128C65.2241 38.4048 64.7871 38.3899 64.326 38.8682C64.1271 39.0722 63.9508 39.295 63.7293 39.4732C63.4218 39.7311 63.4625 39.9281 63.7134 40.2211C65.9015 42.8097 67.4521 45.7641 68.4172 49.0444C68.5574 49.5337 68.3901 49.7783 67.9154 49.7783H52.8344C51.9483 49.7783 51.0486 49.7994 50.1558 49.769C49.706 49.7479 49.5048 49.851 49.5546 50.3598C49.5975 50.8007 49.5953 51.2532 49.5546 51.687C49.5094 52.1653 49.6698 52.3036 50.1377 52.2989C53.6029 52.2755 57.0657 52.2825 60.5263 52.2825L60.5286 52.2802ZM31.4785 59.7388C28.0337 59.7388 24.5889 59.7435 21.1464 59.7224C20.5881 59.7154 20.5406 59.9241 20.622 60.3954C20.9611 62.1868 21.4018 63.9547 22.0415 65.657C23.1378 68.5504 24.6952 71.1578 26.6504 73.5095C26.8854 73.7933 27.0504 73.8308 27.3013 73.5377C27.5975 73.1695 27.9365 72.8296 28.2824 72.5177C28.5491 72.2692 28.5106 72.1214 28.2914 71.8635C26.0695 69.214 24.4827 66.1963 23.4949 62.8339C23.357 62.3321 23.4407 62.2407 23.9379 62.243C29.8216 62.2571 35.7099 62.2477 41.5891 62.2477C41.7383 62.2477 41.8874 62.243 42.0366 62.2501C42.3011 62.2805 42.396 62.1633 42.3915 61.889C42.3779 61.3684 42.3553 60.8432 42.3937 60.325C42.4322 59.842 42.2649 59.7201 41.7993 59.7248C38.359 59.7412 34.9165 59.7388 31.4717 59.7388H31.4785ZM31.4853 52.2802H34.5548C36.9938 52.2802 39.435 52.2708 41.8739 52.2966C42.2898 52.3013 42.4322 52.1794 42.4005 51.7432C42.3644 51.2485 42.3689 50.742 42.4005 50.2426C42.4231 49.844 42.2649 49.7643 41.9123 49.769C41.2477 49.7924 40.5764 49.7737 39.9051 49.7737H23.9922C23.3525 49.7737 23.3435 49.769 23.5379 49.1242C23.9108 47.8721 24.3561 46.6528 24.9076 45.4734C25.805 43.5788 26.8968 41.825 28.253 40.2446C28.5378 39.9116 28.5378 39.7006 28.2077 39.4146C27.9049 39.1637 27.6269 38.8682 27.3782 38.5564C27.1047 38.2328 26.9374 38.1976 26.621 38.5681C23.4294 42.3854 21.4493 46.7864 20.6107 51.7456C20.5338 52.2192 20.6943 52.2943 21.1012 52.2849C24.5595 52.2732 28.0247 52.2778 31.4853 52.2778V52.2802ZM61.4011 44.8919C58.2479 44.8919 55.2145 44.8895 52.1901 44.8942C51.8488 44.8966 51.8533 44.6973 51.8533 44.4511C51.8533 43.6093 51.8669 42.7582 51.8533 41.9164C51.8398 41.3349 52.0862 40.5963 51.7584 40.2376C51.4035 39.8413 50.6644 40.1649 50.0948 40.0969C49.6156 40.0336 49.5523 40.2821 49.5546 40.6948C49.5727 42.7136 49.5817 44.7395 49.5546 46.7607C49.5455 47.2507 49.6857 47.3609 50.1445 47.3609C55.0043 47.3468 59.8595 47.3492 64.7193 47.3492C65.3318 47.3492 65.3318 47.3445 65.0787 46.7864C63.0828 42.4534 60.0291 39.1332 55.9604 36.8283C55.4134 36.5141 54.8664 36.1882 54.2018 35.9889C54.2018 38.0898 54.2018 40.1297 54.1951 42.1696C54.1951 42.4346 54.3103 42.4909 54.5409 42.4909C55.0427 42.4745 55.5445 42.4674 56.0373 42.4909C56.3582 42.5049 56.4622 42.4041 56.4577 42.0712C56.4373 41.3724 56.4487 40.676 56.4487 39.8624C58.4265 41.2575 60.02 42.8613 61.3988 44.8919H61.4011ZM35.5471 39.8601C35.5471 40.7018 35.5539 41.3935 35.5381 42.0852C35.5336 42.3736 35.6104 42.5002 35.9133 42.4932C36.4129 42.4698 36.9169 42.4698 37.4187 42.4932C37.7171 42.5026 37.8007 42.3994 37.8007 42.0993C37.7894 40.1954 37.7894 38.2891 37.8007 36.3875C37.8007 35.9936 37.6945 35.9772 37.3871 36.1225C32.6177 38.3922 29.1255 41.9961 26.8515 46.8779C26.6797 47.2624 26.7453 47.3633 27.1612 47.3609C28.3275 47.3422 29.5007 47.3515 30.6783 47.3515C34.3989 47.3515 38.1194 47.3515 41.8354 47.3468C42.0999 47.3468 42.4028 47.4617 42.4028 46.9646C42.387 44.8075 42.3915 42.662 42.4005 40.5025C42.4005 40.2071 42.3147 40.0828 42.014 40.0969C41.5326 40.1133 41.0556 40.125 40.5651 40.0969C40.2035 40.0711 40.1357 40.2211 40.1379 40.5635C40.1515 41.8085 40.1289 43.0677 40.1515 44.3151C40.1515 44.7395 40.0792 44.9106 39.6135 44.906C36.7881 44.8825 33.9513 44.8919 31.1327 44.8919H30.5879C31.9554 42.859 33.5467 41.2528 35.5471 39.8601ZM49.697 54.9063C48.9737 54.9063 48.2436 54.8829 47.518 54.9204C47.1337 54.9344 47.0456 54.7891 47.0523 54.4139C47.0704 53.129 47.0524 51.8347 47.0637 50.5474C47.0682 50.2379 46.9755 50.116 46.6568 50.1324C46.2183 50.1605 45.7707 50.1605 45.3322 50.1324C44.9819 50.1066 44.9254 50.2637 44.9254 50.5826C44.9367 51.8558 44.9118 53.129 44.9366 54.3975C44.9457 54.8031 44.844 54.9251 44.4394 54.9204C43.0221 54.8922 41.6026 54.9204 40.1831 54.9016C39.8712 54.9016 39.7695 54.9954 39.7785 55.3166C39.8057 55.7856 39.8057 56.2616 39.7785 56.7376C39.7604 57.0846 39.8848 57.169 40.208 57.1643C41.6275 57.1479 43.0493 57.169 44.4642 57.1479C44.8508 57.1455 44.9434 57.2651 44.9344 57.6473C44.9163 58.9088 44.9434 60.1562 44.9231 61.4153C44.9095 61.8092 45.0316 61.9241 45.3955 61.8983C45.8001 61.8632 46.2183 61.8632 46.6251 61.8983C47.0071 61.9288 47.0682 61.7624 47.0659 61.4153C47.0456 60.1562 47.0682 58.9064 47.0501 57.652C47.0433 57.2722 47.1292 57.1432 47.5157 57.1455C48.9556 57.1666 50.3886 57.1526 51.8285 57.162C52.102 57.162 52.2286 57.108 52.2127 56.7891C52.1879 56.285 52.1879 55.7762 52.2127 55.2697C52.2286 54.9509 52.0997 54.8993 51.8285 54.904C51.1142 54.918 50.4045 54.904 49.6924 54.904L49.697 54.9063ZM44.7332 38.7275V47.3773C44.7332 48.1816 44.6473 48.0972 45.4678 48.0995C45.8363 48.1042 46.2183 48.0667 46.5845 48.1089C47.1179 48.1722 47.2671 47.9729 47.2671 47.4101C47.2467 41.6468 47.2558 35.874 47.2558 30.1059C47.2558 30.0145 47.2467 29.916 47.2558 29.8198C47.2716 29.5572 47.1744 29.44 46.9054 29.4447C46.3607 29.4564 45.825 29.4588 45.2848 29.433C44.853 29.4048 44.7219 29.5525 44.7265 30.0168C44.7445 32.9173 44.7309 35.8154 44.7309 38.7252L44.7332 38.7275ZM44.7332 73.2C44.7332 76.1497 44.7468 79.0924 44.7287 82.035C44.7287 82.4196 44.7988 82.6001 45.2147 82.5626C45.73 82.5298 46.2544 82.5345 46.7721 82.5626C47.1834 82.5954 47.2603 82.4172 47.2603 82.035C47.2354 80.0725 47.2535 78.1123 47.2535 76.1497C47.2535 72.3395 47.2535 68.5293 47.249 64.7191C47.249 63.8398 47.3326 63.9711 46.4963 63.9664C46.1414 63.9617 45.782 63.9992 45.4317 63.9547C44.8915 63.889 44.7061 64.0461 44.7174 64.6558C44.7558 67.507 44.7287 70.3559 44.7287 73.2H44.7332ZM49.5613 78.2999C49.5613 79.491 49.5749 80.6821 49.5568 81.8756C49.5568 82.2344 49.6359 82.3281 50.0044 82.2625C54.9433 81.4395 59.2651 79.2917 63.0263 75.9035C63.3269 75.6362 63.293 75.4815 63.0263 75.24C62.7121 74.9375 62.3956 74.6303 62.1244 74.295C61.8577 73.9668 61.6814 73.9926 61.3695 74.2692C58.7768 76.5999 55.8384 78.267 52.5428 79.2682C51.8556 79.4769 51.8556 79.4746 51.8556 78.7641C51.8556 77.4956 51.8307 76.2224 51.8669 74.9633C51.8827 74.431 51.7087 74.288 51.243 74.3419C50.8678 74.3771 50.4903 74.3748 50.1287 74.3419C49.697 74.2997 49.5365 74.4381 49.5546 74.9023C49.584 76.0419 49.5613 77.1744 49.5613 78.3069V78.2999ZM49.5613 33.7379C49.5613 34.8751 49.584 36.0076 49.5546 37.1495C49.5523 37.5552 49.6405 37.7521 50.079 37.717C50.5084 37.6771 50.9356 37.6771 51.3651 37.717C51.7584 37.7451 51.8714 37.5997 51.8646 37.1988C51.842 35.867 51.8737 34.5351 51.8511 33.2127C51.8353 32.7062 51.9709 32.5679 52.4388 32.7391C53.1033 32.9806 53.7837 33.1752 54.4437 33.4472C56.9685 34.4484 59.2583 35.8623 61.2858 37.7076C61.6362 38.0265 61.8667 38.078 62.1764 37.6748C62.4137 37.3606 62.7053 37.0722 62.9992 36.8142C63.3088 36.5446 63.284 36.3687 62.9811 36.1061C61.7695 35.0182 60.4834 34.0404 59.1068 33.1916C56.3469 31.4846 53.37 30.3779 50.2123 29.8128C49.5749 29.6909 49.5613 29.712 49.5613 30.3943V33.7403V33.7379ZM40.1402 32.5726C40.1402 33.7309 40.1266 34.8446 40.1492 35.9561C40.1492 36.5188 39.9029 37.2597 40.2645 37.6138C40.5923 37.9374 41.2975 37.6607 41.8264 37.717C42.3192 37.7662 42.4051 37.5552 42.3983 37.0933C42.3825 34.854 42.3915 32.6148 42.3915 30.3755C42.3915 29.6956 42.3847 29.6956 41.736 29.8105C37.1949 30.6335 33.1376 32.5585 29.5821 35.5903C28.9401 36.1374 28.9062 36.7079 29.4803 37.3019C29.6295 37.4543 29.7855 37.5903 29.9143 37.7521C30.1336 38.0382 30.3076 38.0499 30.5811 37.792C31.5033 36.9455 32.4889 36.1952 33.5264 35.5176C35.5652 34.1928 37.7555 33.2174 40.1402 32.5655V32.5726ZM42.3915 78.4007C42.3915 77.648 42.4028 76.8977 42.3847 76.1497C42.3666 75.5588 42.6379 74.7851 42.2627 74.4381C41.9033 74.1028 41.1664 74.3818 40.5923 74.3349C40.2103 74.3021 40.1266 74.4639 40.1334 74.832C40.1492 76.1732 40.1131 77.5214 40.1492 78.8626C40.1673 79.3808 40.0543 79.4605 39.5774 79.3151C36.2275 78.2999 33.2212 76.6351 30.5992 74.2481C30.3054 73.9761 30.1313 73.9785 29.8872 74.2763C29.616 74.5952 29.3266 74.8976 29.017 75.1696C28.6824 75.4651 28.6756 75.655 29.026 75.9645C32.7737 79.3034 37.0706 81.4418 41.9688 82.2601C42.3621 82.3281 42.3983 82.1968 42.396 81.8615C42.3847 80.7056 42.3915 79.552 42.3915 78.4007Z" fill="#AD9F95" fill-opacity="0.7"/>
</svg>
